<?xml version="1.0" encoding="UTF-8" standalone="no"?>
<!-- Created with Inkscape (http://www.inkscape.org/) -->

<svg
   xmlns:dc="http://purl.org/dc/elements/1.1/"
   xmlns:cc="http://creativecommons.org/ns#"
   xmlns:rdf="http://www.w3.org/1999/02/22-rdf-syntax-ns#"
   xmlns:svg="http://www.w3.org/2000/svg"
   xmlns="http://www.w3.org/2000/svg"
   xmlns:sodipodi="http://sodipodi.sourceforge.net/DTD/sodipodi-0.dtd"
   xmlns:inkscape="http://www.inkscape.org/namespaces/inkscape"
   id="svg1950"
   sodipodi:docname="glombool-Cessna-Plane.svg"
   inkscape:export-filename="H:\Graphics\Drawings\clipart project\objects\plane.png"
   viewBox="0 0 368.73 193.05"
   sodipodi:version="0.32"
   inkscape:export-xdpi="100"
   version="1.0"
   inkscape:output_extension="org.inkscape.output.svg.inkscape"
   inkscape:export-ydpi="100"
   inkscape:version="0.48.5 r10040"
   width="100%"
   height="100%">
  <defs
     id="defs1953">
    <linearGradient
       id="linearGradient13096">
      <stop
         id="stop13098"
         style="stop-color:white"
         offset="0" />
      <stop
         id="stop13100"
         style="stop-color:#c1d9ee"
         offset="1" />
    </linearGradient>
    <filter
       id="filter4454"
       inkscape:collect="always">
      <feGaussianBlur
         id="feGaussianBlur4456"
         stdDeviation="0.35692488"
         inkscape:collect="always" />
    </filter>
    <filter
       id="filter4614"
       inkscape:collect="always">
      <feGaussianBlur
         id="feGaussianBlur4616"
         stdDeviation="0.64692998"
         inkscape:collect="always" />
    </filter>
    <filter
       id="filter4622"
       height="1.036"
       width="1.3205"
       y="-.018022"
       x="-.16025"
       inkscape:collect="always">
      <feGaussianBlur
         id="feGaussianBlur4624"
         stdDeviation="0.3736861"
         inkscape:collect="always" />
    </filter>
  </defs>
  <sodipodi:namedview
     id="base"
     bordercolor="#666666"
     inkscape:pageshadow="2"
     guidetolerance="10.0"
     pagecolor="#ffffff"
     gridtolerance="10.0"
     inkscape:zoom="1.4733455"
     objecttolerance="10.0"
     borderopacity="1.0"
     inkscape:current-layer="g13128"
     inkscape:cx="248.75975"
     inkscape:cy="138.3703"
     inkscape:window-y="-8"
     inkscape:window-x="-8"
     inkscape:window-height="803"
     inkscape:pageopacity="0.0"
     inkscape:window-width="1536"
     showgrid="false"
     inkscape:window-maximized="1" />
  <g
     id="g13128"
     transform="translate(-178.57 -278.33)">
    <path
       id="path3236"
       sodipodi:nodetypes="csccsssssccscsscccsccsssssccssccsccsscssccsc"
       style="fill:#000000;fill-rule:evenodd;stroke:#000000"
       d="m 545.8,321.37 c 0,0 -9.93,-11.29 -24.38,-11.29 -14.45,0 -5.42,6.77 -5.42,6.77 l -69.98,37.93 c 0,0 -18.64,-11.51 -35.32,-13.89 -19.49,-2.78 -32.85,-2.98 -107.36,3.95 -19.42,1.81 -43.8,-9.93 -47.41,-14.44 -3.62,-4.52 -16.26,-25.74 -21.23,-37.03 -4.96,-11.29 -21.67,-13.54 -27.09,-13.54 -5.41,0 14.9,74.05 14.9,74.05 l -42.44,18.06 c 0,0 18.06,6.77 21.67,5.41 3.62,-1.35 38.38,-12.64 38.38,-12.64 0,0 35.22,6.32 40.19,9.03 4.97,2.71 37.47,13.55 45.6,20.32 8.13,6.77 23.93,10.39 23.93,10.39 L 204.9,458.63 c 0,0 9.49,6.32 14.45,4.97 1.81,0.45 27.55,8.12 31.16,5.86 3.61,-2.25 108.36,-35.67 108.36,-35.67 l -3.61,7.23 c 0,0 -13.54,3.16 -17.61,3.16 -4.06,0 -7.67,-0.9 -5.87,2.71 1.81,3.61 11.29,6.32 14,10.38 2.71,4.07 21.67,5.87 24.38,0.91 2.71,-4.97 -0.9,-10.39 -3.61,-13.1 -2.71,-2.71 4.97,-15.35 4.97,-15.35 l 34.76,-11.29 c 0,0 49.22,7.23 52.38,5.87 3.16,-1.35 5.42,2.71 10.84,1.81 5.41,-0.9 10.38,-3.16 10.38,-3.16 l 12.64,17.61 c 0,0 -17.15,-4.07 -21.67,-3.61 -4.51,0.45 -8.58,-2.26 -8.58,-2.26 l 0,4.96 c 0,0 13.1,7.68 15.35,12.2 2.26,4.51 22.13,8.57 27.09,3.61 4.97,-4.97 -18.51,-32.96 -18.51,-32.96 0,0 21.68,-7.23 24.38,-9.49 2.71,-2.25 19.42,-2.25 23.03,-5.41 3.61,-3.16 -17.16,-13.1 -17.16,-13.1 l 0.91,-2.71 c 0,0 -31.16,-15.8 -37.48,-16.7 -6.32,-0.91 65.92,-52.83 65.92,-53.73 z"
       inkscape:connector-curvature="0" />
    <path
       id="path3247"
       style="fill:#ffffff;fill-rule:evenodd;stroke:#000000;stroke-width:0.57206999999999997"
       d="m 400.77,356.27 -21.87,-3.52 c 0,0 -4.15,-0.63 -4.15,4.15 0,4.79 2.56,18.36 2.88,19 0.32,0.64 1.11,2.72 2.71,3.03 1.6,0.32 24.59,3.84 24.59,3.84 0,0 2.39,0.47 2.23,-1.92 -0.16,-2.39 -2.55,-9.42 -2.55,-9.42"
       inkscape:connector-curvature="0" />
    <path
       id="path3249"
       sodipodi:nodetypes="csscs"
       style="fill:#ffffff;fill-rule:evenodd;stroke:#000000;stroke-width:0.57206999999999997"
       d="m 367.89,356.09 c 0.48,-2.72 -2.87,-3.84 -2.87,-3.84 0,0 -21.55,1.44 -24.11,2.88 -2.55,1.44 -1.12,5.43 -0.8,8.62 0.32,3.19 5.59,5.43 5.59,5.43 0,0 15.69,4.46 20.44,4.8"
       inkscape:connector-curvature="0" />
    <path
       id="path3251"
       style="fill:#000000;fill-rule:evenodd"
       d="m 442.44,399.85 c 0,0 -55.55,-9.1 -62.74,-10.86 -7.18,-1.75 -50.76,-12.77 -54.75,-16.44 -3.99,-3.67 -1.12,0.16 0,0.8 1.11,0.64 20.27,8.62 30.65,11.49 10.37,2.87 84.29,15.17 86.84,15.01 z"
       inkscape:connector-curvature="0" />
    <path
       id="path4138"
       style="fill:#ffffff;fill-rule:evenodd"
       d="m 490.61,408.87 c 0,0 -124.2,-17.88 -131.22,-20.44 -7.02,-2.55 -28.42,-8.94 -42.14,-14.04 -13.73,-5.11 -53.64,-15.65 -56.2,-15.33 -2.55,0.32 -4.15,2.55 -4.15,2.55 l 17.56,6.07 c 0,0 15.97,7.66 24.59,11.49 8.62,3.84 185.5,31.61 188.05,31.29 2.55,-0.32 2.87,-1.59 3.51,-1.59 z"
       inkscape:connector-curvature="0" />
    <path
       id="path5026"
       style="fill:none;stroke:#000000;stroke-width:2"
       d="m 512.84,393.16 c 0,0 -6.77,8.58 -3.61,15.8"
       inkscape:connector-curvature="0" />
    <path
       id="path5028"
       style="fill:none;stroke:#000000;stroke-width:0.57207"
       d="m 412.83,414.38 c -0.9,-1.58 -25.29,-14.68 -49.89,-12.87"
       inkscape:connector-curvature="0" />
    <path
       id="path5048"
       sodipodi:nodetypes="csc"
       style="opacity:0.32972999;fill:none;stroke:#000000;stroke-width:0.57207;filter:url(#filter4454)"
       d="m 483.86,362.51 c -2.12,-1.07 -1.78,-4.81 2.64,-6.98 3.87,-1.9 7.39,-2.56 14.29,-3.03"
       inkscape:connector-curvature="0"
       transform="matrix(-1,0,0,1,725.87,0)" />
    <path
       id="path5052"
       sodipodi:nodetypes="cs"
       style="fill:none;stroke:#000000"
       d="m 479.65,374.96 c 0,0 -14.51,-4.22 -16.14,-4.34"
       inkscape:connector-curvature="0" />
    <path
       id="path3245"
       sodipodi:nodetypes="cssssscc"
       style="fill:#ffffff;fill-rule:evenodd;stroke:#000000;stroke-width:0.57206999999999997"
       d="m 463.51,370.63 c 0,0 -2.23,2.72 -7.18,4.63 -4.95,1.92 -29.22,8.46 -32.73,8.62 -3.51,0.16 -7.18,1.6 -8.14,-2.23 -0.96,-3.83 -3.83,-17.08 -3.83,-18.52 0,-1.44 -0.64,-6.07 1.12,-6.7 1.75,-0.64 21.01,-3.86 23.41,-6.41 11.55,3.36 20.19,11.2 27.35,20.61 z"
       inkscape:connector-curvature="0" />
  </g>
  <metadata
     id="metadata36">
    <rdf:RDF>
      <cc:Work>
        <dc:format>image/svg+xml</dc:format>
        <dc:type
           rdf:resource="http://purl.org/dc/dcmitype/StillImage" />
        <cc:license
           rdf:resource="http://creativecommons.org/licenses/publicdomain/" />
        <dc:publisher>
          <cc:Agent
             rdf:about="http://openclipart.org/">
            <dc:title>Openclipart</dc:title>
          </cc:Agent>
        </dc:publisher>
        <dc:title>Cessna Plane</dc:title>
        <dc:date>2007-11-16T15:25:57</dc:date>
        <dc:description>A Cessna airplane</dc:description>
        <dc:source>https://openclipart.org/detail/8620/cessna-plane-by-glombool</dc:source>
        <dc:creator>
          <cc:Agent>
            <dc:title>glombool</dc:title>
          </cc:Agent>
        </dc:creator>
        <dc:subject>
          <rdf:Bag>
            <rdf:li>aircraft</rdf:li>
            <rdf:li>airplane</rdf:li>
            <rdf:li>flight</rdf:li>
            <rdf:li>plane</rdf:li>
          </rdf:Bag>
        </dc:subject>
      </cc:Work>
      <cc:License
         rdf:about="http://creativecommons.org/licenses/publicdomain/">
        <cc:permits
           rdf:resource="http://creativecommons.org/ns#Reproduction" />
        <cc:permits
           rdf:resource="http://creativecommons.org/ns#Distribution" />
        <cc:permits
           rdf:resource="http://creativecommons.org/ns#DerivativeWorks" />
      </cc:License>
    </rdf:RDF>
  </metadata>
</svg>
