<svg width="80" height="107" viewBox="0 0 107 107" fill="none" xmlns="http://www.w3.org/2000/svg">
<g id="Aero-stub_img 1" clip-path="url(#clip0)">
<g id="Group">
<g id="Vector" filter="url(#filter0_f)">
<path d="M80.8885 57.3631C80.8885 57.0058 80.6428 56.7946 78.6933 56.0788C78.4632 55.9943 77.4819 55.8238 77.4819 55.8238C77.4819 55.8238 77.4545 55.2519 77.4545 55.1042C77.4545 54.8187 77.2 54.4326 76.8898 54.2389C75.9275 53.6379 70.631 52.6995 68.1911 52.6995C66.6769 52.6995 65.7695 52.5726 65.586 52.3352C65.4313 52.1348 64.9541 51.084 64.5294 50.0034C63.7802 48.0968 63.7357 47.6188 62.9992 33.8265C62.416 22.9044 62.1414 19.4662 61.8151 18.9522C60.9104 17.5271 58.8201 17.4528 54.8652 18.7063L52.8249 19.353L47.2596 52.9728L26.5922 55.7964L26.3827 55.0495C26.269 54.639 25.9657 51.8809 25.7087 48.9195C25.4516 45.958 25.1043 43.3676 24.9344 43.1628C24.2515 42.3399 18.8681 42.9866 18.8681 43.8915C18.8681 45.3198 18.158 50.6006 17.9299 50.8778C17.7671 51.0757 17.1557 55.614 17.1557 57.3631C17.1557 59.1122 17.7671 63.6505 17.9299 63.8484C18.158 64.1256 18.8681 69.4064 18.8681 70.8347C18.8681 71.7396 24.2515 72.3863 24.9345 71.5634C25.1043 71.3587 25.4516 68.7682 25.7087 65.8068C25.9658 62.8453 26.269 60.0873 26.3827 59.6767L26.5922 58.9298L47.2596 61.7534C47.2596 61.7534 52.8249 95.3732 52.8249 95.3732L54.8653 96.0199C58.8201 97.2734 60.9104 97.1992 61.8151 95.774C62.1414 95.26 62.416 91.8219 62.9992 80.8997C63.7357 67.1075 63.7802 66.6295 64.5295 64.7229C64.9541 63.6423 65.4313 62.5915 65.586 62.3911C65.7695 62.1536 66.677 62.0267 68.1911 62.0267C70.631 62.0267 75.9275 61.0884 76.8898 60.4874C77.2 60.2937 77.4545 59.9076 77.4545 59.6221C77.4545 59.4744 77.4819 58.9116 77.4819 58.9116C77.4819 58.9116 78.4632 58.741 78.6933 58.6565C80.6428 57.9408 80.8885 57.7204 80.8885 57.3631Z" fill="black" fill-opacity="0.2"/>
</g>
<path id="Vector_2" d="M81.3665 48.7029C81.3665 48.3456 81.1208 48.1344 79.1713 47.4186C78.9412 47.3341 77.9599 47.1636 77.9599 47.1636C77.9599 47.1636 77.9326 46.5917 77.9326 46.444C77.9326 46.1585 77.678 45.7724 77.3678 45.5787C76.4055 44.9777 71.1091 44.0393 68.6691 44.0393C67.155 44.0393 66.2475 43.9124 66.0641 43.675C65.9093 43.4746 65.4321 42.4238 65.0075 41.3432C64.2582 39.4366 64.2137 38.9586 63.4772 25.1663C62.894 14.2442 62.6194 10.806 62.2931 10.292C61.3884 8.86685 59.2981 8.79265 55.3433 10.0461L53.303 10.6928L47.7376 44.3126L27.0702 47.1362L26.8607 46.3893C26.7471 45.9788 26.4438 43.2207 26.1867 40.2593C25.9296 37.2978 25.5824 34.7073 25.4125 34.5026C24.7295 33.6797 19.3462 34.3264 19.3462 35.2313C19.3462 36.6596 18.636 41.9404 18.408 42.2176C18.2452 42.4155 17.6337 46.9538 17.6337 48.7029C17.6337 50.452 18.2452 54.9903 18.408 55.1882C18.636 55.4654 19.3462 60.7462 19.3462 62.1745C19.3462 63.0794 24.7295 63.7261 25.4125 62.9032C25.5824 62.6985 25.9296 60.108 26.1867 57.1466C26.4438 54.1851 26.7471 51.427 26.8607 51.0165L27.0702 50.2696L47.7376 53.0933C47.7376 53.0933 53.303 86.713 53.303 86.713L55.3433 87.3597C59.2981 88.6132 61.3884 88.539 62.2931 87.1138C62.6194 86.5998 62.894 83.1617 63.4772 72.2395C64.2137 58.4473 64.2582 57.9693 65.0075 56.0627C65.4321 54.9821 65.9093 53.9313 66.0641 53.7309C66.2475 53.4934 67.155 53.3665 68.6691 53.3665C71.1091 53.3665 76.4055 52.4282 77.3678 51.8272C77.678 51.6335 77.9326 51.2474 77.9326 50.9619C77.9326 50.8142 77.9599 50.2514 77.9599 50.2514C77.9599 50.2514 78.9412 50.0808 79.1713 49.9963C81.1208 49.2806 81.3665 49.0602 81.3665 48.7029Z" fill="#505050"/>
</g>
</g>
<defs>
<filter id="filter0_f" x="4.31101" y="8.88013" width="96.966" height="96.966" filterUnits="userSpaceOnUse" color-interpolation-filters="sRGB">
<feFlood flood-opacity="0" result="BackgroundImageFix"/>
<feBlend mode="normal" in="SourceGraphic" in2="BackgroundImageFix" result="shape"/>
<feGaussianBlur stdDeviation="0.4858" result="effect1_foregroundBlur"/>
</filter>
<clipPath id="clip0">
<rect width="75" height="75" fill="white" transform="translate(53.033) rotate(45)"/>
</clipPath>
</defs>
</svg>
