<?xml version="1.0" encoding="UTF-8" standalone="no"?>
<!-- Created with Inkscape (http://www.inkscape.org/) -->

<svg
   xmlns:dc="http://purl.org/dc/elements/1.1/"
   xmlns:cc="http://creativecommons.org/ns#"
   xmlns:rdf="http://www.w3.org/1999/02/22-rdf-syntax-ns#"
   xmlns:svg="http://www.w3.org/2000/svg"
   xmlns="http://www.w3.org/2000/svg"
   xmlns:sodipodi="http://sodipodi.sourceforge.net/DTD/sodipodi-0.dtd"
   xmlns:inkscape="http://www.inkscape.org/namespaces/inkscape"
   id="svg2"
   version="1.1"
   inkscape:version="0.48.3.1 r9886"
   width="320"
   height="360"
   sodipodi:docname="CloudsCuteCSSsprites.svg"
   inkscape:export-filename="/home/yug/Documents/Studies/Zh PhD S1/4. Coding/Zh Flying zi/3.hard/CloudsCuteCSSsprites.png"
   inkscape:export-xdpi="103.84615"
   inkscape:export-ydpi="103.84615">
  <metadata
     id="metadata8">
    <rdf:RDF>
      <cc:Work
         rdf:about="">
        <dc:format>image/svg+xml</dc:format>
        <dc:type
           rdf:resource="http://purl.org/dc/dcmitype/StillImage" />
        <dc:title></dc:title>
      </cc:Work>
    </rdf:RDF>
  </metadata>
  <defs
     id="defs6">
    <filter
       color-interpolation-filters="sRGB"
       inkscape:collect="always"
       id="filter3843-4-9"
       x="-0.57534248"
       width="2.1506848"
       y="-0.62686568"
       height="2.2537315">
      <feGaussianBlur
         inkscape:collect="always"
         stdDeviation="9.8014798"
         id="feGaussianBlur3845-7-1" />
    </filter>
  </defs>
  <sodipodi:namedview
     pagecolor="#ffffff"
     bordercolor="#666666"
     borderopacity="1"
     objecttolerance="10"
     gridtolerance="10"
     guidetolerance="10"
     inkscape:pageopacity="0"
     inkscape:pageshadow="2"
     inkscape:window-width="1920"
     inkscape:window-height="1056"
     id="namedview4"
     showgrid="false"
     showguides="true"
     inkscape:guide-bbox="true"
     inkscape:zoom="1.7854446"
     inkscape:cx="130.9667"
     inkscape:cy="171.23021"
     inkscape:window-x="0"
     inkscape:window-y="24"
     inkscape:window-maximized="1"
     inkscape:current-layer="g3923"
     fit-margin-top="0"
     fit-margin-left="0"
     fit-margin-right="0"
     fit-margin-bottom="0" />
  <g
     id="g3923"
     transform="matrix(-1,0,0,1,131.48025,38.316831)">
    <g
       id="g3773"
       transform="matrix(1.2307692,0,0,1.0909091,-30.341598,-29.243924)">
      <rect
         style="opacity:0.01000001;fill:#deaa87;fill-opacity:1;stroke:none"
         id="rect3767"
         width="130"
         height="110"
         x="1.4802577"
         y="-8.3168316" />
      <g
         id="g3769"
         transform="matrix(1.0322865,0,0,1.0751207,3.1551607,-6.78369)">
        <path
           transform="matrix(0.96709183,0,0,0.96709183,2.193535,2.0254204)"
           d="M 46.84375,-0.46875 46.84375,-0.4375 C 30.273123,-0.29592961 15.964538,12.998392 15.25,29.75 14.909088,31.298531 14.833075,32.590858 14.90625,33.5625 -3.7794314,43.612574 -6.1716777,72.981794 12.875,84.25 12.887283,84.257872 12.893963,84.273404 12.90625,84.28125 12.992974,84.332368 13.068641,84.387138 13.15625,84.4375 L 13.1875,84.40625 C 19.369399,88.246203 26.055986,88.787411 31.78125,88.6875 37.601491,88.585931 42.813513,88.00829 46.8125,88.4375 A 6.8701819,6.8701819 0 0 0 47.65625,88.46875 C 64.466204,88.15488 81.933449,89.100176 99.5,87.96875 A 6.8701819,6.8701819 0 0 0 101.0625,87.6875 C 115.68975,83.243715 126.25538,67.67202 121.46875,51.9375 121.46629,51.928241 121.47122,51.915508 121.46875,51.90625 121.44291,51.82164 121.43299,51.740866 121.40625,51.65625 L 121.375,51.65625 C 119.32903,44.241499 114.4327,37.165721 107.03125,33.5 105.9432,19.197794 92.305945,7.5676194 77.59375,10.71875 L 77.59375,10.6875 C 76.372937,10.725708 75.367579,10.889318 74.5,11.125 67.730016,2.9842368 57.241033,-0.81098311 47.1875,-0.46875 47.177142,-0.46839742 47.166607,-0.46911132 47.15625,-0.46875 47.052683,-0.46513676 46.947219,-0.47323695 46.84375,-0.46875 z"
           id="path2993"
           style="fill:#ffffff;fill-opacity:1;stroke:#333333;stroke-width:5.17013979;stroke-miterlimit:4;stroke-opacity:1;stroke-dasharray:none"
           inkscape:original="M 47.15625 6.40625 C 34.017587 6.3712955 22.209992 17.453777 22.03125 30.71875 C 21.193418 33.666955 23.97327 38.428594 19.75 38.75 C 4.4434503 45.31449 1.7644115 69.944063 16.59375 78.46875 C 25.785956 84.360338 37.291062 80.494675 47.53125 81.59375 C 64.680596 81.273543 82.048595 82.220831 99.0625 81.125 C 110.28493 77.715605 118.54566 65.434894 114.84375 53.71875 C 112.94303 46.574264 107.52414 39.811444 100.0625 38.1875 C 102.11814 26.019367 89.936554 13.999966 77.8125 17.5625 C 75.007489 17.650288 72.102939 22.257123 71.0625 18.03125 C 66.067737 10.018031 56.389623 6.005843 47.15625 6.40625 z "
           inkscape:radius="6.8694949"
           sodipodi:type="inkscape:offset" />
        <path
           sodipodi:nodetypes="cccccc"
           inkscape:connector-curvature="0"
           id="path2987"
           d="M 24.531144,39.504065 C 18.430596,2.98235 63.742303,-0.19256779 71.51688,23.707137 81.097045,13.072104 100.95874,21.294148 97.845094,39.909114 113.30825,40.845124 124.01329,70.380691 97.440044,79.60396 L 24.531144,79.60396 C 0.08211023,73.351593 7.0310941,41.885564 24.531144,39.504065 z"
           style="fill:#333333;fill-opacity:1;stroke:none" />
      </g>
    </g>
    <g
       transform="matrix(1.2307692,0,0,1.0909091,-30.341598,90.756076)"
       id="g3797">
      <rect
         y="-8.3168316"
         x="1.4802577"
         height="110"
         width="130"
         id="rect3799"
         style="opacity:0.01000001;fill:#ff8080;fill-opacity:1;stroke:none" />
      <g
         transform="matrix(1.0322865,0,0,1.0751207,3.1551607,-6.78369)"
         id="g3801">
        <path
           sodipodi:type="inkscape:offset"
           inkscape:radius="6.8694949"
           inkscape:original="M 47.15625 6.40625 C 34.017587 6.3712955 22.209992 17.453777 22.03125 30.71875 C 21.193418 33.666955 23.97327 38.428594 19.75 38.75 C 4.4434503 45.31449 1.7644115 69.944063 16.59375 78.46875 C 25.785956 84.360338 37.291062 80.494675 47.53125 81.59375 C 64.680596 81.273543 82.048595 82.220831 99.0625 81.125 C 110.28493 77.715605 118.54566 65.434894 114.84375 53.71875 C 112.94303 46.574264 107.52414 39.811444 100.0625 38.1875 C 102.11814 26.019367 89.936554 13.999966 77.8125 17.5625 C 75.007489 17.650288 72.102939 22.257123 71.0625 18.03125 C 66.067737 10.018031 56.389623 6.005843 47.15625 6.40625 z "
           style="fill:#ffffff;fill-opacity:1;stroke:#333333;stroke-width:5.17013979;stroke-miterlimit:4;stroke-opacity:1;stroke-dasharray:none"
           id="path3803"
           d="M 46.84375,-0.46875 46.84375,-0.4375 C 30.273123,-0.29592961 15.964538,12.998392 15.25,29.75 14.909088,31.298531 14.833075,32.590858 14.90625,33.5625 -3.7794314,43.612574 -6.1716777,72.981794 12.875,84.25 12.887283,84.257872 12.893963,84.273404 12.90625,84.28125 12.992974,84.332368 13.068641,84.387138 13.15625,84.4375 L 13.1875,84.40625 C 19.369399,88.246203 26.055986,88.787411 31.78125,88.6875 37.601491,88.585931 42.813513,88.00829 46.8125,88.4375 A 6.8701819,6.8701819 0 0 0 47.65625,88.46875 C 64.466204,88.15488 81.933449,89.100176 99.5,87.96875 A 6.8701819,6.8701819 0 0 0 101.0625,87.6875 C 115.68975,83.243715 126.25538,67.67202 121.46875,51.9375 121.46629,51.928241 121.47122,51.915508 121.46875,51.90625 121.44291,51.82164 121.43299,51.740866 121.40625,51.65625 L 121.375,51.65625 C 119.32903,44.241499 114.4327,37.165721 107.03125,33.5 105.9432,19.197794 92.305945,7.5676194 77.59375,10.71875 L 77.59375,10.6875 C 76.372937,10.725708 75.367579,10.889318 74.5,11.125 67.730016,2.9842368 57.241033,-0.81098311 47.1875,-0.46875 47.177142,-0.46839742 47.166607,-0.46911132 47.15625,-0.46875 47.052683,-0.46513676 46.947219,-0.47323695 46.84375,-0.46875 z"
           transform="matrix(0.96709183,0,0,0.96709183,2.193535,2.0254204)" />
      </g>
    </g>
    <g
       id="g3807"
       transform="matrix(1.2307692,0,0,1.0909091,-30.341598,210.75608)">
      <rect
         style="opacity:0.01000001;fill:#d38d5f;fill-opacity:1;stroke:none"
         id="rect3809"
         width="130"
         height="110"
         x="1.4802577"
         y="-8.3168316" />
      <g
         id="g3811"
         transform="matrix(1.0322865,0,0,1.0751207,3.1551607,-6.78369)">
        <path
           transform="matrix(0.96709183,0,0,0.96709183,2.193535,2.0254204)"
           d="M 46.84375,-0.46875 46.84375,-0.4375 C 30.273123,-0.29592961 15.964538,12.998392 15.25,29.75 14.909088,31.298531 14.833075,32.590858 14.90625,33.5625 -3.7794314,43.612574 -6.1716777,72.981794 12.875,84.25 12.887283,84.257872 12.893963,84.273404 12.90625,84.28125 12.992974,84.332368 13.068641,84.387138 13.15625,84.4375 L 13.1875,84.40625 C 19.369399,88.246203 26.055986,88.787411 31.78125,88.6875 37.601491,88.585931 42.813513,88.00829 46.8125,88.4375 A 6.8701819,6.8701819 0 0 0 47.65625,88.46875 C 64.466204,88.15488 81.933449,89.100176 99.5,87.96875 A 6.8701819,6.8701819 0 0 0 101.0625,87.6875 C 115.68975,83.243715 126.25538,67.67202 121.46875,51.9375 121.46629,51.928241 121.47122,51.915508 121.46875,51.90625 121.44291,51.82164 121.43299,51.740866 121.40625,51.65625 L 121.375,51.65625 C 119.32903,44.241499 114.4327,37.165721 107.03125,33.5 105.9432,19.197794 92.305945,7.5676194 77.59375,10.71875 L 77.59375,10.6875 C 76.372937,10.725708 75.367579,10.889318 74.5,11.125 67.730016,2.9842368 57.241033,-0.81098311 47.1875,-0.46875 47.177142,-0.46839742 47.166607,-0.46911132 47.15625,-0.46875 47.052683,-0.46513676 46.947219,-0.47323695 46.84375,-0.46875 z"
           id="path3813"
           style="fill:#ffffff;fill-opacity:1;stroke:#808080;stroke-width:5.17013979;stroke-miterlimit:4;stroke-opacity:1;stroke-dasharray:none"
           inkscape:original="M 47.15625 6.40625 C 34.017587 6.3712955 22.209992 17.453777 22.03125 30.71875 C 21.193418 33.666955 23.97327 38.428594 19.75 38.75 C 4.4434503 45.31449 1.7644115 69.944063 16.59375 78.46875 C 25.785956 84.360338 37.291062 80.494675 47.53125 81.59375 C 64.680596 81.273543 82.048595 82.220831 99.0625 81.125 C 110.28493 77.715605 118.54566 65.434894 114.84375 53.71875 C 112.94303 46.574264 107.52414 39.811444 100.0625 38.1875 C 102.11814 26.019367 89.936554 13.999966 77.8125 17.5625 C 75.007489 17.650288 72.102939 22.257123 71.0625 18.03125 C 66.067737 10.018031 56.389623 6.005843 47.15625 6.40625 z "
           inkscape:radius="6.8694949"
           sodipodi:type="inkscape:offset" />
      </g>
    </g>
    <g
       transform="matrix(1.2307692,0,0,1.0909091,-190.3416,-29.243924)"
       id="g4239">
      <rect
         y="-8.3168316"
         x="1.4802577"
         height="110"
         width="130"
         id="rect4241"
         style="opacity:0.01;fill:#deaa87;fill-opacity:1;stroke:none" />
      <g
         transform="matrix(1.0322865,0,0,1.0751207,3.1551607,-6.78369)"
         id="g4243">
        <path
           sodipodi:type="inkscape:offset"
           inkscape:radius="6.8694949"
           inkscape:original="M 47.15625 6.40625 C 34.017587 6.3712955 22.209992 17.453777 22.03125 30.71875 C 21.193418 33.666955 23.97327 38.428594 19.75 38.75 C 4.4434503 45.31449 1.7644115 69.944063 16.59375 78.46875 C 25.785956 84.360338 37.291062 80.494675 47.53125 81.59375 C 64.680596 81.273543 82.048595 82.220831 99.0625 81.125 C 110.28493 77.715605 118.54566 65.434894 114.84375 53.71875 C 112.94303 46.574264 107.52414 39.811444 100.0625 38.1875 C 102.11814 26.019367 89.936554 13.999966 77.8125 17.5625 C 75.007489 17.650288 72.102939 22.257123 71.0625 18.03125 C 66.067737 10.018031 56.389623 6.005843 47.15625 6.40625 z "
           style="fill:#ffffff;fill-opacity:1;stroke:#333333;stroke-width:5.17013979;stroke-miterlimit:4;stroke-opacity:1;stroke-dasharray:none"
           id="path4245"
           d="M 46.84375,-0.46875 46.84375,-0.4375 C 30.273123,-0.29592961 15.964538,12.998392 15.25,29.75 14.909088,31.298531 14.833075,32.590858 14.90625,33.5625 -3.7794314,43.612574 -6.1716777,72.981794 12.875,84.25 12.887283,84.257872 12.893963,84.273404 12.90625,84.28125 12.992974,84.332368 13.068641,84.387138 13.15625,84.4375 L 13.1875,84.40625 C 19.369399,88.246203 26.055986,88.787411 31.78125,88.6875 37.601491,88.585931 42.813513,88.00829 46.8125,88.4375 A 6.8701819,6.8701819 0 0 0 47.65625,88.46875 C 64.466204,88.15488 81.933449,89.100176 99.5,87.96875 A 6.8701819,6.8701819 0 0 0 101.0625,87.6875 C 115.68975,83.243715 126.25538,67.67202 121.46875,51.9375 121.46629,51.928241 121.47122,51.915508 121.46875,51.90625 121.44291,51.82164 121.43299,51.740866 121.40625,51.65625 L 121.375,51.65625 C 119.32903,44.241499 114.4327,37.165721 107.03125,33.5 105.9432,19.197794 92.305945,7.5676194 77.59375,10.71875 L 77.59375,10.6875 C 76.372937,10.725708 75.367579,10.889318 74.5,11.125 67.730016,2.9842368 57.241033,-0.81098311 47.1875,-0.46875 47.177142,-0.46839742 47.166607,-0.46911132 47.15625,-0.46875 47.052683,-0.46513676 46.947219,-0.47323695 46.84375,-0.46875 z"
           transform="matrix(0.96709183,0,0,0.96709183,2.193535,2.0254204)" />
        <path
           style="fill:#333333;fill-opacity:1;stroke:none"
           d="M 24.531144,39.504065 C 18.430596,2.98235 63.742303,-0.19256779 71.51688,23.707137 81.097045,13.072104 100.95874,21.294148 97.845094,39.909114 113.30825,40.845124 124.01329,70.380691 97.440044,79.60396 L 24.531144,79.60396 C 0.08211023,73.351593 7.0310941,41.885564 24.531144,39.504065 z"
           id="path4247"
           inkscape:connector-curvature="0"
           sodipodi:nodetypes="cccccc" />
      </g>
    </g>
    <g
       id="g4249"
       transform="matrix(1.2307692,0,0,1.0909091,-190.3416,90.756076)">
      <rect
         style="opacity:0.01;fill:#ff8080;fill-opacity:1;stroke:none"
         id="rect4251"
         width="130"
         height="110"
         x="1.4802577"
         y="-8.3168316" />
      <g
         id="g4253"
         transform="matrix(1.0322865,0,0,1.0751207,3.1551607,-6.78369)">
        <path
           transform="matrix(0.96709183,0,0,0.96709183,2.193535,2.0254204)"
           d="M 46.84375,-0.46875 46.84375,-0.4375 C 30.273123,-0.29592961 15.964538,12.998392 15.25,29.75 14.909088,31.298531 14.833075,32.590858 14.90625,33.5625 -3.7794314,43.612574 -6.1716777,72.981794 12.875,84.25 12.887283,84.257872 12.893963,84.273404 12.90625,84.28125 12.992974,84.332368 13.068641,84.387138 13.15625,84.4375 L 13.1875,84.40625 C 19.369399,88.246203 26.055986,88.787411 31.78125,88.6875 37.601491,88.585931 42.813513,88.00829 46.8125,88.4375 A 6.8701819,6.8701819 0 0 0 47.65625,88.46875 C 64.466204,88.15488 81.933449,89.100176 99.5,87.96875 A 6.8701819,6.8701819 0 0 0 101.0625,87.6875 C 115.68975,83.243715 126.25538,67.67202 121.46875,51.9375 121.46629,51.928241 121.47122,51.915508 121.46875,51.90625 121.44291,51.82164 121.43299,51.740866 121.40625,51.65625 L 121.375,51.65625 C 119.32903,44.241499 114.4327,37.165721 107.03125,33.5 105.9432,19.197794 92.305945,7.5676194 77.59375,10.71875 L 77.59375,10.6875 C 76.372937,10.725708 75.367579,10.889318 74.5,11.125 67.730016,2.9842368 57.241033,-0.81098311 47.1875,-0.46875 47.177142,-0.46839742 47.166607,-0.46911132 47.15625,-0.46875 47.052683,-0.46513676 46.947219,-0.47323695 46.84375,-0.46875 z"
           id="path4255"
           style="fill:#ffffff;fill-opacity:1;stroke:#333333;stroke-width:5.17013979;stroke-miterlimit:4;stroke-opacity:1;stroke-dasharray:none"
           inkscape:original="M 47.15625 6.40625 C 34.017587 6.3712955 22.209992 17.453777 22.03125 30.71875 C 21.193418 33.666955 23.97327 38.428594 19.75 38.75 C 4.4434503 45.31449 1.7644115 69.944063 16.59375 78.46875 C 25.785956 84.360338 37.291062 80.494675 47.53125 81.59375 C 64.680596 81.273543 82.048595 82.220831 99.0625 81.125 C 110.28493 77.715605 118.54566 65.434894 114.84375 53.71875 C 112.94303 46.574264 107.52414 39.811444 100.0625 38.1875 C 102.11814 26.019367 89.936554 13.999966 77.8125 17.5625 C 75.007489 17.650288 72.102939 22.257123 71.0625 18.03125 C 66.067737 10.018031 56.389623 6.005843 47.15625 6.40625 z "
           inkscape:radius="6.8694949"
           sodipodi:type="inkscape:offset" />
      </g>
    </g>
    <g
       transform="matrix(1.2307692,0,0,1.0909091,-190.3416,210.75608)"
       id="g4257">
      <rect
         y="-8.3168316"
         x="1.4802577"
         height="110"
         width="130"
         id="rect4259"
         style="opacity:0.01;fill:#d38d5f;fill-opacity:1;stroke:none" />
      <g
         transform="matrix(1.0322865,0,0,1.0751207,3.1551607,-6.78369)"
         id="g4261">
        <path
           sodipodi:type="inkscape:offset"
           inkscape:radius="6.8694949"
           inkscape:original="M 47.15625 6.40625 C 34.017587 6.3712955 22.209992 17.453777 22.03125 30.71875 C 21.193418 33.666955 23.97327 38.428594 19.75 38.75 C 4.4434503 45.31449 1.7644115 69.944063 16.59375 78.46875 C 25.785956 84.360338 37.291062 80.494675 47.53125 81.59375 C 64.680596 81.273543 82.048595 82.220831 99.0625 81.125 C 110.28493 77.715605 118.54566 65.434894 114.84375 53.71875 C 112.94303 46.574264 107.52414 39.811444 100.0625 38.1875 C 102.11814 26.019367 89.936554 13.999966 77.8125 17.5625 C 75.007489 17.650288 72.102939 22.257123 71.0625 18.03125 C 66.067737 10.018031 56.389623 6.005843 47.15625 6.40625 z "
           style="fill:#ffffff;fill-opacity:1;stroke:#808080;stroke-width:5.17013979;stroke-miterlimit:4;stroke-opacity:1;stroke-dasharray:none"
           id="path4263"
           d="M 46.84375,-0.46875 46.84375,-0.4375 C 30.273123,-0.29592961 15.964538,12.998392 15.25,29.75 14.909088,31.298531 14.833075,32.590858 14.90625,33.5625 -3.7794314,43.612574 -6.1716777,72.981794 12.875,84.25 12.887283,84.257872 12.893963,84.273404 12.90625,84.28125 12.992974,84.332368 13.068641,84.387138 13.15625,84.4375 L 13.1875,84.40625 C 19.369399,88.246203 26.055986,88.787411 31.78125,88.6875 37.601491,88.585931 42.813513,88.00829 46.8125,88.4375 A 6.8701819,6.8701819 0 0 0 47.65625,88.46875 C 64.466204,88.15488 81.933449,89.100176 99.5,87.96875 A 6.8701819,6.8701819 0 0 0 101.0625,87.6875 C 115.68975,83.243715 126.25538,67.67202 121.46875,51.9375 121.46629,51.928241 121.47122,51.915508 121.46875,51.90625 121.44291,51.82164 121.43299,51.740866 121.40625,51.65625 L 121.375,51.65625 C 119.32903,44.241499 114.4327,37.165721 107.03125,33.5 105.9432,19.197794 92.305945,7.5676194 77.59375,10.71875 L 77.59375,10.6875 C 76.372937,10.725708 75.367579,10.889318 74.5,11.125 67.730016,2.9842368 57.241033,-0.81098311 47.1875,-0.46875 47.177142,-0.46839742 47.166607,-0.46911132 47.15625,-0.46875 47.052683,-0.46513676 46.947219,-0.47323695 46.84375,-0.46875 z"
           transform="matrix(0.96709183,0,0,0.96709183,2.193535,2.0254204)" />
      </g>
    </g>
    <g
       transform="matrix(0.27387402,0,0,0.27387402,-185.91768,-13.605444)"
       id="g4271">
      <path
         style="fill:none;stroke:#000000;stroke-width:10.95394135;stroke-linecap:round;stroke-linejoin:miter;stroke-miterlimit:4;stroke-opacity:1;stroke-dasharray:none"
         d="M 285.08305,161.73006 C 295.11893,187.19634 342.45465,188.20507 355.09362,160.60989"
         id="path4273"
         inkscape:connector-curvature="0"
         sodipodi:nodetypes="cc" />
      <g
         id="g4275">
        <path
           transform="matrix(2.0958904,0,0,2.0958904,-229.55796,-67.369779)"
           d="M 250.35781,80.237755 C 250.35781,90.600181 241.20512,99.000587 229.91472,99.000587 218.62431,99.000587 209.47163,90.600181 209.47163,80.237755 209.47163,69.875328 218.62431,61.474922 229.91472,61.474922 241.20512,61.474922 250.35781,69.875328 250.35781,80.237755 z"
           sodipodi:ry="18.762833"
           sodipodi:rx="20.443087"
           sodipodi:cy="80.237755"
           sodipodi:cx="229.91472"
           id="path4277"
           style="fill:#000000;fill-opacity:1;stroke:none"
           sodipodi:type="arc" />
        <path
           sodipodi:type="arc"
           style="fill:#ffffff;fill-opacity:1;stroke:none"
           id="path4279"
           sodipodi:cx="229.91472"
           sodipodi:cy="80.237755"
           sodipodi:rx="20.443087"
           sodipodi:ry="18.762833"
           d="M 250.35781,80.237755 C 250.35781,90.600181 241.20512,99.000587 229.91472,99.000587 218.62431,99.000587 209.47163,90.600181 209.47163,80.237755 209.47163,69.875328 218.62431,61.474922 229.91472,61.474922 241.20512,61.474922 250.35781,69.875328 250.35781,80.237755 z"
           transform="matrix(0.91065216,0,0,0.91065216,57.361665,16.694341)" />
        <path
           transform="matrix(0.48395004,0,0,0.48395004,136.66213,77.651065)"
           d="M 250.35781,80.237755 C 250.35781,90.600181 241.20512,99.000587 229.91472,99.000587 218.62431,99.000587 209.47163,90.600181 209.47163,80.237755 209.47163,69.875328 218.62431,61.474922 229.91472,61.474922 241.20512,61.474922 250.35781,69.875328 250.35781,80.237755 z"
           sodipodi:ry="18.762833"
           sodipodi:rx="20.443087"
           sodipodi:cy="80.237755"
           sodipodi:cx="229.91472"
           id="path4281"
           style="fill:#ffffff;fill-opacity:1;stroke:none"
           sodipodi:type="arc" />
        <path
           inkscape:transform-center-y="17.922707"
           inkscape:transform-center-x="-17.362622"
           sodipodi:type="arc"
           style="opacity:0.5;fill:#ffffff;fill-opacity:1;stroke:none;filter:url(#filter3843-4-9)"
           id="path4283"
           sodipodi:cx="229.91472"
           sodipodi:cy="80.237755"
           sodipodi:rx="20.443087"
           sodipodi:ry="18.762833"
           d="M 250.35781,80.237755 C 250.35781,90.600181 241.20512,99.000587 229.91472,99.000587 218.62431,99.000587 209.47163,90.600181 209.47163,80.237755 209.47163,69.875328 218.62431,61.474922 229.91472,61.474922 241.20512,61.474922 250.35781,69.875328 250.35781,80.237755 z"
           transform="matrix(0.48395004,0,0,0.48395004,120.97977,51.32709)" />
      </g>
      <g
         id="g4285"
         transform="translate(141.7014,0)">
        <path
           sodipodi:type="arc"
           style="fill:#000000;fill-opacity:1;stroke:none"
           id="path4287"
           sodipodi:cx="229.91472"
           sodipodi:cy="80.237755"
           sodipodi:rx="20.443087"
           sodipodi:ry="18.762833"
           d="M 250.35781,80.237755 C 250.35781,90.600181 241.20512,99.000587 229.91472,99.000587 218.62431,99.000587 209.47163,90.600181 209.47163,80.237755 209.47163,69.875328 218.62431,61.474922 229.91472,61.474922 241.20512,61.474922 250.35781,69.875328 250.35781,80.237755 z"
           transform="matrix(2.0958904,0,0,2.0958904,-229.55796,-67.369779)" />
        <path
           transform="matrix(0.91065216,0,0,0.91065216,57.361665,16.694341)"
           d="M 250.35781,80.237755 C 250.35781,90.600181 241.20512,99.000587 229.91472,99.000587 218.62431,99.000587 209.47163,90.600181 209.47163,80.237755 209.47163,69.875328 218.62431,61.474922 229.91472,61.474922 241.20512,61.474922 250.35781,69.875328 250.35781,80.237755 z"
           sodipodi:ry="18.762833"
           sodipodi:rx="20.443087"
           sodipodi:cy="80.237755"
           sodipodi:cx="229.91472"
           id="path4289"
           style="fill:#ffffff;fill-opacity:1;stroke:none"
           sodipodi:type="arc" />
        <path
           sodipodi:type="arc"
           style="fill:#ffffff;fill-opacity:1;stroke:none"
           id="path4291"
           sodipodi:cx="229.91472"
           sodipodi:cy="80.237755"
           sodipodi:rx="20.443087"
           sodipodi:ry="18.762833"
           d="M 250.35781,80.237755 C 250.35781,90.600181 241.20512,99.000587 229.91472,99.000587 218.62431,99.000587 209.47163,90.600181 209.47163,80.237755 209.47163,69.875328 218.62431,61.474922 229.91472,61.474922 241.20512,61.474922 250.35781,69.875328 250.35781,80.237755 z"
           transform="matrix(0.48395004,0,0,0.48395004,136.66213,77.651065)" />
        <path
           transform="matrix(0.48395004,0,0,0.48395004,120.97977,51.32709)"
           d="M 250.35781,80.237755 C 250.35781,90.600181 241.20512,99.000587 229.91472,99.000587 218.62431,99.000587 209.47163,90.600181 209.47163,80.237755 209.47163,69.875328 218.62431,61.474922 229.91472,61.474922 241.20512,61.474922 250.35781,69.875328 250.35781,80.237755 z"
           sodipodi:ry="18.762833"
           sodipodi:rx="20.443087"
           sodipodi:cy="80.237755"
           sodipodi:cx="229.91472"
           id="path4293"
           style="opacity:0.5;fill:#ffffff;fill-opacity:1;stroke:none;filter:url(#filter3843-4-9)"
           sodipodi:type="arc"
           inkscape:transform-center-x="-17.362622"
           inkscape:transform-center-y="17.922707" />
      </g>
    </g>
    <g
       id="g4295"
       transform="matrix(0.27387402,0,0,0.27387402,-181.91768,104.39456)">
      <path
         sodipodi:nodetypes="cc"
         inkscape:connector-curvature="0"
         id="path4297"
         d="M 285.08305,161.73006 C 295.11893,187.19634 342.45465,188.20507 355.09362,160.60989"
         style="fill:none;stroke:#000000;stroke-width:10.95394135;stroke-linecap:round;stroke-linejoin:miter;stroke-miterlimit:4;stroke-opacity:1;stroke-dasharray:none" />
      <g
         id="g4299">
        <path
           sodipodi:type="arc"
           style="fill:#000000;fill-opacity:1;stroke:none"
           id="path4301"
           sodipodi:cx="229.91472"
           sodipodi:cy="80.237755"
           sodipodi:rx="20.443087"
           sodipodi:ry="18.762833"
           d="M 250.35781,80.237755 C 250.35781,90.600181 241.20512,99.000587 229.91472,99.000587 218.62431,99.000587 209.47163,90.600181 209.47163,80.237755 209.47163,69.875328 218.62431,61.474922 229.91472,61.474922 241.20512,61.474922 250.35781,69.875328 250.35781,80.237755 z"
           transform="matrix(2.0958904,0,0,2.0958904,-229.55796,-67.369779)" />
        <path
           transform="matrix(0.91065216,0,0,0.91065216,57.361665,16.694341)"
           d="M 250.35781,80.237755 C 250.35781,90.600181 241.20512,99.000587 229.91472,99.000587 218.62431,99.000587 209.47163,90.600181 209.47163,80.237755 209.47163,69.875328 218.62431,61.474922 229.91472,61.474922 241.20512,61.474922 250.35781,69.875328 250.35781,80.237755 z"
           sodipodi:ry="18.762833"
           sodipodi:rx="20.443087"
           sodipodi:cy="80.237755"
           sodipodi:cx="229.91472"
           id="path4303"
           style="fill:#ffffff;fill-opacity:1;stroke:none"
           sodipodi:type="arc" />
        <path
           sodipodi:type="arc"
           style="fill:#ffffff;fill-opacity:1;stroke:none"
           id="path4305"
           sodipodi:cx="229.91472"
           sodipodi:cy="80.237755"
           sodipodi:rx="20.443087"
           sodipodi:ry="18.762833"
           d="M 250.35781,80.237755 C 250.35781,90.600181 241.20512,99.000587 229.91472,99.000587 218.62431,99.000587 209.47163,90.600181 209.47163,80.237755 209.47163,69.875328 218.62431,61.474922 229.91472,61.474922 241.20512,61.474922 250.35781,69.875328 250.35781,80.237755 z"
           transform="matrix(0.48395004,0,0,0.48395004,136.66213,77.651065)" />
        <path
           transform="matrix(0.48395004,0,0,0.48395004,120.97977,51.32709)"
           d="M 250.35781,80.237755 C 250.35781,90.600181 241.20512,99.000587 229.91472,99.000587 218.62431,99.000587 209.47163,90.600181 209.47163,80.237755 209.47163,69.875328 218.62431,61.474922 229.91472,61.474922 241.20512,61.474922 250.35781,69.875328 250.35781,80.237755 z"
           sodipodi:ry="18.762833"
           sodipodi:rx="20.443087"
           sodipodi:cy="80.237755"
           sodipodi:cx="229.91472"
           id="path4307"
           style="opacity:0.5;fill:#ffffff;fill-opacity:1;stroke:none;filter:url(#filter3843-4-9)"
           sodipodi:type="arc"
           inkscape:transform-center-x="-17.362622"
           inkscape:transform-center-y="17.922707" />
      </g>
      <g
         transform="translate(141.7014,0)"
         id="g4309">
        <path
           transform="matrix(2.0958904,0,0,2.0958904,-229.55796,-67.369779)"
           d="M 250.35781,80.237755 C 250.35781,90.600181 241.20512,99.000587 229.91472,99.000587 218.62431,99.000587 209.47163,90.600181 209.47163,80.237755 209.47163,69.875328 218.62431,61.474922 229.91472,61.474922 241.20512,61.474922 250.35781,69.875328 250.35781,80.237755 z"
           sodipodi:ry="18.762833"
           sodipodi:rx="20.443087"
           sodipodi:cy="80.237755"
           sodipodi:cx="229.91472"
           id="path4311"
           style="fill:#000000;fill-opacity:1;stroke:none"
           sodipodi:type="arc" />
        <path
           sodipodi:type="arc"
           style="fill:#ffffff;fill-opacity:1;stroke:none"
           id="path4313"
           sodipodi:cx="229.91472"
           sodipodi:cy="80.237755"
           sodipodi:rx="20.443087"
           sodipodi:ry="18.762833"
           d="M 250.35781,80.237755 C 250.35781,90.600181 241.20512,99.000587 229.91472,99.000587 218.62431,99.000587 209.47163,90.600181 209.47163,80.237755 209.47163,69.875328 218.62431,61.474922 229.91472,61.474922 241.20512,61.474922 250.35781,69.875328 250.35781,80.237755 z"
           transform="matrix(0.91065216,0,0,0.91065216,57.361665,16.694341)" />
        <path
           transform="matrix(0.48395004,0,0,0.48395004,136.66213,77.651065)"
           d="M 250.35781,80.237755 C 250.35781,90.600181 241.20512,99.000587 229.91472,99.000587 218.62431,99.000587 209.47163,90.600181 209.47163,80.237755 209.47163,69.875328 218.62431,61.474922 229.91472,61.474922 241.20512,61.474922 250.35781,69.875328 250.35781,80.237755 z"
           sodipodi:ry="18.762833"
           sodipodi:rx="20.443087"
           sodipodi:cy="80.237755"
           sodipodi:cx="229.91472"
           id="path4315"
           style="fill:#ffffff;fill-opacity:1;stroke:none"
           sodipodi:type="arc" />
        <path
           inkscape:transform-center-y="17.922707"
           inkscape:transform-center-x="-17.362622"
           sodipodi:type="arc"
           style="opacity:0.5;fill:#ffffff;fill-opacity:1;stroke:none;filter:url(#filter3843-4-9)"
           id="path4317"
           sodipodi:cx="229.91472"
           sodipodi:cy="80.237755"
           sodipodi:rx="20.443087"
           sodipodi:ry="18.762833"
           d="M 250.35781,80.237755 C 250.35781,90.600181 241.20512,99.000587 229.91472,99.000587 218.62431,99.000587 209.47163,90.600181 209.47163,80.237755 209.47163,69.875328 218.62431,61.474922 229.91472,61.474922 241.20512,61.474922 250.35781,69.875328 250.35781,80.237755 z"
           transform="matrix(0.48395004,0,0,0.48395004,120.97977,51.32709)" />
      </g>
    </g>
    <g
       id="g4338"
       transform="matrix(1.2307692,0,0,1.0909091,-350.3416,-29.243924)">
      <rect
         style="opacity:0.5;fill:#deaa87;fill-opacity:1;stroke:none"
         id="rect4340"
         width="130"
         height="110"
         x="1.4802577"
         y="-8.3168316" />
      <g
         id="g4342"
         transform="matrix(1.0322865,0,0,1.0751207,3.1551607,-6.78369)">
        <path
           transform="matrix(0.96709183,0,0,0.96709183,2.193535,2.0254204)"
           d="M 46.84375,-0.46875 46.84375,-0.4375 C 30.273123,-0.29592961 15.964538,12.998392 15.25,29.75 14.909088,31.298531 14.833075,32.590858 14.90625,33.5625 -3.7794314,43.612574 -6.1716777,72.981794 12.875,84.25 12.887283,84.257872 12.893963,84.273404 12.90625,84.28125 12.992974,84.332368 13.068641,84.387138 13.15625,84.4375 L 13.1875,84.40625 C 19.369399,88.246203 26.055986,88.787411 31.78125,88.6875 37.601491,88.585931 42.813513,88.00829 46.8125,88.4375 A 6.8701819,6.8701819 0 0 0 47.65625,88.46875 C 64.466204,88.15488 81.933449,89.100176 99.5,87.96875 A 6.8701819,6.8701819 0 0 0 101.0625,87.6875 C 115.68975,83.243715 126.25538,67.67202 121.46875,51.9375 121.46629,51.928241 121.47122,51.915508 121.46875,51.90625 121.44291,51.82164 121.43299,51.740866 121.40625,51.65625 L 121.375,51.65625 C 119.32903,44.241499 114.4327,37.165721 107.03125,33.5 105.9432,19.197794 92.305945,7.5676194 77.59375,10.71875 L 77.59375,10.6875 C 76.372937,10.725708 75.367579,10.889318 74.5,11.125 67.730016,2.9842368 57.241033,-0.81098311 47.1875,-0.46875 47.177142,-0.46839742 47.166607,-0.46911132 47.15625,-0.46875 47.052683,-0.46513676 46.947219,-0.47323695 46.84375,-0.46875 z"
           id="path4344"
           style="fill:#ffffff;fill-opacity:1;stroke:#333333;stroke-width:5.17013979;stroke-miterlimit:4;stroke-opacity:1;stroke-dasharray:none"
           inkscape:original="M 47.15625 6.40625 C 34.017587 6.3712955 22.209992 17.453777 22.03125 30.71875 C 21.193418 33.666955 23.97327 38.428594 19.75 38.75 C 4.4434503 45.31449 1.7644115 69.944063 16.59375 78.46875 C 25.785956 84.360338 37.291062 80.494675 47.53125 81.59375 C 64.680596 81.273543 82.048595 82.220831 99.0625 81.125 C 110.28493 77.715605 118.54566 65.434894 114.84375 53.71875 C 112.94303 46.574264 107.52414 39.811444 100.0625 38.1875 C 102.11814 26.019367 89.936554 13.999966 77.8125 17.5625 C 75.007489 17.650288 72.102939 22.257123 71.0625 18.03125 C 66.067737 10.018031 56.389623 6.005843 47.15625 6.40625 z "
           inkscape:radius="6.8694949"
           sodipodi:type="inkscape:offset" />
        <path
           sodipodi:nodetypes="cccccc"
           inkscape:connector-curvature="0"
           id="path4346"
           d="M 24.531144,39.504065 C 18.430596,2.98235 63.742303,-0.19256779 71.51688,23.707137 81.097045,13.072104 100.95874,21.294148 97.845094,39.909114 113.30825,40.845124 124.01329,70.380691 97.440044,79.60396 L 24.531144,79.60396 C 0.08211023,73.351593 7.0310941,41.885564 24.531144,39.504065 z"
           style="fill:#333333;fill-opacity:1;stroke:none" />
      </g>
    </g>
    <g
       transform="matrix(1.2307692,0,0,1.0909091,-350.3416,90.756076)"
       id="g4348">
      <rect
         y="-8.3168316"
         x="1.4802577"
         height="110"
         width="130"
         id="rect4350"
         style="opacity:0.5;fill:#ff8080;fill-opacity:1;stroke:none" />
      <g
         transform="matrix(1.0322865,0,0,1.0751207,3.1551607,-6.78369)"
         id="g4352">
        <path
           sodipodi:type="inkscape:offset"
           inkscape:radius="6.8694949"
           inkscape:original="M 47.15625 6.40625 C 34.017587 6.3712955 22.209992 17.453777 22.03125 30.71875 C 21.193418 33.666955 23.97327 38.428594 19.75 38.75 C 4.4434503 45.31449 1.7644115 69.944063 16.59375 78.46875 C 25.785956 84.360338 37.291062 80.494675 47.53125 81.59375 C 64.680596 81.273543 82.048595 82.220831 99.0625 81.125 C 110.28493 77.715605 118.54566 65.434894 114.84375 53.71875 C 112.94303 46.574264 107.52414 39.811444 100.0625 38.1875 C 102.11814 26.019367 89.936554 13.999966 77.8125 17.5625 C 75.007489 17.650288 72.102939 22.257123 71.0625 18.03125 C 66.067737 10.018031 56.389623 6.005843 47.15625 6.40625 z "
           style="fill:#ffffff;fill-opacity:1;stroke:#333333;stroke-width:5.17013979;stroke-miterlimit:4;stroke-opacity:1;stroke-dasharray:none"
           id="path4354"
           d="M 46.84375,-0.46875 46.84375,-0.4375 C 30.273123,-0.29592961 15.964538,12.998392 15.25,29.75 14.909088,31.298531 14.833075,32.590858 14.90625,33.5625 -3.7794314,43.612574 -6.1716777,72.981794 12.875,84.25 12.887283,84.257872 12.893963,84.273404 12.90625,84.28125 12.992974,84.332368 13.068641,84.387138 13.15625,84.4375 L 13.1875,84.40625 C 19.369399,88.246203 26.055986,88.787411 31.78125,88.6875 37.601491,88.585931 42.813513,88.00829 46.8125,88.4375 A 6.8701819,6.8701819 0 0 0 47.65625,88.46875 C 64.466204,88.15488 81.933449,89.100176 99.5,87.96875 A 6.8701819,6.8701819 0 0 0 101.0625,87.6875 C 115.68975,83.243715 126.25538,67.67202 121.46875,51.9375 121.46629,51.928241 121.47122,51.915508 121.46875,51.90625 121.44291,51.82164 121.43299,51.740866 121.40625,51.65625 L 121.375,51.65625 C 119.32903,44.241499 114.4327,37.165721 107.03125,33.5 105.9432,19.197794 92.305945,7.5676194 77.59375,10.71875 L 77.59375,10.6875 C 76.372937,10.725708 75.367579,10.889318 74.5,11.125 67.730016,2.9842368 57.241033,-0.81098311 47.1875,-0.46875 47.177142,-0.46839742 47.166607,-0.46911132 47.15625,-0.46875 47.052683,-0.46513676 46.947219,-0.47323695 46.84375,-0.46875 z"
           transform="matrix(0.96709183,0,0,0.96709183,2.193535,2.0254204)" />
      </g>
    </g>
    <g
       id="g4356"
       transform="matrix(1.2307692,0,0,1.0909091,-350.3416,210.75608)">
      <rect
         style="opacity:0.5;fill:#d38d5f;fill-opacity:1;stroke:none"
         id="rect4358"
         width="130"
         height="110"
         x="1.4802577"
         y="-8.3168316" />
      <g
         id="g4360"
         transform="matrix(1.0322865,0,0,1.0751207,3.1551607,-6.78369)">
        <path
           transform="matrix(0.96709183,0,0,0.96709183,2.193535,2.0254204)"
           d="M 46.84375,-0.46875 46.84375,-0.4375 C 30.273123,-0.29592961 15.964538,12.998392 15.25,29.75 14.909088,31.298531 14.833075,32.590858 14.90625,33.5625 -3.7794314,43.612574 -6.1716777,72.981794 12.875,84.25 12.887283,84.257872 12.893963,84.273404 12.90625,84.28125 12.992974,84.332368 13.068641,84.387138 13.15625,84.4375 L 13.1875,84.40625 C 19.369399,88.246203 26.055986,88.787411 31.78125,88.6875 37.601491,88.585931 42.813513,88.00829 46.8125,88.4375 A 6.8701819,6.8701819 0 0 0 47.65625,88.46875 C 64.466204,88.15488 81.933449,89.100176 99.5,87.96875 A 6.8701819,6.8701819 0 0 0 101.0625,87.6875 C 115.68975,83.243715 126.25538,67.67202 121.46875,51.9375 121.46629,51.928241 121.47122,51.915508 121.46875,51.90625 121.44291,51.82164 121.43299,51.740866 121.40625,51.65625 L 121.375,51.65625 C 119.32903,44.241499 114.4327,37.165721 107.03125,33.5 105.9432,19.197794 92.305945,7.5676194 77.59375,10.71875 L 77.59375,10.6875 C 76.372937,10.725708 75.367579,10.889318 74.5,11.125 67.730016,2.9842368 57.241033,-0.81098311 47.1875,-0.46875 47.177142,-0.46839742 47.166607,-0.46911132 47.15625,-0.46875 47.052683,-0.46513676 46.947219,-0.47323695 46.84375,-0.46875 z"
           id="path4362"
           style="fill:#ffffff;fill-opacity:1;stroke:#808080;stroke-width:5.17013979;stroke-miterlimit:4;stroke-opacity:1;stroke-dasharray:none"
           inkscape:original="M 47.15625 6.40625 C 34.017587 6.3712955 22.209992 17.453777 22.03125 30.71875 C 21.193418 33.666955 23.97327 38.428594 19.75 38.75 C 4.4434503 45.31449 1.7644115 69.944063 16.59375 78.46875 C 25.785956 84.360338 37.291062 80.494675 47.53125 81.59375 C 64.680596 81.273543 82.048595 82.220831 99.0625 81.125 C 110.28493 77.715605 118.54566 65.434894 114.84375 53.71875 C 112.94303 46.574264 107.52414 39.811444 100.0625 38.1875 C 102.11814 26.019367 89.936554 13.999966 77.8125 17.5625 C 75.007489 17.650288 72.102939 22.257123 71.0625 18.03125 C 66.067737 10.018031 56.389623 6.005843 47.15625 6.40625 z "
           inkscape:radius="6.8694949"
           sodipodi:type="inkscape:offset" />
      </g>
    </g>
    <rect
       style="opacity:0.5;fill:#ff0000;fill-opacity:1;stroke:none"
       id="rect4364"
       width="40.000004"
       height="40.000004"
       x="210.36305"
       y="241.68317"
       transform="scale(-1,1)" />
    <rect
       style="opacity:0.5;fill:#ff0000;fill-opacity:1;stroke:none"
       id="rect4366"
       width="40.000004"
       height="40.000004"
       x="290.36304"
       y="241.68317"
       transform="scale(-1,1)" />
    <rect
       transform="scale(-1,1)"
       y="241.68317"
       x="250.36305"
       height="40.000004"
       width="40.000004"
       id="rect4368"
       style="opacity:0.5;fill:#ff8080;fill-opacity:1;stroke:none" />
    <g
       id="g4370"
       transform="matrix(0.27387402,0,0,0.27387402,-345.91768,-13.605444)">
      <path
         sodipodi:nodetypes="cc"
         inkscape:connector-curvature="0"
         id="path4372"
         d="M 285.08305,161.73006 C 295.11893,187.19634 342.45465,188.20507 355.09362,160.60989"
         style="fill:none;stroke:#000000;stroke-width:10.95394135;stroke-linecap:round;stroke-linejoin:miter;stroke-miterlimit:4;stroke-opacity:1;stroke-dasharray:none" />
      <g
         id="g4374">
        <path
           sodipodi:type="arc"
           style="fill:#000000;fill-opacity:1;stroke:none"
           id="path4376"
           sodipodi:cx="229.91472"
           sodipodi:cy="80.237755"
           sodipodi:rx="20.443087"
           sodipodi:ry="18.762833"
           d="M 250.35781,80.237755 C 250.35781,90.600181 241.20512,99.000587 229.91472,99.000587 218.62431,99.000587 209.47163,90.600181 209.47163,80.237755 209.47163,69.875328 218.62431,61.474922 229.91472,61.474922 241.20512,61.474922 250.35781,69.875328 250.35781,80.237755 z"
           transform="matrix(2.0958904,0,0,2.0958904,-229.55796,-67.369779)" />
        <path
           transform="matrix(0.91065216,0,0,0.91065216,57.361665,16.694341)"
           d="M 250.35781,80.237755 C 250.35781,90.600181 241.20512,99.000587 229.91472,99.000587 218.62431,99.000587 209.47163,90.600181 209.47163,80.237755 209.47163,69.875328 218.62431,61.474922 229.91472,61.474922 241.20512,61.474922 250.35781,69.875328 250.35781,80.237755 z"
           sodipodi:ry="18.762833"
           sodipodi:rx="20.443087"
           sodipodi:cy="80.237755"
           sodipodi:cx="229.91472"
           id="path4378"
           style="fill:#ffffff;fill-opacity:1;stroke:none"
           sodipodi:type="arc" />
        <path
           sodipodi:type="arc"
           style="fill:#ffffff;fill-opacity:1;stroke:none"
           id="path4380"
           sodipodi:cx="229.91472"
           sodipodi:cy="80.237755"
           sodipodi:rx="20.443087"
           sodipodi:ry="18.762833"
           d="M 250.35781,80.237755 C 250.35781,90.600181 241.20512,99.000587 229.91472,99.000587 218.62431,99.000587 209.47163,90.600181 209.47163,80.237755 209.47163,69.875328 218.62431,61.474922 229.91472,61.474922 241.20512,61.474922 250.35781,69.875328 250.35781,80.237755 z"
           transform="matrix(0.48395004,0,0,0.48395004,136.66213,77.651065)" />
        <path
           transform="matrix(0.48395004,0,0,0.48395004,120.97977,51.32709)"
           d="M 250.35781,80.237755 C 250.35781,90.600181 241.20512,99.000587 229.91472,99.000587 218.62431,99.000587 209.47163,90.600181 209.47163,80.237755 209.47163,69.875328 218.62431,61.474922 229.91472,61.474922 241.20512,61.474922 250.35781,69.875328 250.35781,80.237755 z"
           sodipodi:ry="18.762833"
           sodipodi:rx="20.443087"
           sodipodi:cy="80.237755"
           sodipodi:cx="229.91472"
           id="path4382"
           style="opacity:0.5;fill:#ffffff;fill-opacity:1;stroke:none;filter:url(#filter3843-4-9)"
           sodipodi:type="arc"
           inkscape:transform-center-x="-17.362622"
           inkscape:transform-center-y="17.922707" />
      </g>
      <g
         transform="translate(141.7014,0)"
         id="g4384">
        <path
           transform="matrix(2.0958904,0,0,2.0958904,-229.55796,-67.369779)"
           d="M 250.35781,80.237755 C 250.35781,90.600181 241.20512,99.000587 229.91472,99.000587 218.62431,99.000587 209.47163,90.600181 209.47163,80.237755 209.47163,69.875328 218.62431,61.474922 229.91472,61.474922 241.20512,61.474922 250.35781,69.875328 250.35781,80.237755 z"
           sodipodi:ry="18.762833"
           sodipodi:rx="20.443087"
           sodipodi:cy="80.237755"
           sodipodi:cx="229.91472"
           id="path4386"
           style="fill:#000000;fill-opacity:1;stroke:none"
           sodipodi:type="arc" />
        <path
           sodipodi:type="arc"
           style="fill:#ffffff;fill-opacity:1;stroke:none"
           id="path4388"
           sodipodi:cx="229.91472"
           sodipodi:cy="80.237755"
           sodipodi:rx="20.443087"
           sodipodi:ry="18.762833"
           d="M 250.35781,80.237755 C 250.35781,90.600181 241.20512,99.000587 229.91472,99.000587 218.62431,99.000587 209.47163,90.600181 209.47163,80.237755 209.47163,69.875328 218.62431,61.474922 229.91472,61.474922 241.20512,61.474922 250.35781,69.875328 250.35781,80.237755 z"
           transform="matrix(0.91065216,0,0,0.91065216,57.361665,16.694341)" />
        <path
           transform="matrix(0.48395004,0,0,0.48395004,136.66213,77.651065)"
           d="M 250.35781,80.237755 C 250.35781,90.600181 241.20512,99.000587 229.91472,99.000587 218.62431,99.000587 209.47163,90.600181 209.47163,80.237755 209.47163,69.875328 218.62431,61.474922 229.91472,61.474922 241.20512,61.474922 250.35781,69.875328 250.35781,80.237755 z"
           sodipodi:ry="18.762833"
           sodipodi:rx="20.443087"
           sodipodi:cy="80.237755"
           sodipodi:cx="229.91472"
           id="path4390"
           style="fill:#ffffff;fill-opacity:1;stroke:none"
           sodipodi:type="arc" />
        <path
           inkscape:transform-center-y="17.922707"
           inkscape:transform-center-x="-17.362622"
           sodipodi:type="arc"
           style="opacity:0.5;fill:#ffffff;fill-opacity:1;stroke:none;filter:url(#filter3843-4-9)"
           id="path4392"
           sodipodi:cx="229.91472"
           sodipodi:cy="80.237755"
           sodipodi:rx="20.443087"
           sodipodi:ry="18.762833"
           d="M 250.35781,80.237755 C 250.35781,90.600181 241.20512,99.000587 229.91472,99.000587 218.62431,99.000587 209.47163,90.600181 209.47163,80.237755 209.47163,69.875328 218.62431,61.474922 229.91472,61.474922 241.20512,61.474922 250.35781,69.875328 250.35781,80.237755 z"
           transform="matrix(0.48395004,0,0,0.48395004,120.97977,51.32709)" />
      </g>
    </g>
    <g
       transform="matrix(0.27387402,0,0,0.27387402,-341.91768,104.39456)"
       id="g4394">
      <path
         style="fill:none;stroke:#000000;stroke-width:10.95394135;stroke-linecap:round;stroke-linejoin:miter;stroke-miterlimit:4;stroke-opacity:1;stroke-dasharray:none"
         d="M 285.08305,161.73006 C 295.11893,187.19634 342.45465,188.20507 355.09362,160.60989"
         id="path4396"
         inkscape:connector-curvature="0"
         sodipodi:nodetypes="cc" />
      <g
         id="g4398">
        <path
           transform="matrix(2.0958904,0,0,2.0958904,-229.55796,-67.369779)"
           d="M 250.35781,80.237755 C 250.35781,90.600181 241.20512,99.000587 229.91472,99.000587 218.62431,99.000587 209.47163,90.600181 209.47163,80.237755 209.47163,69.875328 218.62431,61.474922 229.91472,61.474922 241.20512,61.474922 250.35781,69.875328 250.35781,80.237755 z"
           sodipodi:ry="18.762833"
           sodipodi:rx="20.443087"
           sodipodi:cy="80.237755"
           sodipodi:cx="229.91472"
           id="path4400"
           style="fill:#000000;fill-opacity:1;stroke:none"
           sodipodi:type="arc" />
        <path
           sodipodi:type="arc"
           style="fill:#ffffff;fill-opacity:1;stroke:none"
           id="path4402"
           sodipodi:cx="229.91472"
           sodipodi:cy="80.237755"
           sodipodi:rx="20.443087"
           sodipodi:ry="18.762833"
           d="M 250.35781,80.237755 C 250.35781,90.600181 241.20512,99.000587 229.91472,99.000587 218.62431,99.000587 209.47163,90.600181 209.47163,80.237755 209.47163,69.875328 218.62431,61.474922 229.91472,61.474922 241.20512,61.474922 250.35781,69.875328 250.35781,80.237755 z"
           transform="matrix(0.91065216,0,0,0.91065216,57.361665,16.694341)" />
        <path
           transform="matrix(0.48395004,0,0,0.48395004,136.66213,77.651065)"
           d="M 250.35781,80.237755 C 250.35781,90.600181 241.20512,99.000587 229.91472,99.000587 218.62431,99.000587 209.47163,90.600181 209.47163,80.237755 209.47163,69.875328 218.62431,61.474922 229.91472,61.474922 241.20512,61.474922 250.35781,69.875328 250.35781,80.237755 z"
           sodipodi:ry="18.762833"
           sodipodi:rx="20.443087"
           sodipodi:cy="80.237755"
           sodipodi:cx="229.91472"
           id="path4404"
           style="fill:#ffffff;fill-opacity:1;stroke:none"
           sodipodi:type="arc" />
        <path
           inkscape:transform-center-y="17.922707"
           inkscape:transform-center-x="-17.362622"
           sodipodi:type="arc"
           style="opacity:0.5;fill:#ffffff;fill-opacity:1;stroke:none;filter:url(#filter3843-4-9)"
           id="path4406"
           sodipodi:cx="229.91472"
           sodipodi:cy="80.237755"
           sodipodi:rx="20.443087"
           sodipodi:ry="18.762833"
           d="M 250.35781,80.237755 C 250.35781,90.600181 241.20512,99.000587 229.91472,99.000587 218.62431,99.000587 209.47163,90.600181 209.47163,80.237755 209.47163,69.875328 218.62431,61.474922 229.91472,61.474922 241.20512,61.474922 250.35781,69.875328 250.35781,80.237755 z"
           transform="matrix(0.48395004,0,0,0.48395004,120.97977,51.32709)" />
      </g>
      <g
         id="g4408"
         transform="translate(141.7014,0)">
        <path
           sodipodi:type="arc"
           style="fill:#000000;fill-opacity:1;stroke:none"
           id="path4410"
           sodipodi:cx="229.91472"
           sodipodi:cy="80.237755"
           sodipodi:rx="20.443087"
           sodipodi:ry="18.762833"
           d="M 250.35781,80.237755 C 250.35781,90.600181 241.20512,99.000587 229.91472,99.000587 218.62431,99.000587 209.47163,90.600181 209.47163,80.237755 209.47163,69.875328 218.62431,61.474922 229.91472,61.474922 241.20512,61.474922 250.35781,69.875328 250.35781,80.237755 z"
           transform="matrix(2.0958904,0,0,2.0958904,-229.55796,-67.369779)" />
        <path
           transform="matrix(0.91065216,0,0,0.91065216,57.361665,16.694341)"
           d="M 250.35781,80.237755 C 250.35781,90.600181 241.20512,99.000587 229.91472,99.000587 218.62431,99.000587 209.47163,90.600181 209.47163,80.237755 209.47163,69.875328 218.62431,61.474922 229.91472,61.474922 241.20512,61.474922 250.35781,69.875328 250.35781,80.237755 z"
           sodipodi:ry="18.762833"
           sodipodi:rx="20.443087"
           sodipodi:cy="80.237755"
           sodipodi:cx="229.91472"
           id="path4412"
           style="fill:#ffffff;fill-opacity:1;stroke:none"
           sodipodi:type="arc" />
        <path
           sodipodi:type="arc"
           style="fill:#ffffff;fill-opacity:1;stroke:none"
           id="path4414"
           sodipodi:cx="229.91472"
           sodipodi:cy="80.237755"
           sodipodi:rx="20.443087"
           sodipodi:ry="18.762833"
           d="M 250.35781,80.237755 C 250.35781,90.600181 241.20512,99.000587 229.91472,99.000587 218.62431,99.000587 209.47163,90.600181 209.47163,80.237755 209.47163,69.875328 218.62431,61.474922 229.91472,61.474922 241.20512,61.474922 250.35781,69.875328 250.35781,80.237755 z"
           transform="matrix(0.48395004,0,0,0.48395004,136.66213,77.651065)" />
        <path
           transform="matrix(0.48395004,0,0,0.48395004,120.97977,51.32709)"
           d="M 250.35781,80.237755 C 250.35781,90.600181 241.20512,99.000587 229.91472,99.000587 218.62431,99.000587 209.47163,90.600181 209.47163,80.237755 209.47163,69.875328 218.62431,61.474922 229.91472,61.474922 241.20512,61.474922 250.35781,69.875328 250.35781,80.237755 z"
           sodipodi:ry="18.762833"
           sodipodi:rx="20.443087"
           sodipodi:cy="80.237755"
           sodipodi:cx="229.91472"
           id="path4416"
           style="opacity:0.5;fill:#ffffff;fill-opacity:1;stroke:none;filter:url(#filter3843-4-9)"
           sodipodi:type="arc"
           inkscape:transform-center-x="-17.362622"
           inkscape:transform-center-y="17.922707" />
      </g>
    </g>
    <g
       transform="matrix(0.27387402,0,0,0.27387402,-181.91768,223.13249)"
       id="g4530">
      <path
         style="fill:none;stroke:#000000;stroke-width:10.95394135;stroke-linecap:round;stroke-linejoin:miter;stroke-miterlimit:4;stroke-opacity:1;stroke-dasharray:none"
         d="M 285.08305,161.73006 C 295.11893,187.19634 342.45465,188.20507 355.09362,160.60989"
         id="path4532"
         inkscape:connector-curvature="0"
         sodipodi:nodetypes="cc" />
      <g
         id="g4534">
        <path
           transform="matrix(2.0958904,0,0,2.0958904,-229.55796,-67.369779)"
           d="M 250.35781,80.237755 C 250.35781,90.600181 241.20512,99.000587 229.91472,99.000587 218.62431,99.000587 209.47163,90.600181 209.47163,80.237755 209.47163,69.875328 218.62431,61.474922 229.91472,61.474922 241.20512,61.474922 250.35781,69.875328 250.35781,80.237755 z"
           sodipodi:ry="18.762833"
           sodipodi:rx="20.443087"
           sodipodi:cy="80.237755"
           sodipodi:cx="229.91472"
           id="path4536"
           style="fill:#000000;fill-opacity:1;stroke:none"
           sodipodi:type="arc" />
        <path
           sodipodi:type="arc"
           style="fill:#ffffff;fill-opacity:1;stroke:none"
           id="path4538"
           sodipodi:cx="229.91472"
           sodipodi:cy="80.237755"
           sodipodi:rx="20.443087"
           sodipodi:ry="18.762833"
           d="M 250.35781,80.237755 C 250.35781,90.600181 241.20512,99.000587 229.91472,99.000587 218.62431,99.000587 209.47163,90.600181 209.47163,80.237755 209.47163,69.875328 218.62431,61.474922 229.91472,61.474922 241.20512,61.474922 250.35781,69.875328 250.35781,80.237755 z"
           transform="matrix(0.91065216,0,0,0.91065216,57.361665,16.694341)" />
        <path
           transform="matrix(0.48395004,0,0,0.48395004,136.66213,77.651065)"
           d="M 250.35781,80.237755 C 250.35781,90.600181 241.20512,99.000587 229.91472,99.000587 218.62431,99.000587 209.47163,90.600181 209.47163,80.237755 209.47163,69.875328 218.62431,61.474922 229.91472,61.474922 241.20512,61.474922 250.35781,69.875328 250.35781,80.237755 z"
           sodipodi:ry="18.762833"
           sodipodi:rx="20.443087"
           sodipodi:cy="80.237755"
           sodipodi:cx="229.91472"
           id="path4540"
           style="fill:#ffffff;fill-opacity:1;stroke:none"
           sodipodi:type="arc" />
        <path
           inkscape:transform-center-y="17.922707"
           inkscape:transform-center-x="-17.362622"
           sodipodi:type="arc"
           style="opacity:0.5;fill:#ffffff;fill-opacity:1;stroke:none;filter:url(#filter3843-4-9)"
           id="path4542"
           sodipodi:cx="229.91472"
           sodipodi:cy="80.237755"
           sodipodi:rx="20.443087"
           sodipodi:ry="18.762833"
           d="M 250.35781,80.237755 C 250.35781,90.600181 241.20512,99.000587 229.91472,99.000587 218.62431,99.000587 209.47163,90.600181 209.47163,80.237755 209.47163,69.875328 218.62431,61.474922 229.91472,61.474922 241.20512,61.474922 250.35781,69.875328 250.35781,80.237755 z"
           transform="matrix(0.48395004,0,0,0.48395004,120.97977,51.32709)" />
      </g>
      <g
         id="g4544"
         transform="translate(141.7014,0)">
        <path
           sodipodi:type="arc"
           style="fill:#000000;fill-opacity:1;stroke:none"
           id="path4546"
           sodipodi:cx="229.91472"
           sodipodi:cy="80.237755"
           sodipodi:rx="20.443087"
           sodipodi:ry="18.762833"
           d="M 250.35781,80.237755 C 250.35781,90.600181 241.20512,99.000587 229.91472,99.000587 218.62431,99.000587 209.47163,90.600181 209.47163,80.237755 209.47163,69.875328 218.62431,61.474922 229.91472,61.474922 241.20512,61.474922 250.35781,69.875328 250.35781,80.237755 z"
           transform="matrix(2.0958904,0,0,2.0958904,-229.55796,-67.369779)" />
        <path
           transform="matrix(0.91065216,0,0,0.91065216,57.361665,16.694341)"
           d="M 250.35781,80.237755 C 250.35781,90.600181 241.20512,99.000587 229.91472,99.000587 218.62431,99.000587 209.47163,90.600181 209.47163,80.237755 209.47163,69.875328 218.62431,61.474922 229.91472,61.474922 241.20512,61.474922 250.35781,69.875328 250.35781,80.237755 z"
           sodipodi:ry="18.762833"
           sodipodi:rx="20.443087"
           sodipodi:cy="80.237755"
           sodipodi:cx="229.91472"
           id="path4548"
           style="fill:#ffffff;fill-opacity:1;stroke:none"
           sodipodi:type="arc" />
        <path
           sodipodi:type="arc"
           style="fill:#ffffff;fill-opacity:1;stroke:none"
           id="path4550"
           sodipodi:cx="229.91472"
           sodipodi:cy="80.237755"
           sodipodi:rx="20.443087"
           sodipodi:ry="18.762833"
           d="M 250.35781,80.237755 C 250.35781,90.600181 241.20512,99.000587 229.91472,99.000587 218.62431,99.000587 209.47163,90.600181 209.47163,80.237755 209.47163,69.875328 218.62431,61.474922 229.91472,61.474922 241.20512,61.474922 250.35781,69.875328 250.35781,80.237755 z"
           transform="matrix(0.48395004,0,0,0.48395004,136.66213,77.651065)" />
        <path
           transform="matrix(0.48395004,0,0,0.48395004,120.97977,51.32709)"
           d="M 250.35781,80.237755 C 250.35781,90.600181 241.20512,99.000587 229.91472,99.000587 218.62431,99.000587 209.47163,90.600181 209.47163,80.237755 209.47163,69.875328 218.62431,61.474922 229.91472,61.474922 241.20512,61.474922 250.35781,69.875328 250.35781,80.237755 z"
           sodipodi:ry="18.762833"
           sodipodi:rx="20.443087"
           sodipodi:cy="80.237755"
           sodipodi:cx="229.91472"
           id="path4552"
           style="opacity:0.5;fill:#ffffff;fill-opacity:1;stroke:none;filter:url(#filter3843-4-9)"
           sodipodi:type="arc"
           inkscape:transform-center-x="-17.362622"
           inkscape:transform-center-y="17.922707" />
      </g>
    </g>
  </g>
  <text
     xml:space="preserve"
     style="font-size:13.47513103px;font-style:normal;font-weight:normal;line-height:125%;letter-spacing:0px;word-spacing:0px;fill:#000000;fill-opacity:1;stroke:none;font-family:Sans"
     x="44.360359"
     y="-17.580473"
     id="text3900"
     sodipodi:linespacing="125%"><tspan
       sodipodi:role="line"
       id="tspan3902"
       x="44.360359"
       y="-17.580473">160x*120y ; 4em*3em</tspan></text>
  <text
     xml:space="preserve"
     style="font-size:13.47513103px;font-style:normal;font-weight:normal;line-height:125%;letter-spacing:0px;word-spacing:0px;fill:#000000;fill-opacity:1;stroke:none;font-family:Sans"
     x="-11.656023"
     y="379.46732"
     id="text3900-6"
     sodipodi:linespacing="125%"><tspan
       sodipodi:role="line"
       id="tspan3902-1"
       x="-11.656023"
       y="379.46732">x=0</tspan></text>
  <text
     xml:space="preserve"
     style="font-size:13.47513103px;font-style:normal;font-weight:normal;line-height:125%;letter-spacing:0px;word-spacing:0px;fill:#000000;fill-opacity:1;stroke:none;font-family:Sans"
     x="145.95816"
     y="379.46732"
     id="text3900-6-8"
     sodipodi:linespacing="125%"><tspan
       sodipodi:role="line"
       id="tspan3902-1-4"
       x="145.95816"
       y="379.46732">x=160</tspan></text>
  <text
     xml:space="preserve"
     style="font-size:13.47513103px;font-style:normal;font-weight:normal;line-height:125%;letter-spacing:0px;word-spacing:0px;fill:#000000;fill-opacity:1;stroke:none;font-family:Sans"
     x="308.38269"
     y="379.46732"
     id="text3900-6-6"
     sodipodi:linespacing="125%"><tspan
       sodipodi:role="line"
       id="tspan3902-1-6"
       x="308.38269"
       y="379.46732">x=320</tspan></text>
  <text
     xml:space="preserve"
     style="font-size:13.47513103px;font-style:normal;font-weight:normal;line-height:125%;letter-spacing:0px;word-spacing:0px;fill:#000000;fill-opacity:1;stroke:none;font-family:Sans"
     x="468.56689"
     y="379.46732"
     id="text3900-6-5"
     sodipodi:linespacing="125%"><tspan
       sodipodi:role="line"
       id="tspan3902-1-7"
       x="468.56689"
       y="379.46732">x=480</tspan></text>
  <text
     xml:space="preserve"
     style="font-size:13.47513103px;font-style:normal;font-weight:normal;line-height:125%;letter-spacing:0px;word-spacing:0px;fill:#000000;fill-opacity:1;stroke:none;font-family:Sans"
     x="-50.078018"
     y="241.12643"
     id="text3900-6-9"
     sodipodi:linespacing="125%"><tspan
       sodipodi:role="line"
       id="tspan3902-1-9"
       x="-50.078018"
       y="241.12643">y=120</tspan></text>
  <text
     xml:space="preserve"
     style="font-size:13.47513103px;font-style:normal;font-weight:normal;line-height:125%;letter-spacing:0px;word-spacing:0px;fill:#000000;fill-opacity:1;stroke:none;font-family:Sans"
     x="-50.078018"
     y="124.44296"
     id="text3900-6-9-7"
     sodipodi:linespacing="125%"><tspan
       sodipodi:role="line"
       id="tspan3902-1-9-1"
       x="-50.078018"
       y="124.44296">y=240</tspan></text>
  <text
     sodipodi:linespacing="125%"
     id="text4526"
     y="5.1449366"
     x="-50.078018"
     style="font-size:13.47513103px;font-style:normal;font-weight:normal;line-height:125%;letter-spacing:0px;word-spacing:0px;fill:#000000;fill-opacity:1;stroke:none;font-family:Sans"
     xml:space="preserve"><tspan
       y="5.1449366"
       x="-50.078018"
       id="tspan4528"
       sodipodi:role="line">y=360</tspan></text>
</svg>
