<svg width="320" height="360" viewBox="0 0 320 360" fill="none" xmlns="http://www.w3.org/2000/svg">
<g id="cloud-cluster">
<g id="cloud-1">
<path id="rect3767" opacity="0.01" d="M9.53674e-06 0H160V120H9.53674e-06V0Z" fill="#DEAA87"/>
<g id="g3769">
<path id="path2993" d="M97.5949 3.51637V3.55182C117.955 3.7124 135.536 18.7916 136.414 37.7924C136.833 39.5488 136.926 41.0146 136.836 42.1167C159.795 53.5162 162.735 86.8286 139.332 99.6097C139.317 99.6186 139.309 99.6362 139.294 99.6451C139.187 99.7031 139.094 99.7652 138.987 99.8223L138.948 99.7869C131.353 104.142 123.137 104.756 116.102 104.643C108.951 104.528 102.547 103.873 97.6333 104.359C97.2889 104.391 96.9427 104.403 96.5966 104.395C75.9423 104.039 54.4804 105.111 32.8964 103.828C32.2453 103.79 31.601 103.683 30.9766 103.509C13.0041 98.4683 0.0221681 80.8059 5.90348 62.9588C5.90651 62.9483 5.90045 62.9339 5.90348 62.9234C5.93523 62.8274 5.94742 62.7358 5.98028 62.6398H6.01867C8.53255 54.2295 14.5487 46.2037 23.6428 42.0458C24.9797 25.8234 41.7357 12.6317 59.8125 16.2059V16.1705C61.3125 16.2138 62.5478 16.3994 63.6138 16.6667C71.9321 7.43297 84.8198 3.12819 97.1726 3.51637C97.1853 3.51677 97.1982 3.51596 97.211 3.51637C97.3382 3.52047 97.4678 3.51129 97.5949 3.51637Z" fill="white" stroke="#333333" stroke-width="5.17014"/>
<path id="path2987" d="M126.772 48.0052C134.522 5.1704 76.9536 1.44666 67.0759 29.4776C54.9043 17.0043 29.6699 26.6476 33.6258 48.4803C13.9797 49.5781 0.378913 84.2191 34.1404 95.0367H126.772C157.834 87.7036 149.006 50.7984 126.772 48.0052Z" fill="#333333"/>
</g>
</g>
<g id="cloud-2">
<path id="rect3799" opacity="0.01" d="M156 116H316V236H156V116Z" fill="#FF8080"/>
<g id="g3801">
<path id="path3803" d="M253.595 119.516V119.552C273.955 119.712 291.536 134.792 292.414 153.792C292.833 155.549 292.926 157.015 292.836 158.117C315.795 169.516 318.735 202.829 295.332 215.61C295.317 215.619 295.309 215.636 295.294 215.645C295.187 215.703 295.094 215.765 294.987 215.822L294.948 215.787C287.353 220.142 279.137 220.756 272.102 220.643C264.951 220.528 258.547 219.873 253.633 220.359C253.289 220.391 252.943 220.403 252.597 220.395C231.942 220.039 210.48 221.111 188.896 219.828C188.245 219.79 187.601 219.683 186.977 219.509C169.004 214.468 156.022 196.806 161.903 178.959C161.906 178.948 161.9 178.934 161.903 178.923C161.935 178.827 161.947 178.736 161.98 178.64H162.019C164.533 170.23 170.549 162.204 179.643 158.046C180.98 141.823 197.736 128.632 215.813 132.206V132.17C217.313 132.214 218.548 132.399 219.614 132.667C227.932 123.433 240.82 119.128 253.173 119.516C253.185 119.517 253.198 119.516 253.211 119.516C253.338 119.52 253.468 119.511 253.595 119.516Z" fill="white" stroke="#333333" stroke-width="5.17014"/>
</g>
</g>
<g id="cloud-3">
<path id="rect3809" opacity="0.01" d="M9.53674e-06 240H160V360H9.53674e-06V240Z" fill="#D38D5F"/>
<g id="g3811">
<path id="path3813" d="M97.5949 243.516V243.552C117.955 243.712 135.536 258.792 136.414 277.792C136.833 279.549 136.926 281.015 136.836 282.117C159.795 293.516 162.735 326.829 139.332 339.61C139.317 339.619 139.309 339.636 139.294 339.645C139.187 339.703 139.094 339.765 138.987 339.822L138.948 339.787C131.353 344.142 123.137 344.756 116.102 344.643C108.951 344.528 102.547 343.873 97.6333 344.359C97.2889 344.391 96.9427 344.403 96.5966 344.395C75.9423 344.039 54.4804 345.111 32.8964 343.828C32.2453 343.79 31.601 343.683 30.9766 343.509C13.0041 338.468 0.0221681 320.806 5.90348 302.959C5.90651 302.948 5.90045 302.934 5.90348 302.923C5.93523 302.827 5.94742 302.736 5.98028 302.64H6.01867C8.53255 294.23 14.5487 286.204 23.6428 282.046C24.9797 265.823 41.7357 252.632 59.8125 256.206V256.17C61.3125 256.214 62.5478 256.399 63.6138 256.667C71.9321 247.433 84.8198 243.128 97.1726 243.516C97.1853 243.517 97.1982 243.516 97.211 243.516C97.3382 243.52 97.4678 243.511 97.5949 243.516Z" fill="white" stroke="#808080" stroke-width="5.17014"/>
</g>
</g>
<g id="g4338">
<g id="g4342">
<path id="path4344" d="M417.595 3.51637V3.55182C437.955 3.7124 455.536 18.7916 456.414 37.7924C456.833 39.5488 456.926 41.0146 456.836 42.1167C479.795 53.5162 482.735 86.8286 459.332 99.6097C459.317 99.6186 459.309 99.6362 459.294 99.6451C459.187 99.7031 459.094 99.7652 458.987 99.8223L458.948 99.7869C451.353 104.142 443.137 104.756 436.102 104.643C428.951 104.528 422.547 103.873 417.633 104.359C417.289 104.391 416.943 104.403 416.597 104.395C395.942 104.039 374.48 105.111 352.896 103.828C352.245 103.79 351.601 103.683 350.977 103.509C333.004 98.4683 320.022 80.8059 325.903 62.9588C325.906 62.9483 325.9 62.9339 325.903 62.9234C325.935 62.8274 325.947 62.7358 325.98 62.6398H326.019C328.533 54.2295 334.549 46.2037 343.643 42.0458C344.98 25.8234 361.736 12.6317 379.813 16.2059V16.1705C381.313 16.2138 382.548 16.3994 383.614 16.6667C391.932 7.43297 404.82 3.12819 417.173 3.51637C417.185 3.51677 417.198 3.51596 417.211 3.51637C417.338 3.52047 417.468 3.51129 417.595 3.51637Z" fill="white" stroke="#333333" stroke-width="5.17014"/>
</g>
</g>
<g id="g4348">
<g id="g4352">
<path id="path4354" d="M417.595 123.516V123.552C437.955 123.712 455.536 138.792 456.414 157.792C456.833 159.549 456.926 161.015 456.836 162.117C479.795 173.516 482.735 206.829 459.332 219.61C459.317 219.619 459.309 219.636 459.294 219.645C459.187 219.703 459.094 219.765 458.987 219.822L458.948 219.787C451.353 224.142 443.137 224.756 436.102 224.643C428.951 224.528 422.547 223.873 417.633 224.359C417.289 224.391 416.943 224.403 416.597 224.395C395.942 224.039 374.48 225.111 352.896 223.828C352.245 223.79 351.601 223.683 350.977 223.509C333.004 218.468 320.022 200.806 325.903 182.959C325.906 182.948 325.9 182.934 325.903 182.923C325.935 182.827 325.947 182.736 325.98 182.64H326.019C328.533 174.23 334.549 166.204 343.643 162.046C344.98 145.823 361.736 132.632 379.813 136.206V136.17C381.313 136.214 382.548 136.399 383.614 136.667C391.932 127.433 404.82 123.128 417.173 123.516C417.185 123.517 417.198 123.516 417.211 123.516C417.338 123.52 417.468 123.511 417.595 123.516Z" fill="white" stroke="#333333" stroke-width="5.17014"/>
</g>
</g>
<g id="g4356">
<g id="g4360">
<path id="path4362" d="M417.595 243.516V243.552C437.955 243.712 455.536 258.792 456.414 277.792C456.833 279.549 456.926 281.015 456.836 282.117C479.795 293.516 482.735 326.829 459.332 339.61C459.317 339.619 459.309 339.636 459.294 339.645C459.187 339.703 459.094 339.765 458.987 339.822L458.948 339.787C451.353 344.142 443.137 344.756 436.102 344.643C428.951 344.528 422.547 343.873 417.633 344.359C417.289 344.391 416.943 344.403 416.597 344.395C395.942 344.039 374.48 345.111 352.896 343.828C352.245 343.79 351.601 343.683 350.977 343.509C333.004 338.468 320.022 320.806 325.903 302.959C325.906 302.948 325.9 302.934 325.903 302.923C325.935 302.827 325.947 302.736 325.98 302.64H326.019C328.533 294.23 334.549 286.204 343.643 282.046C344.98 265.823 361.736 252.632 379.813 256.206V256.17C381.313 256.214 382.548 256.399 383.614 256.667C391.932 247.433 404.82 243.128 417.173 243.516C417.185 243.517 417.198 243.516 417.211 243.516C417.338 243.52 417.468 243.511 417.595 243.516Z" fill="white" stroke="#808080" stroke-width="5.17014"/>
</g>
</g>
</g>
</svg>
