<svg width="160" height="120" viewBox="0 0 160 120" fill="none" xmlns="http://www.w3.org/2000/svg">
<path opacity="0.01" d="M9.53674e-06 0H160V120H9.53674e-06V0Z" fill="#D38D5F"/>
<path d="M97.5949 3.51637V3.55181C117.955 3.71239 135.536 18.7916 136.414 37.7924C136.833 39.5488 136.926 41.0146 136.836 42.1167C159.795 53.5162 162.735 86.8286 139.332 99.6097C139.317 99.6186 139.309 99.6362 139.294 99.6451C139.187 99.7031 139.094 99.7652 138.987 99.8223L138.948 99.7869C131.353 104.142 123.137 104.756 116.102 104.643C108.951 104.528 102.547 103.873 97.6333 104.359C97.2889 104.391 96.9427 104.403 96.5966 104.395C75.9423 104.039 54.4804 105.111 32.8964 103.828C32.2453 103.79 31.601 103.683 30.9766 103.509C13.0041 98.4683 0.0221681 80.8059 5.90348 62.9588C5.90651 62.9483 5.90045 62.9339 5.90348 62.9234C5.93523 62.8274 5.94742 62.7358 5.98028 62.6398H6.01867C8.53255 54.2295 14.5487 46.2037 23.6428 42.0458C24.9797 25.8234 41.7357 12.6317 59.8125 16.2059V16.1705C61.3125 16.2138 62.5478 16.3994 63.6138 16.6667C71.9321 7.43296 84.8198 3.12818 97.1726 3.51637C97.1853 3.51677 97.1982 3.51596 97.211 3.51637C97.3382 3.52047 97.4678 3.51128 97.5949 3.51637Z" fill="white" stroke="#808080" stroke-width="5.17014"/>
</svg>
