<svg width="370" height="420" viewBox="0 0 370 420" fill="none" xmlns="http://www.w3.org/2000/svg">
<g id="EU">
<g id="group">
<path id="path7029" d="M124.418 169.065C124.045 168.461 123.245 168.274 122.639 168.648C121.905 169.101 121.779 168.701 122.261 167.445C122.659 166.409 122.676 165.869 122.3 166.245C121.119 167.426 117.878 165.022 117.878 162.965C117.878 161.884 118.355 161 118.937 161C119.52 161 119.718 160.55 119.378 160C119.038 159.45 119.103 158.445 119.522 157.768C121.172 155.097 120.585 153.333 118.198 153.79C116.922 154.034 115.871 154.743 115.863 155.367C115.855 155.993 115.439 155.854 114.934 155.057C114.28 154.023 114.607 153.314 116.088 152.557C118.184 151.485 119.569 145.131 117.762 144.875C117.276 144.806 116.353 144.694 115.712 144.625C115.07 144.556 114.368 143.969 114.152 143.32C113.708 141.99 122.061 140.377 123.807 141.456C124.462 141.861 124.878 141.124 124.878 139.559C124.878 136.677 123.728 136.271 121.878 138.5C120.302 140.399 116.174 140.438 114.307 138.571C113.485 137.75 112.878 135.2 112.878 132.571C112.878 128.502 113.125 127.998 115.128 127.985C116.366 127.976 118.053 127.533 118.878 127C119.991 126.281 119.345 126.009 116.378 125.948C112.764 125.873 112.595 125.76 114.628 124.78C115.866 124.183 116.878 123.281 116.878 122.776C116.878 122.27 117.891 121.99 119.128 122.152C120.366 122.314 121.603 122.009 121.878 121.473C122.153 120.938 121.293 120.347 119.966 120.159C118.194 119.909 117.915 119.596 118.912 118.979C119.67 118.511 121.069 118.567 122.074 119.105C124.443 120.373 124.615 117.512 122.25 116.188C121.137 115.565 120.978 115.056 121.75 114.579C122.371 114.196 122.878 114.189 122.878 114.563C122.878 114.938 123.534 114.701 124.334 114.036C125.135 113.372 126.337 113.165 127.004 113.578C127.826 114.085 128.024 113.821 127.617 112.761C127.286 111.899 127.651 110.363 128.428 109.347C129.656 107.741 129.971 107.696 130.844 109C131.629 110.174 131.851 110.203 131.863 109.133C131.873 108.245 132.604 107.957 133.953 108.309C136.606 109.003 140.088 105.709 139.186 103.359C138.83 102.431 138.952 101.924 139.458 102.233C139.964 102.541 141.257 101.603 142.332 100.147C144.27 97.5211 144.27 97.5114 142.332 98.9342C141.257 99.723 139.213 101.699 137.789 103.325C135.873 105.513 135.059 105.915 134.659 104.87C133.881 102.843 136.833 96 138.485 96C139.251 96 139.946 95.325 140.028 94.5C140.111 93.675 140.223 92.4431 140.278 91.7625C140.333 91.0819 141.728 89.2952 143.378 87.7919C145.028 86.2886 145.835 85.0454 145.171 85.0293C144.4 85.0106 144.101 83.8238 144.345 81.75C144.933 76.7433 145.356 75.3337 146.795 73.6009C147.921 72.2437 147.873 72 146.482 72C145.213 72 144.976 71.3756 145.437 69.25C146.508 64.3151 148.182 61.9805 151.307 61.0615C154.107 60.2382 154.19 60.0996 152.248 59.4937C150.215 58.8596 150.188 58.6866 151.667 55.7212C152.789 53.4725 152.894 52.5054 152.048 52.2233C150.057 51.5596 150.762 49.7364 152.803 50.2702C154.15 50.6225 154.57 50.3591 154.199 49.3933C153.884 48.5718 154.586 47.6736 155.934 47.175C157.546 46.5789 157.792 46.1842 156.789 45.807C156.013 45.5154 154.478 45.6329 153.378 46.0681C152.278 46.5034 151.967 46.8911 152.687 46.9297C153.407 46.9684 153.738 47.4186 153.422 47.9301C152.708 49.084 147.384 48.6081 147.363 47.3886C147.355 46.8999 147.047 46.0286 146.679 45.4523C145.556 43.6921 147.517 41.6723 149.776 42.263C150.969 42.5751 151.878 42.3383 151.878 41.7153C151.878 41.1117 152.471 41.4287 153.196 42.4198C154.431 44.1084 154.62 44.1159 156.196 42.5395C157.121 41.6142 157.871 40.5518 157.863 40.1786C157.836 38.9693 156.405 37.1936 155.378 37.0955C154.828 37.043 154.378 36.2125 154.378 35.25C154.378 33.8656 155.08 33.5686 157.736 33.8284C159.582 34.009 160.843 33.7522 160.538 33.2577C160.232 32.7633 160.93 30.8155 162.088 28.9294L164.195 25.5L165.447 28.5L166.7 31.5L167.039 28C167.319 25.108 167.769 24.5138 169.628 24.5794C172.485 24.6803 172.573 22.3553 169.746 21.4581C168.198 20.9666 167.964 20.5652 168.892 19.9916C169.595 19.5572 169.899 18.4958 169.568 17.633C169.237 16.7701 169.396 15.7981 169.922 15.473C170.728 14.9749 171.309 16.8585 171.043 19.1107C171.004 19.4465 172.009 20.1941 173.277 20.7718C175.364 21.7227 175.589 21.57 175.655 19.1612C175.789 14.2846 177.124 9.75386 178.973 7.90518C180.745 6.13342 180.822 6.18411 181.45 9.53158C181.807 11.432 181.815 14.1148 181.469 15.4934C181.106 16.9406 181.271 18 181.859 18C182.42 18 182.885 15.8625 182.894 13.25C182.902 10.6375 183.345 7.82502 183.878 7.00002C184.714 5.70733 184.85 5.73373 184.863 7.191C184.871 8.12104 185.364 9.18193 185.957 9.54849C186.667 9.98731 186.923 9.07827 186.707 6.88717C186.457 4.35602 186.797 3.4749 188.128 3.20638C189.5 2.92969 189.878 3.53587 189.878 6.01003C189.878 8.09357 190.303 9.02332 191.128 8.74502C191.816 8.51311 192.378 7.23814 192.378 5.91171C192.378 4.0424 192.941 3.46928 194.878 3.36324C196.946 3.2501 200.226 4.30012 201.709 5.54983C202.515 6.22851 199.662 10 198.343 10C197.537 10 196.878 10.4019 196.878 10.893C196.878 12.2815 199.785 13.0616 202.458 12.3907C203.928 12.0217 204.878 12.2184 204.878 12.8916C204.878 13.5013 204.486 14 204.006 14C203.526 14 202.802 15.9125 202.396 18.25L201.658 22.5L200.328 19.4044C198.977 16.2577 195.046 13 192.602 13C191.861 13 190.227 14.3904 188.97 16.0896C186.947 18.8263 186.803 19.6544 187.712 23.3396C188.277 25.6279 188.493 28.7331 188.194 30.2403C187.742 32.5126 187.256 32.8818 185.346 32.4025C183.663 31.9801 182.742 32.3867 181.925 33.9123C180.442 36.6836 179.582 36.5572 175.493 32.9667C172.206 30.0804 171.974 30.023 170.708 31.7826C169.977 32.7996 168.54 33.9449 167.516 34.3277C165.912 34.927 165.842 35.2517 167.016 36.6651C168.849 38.8739 168.921 43.2303 167.112 42.5362C164.808 41.652 159.702 44.8707 160.32 46.8179C160.681 47.9551 160.111 48.8629 158.626 49.5159C155.512 50.8849 153.268 55.7933 154.705 58.0937C156.183 60.4604 155.056 70.1666 153.124 71.7082C151.931 72.6608 151.751 74.1623 152.277 78.8073C152.671 82.2914 152.506 85.8497 151.872 87.5163C151.247 89.1601 151.177 90.577 151.705 90.9171C152.202 91.2377 152.92 92.4975 153.3 93.7167C153.868 95.5358 153.526 96.0503 151.395 96.5852C147.63 97.5301 144.569 103.91 145.542 108.786C145.95 110.829 146.188 112.851 146.071 113.28C145.954 113.709 146.538 115.374 147.368 116.981C148.199 118.587 148.878 121.165 148.878 122.71C148.878 124.436 149.649 126 150.878 126.768C152.89 128.024 153.729 133 151.929 133C151.407 133 151.645 134.591 152.458 136.535C153.745 139.616 153.752 140.686 152.515 144.853C151.571 148.031 151.412 150.202 152.041 151.325C153.356 153.676 152.368 154.816 149.492 154.267C147.511 153.888 146.885 152.936 146.128 149.151L145.198 144.5L144.038 147.316C143.246 149.237 143.194 150.721 143.873 151.99C144.684 153.505 144.1 154.647 140.708 158.174C138.421 160.553 135.745 163.82 134.763 165.434C133.78 167.048 132.392 168.464 131.677 168.58C130.963 168.697 129.19 169.1 127.737 169.477C126.17 169.884 124.821 169.716 124.418 169.065ZM180.568 10.25C180.316 9.28752 180.11 10.075 180.11 12C180.11 13.925 180.316 14.7125 180.568 13.75C180.819 12.7875 180.819 11.2125 180.568 10.25Z" fill="#D3D3D3"/>
<path id="path7027" d="M334.576 194.832C332.366 192.418 331.2 191.886 329.057 192.314C326.029 192.92 323.256 191.122 320.591 186.826C317.993 182.639 315.831 182.573 309.34 186.481C306.126 188.416 303.215 190 302.871 190C302.528 190 301.238 188.205 300.005 186.011L297.763 182.023L301.321 180.326C303.287 179.388 304.878 177.887 304.878 176.97C304.878 174.676 301.685 172 298.947 172C295.282 172 287.05 166.83 285.762 163.718C285.124 162.178 283.736 159.817 282.677 158.471L280.752 156.024L277.05 157.913C273.686 159.628 273.086 159.665 270.501 158.31C268.681 157.357 266.448 157.046 264.306 157.448C261.198 158.031 260.818 157.804 259.015 154.288C257.947 152.205 255.918 149.422 254.506 148.105C253.095 146.787 252.194 145.299 252.504 144.797C252.814 144.295 251.905 142.127 250.484 139.98C248.33 136.725 248.068 135.63 248.914 133.405C250.362 129.597 249.199 127.032 245.282 125.395C243.41 124.613 241.878 123.722 241.878 123.415C241.878 122.321 244.651 120.106 245.259 120.714C245.831 121.286 246.274 119.505 245.997 117.75C245.879 117.003 246.654 116.796 250.29 116.602C251.341 116.546 252.373 115.993 252.582 115.373C253.11 113.812 250.091 112.82 248.056 113.885C245.947 114.99 242.357 113.69 241.524 111.52C241.177 110.614 240.439 110.153 239.885 110.496C238.318 111.464 238.65 109.718 241.878 100C245.171 90.0885 245.421 87.855 243.767 83.1095C242.962 80.8027 241.327 79.2473 237.853 77.4872C234.057 75.5638 233.159 74.6432 233.564 73.0931C233.915 71.75 232.953 70.0085 230.511 67.566C228.55 65.6047 226.469 64 225.887 64C225.305 64 224.558 62.65 224.228 61C223.898 59.35 223.179 58 222.631 58C222.016 58 222.053 57.4951 222.726 56.6832C223.565 55.6725 222.683 54.2478 218.932 50.5526C214.494 46.1814 213.981 45.1965 213.36 39.8427C212.763 34.6953 212.314 33.7595 209.827 32.4733C208.26 31.663 206.269 31 205.403 31C204.453 31 203.59 29.8092 203.228 28C202.898 26.35 202.29 25 201.877 25C200.969 25 204.064 15.6399 205.128 15.1667C205.541 14.9833 205.878 14.3887 205.878 13.8452C205.878 13.3018 206.594 12.1413 207.469 11.2664C208.737 9.99831 209.222 9.93878 209.862 10.9731C210.377 11.8062 211.597 12.0364 213.271 11.6163C215.303 11.1063 215.878 11.3312 215.878 12.6359C215.878 14.1313 216.065 14.151 217.628 12.8197C221.425 9.58674 225.689 8.70453 233.661 9.50293C242.053 10.3433 250.443 11.0386 252.985 11.1043C253.869 11.1271 256.007 12.4377 257.735 14.0165C262.623 18.4808 261.978 25.3083 256.153 30.7703C253.981 32.8068 247.96 34.2625 236.861 35.4344C236.026 35.5226 234.816 35.9205 234.171 36.3188C233.527 36.7171 231.06 36.7795 228.689 36.4574L224.378 35.8718L228.378 38.4315C230.578 39.8393 234.741 41.6808 237.628 42.5236C241.798 43.7407 242.878 44.4859 242.878 46.1459C242.878 49.4331 250.904 57.8207 254.187 57.9645C254.632 57.984 254.671 57.4735 254.273 56.8301C253.759 55.9983 254.104 55.9006 255.464 56.4919C256.517 56.9494 258.953 57.5058 260.878 57.7285C263.61 58.0444 264.655 57.6797 265.637 56.0667C267.475 53.0488 265.29 49.7127 261.878 50.3278C258.254 50.9814 255.557 49.6751 255.373 47.1764C255.253 45.5492 255.77 45 257.423 45C258.639 45 260.183 45.6624 260.855 46.4721C261.931 47.7683 262.253 47.7683 263.549 46.4721C264.359 45.6624 266.077 45 267.366 45C268.656 45 269.88 44.4957 270.085 43.8794C270.291 43.2631 272.241 42.6562 274.419 42.5309C276.596 42.4056 279.475 41.9529 280.815 41.5248C283.117 40.7897 283.151 40.6726 281.427 39.412C280.129 38.463 279.063 38.3661 277.735 39.0767C276.413 39.7844 274.547 39.6272 271.338 38.5379C268.847 37.692 266.099 37 265.232 37C263.955 37 263.786 36.2872 264.341 33.25C264.718 31.1875 265.677 28.4895 266.472 27.2544C267.33 25.9229 267.664 23.9956 267.294 22.5195C266.774 20.4489 267.136 19.8525 269.446 18.9742C270.974 18.3935 272.783 18.1333 273.468 18.3961C275.375 19.1278 276.059 16.0765 274.825 12.3397C273.673 8.84733 270.609 6.43019 268.774 7.56476C268.109 7.97577 267.835 7.33746 268.044 5.86096C268.326 3.86796 268.924 3.51646 271.878 3.60553C273.803 3.66356 276.149 4.04264 277.09 4.44794C278.276 4.95812 279.542 4.38723 281.205 2.59247L283.608 0H326.743H369.878V97.9686C369.878 183.438 369.692 195.866 368.419 195.377C367.616 195.069 364.673 195.307 361.88 195.906C357.659 196.811 356.398 196.731 354.416 195.433C352.251 194.014 351.748 194.016 348.972 195.452C347.289 196.322 343.993 197.227 341.646 197.464C337.89 197.842 337.042 197.527 334.576 194.832Z" fill="#D3D3D3"/>
<path id="path7025" d="M209.878 127.933C209.878 126.46 209.178 126 206.935 126C203.217 126 200.878 122.848 200.878 117.837C200.878 115.791 200.457 113.858 199.942 113.54C199.428 113.221 197.842 110.581 196.418 107.672L193.831 102.382L196.983 95.4411C200.56 87.5652 203.817 78.2891 203.854 75.8725C203.867 74.9773 204.557 73.682 205.386 72.9939C206.703 71.9006 206.577 71.4501 204.386 69.4193C203.007 68.1412 201.878 66.624 201.878 66.0477C201.878 65.4715 201.541 65.0533 201.128 65.1184C196.854 65.7934 195.843 64.7443 191.375 55C186.302 43.9342 184.404 41.5692 178.023 38.3675C170.563 34.6246 170.46 34.5336 171.261 32.445C171.796 31.0503 172.421 31.2691 175.419 33.9019C179.58 37.5553 180.298 37.6664 182.2 34.9506C183.263 33.4342 184.285 33.064 186.132 33.5276C188.357 34.086 188.687 33.7924 189.16 30.8271C189.452 28.9972 189.238 25.6197 188.684 23.3216C187.835 19.7972 187.967 18.7456 189.528 16.603C191.688 13.6374 193.069 13.4237 196.318 15.5526C198.367 16.8948 199.96 20.001 200.396 23.5C200.757 26.3994 203.975 32 205.28 32C206.107 32 207.893 32.505 209.247 33.1223C211.307 34.0606 211.82 35.1865 212.377 39.9917C212.979 45.1758 213.525 46.2119 217.948 50.5686C220.664 53.2435 222.398 55.6789 221.835 56.0269C221.179 56.432 221.359 57.6934 222.342 59.5777C223.18 61.185 223.869 63.0625 223.872 63.75C223.876 64.4375 224.778 65 225.878 65C226.978 65 227.878 65.5989 227.878 66.331C227.878 67.0631 229.04 68.284 230.461 69.0441C232.518 70.1453 232.936 70.963 232.515 73.0675C232.041 75.4345 232.502 75.9501 236.945 78.0314C241.119 79.9863 242.091 80.979 243.087 84.3024C244.344 88.4973 244.351 88.4585 238.742 107.157C236.476 114.711 236.395 114.822 232.662 115.419C230.581 115.751 228.878 116.405 228.878 116.872C228.878 117.339 227.303 119.39 225.378 121.431C223.453 123.472 221.878 125.452 221.878 125.831C221.878 127.206 217.567 129.162 213.769 129.51C210.467 129.812 209.878 129.574 209.878 127.933Z" fill="#D3D3D3"/>
<path id="path7033" d="M167.731 194.275C168.607 192.638 168.338 191.891 166.204 190.035C164.67 188.702 164.036 187.521 164.65 187.141C165.22 186.789 165.822 186.275 165.987 186C166.406 185.301 162.6 179 161.758 179C160.423 179 155.803 169.985 155.995 167.756C156.424 162.771 156.017 161.855 153.878 163C152.778 163.589 151.848 163.717 151.811 163.285C151.774 162.853 151.552 161.038 151.319 159.25C151.086 157.463 151.293 156 151.78 156C153.196 156 153.963 152.973 152.988 151.232C152.426 150.228 152.616 147.88 153.497 144.911C154.477 141.613 154.611 139.426 153.941 137.664C153.413 136.276 153.235 133.574 153.546 131.66C153.992 128.912 153.665 127.798 151.995 126.368C150.831 125.371 149.878 123.508 149.878 122.228C149.878 120.948 149.17 118.531 148.305 116.857C147.439 115.184 146.944 113.601 147.205 113.34C147.466 113.079 147.235 111.256 146.692 109.288C145.913 106.465 146.071 104.899 147.443 101.856C148.4 99.7351 149.703 98 150.339 98C150.975 98 152.324 97.3942 153.337 96.6538C155.025 95.4199 155.054 95.0589 153.692 92.3279C152.668 90.2757 152.48 88.6061 153.087 86.9637C153.573 85.6521 153.67 82.1813 153.304 79.2509C152.801 75.2292 153.003 73.5032 154.124 72.2114C156.07 69.9705 157.142 60.3954 155.705 58.0937C154.142 55.5922 156.674 50.6028 159.726 50.1689C161.62 49.8996 161.944 49.3995 161.464 47.487C160.849 45.0346 162.987 43.5808 167.291 43.5249C169.735 43.4931 170.249 39.1994 168.102 36.75C165.635 33.9355 168.419 34.5348 176.609 38.5813C182.691 41.5867 184.182 42.833 185.881 46.3313C186.994 48.6241 188.547 51.625 189.331 53C190.115 54.375 191.713 57.483 192.883 59.9066C194.989 64.2708 194.991 64.332 193.066 66.257C191.444 67.8786 190.758 68.0059 188.924 67.0247C186.884 65.9327 186.807 65.9984 187.849 67.945C188.466 69.098 188.664 70.5383 188.288 71.1455C186.871 73.4396 186.976 81.4507 188.446 83.0744C190.871 85.7542 188.253 91.7782 180.713 100.869C180.088 101.622 179.466 103.254 179.329 104.495C179.193 105.736 178.644 107.595 178.11 108.626C176.71 111.325 177.369 121.858 179.214 126.266C180.08 128.337 181.597 130.373 182.584 130.79C186.142 132.294 191.878 136.218 191.878 137.148C191.878 137.671 191.227 139.358 190.432 140.896C189.636 142.435 189.234 144.644 189.538 145.806C189.936 147.327 189.208 148.725 186.943 150.794C183.873 153.598 183.822 153.787 184.866 158.446C185.522 161.373 185.581 163.665 185.017 164.362C184.457 165.056 184.48 167.646 185.078 171C186.348 178.127 184.361 183.515 180.121 184.447C176.815 185.173 174.281 188.575 175.738 190.331C177.293 192.205 174.724 194.751 170.473 195.548C166.897 196.219 166.732 196.143 167.731 194.275ZM195.101 167.591C194.384 166.015 194.314 164.849 194.916 164.477C195.445 164.15 195.931 162.896 195.994 161.691C196.102 159.661 196.146 159.647 196.602 161.5C196.872 162.6 197.458 163.951 197.903 164.503C198.349 165.055 198.159 166.542 197.481 167.808L196.249 170.11L195.101 167.591Z" fill="#D3D3D3"/>
<path id="path7039" d="M145.036 207.935C143.748 207.418 142.285 207.249 141.786 207.557C141.287 207.866 140.878 206.768 140.878 205.119C140.878 203.469 139.753 199 138.378 195.189C135.475 187.139 135.24 183.59 137.49 181.789C138.377 181.08 140.906 178.776 143.109 176.669C147.884 172.104 149.227 172.808 148.025 179.246C147.09 184.25 147.899 186 151.145 186C152.799 186 152.605 186.767 149.445 192.717C145.66 199.845 144.913 204.416 147.378 205.362C148.203 205.678 148.878 206.626 148.878 207.469C148.878 209.2 148.353 209.264 145.036 207.935Z" fill="#D3D3D3"/>
<path id="portugal" d="M7.1283 406.659C2.431 405.506 2.2406 405.134 4.3053 401.141C5.1752 399.459 5.3977 397.84 4.8751 396.995C4.3844 396.201 4.4353 394.828 4.9943 393.783C6.1423 391.638 5.2223 389.654 3.4034 390.352C1.4998 391.082 -0.5408 386.667 0.6411 384.375C1.1729 383.344 1.4064 381.938 1.1598 381.25C0.913302 380.563 1.1564 380 1.6999 380C3.0889 380 7.4761 372.193 8.4432 368C8.8872 366.075 9.2792 361.575 9.3144 358C9.3729 352.048 9.5674 351.473 11.6233 351.181C13.224 350.954 13.7123 351.269 13.3245 352.28C12.8885 353.416 14.2252 353.723 20.0622 353.831C26.362 353.948 27.5791 354.271 29.0889 356.233C31.374 359.202 31.3902 359.142 27.581 361.735C24.8236 363.612 24.0893 364.975 22.999 370.235C21.187 378.978 21.1765 379 18.9097 379C16.411 379 16.384 379.678 18.7304 383.5C20.4009 386.221 20.4355 386.79 19.1023 389.619C18.0335 391.888 17.9147 393.243 18.6669 394.587C19.4897 396.057 19.208 396.892 17.2897 398.67C15.9634 399.899 14.8783 401.961 14.8783 403.252C14.8783 405.465 13.137 408.179 11.9283 407.851C11.6258 407.769 9.4658 407.232 7.1283 406.659Z" fill="#D3D3D3"/>
<path id="france" d="M159.073 354.144C155.176 350.05 155.056 347.731 158.563 344.224L161.248 341.54L162.58 344.805C163.516 347.099 163.668 349.474 163.09 352.785L162.267 357.5L159.073 354.144ZM96.998 347.675C95.395 346.072 93.748 345.696 88.689 345.773C82.393 345.87 73.242 343.353 70.466 340.76C69.373 339.738 69.385 339.35 70.538 338.507C72.415 337.134 74.852 327.633 74.866 321.628C74.877 317.411 75.08 316.923 76.378 318C77.598 319.012 77.878 318.965 77.878 317.745C77.878 316.92 77.203 315.685 76.378 315C75.553 314.315 74.878 312.247 74.878 310.403C74.878 307.708 74.304 306.754 71.949 305.537C69.017 304.02 67.2381 300.845 68.3305 299.077C68.6502 298.56 67.9554 297.467 66.7866 296.648C65.6178 295.83 64.9109 294.756 65.2157 294.263C65.9539 293.069 54.1306 287.689 52.3059 288.389C51.5207 288.691 50.8783 288.763 50.8783 288.55C50.8783 288.338 50.5768 287.378 50.2084 286.418C49.7516 285.227 49.9107 284.902 50.7084 285.395C52.4285 286.458 52.1369 283.943 50.3053 281.919C48.8629 280.325 48.9036 280.127 50.7963 279.526C51.9316 279.166 53.2767 279.128 53.7855 279.443C54.2942 279.757 55.9411 279.546 57.4452 278.975C59.7069 278.115 60.5459 278.279 62.2946 279.921C63.6879 281.23 64.8834 281.615 65.7995 281.049C66.5642 280.576 68.6847 280.375 70.512 280.602C73.748 281.003 73.807 280.944 72.815 278.334C72.255 276.861 72.026 275.058 72.306 274.328C72.586 273.597 72.38 273 71.847 273C70.349 273 70.703 270.281 72.28 269.676C73.114 269.356 73.886 269.922 74.187 271.073C74.492 272.238 75.258 272.791 76.113 272.463C76.894 272.164 78.791 272.396 80.328 272.981C83.268 274.099 86.446 272.727 85.281 270.843C84.418 269.446 86.612 267.284 89.669 266.517C93.612 265.528 95.878 262.61 95.878 258.52C95.878 255.767 96.404 254.718 98.192 253.903C100.169 253.002 100.994 253.306 103.867 255.989C105.716 257.717 108.5 259.787 110.054 260.591C111.607 261.394 112.878 262.49 112.878 263.026C112.878 263.562 113.765 264 114.848 264C115.931 264 118.42 264.9 120.378 266C122.337 267.1 125.26 268 126.874 268C128.784 268 130.181 268.698 130.878 270C131.542 271.24 132.98 272.004 134.663 272.011C136.157 272.017 139.004 272.291 140.991 272.62L144.604 273.217L142.741 278.119C141.716 280.815 140.878 284.376 140.878 286.032C140.878 288.188 140.237 289.335 138.617 290.073C136.506 291.035 132.878 296.069 132.878 298.037C132.878 298.518 131.748 300.576 130.367 302.611C128.986 304.646 128.067 306.522 128.325 306.78C128.582 307.037 130.388 306.307 132.338 305.156C134.288 304.006 136.557 303.323 137.381 303.639C139.021 304.269 139.421 307.547 137.967 308.445C137.434 308.774 137.532 310.273 138.203 312.049C139.115 314.465 139.075 315.26 138.011 315.918C136.985 316.552 136.93 317.227 137.775 318.807C138.382 319.941 138.878 321.994 138.878 323.37C138.878 325.307 139.646 326.148 142.284 327.102C146.205 328.52 146.086 329.59 141.372 335.253C136.938 340.58 134.331 341.243 126.905 338.931C123.492 337.869 119.593 337 118.24 337C112.474 337 107.345 342.246 108.562 346.899C108.917 348.255 108.627 349.037 107.745 349.104C99.941 349.7 98.882 349.559 96.998 347.675Z" fill="#D3D3D3"/>
<path id="path7037" d="M43.7226 261.883C42.6764 261.22 42.7553 261.027 44.0786 261.015C45.0138 261.007 46.1388 260.391 46.5786 259.646C47.0184 258.901 48.3908 257.76 49.6283 257.111C50.8658 256.461 51.8783 255.286 51.8783 254.5C51.8783 252.53 55.0737 251 59.1901 251C62.508 251 65.5411 248.996 64.2212 247.676C63.8693 247.324 62.542 247.297 61.2717 247.616C59.7665 247.994 57.8902 247.433 55.8846 246.005C54.1921 244.799 52.2031 244.045 51.4646 244.329C50.1086 244.849 47.8783 243.276 47.8783 241.8C47.8783 241.36 48.5879 241 49.4552 241C50.3225 241 52.3172 239.715 53.8879 238.144C57.238 234.794 57.2715 231.371 53.9504 231.749C52.4155 231.923 51.9959 231.624 52.5452 230.749C52.9759 230.062 53.1881 228.649 53.0167 227.61C52.771 226.119 53.0935 225.884 54.5417 226.495C57.1899 227.613 61.1065 227.2 62.6689 225.638C63.4101 224.897 64.2254 222.472 64.4807 220.251C64.8734 216.832 64.6706 216.233 63.1615 216.356C61.7333 216.471 61.3653 215.704 61.3133 212.5L61.2483 208.5L55.5633 208.622C49.4412 208.753 48.7738 208.105 51.8575 205.021C53.3239 203.554 53.6801 202.259 53.2325 200.021C52.8549 198.133 53.0384 197 53.7219 197C54.3234 197 54.5935 196.421 54.3221 195.714C53.7944 194.339 49.8783 193.899 49.8783 195.214C49.8783 195.646 49.4545 196 48.9366 196C48.4186 196 47.9746 194.538 47.95 192.75C47.9254 190.963 47.8832 188.6 47.8561 187.5C47.7022 181.244 48.8787 174.473 50.3004 173.433C51.1683 172.799 51.8926 171.654 51.9101 170.89C51.9777 167.934 54.4642 166.294 59.6283 165.798C64.1758 165.361 64.8783 165.531 64.8783 167.065C64.8783 168.04 63.2635 169.835 61.2898 171.055C58.5452 172.751 58.016 173.494 59.0398 174.212C60.0853 174.947 60.1046 175.263 59.1283 175.659C58.4408 175.938 57.8783 176.836 57.8783 177.655C57.8783 178.92 58.1205 178.901 59.4937 177.527C60.7279 176.293 62.2027 176.058 65.7437 176.531C73.334 177.544 73.231 177.359 69.889 183.978C68.2173 187.29 66.3509 190 65.7414 190C64.9479 190 64.9579 190.391 65.7769 191.378C66.6779 192.464 66.4704 192.873 64.7987 193.311C63.5418 193.639 62.9631 194.328 63.3788 195.001C63.7648 195.625 64.7103 195.895 65.4801 195.599C66.2498 195.304 68.4757 196.464 70.426 198.176C73.425 200.809 73.876 201.735 73.342 204.166C72.831 206.493 73.258 207.561 75.583 209.77C78.647 212.682 83.37 219 82.482 219C82.189 219 82.86 221.125 83.973 223.722C85.495 227.273 85.751 228.984 85.005 230.622C83.67 233.55 84.608 234.223 87.44 232.368C90.764 230.19 95.498 232.457 95.119 236.046C94.694 240.075 92.781 243.896 90.887 244.497C88.882 245.134 88.728 248.085 90.636 249.304C91.328 249.746 92.399 249.796 93.016 249.415C95.309 247.998 93.179 251.433 90.545 253.4C88.502 254.925 86.167 255.451 81.034 255.543C77.292 255.61 73.775 255.946 73.218 256.29C71.72 257.216 65.6367 257.369 63.65 256.532C62.4456 256.024 61.0454 256.679 59.0305 258.694C56.558 261.166 55.8669 261.408 54.2588 260.361C52.7263 259.363 51.7018 259.47 48.7226 260.936C46.4678 262.045 44.5517 262.408 43.7226 261.883ZM40.0602 214.5C38.7796 211.689 37.1031 211.251 36.2399 213.5C35.4356 215.596 34.1461 215.369 32.8238 212.898C31.8742 211.124 32.1225 210.355 34.4186 207.958C36.0549 206.25 36.8997 204.498 36.5395 203.56C35.8836 201.85 37.3852 201.393 38.3783 203C38.7182 203.55 39.9823 204.003 41.1873 204.008C42.7073 204.013 44.109 205.294 45.7644 208.192L48.1504 212.369L45.4586 214.685C42.0659 217.603 41.4646 217.582 40.0602 214.5ZM51.8783 216.559C51.8783 216.317 52.3283 215.84 52.8783 215.5C53.4283 215.16 53.8783 215.359 53.8783 215.941C53.8783 216.523 53.4283 217 52.8783 217C52.3283 217 51.8783 216.802 51.8783 216.559ZM43.4853 179.418C42.6725 177.3 42.6749 177.292 44.2752 176.678C45.1779 176.332 45.8365 177.001 46.1366 178.571C46.6602 181.31 44.4789 182.008 43.4853 179.418ZM41.4786 172.162C40.5867 170.719 41.4037 169.324 43.9339 167.97C46.3962 166.652 46.4443 168.08 44.0376 171.052C42.7772 172.608 41.9705 172.958 41.4786 172.162ZM63.8783 162.335C63.8783 160.362 66.3364 158 68.3902 158C70.222 158 69.903 160.426 68.045 160.625C65.5964 160.887 65.4174 161.055 66.7128 161.877C67.7274 162.52 67.5477 162.853 65.9628 163.268C64.5446 163.639 63.8783 163.34 63.8783 162.335ZM75.922 149.833C75.898 148.917 75.402 148.008 74.821 147.814C73.26 147.294 74.596 144.769 77.597 142.571C80.198 140.665 80.22 140.665 79.419 142.571C78.973 143.632 78.014 146.075 77.287 148C76.561 149.925 75.946 150.75 75.922 149.833Z" fill="#D3D3D3"/>
<path id="path7023" d="M43.7226 261.883C42.6764 261.22 42.7553 261.027 44.0786 261.015C45.0138 261.007 46.1388 260.391 46.5786 259.646C47.0184 258.901 48.3908 257.76 49.6283 257.111C50.8658 256.461 51.8783 255.286 51.8783 254.5C51.8783 252.53 55.0737 251 59.1901 251C62.508 251 65.5411 248.996 64.2212 247.676C63.8693 247.324 62.542 247.297 61.2717 247.616C59.7665 247.994 57.8902 247.433 55.8846 246.005C54.1921 244.799 52.2031 244.045 51.4646 244.329C50.1086 244.849 47.8783 243.276 47.8783 241.8C47.8783 241.36 48.5879 241 49.4552 241C50.3225 241 52.3172 239.715 53.8879 238.144C57.238 234.794 57.2715 231.371 53.9504 231.749C52.4155 231.923 51.9959 231.624 52.5452 230.749C52.9759 230.062 53.1881 228.649 53.0167 227.61C52.771 226.119 53.0935 225.884 54.5417 226.495C57.1899 227.613 61.1065 227.2 62.6689 225.638C63.4101 224.897 64.2254 222.472 64.4807 220.251C64.8734 216.832 64.6706 216.233 63.1615 216.356C61.7333 216.471 61.3653 215.704 61.3133 212.5L61.2483 208.5L55.5633 208.622C49.4412 208.753 48.7738 208.105 51.8575 205.021C53.3239 203.554 53.6801 202.259 53.2325 200.021C52.8549 198.133 53.0384 197 53.7219 197C54.3234 197 54.5935 196.421 54.3221 195.714C53.7944 194.339 49.8783 193.899 49.8783 195.214C49.8783 195.646 49.4545 196 48.9366 196C48.4186 196 47.9746 194.538 47.95 192.75C47.9254 190.963 47.8832 188.6 47.8561 187.5C47.7022 181.244 48.8787 174.473 50.3004 173.433C51.1683 172.799 51.8926 171.654 51.9101 170.89C51.9777 167.934 54.4642 166.294 59.6283 165.798C64.1758 165.361 64.8783 165.531 64.8783 167.065C64.8783 168.04 63.2635 169.835 61.2898 171.055C58.5452 172.751 58.016 173.494 59.0398 174.212C60.0853 174.947 60.1046 175.263 59.1283 175.659C58.4408 175.938 57.8783 176.836 57.8783 177.655C57.8783 178.92 58.1205 178.901 59.4937 177.527C60.7279 176.293 62.2027 176.058 65.7437 176.531C73.334 177.544 73.231 177.359 69.889 183.978C68.2173 187.29 66.3509 190 65.7414 190C64.9479 190 64.9579 190.391 65.7769 191.378C66.6779 192.464 66.4704 192.873 64.7987 193.311C63.5418 193.639 62.9631 194.328 63.3788 195.001C63.7648 195.625 64.7103 195.895 65.4801 195.599C66.2498 195.304 68.4757 196.464 70.426 198.176C73.425 200.809 73.876 201.735 73.342 204.166C72.831 206.493 73.258 207.561 75.583 209.77C78.647 212.682 83.37 219 82.482 219C82.189 219 82.86 221.125 83.973 223.722C85.495 227.273 85.751 228.984 85.005 230.622C83.67 233.55 84.608 234.223 87.44 232.368C90.764 230.19 95.498 232.457 95.119 236.046C94.694 240.075 92.781 243.896 90.887 244.497C88.882 245.134 88.728 248.085 90.636 249.304C91.328 249.746 92.399 249.796 93.016 249.415C95.309 247.998 93.179 251.433 90.545 253.4C88.502 254.925 86.167 255.451 81.034 255.543C77.292 255.61 73.775 255.946 73.218 256.29C71.72 257.216 65.6367 257.369 63.65 256.532C62.4456 256.024 61.0454 256.679 59.0305 258.694C56.558 261.166 55.8669 261.408 54.2588 260.361C52.7263 259.363 51.7018 259.47 48.7226 260.936C46.4678 262.045 44.5517 262.408 43.7226 261.883ZM40.0602 214.5C38.7796 211.689 37.1031 211.251 36.2399 213.5C35.4356 215.596 34.1461 215.369 32.8238 212.898C31.8742 211.124 32.1225 210.355 34.4186 207.958C36.0549 206.25 36.8997 204.498 36.5395 203.56C35.8836 201.85 37.3852 201.393 38.3783 203C38.7182 203.55 39.9823 204.003 41.1873 204.008C42.7073 204.013 44.109 205.294 45.7644 208.192L48.1504 212.369L45.4586 214.685C42.0659 217.603 41.4646 217.582 40.0602 214.5ZM51.8783 216.559C51.8783 216.317 52.3283 215.84 52.8783 215.5C53.4283 215.16 53.8783 215.359 53.8783 215.941C53.8783 216.523 53.4283 217 52.8783 217C52.3283 217 51.8783 216.802 51.8783 216.559ZM43.4853 179.418C42.6725 177.3 42.6749 177.292 44.2752 176.678C45.1779 176.332 45.8365 177.001 46.1366 178.571C46.6602 181.31 44.4789 182.008 43.4853 179.418ZM41.4786 172.162C40.5867 170.719 41.4037 169.324 43.9339 167.97C46.3962 166.652 46.4443 168.08 44.0376 171.052C42.7772 172.608 41.9705 172.958 41.4786 172.162ZM63.8783 162.335C63.8783 160.362 66.3364 158 68.3902 158C70.222 158 69.903 160.426 68.045 160.625C65.5964 160.887 65.4174 161.055 66.7128 161.877C67.7274 162.52 67.5477 162.853 65.9628 163.268C64.5446 163.639 63.8783 163.34 63.8783 162.335ZM75.922 149.833C75.898 148.917 75.402 148.008 74.821 147.814C73.26 147.294 74.596 144.769 77.597 142.571C80.198 140.665 80.22 140.665 79.419 142.571C78.973 143.632 78.014 146.075 77.287 148C76.561 149.925 75.946 150.75 75.922 149.833Z" fill="#D3D3D3"/>
<path id="path7021" d="M145.036 207.935C143.748 207.418 142.285 207.249 141.786 207.557C141.287 207.866 140.878 206.768 140.878 205.119C140.878 203.469 139.753 199 138.378 195.189C135.475 187.139 135.24 183.59 137.49 181.789C138.377 181.08 140.906 178.776 143.109 176.669C147.884 172.104 149.227 172.808 148.025 179.246C147.09 184.25 147.899 186 151.145 186C152.799 186 152.605 186.767 149.445 192.717C145.66 199.845 144.913 204.416 147.378 205.362C148.203 205.678 148.878 206.626 148.878 207.469C148.878 209.2 148.353 209.264 145.036 207.935ZM157.754 205.75C157.686 205.613 157.52 203.797 157.385 201.715C157.146 198.022 158.716 196 161.824 196C163.211 196 162.013 204.207 160.477 205.235C159.385 205.965 157.992 206.228 157.754 205.75ZM150.214 202.218C149.348 201.675 149.41 200.993 150.453 199.567C152.179 197.207 153.532 198.239 152.285 200.965C151.752 202.132 150.898 202.648 150.214 202.218ZM44.898 125.012C43.6566 124.245 43.7024 124.005 45.1995 123.43C47.286 122.63 48.6484 123.63 47.3033 124.975C46.7353 125.543 45.7808 125.558 44.898 125.012Z" fill="#D3D3D3"/>
<path id="italy" d="M216.462 400.827C215.408 400.215 213.158 399.353 211.462 398.911C200.484 396.052 194.156 392.389 196.37 390.175C197.051 389.493 200.705 388.963 204.378 389.013C211.084 389.105 212.319 388.911 213.846 387.529C214.775 386.688 216.198 386 217.007 386C217.816 386 219.018 385.46 219.678 384.8C221.298 383.18 221.319 386.939 219.709 390.471C218.7 392.686 218.837 393.313 220.709 395.057C223.292 397.464 223.39 398.345 221.307 400.429C219.465 402.271 219.013 402.308 216.462 400.827ZM224.552 382.313C224.865 380.216 225.854 377.91 226.75 377.188C228.224 376.001 228.23 375.764 226.812 374.688C225.95 374.035 223.959 371.2 222.387 368.389C220.269 364.601 219.067 363.399 217.744 363.745C216.614 364.041 214.879 363.029 213.014 360.988C211.395 359.215 209.654 358.021 209.145 358.335C208.637 358.649 206.628 357.593 204.681 355.989C202.734 354.384 200.868 353.344 200.534 353.678C200.2 354.012 199.23 353.707 198.378 353C197.527 352.293 196.584 351.961 196.282 352.263C195.981 352.564 192.955 351.205 189.556 349.242C186.158 347.28 181.803 344.841 179.878 343.822C175.57 341.541 170.046 335.647 168.299 331.466C167.1 328.594 163.878 324.901 163.878 326.398C163.878 326.751 162.029 326.097 159.769 324.944L155.66 322.848L151.398 327.424C146.75 332.416 145.359 333.096 146.174 329.977C146.588 328.395 145.96 327.643 143.291 326.528C140.819 325.495 139.874 324.467 139.863 322.801C139.855 321.535 139.446 319.865 138.955 319.089C138.408 318.225 138.489 316.995 139.164 315.914C139.976 314.614 139.951 313.456 139.071 311.524C137.935 309.031 138.063 308.822 141.627 307.354C143.69 306.504 146.369 304.894 147.579 303.776L149.78 301.744L153.329 303.838L156.878 305.933V303.583C156.878 301.618 157.358 301.258 159.809 301.381C161.421 301.463 163.071 301.86 163.476 302.264C164.894 303.683 166.107 302.981 165.598 301.037C165.316 299.957 165.745 298.526 166.551 297.857C167.358 297.187 167.798 295.802 167.531 294.779C167.151 293.325 167.456 293.048 168.923 293.514C169.957 293.842 171.823 293.565 173.069 292.898C176.586 291.016 181.633 290.917 182.324 292.718C182.762 293.861 183.878 294.129 186.646 293.758C190.371 293.259 190.378 293.265 190.299 296.879C190.256 298.871 190.143 301.051 190.049 301.724C189.88 302.937 184.305 306.377 182.378 306.458C180.623 306.532 180.587 311.951 182.337 312.622C183.525 313.078 183.653 313.567 182.841 314.545C180.548 317.308 186.413 324.352 193.136 326.908C194.521 327.434 196.717 329.787 198.016 332.136C200.524 336.67 207.461 342.606 211.41 343.597C212.724 343.927 215.145 343.515 216.831 342.673C220.008 341.089 220.597 341.789 218.843 345.066C217.982 346.675 218.14 347 219.783 347C220.87 347 224.878 348.125 228.69 349.5C232.501 350.875 236.33 352 237.198 352C239.565 352 243.878 356.432 243.878 358.865C243.878 361.457 242.611 361.592 240.279 359.25C239.32 358.287 236.834 356.991 234.754 356.369C231.525 355.404 230.746 355.489 229.425 356.948C228.574 357.888 227.878 360.321 227.878 362.353C227.878 365.351 228.339 366.225 230.317 366.977C231.659 367.487 233.291 368.903 233.944 370.123C234.938 371.98 234.835 372.558 233.314 373.671C232.314 374.402 231.083 375 230.579 375C230.074 375 229.961 376.195 230.328 377.655C230.694 379.115 230.631 380.578 230.186 380.905C229.742 381.232 228.88 382.4 228.271 383.5C227.662 384.6 226.448 385.641 225.574 385.813C224.268 386.07 224.085 385.445 224.552 382.313ZM159.469 383.25C159.169 382.287 158.664 379.291 158.345 376.592C158.027 373.893 157.117 370.428 156.322 368.892C154.526 365.418 154.524 365 156.306 365C157.091 365 158.618 363.875 159.7 362.5C164.286 356.669 167.878 361.658 167.878 373.857C167.878 381.202 167.731 381.774 165.964 381.312C164.704 380.983 163.666 381.527 162.929 382.906C161.563 385.458 160.198 385.594 159.469 383.25Z" fill="#D3D3D3"/>
<path id="path7019" d="M120.843 265.926C119.605 265.313 118.593 264.468 118.593 264.049C118.593 263.629 117.707 263.286 116.624 263.286C114.192 263.286 102.967 255.705 102.117 253.488C101.45 251.75 105.648 247.763 106.576 249.252C107.571 250.846 111.117 250.698 113.74 248.952C117.547 246.418 121.76 247.243 123.493 250.861C124.264 252.469 125.501 254.146 126.243 254.585C127.977 255.613 127.939 257.098 126.086 260.65C125.265 262.225 124.593 264.363 124.593 265.4C124.593 267.489 124.13 267.554 120.843 265.926Z" fill="#D3D3D3"/>
<path id="path7017" d="M124.963 251.369C124.674 246.876 117.943 245.049 113.745 248.325C112.112 249.6 110.73 249.937 109.36 249.396C108.26 248.961 107.939 248.573 108.646 248.535C109.352 248.496 111.02 247.751 112.351 246.879C114.26 245.628 114.552 244.942 113.733 243.629C111.423 239.924 119.168 226.991 124.248 226.07C125.667 225.813 127.244 225.345 127.754 225.03C129.336 224.053 131.86 225.586 131.86 227.524C131.86 228.539 131.303 230.593 130.622 232.088C129.638 234.248 129.638 234.89 130.622 235.218C132.736 235.923 131.994 237.99 128.769 240.374C126.699 241.904 125.836 243.264 126.157 244.491C126.421 245.499 126.283 247.818 125.851 249.644C125.419 251.47 125.019 252.246 124.963 251.369Z" fill="#D3D3D3"/>
<path id="path7015" d="M156.551 288.609C154.515 286.96 153.793 286.904 149.383 288.048C146.685 288.747 143.821 289.067 143.018 288.759C141.006 287.987 141.189 284.402 143.556 278.173C144.656 275.28 145.556 272.827 145.556 272.723C145.557 272.619 142.454 272.228 138.662 271.854C132.882 271.285 131.57 270.805 130.544 268.889C129.871 267.632 129.628 266.107 130.002 265.501C130.377 264.894 129.933 264.11 129.016 263.758C127.702 263.254 127.477 262.313 127.955 259.326C128.302 257.156 128.127 255.265 127.546 254.906C126.988 254.561 126.606 251.721 126.696 248.596C126.841 243.588 127.229 242.592 129.959 240.216C132.634 237.888 132.893 237.253 131.858 235.561C130.934 234.052 130.928 232.888 131.835 230.486C132.748 228.069 132.736 226.929 131.784 225.405C129.829 222.273 130.319 221.412 134.057 221.412C136.605 221.412 137.557 221.85 137.557 223.019C137.557 224.005 138.112 224.413 138.992 224.076C139.782 223.773 140.655 224.062 140.932 224.719C141.21 225.375 141.351 224.338 141.247 222.413C141.087 219.47 141.417 218.862 143.322 218.592C144.768 218.386 145.32 217.844 144.85 217.091C144.445 216.443 143.971 215.237 143.798 214.412C143.176 211.446 142.988 210.893 142.153 209.555C141.489 208.49 141.817 208.364 143.682 208.967C144.988 209.39 147.182 209.882 148.557 210.061C154.327 210.81 155.549 211.071 156.166 211.688C156.524 212.046 158.67 212.103 160.937 211.816C163.203 211.529 167.307 211.804 170.057 212.428C172.807 213.052 176.122 213.678 177.423 213.819C180.709 214.175 182.085 216.958 180.594 220.231C179.633 222.34 179.681 223.03 180.848 223.884C181.64 224.462 183.661 227.658 185.341 230.984C187.02 234.31 189.105 237.623 189.975 238.345C192.134 240.137 192.108 243.838 189.942 243.007C188.914 242.612 186.98 243.604 184.619 245.737C182.58 247.58 178.6 250.173 175.775 251.5C170.139 254.147 169.548 254.957 172.557 255.912C173.657 256.262 174.557 257.175 174.557 257.943C174.557 260.225 182.488 267.149 185.88 267.827L189.024 268.456L184.566 272.295C179.819 276.384 179.845 276.174 183.287 282.449C183.449 282.744 182.143 283.095 180.385 283.229C178.628 283.363 176.706 283.874 176.115 284.364C175.523 284.855 171.924 285.979 168.117 286.862C164.31 287.745 160.66 288.912 160.006 289.455C159.191 290.131 158.101 289.864 156.551 288.609Z" fill="#D3D3D3"/>
<path id="path7013" d="M125.552 264.822C125.552 262.608 125.774 262.452 127.452 263.5C129.521 264.792 129.185 267.33 126.945 267.33C126.124 267.33 125.552 266.299 125.552 264.822Z" fill="#D3D3D3"/>
<path id="path7011" d="M139.608 305.687C139.608 303.015 135.907 301.934 133.087 303.782C129.753 305.966 129.076 305.122 131.594 301.921C132.701 300.513 133.608 298.659 133.608 297.802C133.608 295.207 140.567 288.932 142.798 289.516C143.871 289.796 146.907 289.467 149.544 288.783C153.77 287.686 154.59 287.744 156.473 289.268C157.647 290.219 158.608 291.43 158.608 291.959C158.608 292.488 160.408 293.208 162.608 293.56C166.779 294.227 167.759 295.976 165.167 298.127C164.364 298.793 164.004 300.065 164.354 300.999C164.883 302.411 164.735 302.476 163.422 301.409C162.563 300.712 161.129 300.422 160.234 300.766C159.276 301.134 158.608 300.885 158.608 300.161C158.608 299.195 158.286 299.198 157.108 300.176C156.283 300.861 155.608 302.031 155.608 302.777C155.608 303.861 155.105 303.904 153.108 302.994C151.733 302.368 150.608 301.393 150.608 300.828C150.608 300.264 149.37 300.982 147.858 302.425C144.242 305.875 139.608 307.707 139.608 305.687Z" fill="#D3D3D3"/>
<path id="path7009" d="M162.226 291.205C160.647 289.626 160.849 289.442 165.46 288.255C168.165 287.559 172.628 286.288 175.378 285.431C178.128 284.573 181.278 283.745 182.378 283.591C184.719 283.261 184.792 282.514 182.866 278.622C181.48 275.824 181.551 275.652 185.404 272.417C187.923 270.302 189.716 269.438 190.323 270.045C190.848 270.57 192.53 271 194.059 271C196.192 271 196.987 270.417 197.468 268.5C198.118 265.91 198.377 265.834 207.378 265.603C210.92 265.512 211.418 265.787 211.724 268C211.914 269.375 212.485 271.005 212.991 271.623C214.128 273.009 213.066 276.085 211.515 275.899C208.095 275.489 207.578 276.011 209.406 278.03C212.133 281.044 210.393 284.969 205.18 287.564C202.898 288.7 200.433 290.103 199.704 290.682C198.975 291.261 194.944 292.034 190.747 292.399C184.559 292.936 183.011 292.787 182.559 291.609C181.96 290.049 176.296 290.006 173.809 291.543C171.149 293.187 164 292.979 162.226 291.205Z" fill="#D3D3D3"/>
<path id="path7007" d="M214.083 148.552C214.417 147.682 214.69 146.782 214.69 146.552C214.69 146.322 215.831 146.134 217.225 146.134C219.45 146.134 219.629 146.378 218.69 148.134C217.384 150.573 213.16 150.957 214.083 148.552ZM229.36 149.471C228.991 149.102 228.69 147.751 228.69 146.467C228.69 143.932 227.726 143.498 225.977 145.247C224.337 146.887 222.893 145.544 221.577 141.151C220.476 137.476 220.575 137.072 223.299 134.125C227.103 130.009 233.091 126.946 235.938 127.659C237.177 127.969 239.065 127.582 240.136 126.799C241.576 125.745 242.8 125.625 244.845 126.338C248.148 127.489 249.109 129.903 247.718 133.559C246.865 135.803 247.109 136.857 249.193 139.924C250.566 141.945 251.69 143.876 251.69 144.214C251.69 144.553 249.919 145.629 247.754 146.605C244.851 147.914 242.631 148.202 239.301 147.703C235.987 147.206 234.152 147.44 232.408 148.583C231.1 149.44 229.729 149.839 229.36 149.471ZM214.163 142.178C214.488 141.652 215.415 141.475 216.222 141.785C218.289 142.578 218.045 143.134 215.631 143.134C214.498 143.134 213.838 142.704 214.163 142.178Z" fill="#D3D3D3"/>
<path id="path7005" d="M214.182 172.936C213.824 172.357 213.837 169.249 214.211 166.029C214.694 161.863 215.534 159.569 217.123 158.076L219.356 155.979L223.785 158.875C227.137 161.066 229.006 161.648 231.465 161.267C234.857 160.741 235.591 159.649 233.465 158.289C232.778 157.85 231.7 156.048 231.069 154.286C230.027 151.37 230.14 150.941 232.334 149.504C234.114 148.337 236.005 148.092 239.571 148.565C243.133 149.038 245.252 148.763 247.658 147.519C250.821 145.884 250.992 145.901 253.342 148.109C254.675 149.361 256.882 152.383 258.247 154.825L260.728 159.265L256.783 162.784C252.268 166.812 248.659 167.535 241.001 165.945C236.192 164.947 235.455 165.058 231.501 167.375C229.144 168.756 225.311 170.191 222.984 170.563C220.657 170.935 218.239 171.858 217.611 172.615C216.247 174.259 215.068 174.37 214.182 172.936Z" fill="#D3D3D3"/>
<path id="path7003" d="M236.538 191.207C235.075 190.441 233.878 189.388 233.878 188.869C233.878 188.349 232.807 187.222 231.498 186.364C229.4 184.989 228.631 184.973 224.998 186.224C221.211 187.529 220.878 187.504 220.878 185.911C220.878 184.958 219.57 182.23 217.971 179.849L215.063 175.52L217.221 173.844C218.407 172.922 221.178 171.844 223.378 171.448C225.578 171.052 229.307 169.609 231.664 168.24C235.676 165.91 236.306 165.825 241.496 166.902C244.546 167.535 248.062 167.797 249.308 167.485C252.757 166.619 254.314 170.664 251.795 173.942C250.765 175.282 249.903 177.953 249.878 179.878C249.827 183.917 247.856 186.782 242.788 190.188C239.524 192.381 238.955 192.474 236.538 191.207Z" fill="#D3D3D3"/>
<path id="path7001" d="M213.878 197.2C213.878 196.901 214.666 195.758 215.628 194.659C217.295 192.756 217.295 192.691 215.628 193.299C214.666 193.65 213.893 193.614 213.91 193.219C213.979 191.665 216.481 189.492 218.378 189.339C219.478 189.251 222.274 188.471 224.592 187.607C226.909 186.742 229.509 186.305 230.37 186.635C232.271 187.365 234.182 190.7 233.413 191.944C232.32 193.713 213.878 198.674 213.878 197.2Z" fill="#D3D3D3"/>
<path id="path6999" d="M222.935 252.648C222.205 250.73 221.162 249.959 219.153 249.852C217.627 249.771 215.478 249.658 214.378 249.602C213.278 249.546 212.484 248.957 212.614 248.293C212.936 246.643 205.888 245.366 204.939 246.902C204.06 248.324 200.878 247.267 200.878 245.553C200.878 244.875 199.078 243.726 196.878 243C194.678 242.274 192.878 241.132 192.878 240.462C192.878 239.793 192.165 238.653 191.294 237.93C190.423 237.207 188.188 233.595 186.329 229.903C184.47 226.211 182.447 223.023 181.833 222.818C181.022 222.548 181.039 221.742 181.895 219.862C182.846 217.775 182.772 216.696 181.513 214.26C180.079 211.488 180.092 211.119 181.665 209.721C182.607 208.884 185.022 207.52 187.032 206.691C189.041 205.861 190.951 204.354 191.275 203.341C191.887 201.43 200.572 195 202.542 195C203.159 195 203.914 195.651 204.22 196.448C205.153 198.879 210.789 201.319 212.394 199.987C213.149 199.36 216.777 198.218 220.457 197.448C224.137 196.678 229.049 195.127 231.374 194.002C233.698 192.877 236.296 192.223 237.147 192.55C237.998 192.876 239.693 195.466 240.914 198.305C242.136 201.144 243.857 203.996 244.741 204.641C246.159 205.679 246.186 206.259 244.975 209.61C243.689 213.166 243.737 213.494 245.74 214.824C247.079 215.713 247.878 217.293 247.878 219.049C247.878 220.822 248.764 222.552 250.285 223.748C253.509 226.284 253.623 228.223 251.042 236.651C249.329 242.246 249.077 244.394 249.886 246.52L250.919 249.237L244.649 248.57C239.802 248.054 237.924 248.247 236.378 249.419C235.278 250.254 233.639 250.951 232.735 250.968C231.832 250.986 230.814 251.726 230.473 252.613C229.953 253.97 229.602 254.016 228.258 252.9C226.909 251.78 226.452 251.863 225.302 253.436C224.01 255.201 223.89 255.161 222.935 252.648Z" fill="#D3D3D3"/>
<path id="path8303" d="M189.018 267.993C187.719 266.897 185.906 266 184.988 266C182.981 266 175.878 259.323 175.878 257.436C175.878 256.701 175.158 255.696 174.278 255.204C172.984 254.479 173.606 253.774 177.528 251.521C180.196 249.989 183.631 247.571 185.161 246.149C189.622 242.003 196.272 242.394 200.954 247.076C203.002 249.124 205.878 249.663 205.878 248C205.878 246.329 209.714 246.884 210.732 248.702C211.255 249.638 212.965 250.48 214.531 250.573C216.097 250.666 218.391 250.8 219.628 250.871C222.508 251.036 222.677 254.502 219.878 256C218.778 256.589 217.878 257.714 217.878 258.5C217.878 259.286 216.866 260.463 215.628 261.115C214.391 261.766 213.134 262.67 212.835 263.124C212.537 263.577 208.937 264.072 204.835 264.224C197.778 264.485 197.351 264.634 196.874 267C196.221 270.231 192.261 270.731 189.018 267.993Z" fill="#D3D3D3"/>
<path id="path8301" d="M246.46 214.443C244.823 213.24 244.713 212.658 245.71 210.47C247.284 207.015 247.182 204.331 245.451 203.666C244.667 203.365 243.064 200.955 241.89 198.309L239.756 193.5L241.976 192C247.654 188.163 250.878 183.892 250.901 180.179C250.913 178.132 251.764 175.406 252.819 174.032C254.246 172.176 254.468 171.102 253.717 169.699C252.6 167.612 254.719 164.503 257.959 163.474C258.958 163.157 260.049 162.036 260.383 160.984C261.227 158.326 266.848 157.396 270.501 159.31C273.089 160.666 273.687 160.628 277.085 158.894L280.824 156.987L282.279 159.244C283.079 160.485 284.293 162.749 284.978 164.275C286.4 167.446 295.358 173 299.05 173C301.659 173 303.878 174.655 303.878 176.601C303.878 177.262 302.275 178.748 300.316 179.904L296.754 182.006L298.944 185.902L301.134 189.799L298.462 193.301C296.54 195.821 295.963 197.49 296.406 199.254C296.984 201.557 296.723 201.74 292.085 202.289C289.371 202.611 284.276 204.055 280.764 205.5C275.262 207.762 273.503 208.035 268.057 207.475C262.831 206.938 260.789 207.21 256.27 209.044C253.122 210.322 250.29 212.235 249.592 213.557C248.505 215.612 248.177 215.705 246.46 214.443Z" fill="#D3D3D3"/>
<path id="path8305" d="M303.122 272.336C302.431 272.057 302.142 271.383 302.479 270.837C302.816 270.292 303.718 267.159 304.485 263.875L305.878 257.904L300.878 252.904C298.128 250.155 295.878 247.483 295.878 246.967C295.878 246.451 294.108 244.857 291.945 243.426C287.649 240.583 284.398 240.786 283.39 243.962C283.066 244.984 281.693 246.547 280.339 247.434C278.986 248.32 277.878 249.68 277.878 250.456C277.878 251.231 276.875 252.184 275.648 252.573C274.422 252.962 272.138 254.652 270.573 256.327C268.554 258.488 267.507 259.017 266.97 258.148C266.446 257.3 265.468 257.199 263.795 257.819C258.987 259.603 251.465 260.003 249.583 258.575C247.546 257.03 248.083 252.332 250.52 250.374C251.599 249.507 251.684 248.619 250.888 246.525C250.077 244.392 250.327 242.251 252.042 236.651C254.644 228.153 254.528 226.101 251.305 223.667C246.282 219.871 248.835 213.062 256.439 209.975C260.782 208.213 262.874 207.943 268.057 208.475C273.479 209.033 275.268 208.76 280.629 206.554C284.067 205.14 289.242 203.632 292.129 203.203C297.128 202.459 297.368 202.286 297.169 199.558C296.945 196.49 300.208 191 302.255 191C302.938 191 306.126 189.416 309.34 187.481C315.876 183.545 318.121 183.636 320.338 187.922C322.3 191.716 325.914 193.907 329.179 193.283C331.282 192.881 332.514 193.469 334.888 196.01C337.637 198.953 338.288 199.19 342.001 198.596C344.249 198.237 347.425 197.251 349.059 196.406C351.738 195.021 352.266 195.024 354.416 196.433C356.398 197.731 357.659 197.811 361.88 196.906C369.805 195.207 369.878 195.309 369.878 208.033V219.129L366.842 221.684C365.173 223.089 363.193 225.422 362.443 226.869C360.508 230.603 356.231 235 354.534 235C353.743 235 352.796 236.194 352.429 237.652C351.773 240.266 346.514 246 344.773 246C344.281 246 343.878 246.45 343.878 247C343.878 247.55 342.978 248 341.878 248C340.729 248 339.878 248.667 339.878 249.567C339.878 250.68 339.298 250.95 337.878 250.5C336.76 250.145 335.878 250.32 335.878 250.897C335.878 252.634 332.177 254.046 329.865 253.191C327.924 252.473 327.865 252.256 329.29 251.073C331.533 249.212 331.269 247.72 328.92 248.978C327.339 249.824 326.755 249.638 325.885 248.013C325.293 246.906 324.358 246 323.808 246C323.165 246 323.19 246.714 323.878 248C324.467 249.1 324.708 250.056 324.414 250.125C324.119 250.194 323.469 250.306 322.969 250.375C321.041 250.64 317.878 255.961 317.878 258.939C317.878 260.844 317.271 262.296 316.321 262.66C315.464 262.989 314.988 263.843 315.262 264.557C315.82 266.011 307.788 273.044 305.71 272.921C304.978 272.878 303.813 272.614 303.122 272.336Z" fill="#D3D3D3"/>
<path id="path8299" d="M300.327 266.342C299.576 261.152 298.407 259 296.341 259C294.911 259 291.559 256.385 285.888 250.847L282.148 247.194L284.433 244.347L286.717 241.5L290.255 243.384C292.201 244.421 295.021 247.042 296.523 249.209C298.025 251.375 300.534 254.151 302.1 255.377L304.947 257.605L303.478 263.904C302.67 267.369 301.788 270.424 301.518 270.693C301.249 270.963 300.713 269.005 300.327 266.342Z" fill="#D3D3D3"/>
<path id="path8164" d="M215.878 272.105C213.75 271.513 213.378 270.821 213.378 267.455C213.378 264.308 213.84 263.298 215.637 262.509C216.88 261.964 218.183 260.616 218.533 259.513C219.296 257.107 221.998 254.956 223.269 255.741C223.771 256.052 224.84 255.449 225.645 254.403C226.669 253.071 227.248 252.875 227.576 253.75C228.11 255.174 230.878 255.468 230.878 254.101C230.878 253.607 232.753 252.225 235.045 251.03C238.365 249.299 240.168 248.99 243.919 249.506L248.627 250.153L247.647 254.012C246.742 257.577 246.482 257.8 244.222 256.941C241.347 255.848 234.931 258.659 232.553 262.054C231.751 263.199 229.584 264.938 227.737 265.919C225.89 266.9 223.791 268.894 223.074 270.351C221.753 273.033 220.399 273.363 215.878 272.105Z" fill="#D3D3D3"/>
<path id="path8148" d="M221.378 293.793C218.362 292.739 211.945 288.434 210.722 286.645C210.361 286.117 210.56 284.597 211.166 283.268C211.984 281.474 211.96 280.36 211.073 278.939C209.517 276.448 209.566 275.943 211.302 276.609C212.121 276.923 213.205 276.258 213.856 275.042C214.762 273.348 215.619 273.04 218.182 273.486C221.848 274.124 223.491 273.31 224.013 270.597C224.214 269.55 226.077 267.813 228.152 266.736C230.228 265.66 232.38 263.93 232.936 262.893C234.623 259.74 241.338 256.844 244.328 257.981C245.731 258.514 246.878 258.711 246.878 258.419C246.878 258.126 248.341 258.7 250.128 259.693C251.916 260.687 253.547 261.593 253.752 261.707C253.958 261.821 253.103 263.621 251.853 265.707C250.603 267.793 249.448 270.625 249.287 272C248.25 280.854 247.578 282.816 245.214 283.893C243.878 284.502 241.932 285 240.89 285C239.849 285 238.69 285.495 238.317 286.1C237.552 287.338 225.896 295.043 224.973 294.921C224.646 294.878 223.028 294.37 221.378 293.793Z" fill="#D3D3D3"/>
<path id="path8142" d="M268.628 304.321C267.666 304.064 266.878 303.013 266.878 301.986C266.878 300.958 266.406 299.826 265.83 299.47C265.101 299.02 265.108 298.428 265.852 297.532C266.673 296.543 266.276 296.116 264.15 295.703C262.626 295.407 261.228 295.578 261.045 296.082C260.429 297.777 255.391 297.05 254.167 295.09C253.51 294.039 251.49 292.854 249.676 292.456C247.862 292.057 245.768 290.859 245.021 289.794C244.275 288.728 242.7 287.467 241.521 286.992C239.738 286.272 239.68 286.116 241.178 286.063C242.168 286.029 244.243 285.346 245.79 284.546C248.574 283.106 249.101 281.642 250.307 272C250.479 270.625 251.841 267.362 253.334 264.75C255.362 261.202 256.644 260 258.399 260C259.691 260 261.886 259.567 263.278 259.038C264.897 258.422 266.021 258.422 266.402 259.038C267.426 260.695 269.715 260.089 270.384 257.983C270.736 256.874 272.791 255.065 274.951 253.963C277.111 252.861 278.878 251.32 278.878 250.539C278.878 247.034 284.167 248.183 285.362 251.948C285.702 253.02 286.812 254.162 287.828 254.484C288.845 254.807 290.734 256.126 292.027 257.417C293.32 258.707 295.243 259.928 296.3 260.131C297.753 260.41 298.5 261.897 299.365 266.232C300.695 272.895 300.631 272.802 304.451 273.558C306.591 273.982 307.972 273.581 309.587 272.069C312.576 269.268 314.528 269.468 315.328 272.656C315.779 274.451 315.49 275.817 314.437 276.87C313.324 277.983 312.878 278.064 312.878 277.155C312.878 276.455 312.5 276.116 312.037 276.402C311.122 276.967 311.231 280.102 312.396 286.775L313.142 291.051L310.51 290.05C308.96 289.461 306.954 289.401 305.628 289.905C304.391 290.375 303.076 290.702 302.706 290.63C301.324 290.363 293.897 295.564 293.353 297.18C292.26 300.429 273.901 305.731 268.628 304.321Z" fill="#D3D3D3"/>
<path id="path8160" d="M254.878 329.558C254.878 328.727 253.78 327.327 252.439 326.448C251.097 325.568 250.229 324.249 250.511 323.515C250.816 322.72 250.083 321.915 248.701 321.523C243.225 319.973 241.037 318.751 241.514 317.508C241.789 316.79 241.527 315.901 240.93 315.532C240.334 315.163 240.127 314.407 240.47 313.851C240.814 313.295 239.727 311.503 238.055 309.868C236.382 308.233 234.706 305.457 234.33 303.698C233.953 301.939 232.798 299.695 231.762 298.711C228.813 295.911 229.51 293.644 234.374 290.216C238.061 287.617 239.311 287.214 241.314 287.975C242.657 288.486 244.222 289.773 244.79 290.836C245.363 291.906 247.392 293.061 249.339 293.427C251.307 293.796 253.315 294.947 253.901 296.043C254.632 297.408 255.997 298 258.413 298C260.319 298 261.878 297.564 261.878 297.031C261.878 296.499 262.573 296.329 263.421 296.655C264.27 296.981 264.724 297.488 264.43 297.782C264.136 298.075 264.395 298.917 265.005 299.653C265.615 300.388 266.089 302.795 266.059 305.001C266.011 308.455 266.412 309.225 268.941 310.532C272.273 312.256 272.351 312.55 270.378 316C269.592 317.375 268.933 319.856 268.914 321.514C268.883 324.164 268.245 324.819 263.628 326.943C260.741 328.272 257.591 329.744 256.628 330.215C255.356 330.837 254.878 330.658 254.878 329.558Z" fill="#D3D3D3"/>
<path id="path8140" d="M190.76 304.656C190.695 304.02 190.782 303.05 190.954 302.5C191.126 301.95 191.292 299.7 191.323 297.5C191.376 293.67 191.527 293.486 194.878 293.172C196.803 292.991 199.053 292.279 199.878 291.589C202.618 289.299 209.068 286.789 209.949 287.671C211.298 289.02 209.868 292.868 207.77 293.534C206.73 293.865 205.878 294.937 205.878 295.918C205.878 296.899 205.395 299.087 204.805 300.779C203.989 303.121 203.239 303.762 201.67 303.46C200.536 303.241 199.368 302.823 199.074 302.529C198.781 302.236 197.829 302.608 196.959 303.357C194.744 305.264 190.905 306.069 190.76 304.656Z" fill="#D3D3D3"/>
<path id="path8156" d="M230.378 328.402L227.378 326.989L230.376 327.576C233.507 328.189 234.498 328.72 233.795 329.408C233.566 329.632 232.028 329.179 230.378 328.402ZM213.762 322.358C213.24 321.729 211.421 320.639 209.721 319.935C207.027 318.819 206.836 318.504 208.237 317.48C209.661 316.439 209.566 316.179 207.402 315.193C206.059 314.581 204.018 312.234 202.866 309.977C201.431 307.162 200.24 305.991 199.076 306.246C197.305 306.635 197.229 307.184 198.491 310.5C199.153 312.238 199.043 312.33 197.655 311.201C196.44 310.215 195.881 310.187 195.325 311.087C194.829 311.889 194.167 311.501 193.271 309.885C191.477 306.649 191.558 306 193.756 306C194.788 306 196.189 305.33 196.869 304.511C197.549 303.692 198.511 303.273 199.008 303.58C199.505 303.887 200.971 304.331 202.266 304.565C204.338 304.941 204.777 304.423 205.924 300.246C206.641 297.636 208.274 294.509 209.553 293.298C210.832 292.087 211.878 290.601 211.878 289.997C211.878 289.393 213.341 289.984 215.128 291.311C219.705 294.708 224.61 296.214 226.977 294.947C228.462 294.153 228.878 294.266 228.878 295.465C228.878 296.309 229.778 297.9 230.878 299C232.874 300.995 233.595 304 232.078 304C231.638 304 230.829 303.551 230.28 303.002C229.616 302.338 227.384 302.499 223.609 303.482C220.489 304.295 217.306 304.718 216.536 304.422C215.766 304.127 214.413 304.608 213.53 305.491C212.646 306.375 211.351 307.023 210.651 306.931C206.125 306.335 206.047 309.542 210.486 313.79C211.802 315.05 212.878 316.482 212.878 316.973C212.878 317.464 213.891 318.181 215.128 318.567C216.366 318.954 217.693 319.762 218.078 320.363C218.463 320.964 220.263 321.973 222.078 322.605C225.301 323.726 225.253 323.75 220.045 323.627C217.112 323.557 214.285 322.986 213.762 322.358Z" fill="#D3D3D3"/>
<path id="path8158" d="M228.73 326.294C227.23 326.063 225.874 325.09 225.602 324.05C225.328 323.002 223.815 321.925 222.083 321.545C220.412 321.178 218.797 320.23 218.493 319.439C218.19 318.648 217.41 318 216.761 318C215.067 318 209.083 311.595 208.701 309.374C208.468 308.021 208.892 307.588 210.226 307.816C211.243 307.99 212.902 307.384 213.913 306.468C214.925 305.553 216.194 305.077 216.734 305.411C217.273 305.744 220.3 305.344 223.459 304.521C227.592 303.444 229.566 303.326 230.497 304.098C231.209 304.689 232.26 304.882 232.834 304.527C233.409 304.172 233.878 304.549 233.878 305.364C233.878 306.179 235.258 308.226 236.944 309.912C238.63 311.598 239.748 313.402 239.428 313.92C239.108 314.438 239.274 315.126 239.797 315.45C240.32 315.773 239.702 317.166 238.423 318.546C237.145 319.926 235.544 322.392 234.867 324.027C234.19 325.662 233.128 326.933 232.507 326.85C231.886 326.768 230.187 326.517 228.73 326.294Z" fill="#D3D3D3"/>
<path id="path8138" d="M242.023 332.483C240.728 331.117 238.628 330 237.357 330C233.987 330 233.804 328.104 236.657 322.757C238.647 319.028 239.475 318.25 240.524 319.121C241.259 319.731 243.551 320.811 245.619 321.522C247.687 322.232 249.153 323.012 248.878 323.253C248.603 323.495 248.996 324.437 249.751 325.346C251.302 327.215 249.907 327.629 248.111 325.833C246.66 324.381 245.834 326.179 245.565 331.381C245.462 333.367 245.153 334.985 244.878 334.978C244.603 334.971 243.319 333.848 242.023 332.483Z" fill="#D3D3D3"/>
<path id="path8154" d="M256.878 357.128C256.878 356.568 255.641 355.516 254.128 354.791C252.616 354.066 251.378 352.9 251.378 352.2C251.378 351.5 250.87 350.606 250.249 350.214C249.627 349.821 248.788 346.575 248.384 343C247.98 339.425 247.251 335.743 246.765 334.818C246.252 333.842 246.258 331.537 246.779 329.318C247.273 327.218 247.723 326.08 247.778 326.788C247.839 327.567 248.916 327.962 250.505 327.788C252.874 327.528 253.307 328.032 254.918 332.916C255.945 336.028 258.02 339.561 259.797 341.222C262.466 343.716 262.733 344.403 261.749 346.242C261.122 347.414 260.522 350.426 260.416 352.936C260.274 356.309 259.788 357.584 258.551 357.823C257.631 358.001 256.878 357.688 256.878 357.128Z" fill="#D3D3D3"/>
<path id="path8152" d="M260.041 340.152C257.383 337.669 254.936 332.483 256.008 331.603C256.212 331.436 259.49 329.848 263.294 328.073C270.194 324.853 270.219 324.85 274.044 326.575C276.153 327.526 277.878 328.649 277.878 329.07C277.878 329.492 278.115 330.453 278.404 331.206C278.744 332.091 277.357 333.34 274.489 334.734C272.046 335.921 269.776 337.748 269.444 338.794C268.962 340.312 265.123 343 263.437 343C263.246 343 261.718 341.719 260.041 340.152Z" fill="#D3D3D3"/>
<path id="path8150" d="M278.878 329.462C278.878 328.644 276.853 326.99 274.378 325.788C269.349 323.344 268.705 321.17 271.441 315.879C273.158 312.559 272.347 310.601 268.788 309.471C267.738 309.138 266.878 308.105 266.878 307.177C266.878 305.793 268.006 305.453 273.128 305.293C281.254 305.039 290.441 301.393 295.621 296.366C300.327 291.799 306.652 289.677 311.02 291.199C313.714 292.138 315.237 296 312.914 296C311.047 296 309.736 299.866 310.878 302C311.639 303.421 311.639 304.579 310.878 306C310.258 307.159 310.204 308 310.75 308C312.778 308 310.441 312.148 306.221 316.038C303.003 319.005 301.948 320.643 302.379 322.003C303.285 324.856 299.594 326.353 293.608 325.558C289.435 325.005 288.27 325.222 286.498 326.882C285.332 327.973 283.141 329.336 281.628 329.909C279.393 330.755 278.878 330.672 278.878 329.462Z" fill="#D3D3D3"/>
<path id="path8144" d="M346.405 265.75C346.18 265.062 345.849 263.6 345.67 262.5C345.395 260.812 344.606 260.514 340.603 260.588C336.238 260.67 335.981 260.544 337.37 259.01C338.199 258.093 338.878 256.924 338.878 256.412C338.878 255.9 339.796 254.908 340.917 254.208C342.038 253.508 342.699 252.518 342.384 252.01C342.07 251.501 343.155 250.391 344.796 249.543C348.261 247.751 349.242 247.602 348.378 249C348.038 249.55 348.278 250 348.911 250C349.545 250 351.207 250.9 352.606 252L355.149 254L357.466 251.5C360.049 248.713 362.385 248.272 363.208 250.417C363.706 251.715 361.813 253.202 359.392 253.414C358.849 253.461 357.798 254.766 357.056 256.314C356.315 257.862 355.071 259.373 354.293 259.671C353.515 259.97 352.864 260.953 352.846 261.857C352.772 265.69 347.442 268.911 346.405 265.75Z" fill="#D3D3D3"/>
<path id="path8146" d="M363.936 376.109C363.38 375.068 360.664 373.405 357.901 372.411C355.139 371.418 352.878 370.244 352.878 369.802C352.878 369.361 352.203 369 351.378 369C350.553 369 349.878 369.627 349.878 370.393C349.878 371.159 349.203 372.045 348.378 372.362C347.553 372.678 346.878 373.578 346.878 374.362C346.878 375.145 346.286 376.013 345.562 376.291C343.611 377.04 334.878 375.879 334.878 374.87C334.878 374.392 334.316 373.997 333.628 373.994C332.941 373.99 331.136 373.34 329.618 372.548C327.36 371.37 326.636 371.344 325.646 372.404C324.663 373.456 324.195 373.459 323.157 372.421C322.454 371.718 321.878 370.444 321.878 369.59C321.878 368.737 320.78 367.762 319.437 367.425C317.759 367.004 316.79 365.872 316.335 363.805C315.972 362.15 314.855 359.976 313.852 358.974C310.174 355.296 309.654 353.224 311.855 351.023C312.968 349.91 313.481 349 312.995 349C312.509 349 311.878 348.105 311.592 347.012C311.306 345.919 309.965 344.603 308.611 344.089C307.258 343.574 305.856 342.385 305.496 341.446C304.689 339.343 309.274 333 311.6 333C312.492 333 314.093 332.213 315.158 331.25C316.572 329.973 318.62 329.538 322.737 329.642C325.84 329.72 328.603 329.482 328.878 329.114C329.153 328.746 330.493 327.966 331.856 327.381C333.5 326.675 334.341 325.507 334.356 323.909C334.376 321.73 334.76 321.522 338.378 321.73C344.163 322.064 350.658 321.075 352.116 319.638C353.783 317.996 361.395 315 363.899 315C364.987 315 365.878 314.55 365.878 314C365.878 313.45 366.778 313 367.878 313C369.837 313 369.878 313.667 369.878 345.5V378H367.414C366.019 378 364.509 377.178 363.936 376.109ZM306.266 331.181C306.66 330.544 306.047 327.908 304.903 325.323L302.824 320.624L307.351 316.027C309.841 313.5 311.878 310.898 311.878 310.247C311.878 308.215 314.879 310.101 316.437 313.113C317.569 315.302 318.866 316.134 321.9 316.619C327.225 317.471 327.022 319.606 321.378 322.103C318.903 323.198 316.878 324.678 316.878 325.392C316.878 327.075 313.679 329.955 311.265 330.445C310.227 330.656 308.517 331.168 307.464 331.584C306.131 332.111 305.767 331.989 306.266 331.181Z" fill="#D3D3D3"/>
<path id="path8136" d="M301.379 398.002C300.475 396.539 300.938 396.13 304.729 395.043C306.682 394.483 308.077 394.512 308.454 395.122C308.837 395.741 309.48 395.75 310.217 395.145C310.856 394.621 314.078 393.868 317.378 393.471C320.678 393.074 324.166 392.34 325.128 391.839C326.246 391.258 326.878 391.298 326.878 391.95C326.878 392.512 324.142 394.353 320.797 396.041C316.02 398.452 314.414 398.86 313.308 397.942C312.012 396.866 307.113 397.205 303.408 398.627C302.678 398.907 301.765 398.626 301.379 398.002ZM285.834 384.755C284.348 382.808 284.221 382.8 282.493 384.528C280.987 386.034 280.552 386.096 279.803 384.912C279.311 384.135 278.902 382.797 278.894 381.938C278.885 381.079 277.543 379.389 275.912 378.183C274.222 376.933 273.173 375.397 273.474 374.612C274.099 372.984 284.345 369.552 285.834 370.473C286.4 370.822 287.569 370.713 288.434 370.229C289.714 369.513 289.762 369.15 288.692 368.272C286.545 366.51 282.587 366.504 279.277 368.256C277.571 369.159 275.096 369.835 273.777 369.759C270.92 369.592 265.631 366 268.243 366C269.143 366 269.878 365.55 269.878 365C269.878 363.949 269.72 363.886 266.146 363.51C261.831 363.055 260.863 361.26 261.288 354.501C261.755 347.078 262.93 344.542 266.837 342.521C268.432 341.697 269.996 340.206 270.312 339.208C270.629 338.21 272.911 336.411 275.383 335.21C277.855 334.009 279.878 332.57 279.878 332.013C279.878 331.456 280.519 331 281.302 331C282.084 331 284.084 329.856 285.746 328.458C288.424 326.204 289.337 325.992 293.805 326.585C297.601 327.088 299.443 326.86 301.275 325.66C303.639 324.111 303.736 324.153 304.792 327.183C305.39 328.896 305.878 330.456 305.878 330.649C305.878 330.842 303.403 331 300.378 331C297.353 331 294.878 331.45 294.878 332C294.878 332.55 294.199 333 293.369 333C292.538 333 291.088 333.9 290.146 335C289.204 336.1 287.843 337 287.121 337C286.118 337 286.061 337.472 286.878 339C287.467 340.1 288.945 341.012 290.164 341.026C291.824 341.046 291.378 341.511 288.378 342.884C284.933 344.462 284.014 344.534 281.755 343.398C278.572 341.798 277.878 342.363 277.878 346.559C277.878 352.798 284.872 358.875 294.141 360.69C298.621 361.567 298.738 363.352 294.265 362.579C292.127 362.21 288.353 361.71 285.878 361.47C281.048 361 282.045 361.514 290.878 364.048C295.389 365.343 297.878 367.319 297.878 369.604C297.878 370.537 297.193 370.568 294.986 369.734C292.639 368.849 291.79 368.946 290.486 370.249C289.011 371.725 289.086 372.018 291.412 373.848C294.21 376.048 293.104 377.726 289.965 376.046C286.012 373.931 285.764 375.522 289.378 379.818C292.158 383.121 292.667 385.516 290.405 384.649C289.594 384.338 288.582 384.689 288.155 385.43C287.544 386.489 287.048 386.345 285.834 384.755ZM325.351 381.956C324.567 380.688 326.634 378 328.394 378C330.166 378 330.952 380.526 329.6 381.878C328.192 383.286 326.196 383.323 325.351 381.956Z" fill="#D3D3D3"/>
<path id="path2122" d="M18.214 244.073C16.8011 243.798 16.2158 243.134 16.571 242.209C16.8744 241.418 16.598 240.771 15.9567 240.771C15.3154 240.771 15.0986 240.273 15.4749 239.664C15.9354 238.919 15.4641 238.777 14.0339 239.231C12.8651 239.602 11.9087 239.474 11.9087 238.947C11.9087 238.419 13.1462 237.65 14.6587 237.236L17.4087 236.484L14.9087 235.727C13.4617 235.289 13.1062 234.928 14.0647 234.871C15.1047 234.808 16.3136 233.031 17.3147 230.093C19.1997 224.561 19.3307 222.078 17.7653 221.557C16.9241 221.276 16.9514 220.56 17.8685 218.846C18.6538 217.379 18.7534 216.286 18.1378 215.894C17.5544 215.522 17.4998 214.364 18.0023 213.021C18.8912 210.646 20.3762 210.101 21.4087 211.771C22.4077 213.387 25.8315 212.921 28.035 210.868C29.8491 209.178 29.8992 208.865 28.4832 208.073C26.1846 206.786 28.4843 204.15 32.6587 203.285C36.7386 202.44 36.9518 204.073 33.2644 207.922C30.716 210.582 30.6806 210.774 32.2875 213.226C34.173 216.104 35.7 216.479 36.5471 214.271C37.4411 211.941 38.3938 212.468 40.2234 216.305C42.3511 220.767 42.4355 230.859 40.3813 235.188C38.9591 238.185 38.5442 238.388 34.3547 238.141C31.8107 237.991 30.1022 238.275 30.423 238.794C30.7351 239.299 29.7819 240.016 28.3048 240.387C26.8277 240.757 24.7844 241.895 23.764 242.916C22.7436 243.936 21.5712 244.71 21.1587 244.635C20.7462 244.56 19.4211 244.307 18.214 244.073Z" fill="#D3D3D3"/>
<path id="spain" d="M27.0745 416.702C25.3166 414.889 23.8783 412.439 23.8783 411.259C23.8783 408.9 20.4469 406 17.6558 406C14.1535 406 16.0793 399.1 19.9407 397.813C20.7264 397.551 20.7037 396.711 19.8612 394.862C18.913 392.781 18.9822 391.7 20.2159 389.314C21.6281 386.583 21.5984 386.122 19.8378 383.438C17.9491 380.559 17.9501 380.518 19.925 379.787C22.1728 378.955 22.2095 378.87 23.9957 370.25C24.708 366.813 25.5355 363.984 25.8346 363.964C26.1336 363.944 27.6178 362.913 29.1328 361.673C31.6521 359.61 31.7802 359.186 30.6328 356.707C29.1212 353.442 28.0187 353.032 20.1628 352.815C15.2788 352.681 14.1871 352.359 14.6368 351.187C15.0756 350.043 14.5113 349.827 12.0378 350.19C8.532 350.704 8.4658 350.639 9.8563 348.041C10.5868 346.676 10.3338 345.578 8.8563 343.699C7.7684 342.316 6.8783 340.63 6.8783 339.953C6.8783 338.172 10.0015 336.069 12.6997 336.032C13.9765 336.014 15.735 335.286 16.6075 334.414C17.6815 333.34 19.0313 333.044 20.7861 333.497C22.2118 333.866 26.7533 334.518 30.8783 334.946C35.0033 335.375 39.7283 336.291 41.3783 336.982C43.0283 337.673 47.0783 338.374 50.3783 338.539C61.915 339.117 68.3028 340.074 69.834 341.455C72.955 344.269 82.898 347.253 86.98 346.6C90.271 346.073 91.191 346.345 92.942 348.358C94.831 350.531 95.655 350.71 102.415 350.416C106.486 350.238 110.083 350.522 110.407 351.046C110.731 351.571 110.504 352 109.902 352C109.124 352 109.112 352.568 109.86 353.966C110.74 355.611 110.46 356.212 108.145 357.65C106.623 358.596 104.478 360.107 103.378 361.01C102.278 361.912 99.415 363.267 97.016 364.022C93.978 364.978 91.93 366.472 90.267 368.947C88.954 370.901 86.305 374.687 84.379 377.359C79.965 383.485 79.591 388.457 83.413 390.198L85.948 391.353L82.869 393.303C79.492 395.441 75.4 402.417 76.489 404.179C76.95 404.925 76.323 405.127 74.579 404.794C72.595 404.414 71.296 405.029 69.075 407.399C67.476 409.104 65.8945 411.28 65.5608 412.233C65.189 413.295 64.3534 413.736 63.4034 413.371C62.5506 413.044 61.2807 413.251 60.5814 413.831C59.7367 414.532 57.9786 414.578 55.3441 413.967C53.1629 413.461 49.7281 413.037 47.7112 413.024C43.5387 412.997 36.0157 415.925 33.9917 418.363C32.0243 420.734 30.6658 420.408 27.0745 416.702ZM94.878 389.059C94.878 388.477 95.328 388 95.878 388C97.16 388 97.16 388.708 95.878 389.5C95.328 389.84 94.878 389.641 94.878 389.059ZM108.481 383.455C107.437 382.69 106.2 382.301 105.731 382.591C105.262 382.881 104.878 382.75 104.878 382.3C104.878 380.723 108.798 379.035 110.759 379.767C112.432 380.392 112.549 380.821 111.55 382.673C110.511 384.601 110.164 384.689 108.481 383.455ZM117.378 377C118.178 375.706 119.878 375.706 119.878 377C119.878 377.55 119.177 378 118.319 378C117.462 378 117.038 377.55 117.378 377Z" fill="#C5C5C5"/>
</g>
</g>
</svg>
