<svg viewBox="0 0 459 300" fill="none" xmlns="http://www.w3.org/2000/svg">
<g id="Frame">
<path id="Vector" d="M179.923 86.2038C178.325 85.6826 176.51 85.5122 175.891 85.8227C175.272 86.1342 174.765 85.0273 174.765 83.3648C174.765 81.7013 173.369 77.1959 171.664 73.3537C168.062 65.238 167.771 61.6601 170.562 59.8444C171.662 59.1296 174.8 56.8068 177.533 54.6826C183.456 50.0803 185.122 50.7901 183.631 57.2806C182.471 62.3255 183.475 64.0897 187.502 64.0897C189.553 64.0897 189.313 64.863 185.393 70.8616C180.697 78.0477 179.77 82.6561 182.828 83.6098C183.852 83.9284 184.689 84.8841 184.689 85.734C184.689 87.4791 184.038 87.5436 179.923 86.2038Z" fill="#D3D3D3"/>
<path id="Vector_2" d="M8.84294 286.55C3.01575 285.388 2.77956 285.013 5.3409 280.987C6.42004 279.291 6.69607 277.659 6.04776 276.807C5.43903 276.007 5.50217 274.623 6.19563 273.569C7.61977 271.406 6.47847 269.406 4.22206 270.11C1.86056 270.846 -0.670884 266.395 0.795311 264.084C1.45503 263.045 1.7447 261.627 1.43878 260.934C1.13299 260.241 1.43456 259.673 2.10879 259.673C3.83191 259.673 9.2744 251.803 10.4741 247.576C11.0249 245.635 11.5112 241.098 11.5549 237.494C11.6275 231.493 11.8687 230.914 14.4192 230.619C16.4049 230.39 17.0107 230.708 16.5296 231.727C15.9887 232.872 17.6469 233.182 24.888 233.291C32.7031 233.409 34.213 233.734 36.086 235.712C38.9207 238.706 38.9408 238.645 34.2153 241.259C30.7947 243.152 29.8837 244.526 28.5312 249.829C26.2833 258.643 26.2703 258.665 23.4582 258.665C20.3585 258.665 20.325 259.349 23.2358 263.202C25.3081 265.945 25.3511 266.519 23.6972 269.371C22.3713 271.659 22.2239 273.025 23.157 274.38C24.1778 275.862 23.8283 276.703 21.4486 278.496C19.8032 279.735 18.4571 281.814 18.4571 283.115C18.4571 285.346 16.297 288.083 14.7975 287.752C14.4223 287.669 11.7427 287.128 8.84294 286.55Z" fill="#D3D3D3"/>
<path id="Vector_3" d="M197.337 233.606C192.502 229.479 192.353 227.141 196.704 223.605L200.035 220.9L201.687 224.191C202.848 226.504 203.037 228.898 202.32 232.236L201.299 236.99L197.337 233.606ZM120.33 227.085C118.341 225.469 116.298 225.089 110.022 225.167C102.212 225.265 90.8597 222.727 87.4159 220.113C86.06 219.083 86.0749 218.692 87.5053 217.842C89.8337 216.458 92.8569 206.879 92.8743 200.825C92.888 196.574 93.1398 196.082 94.75 197.167C96.2635 198.188 96.6108 198.14 96.6108 196.91C96.6108 196.079 95.7735 194.833 94.75 194.143C93.7266 193.452 92.8892 191.367 92.8892 189.508C92.8892 186.791 92.1771 185.83 89.2557 184.603C85.6184 183.073 83.4116 179.872 84.7668 178.09C85.1634 177.569 84.3014 176.467 82.8515 175.641C81.4015 174.816 80.5246 173.734 80.9027 173.237C81.8185 172.033 67.1512 166.609 64.8876 167.315C63.9135 167.619 63.1166 167.692 63.1166 167.477C63.1166 167.263 62.7426 166.295 62.2856 165.328C61.7189 164.127 61.9162 163.799 62.9058 164.296C65.0397 165.368 64.6779 162.832 62.4058 160.792C60.6164 159.185 60.6669 158.985 63.0149 158.379C64.4233 158.016 66.0919 157.978 66.7231 158.296C67.3542 158.612 69.3972 158.399 71.2631 157.824C74.0688 156.957 75.1096 157.122 77.279 158.778C79.0074 160.097 80.4905 160.485 81.6269 159.915C82.5756 159.438 85.2062 159.235 87.473 159.464C91.4874 159.868 91.5606 159.809 90.33 157.178C89.6353 155.693 89.3512 153.875 89.6985 153.139C90.0459 152.402 89.7903 151.8 89.1291 151.8C87.2708 151.8 87.7099 149.059 89.6663 148.449C90.7009 148.126 91.6586 148.697 92.032 149.857C92.4103 151.032 93.3606 151.589 94.4213 151.259C95.3901 150.957 97.7434 151.191 99.6501 151.781C103.297 152.908 107.24 151.525 105.795 149.625C104.724 148.217 107.446 146.037 111.238 145.264C116.129 144.267 118.941 141.325 118.941 137.202C118.941 134.426 119.593 133.369 121.811 132.547C124.264 131.639 125.287 131.945 128.851 134.65C131.145 136.392 134.599 138.479 136.526 139.29C138.453 140.099 140.03 141.204 140.03 141.745C140.03 142.285 141.13 142.727 142.474 142.727C143.817 142.727 146.905 143.634 149.334 144.743C151.764 145.852 155.39 146.759 157.392 146.759C159.762 146.759 161.495 147.463 162.359 148.776C163.183 150.026 164.967 150.796 167.055 150.803C168.908 150.809 172.44 151.085 174.905 151.417L179.387 152.019L177.076 156.961C175.804 159.679 174.765 163.269 174.765 164.938C174.765 167.112 173.97 168.268 171.96 169.012C169.341 169.982 164.841 175.057 164.841 177.041C164.841 177.526 163.439 179.601 161.726 181.653C160.012 183.704 158.872 185.596 159.192 185.856C159.511 186.115 161.752 185.379 164.171 184.219C166.59 183.059 169.404 182.371 170.427 182.689C172.461 183.324 172.957 186.629 171.154 187.534C170.492 187.866 170.614 189.377 171.446 191.168C172.578 193.604 172.528 194.405 171.208 195.068C169.935 195.708 169.867 196.388 170.915 197.981C171.668 199.124 172.284 201.194 172.284 202.581C172.284 204.534 173.237 205.382 176.509 206.344C181.373 207.773 181.226 208.852 175.378 214.561C169.877 219.932 166.643 220.6 157.431 218.269C153.197 217.199 148.36 216.322 146.682 216.322C139.529 216.322 133.166 221.611 134.676 226.302C135.116 227.669 134.756 228.458 133.662 228.525C123.981 229.126 122.667 228.984 120.33 227.085Z" fill="#D3D3D3"/>
<path id="Vector_4" d="M54.2397 140.592C52.9418 139.924 53.0397 139.729 54.6813 139.717C55.8415 139.709 57.2371 139.088 57.7826 138.337C58.3282 137.586 60.0308 136.436 61.5659 135.781C63.1011 135.126 64.3571 133.941 64.3571 133.149C64.3571 131.163 68.3212 129.62 73.4277 129.62C77.5437 129.62 81.3064 127.6 79.669 126.269C79.2325 125.914 77.5859 125.887 76.01 126.209C74.1428 126.59 71.8152 126.024 69.3271 124.585C67.2275 123.369 64.7601 122.609 63.8439 122.895C62.1618 123.419 59.395 121.833 59.395 120.345C59.395 119.902 60.2753 119.539 61.3512 119.539C62.4271 119.539 64.9016 118.243 66.8501 116.659C71.0061 113.282 71.0476 109.831 66.9277 110.212C65.0236 110.388 64.503 110.086 65.1845 109.204C65.7188 108.511 65.982 107.087 65.7694 106.039C65.4646 104.536 65.8646 104.299 67.6612 104.915C70.9464 106.042 75.8051 105.626 77.7433 104.051C78.6628 103.304 79.6742 100.86 79.9909 98.6204C80.4781 95.1735 80.2265 94.5696 78.3544 94.6936C76.5827 94.8095 76.1262 94.0363 76.0616 90.8061L75.981 86.7735L68.9285 86.8965C61.3338 87.0285 60.5059 86.3752 64.3313 83.2661C66.1505 81.7871 66.5923 80.4815 66.0371 78.2252C65.5687 76.3218 65.7963 75.1796 66.6442 75.1796C67.3904 75.1796 67.7255 74.5959 67.3888 73.8831C66.7341 72.4969 61.8761 72.0533 61.8761 73.379C61.8761 73.8145 61.3503 74.1714 60.7078 74.1714C60.0652 74.1714 59.5144 72.6975 59.4839 70.8949C59.4534 69.0933 59.4011 66.711 59.3674 65.602C59.1765 59.295 60.636 52.4687 62.3997 51.4202C63.4764 50.781 64.3749 49.6267 64.3966 48.8565C64.4805 45.8763 67.5651 44.2229 73.9713 43.7229C79.6127 43.2823 80.4842 43.4537 80.4842 45.0002C80.4842 45.9832 78.4809 47.7928 76.0325 49.0228C72.6277 50.7326 71.9712 51.4817 73.2413 52.2056C74.5383 52.9466 74.5622 53.2651 73.3511 53.6644C72.4982 53.9457 71.8004 54.851 71.8004 55.6767C71.8004 56.952 72.1008 56.9328 73.8044 55.5476C75.3354 54.3036 77.165 54.0666 81.5577 54.5435C90.9738 55.5648 90.846 55.3783 86.7001 62.0513C84.6263 65.3903 82.311 68.1225 81.5549 68.1225C80.5705 68.1225 80.5829 68.5166 81.5989 69.5117C82.7166 70.6066 82.4592 71.0189 80.3854 71.4605C78.8262 71.7912 78.1083 72.4858 78.624 73.1643C79.1028 73.7934 80.2758 74.0656 81.2307 73.7672C82.1856 73.4697 84.9469 74.6392 87.3663 76.3652C91.0867 79.0197 91.6462 79.9532 90.9837 82.4041C90.3498 84.7501 90.8795 85.8268 93.7638 88.0538C97.5648 90.9896 103.424 97.3592 102.322 97.3592C101.959 97.3592 102.791 99.5015 104.172 102.12C106.06 105.7 106.378 107.425 105.452 109.076C103.796 112.028 104.96 112.706 108.473 110.836C112.596 108.641 118.469 110.926 117.999 114.544C117.472 118.606 115.099 122.458 112.749 123.064C110.262 123.707 110.071 126.682 112.438 127.911C113.296 128.356 114.625 128.407 115.39 128.022C118.235 126.594 115.592 130.057 112.325 132.04C109.79 133.577 106.894 134.108 100.526 134.2C95.8839 134.268 91.5209 134.607 90.8299 134.954C88.9716 135.887 81.425 136.041 78.9604 135.198C77.4663 134.685 75.7293 135.346 73.2297 137.377C70.1625 139.869 69.3052 140.113 67.3103 139.058C65.4091 138.052 64.1382 138.16 60.4424 139.638C57.6452 140.756 55.2682 141.122 54.2397 140.592ZM49.6963 92.8224C48.1077 89.9885 46.0279 89.5469 44.9571 91.8143C43.9593 93.9274 42.3596 93.6985 40.7193 91.2074C39.5412 89.4189 39.8493 88.6436 42.6977 86.227C44.7276 84.5051 45.7756 82.7388 45.3287 81.7931C44.5151 80.0692 46.3779 79.6085 47.6098 81.2286C48.0315 81.7831 49.5997 82.2398 51.0945 82.2448C52.9801 82.2498 54.719 83.5413 56.7726 86.463L59.7325 90.6741L56.3932 93.0089C52.1845 95.9508 51.4385 95.9296 49.6963 92.8224ZM64.3571 94.8983C64.3571 94.6543 64.9154 94.1734 65.5977 93.8306C66.28 93.4878 66.8382 93.6884 66.8382 94.2752C66.8382 94.862 66.28 95.3429 65.5977 95.3429C64.9154 95.3429 64.3571 95.1432 64.3571 94.8983ZM53.9453 57.4541C52.937 55.3188 52.9399 55.3107 54.9252 54.6917C56.045 54.3429 56.862 55.0173 57.2343 56.6002C57.8839 59.3615 55.1779 60.0652 53.9453 57.4541ZM51.4559 50.1388C50.3495 48.6841 51.363 47.2777 54.5018 45.9126C57.5564 44.5839 57.616 46.0235 54.6304 49.0198C53.0669 50.5885 52.0661 50.9413 51.4559 50.1388ZM79.2436 40.2316C79.2436 38.2425 82.293 35.8612 84.8408 35.8612C87.1132 35.8612 86.7175 38.307 84.4126 38.5077C81.375 38.7718 81.1529 38.9412 82.7599 39.7699C84.0186 40.4181 83.7957 40.7539 81.8295 41.1722C80.0702 41.5463 79.2436 41.2448 79.2436 40.2316ZM94.1843 27.6276C94.1546 26.7041 93.5392 25.7877 92.8185 25.5921C90.882 25.0678 92.5394 22.5222 96.2622 20.3063C99.4889 18.3847 99.5162 18.3847 98.5225 20.3063C97.9692 21.3759 96.7795 23.8389 95.8777 25.7796C94.977 27.7203 94.2141 28.552 94.1843 27.6276Z" fill="#D3D3D3"/>
<path id="Vector_5" d="M54.2397 140.592C52.9418 139.924 53.0397 139.729 54.6813 139.717C55.8415 139.709 57.2371 139.088 57.7826 138.337C58.3282 137.586 60.0308 136.436 61.5659 135.781C63.1011 135.126 64.3571 133.941 64.3571 133.149C64.3571 131.163 68.3212 129.62 73.4277 129.62C77.5437 129.62 81.3064 127.6 79.669 126.269C79.2325 125.914 77.5859 125.887 76.01 126.209C74.1428 126.59 71.8152 126.024 69.3271 124.585C67.2275 123.369 64.7601 122.609 63.8439 122.895C62.1618 123.419 59.395 121.833 59.395 120.345C59.395 119.902 60.2753 119.539 61.3512 119.539C62.4271 119.539 64.9016 118.243 66.8501 116.659C71.0061 113.282 71.0476 109.831 66.9277 110.212C65.0236 110.388 64.503 110.086 65.1845 109.204C65.7188 108.511 65.982 107.087 65.7694 106.039C65.4646 104.536 65.8646 104.299 67.6612 104.915C70.9464 106.042 75.8051 105.626 77.7433 104.051C78.6628 103.304 79.6742 100.86 79.9909 98.6204C80.4781 95.1735 80.2265 94.5696 78.3544 94.6936C76.5827 94.8095 76.1262 94.0363 76.0616 90.8061L75.981 86.7735L68.9285 86.8965C61.3338 87.0285 60.5059 86.3752 64.3313 83.2661C66.1505 81.7871 66.5923 80.4815 66.0371 78.2252C65.5687 76.3218 65.7963 75.1796 66.6442 75.1796C67.3904 75.1796 67.7255 74.5959 67.3888 73.8831C66.7341 72.4969 61.8761 72.0533 61.8761 73.379C61.8761 73.8145 61.3503 74.1714 60.7078 74.1714C60.0652 74.1714 59.5144 72.6975 59.4839 70.8949C59.4534 69.0933 59.4011 66.711 59.3674 65.602C59.1765 59.295 60.636 52.4687 62.3997 51.4202C63.4764 50.781 64.3749 49.6267 64.3966 48.8565C64.4805 45.8763 67.5651 44.2229 73.9713 43.7229C79.6127 43.2823 80.4842 43.4537 80.4842 45.0002C80.4842 45.9832 78.4809 47.7928 76.0325 49.0228C72.6277 50.7326 71.9712 51.4817 73.2413 52.2056C74.5383 52.9466 74.5622 53.2651 73.3511 53.6644C72.4982 53.9457 71.8004 54.851 71.8004 55.6767C71.8004 56.952 72.1008 56.9328 73.8044 55.5476C75.3354 54.3036 77.165 54.0666 81.5577 54.5435C90.9738 55.5648 90.846 55.3783 86.7001 62.0513C84.6263 65.3903 82.311 68.1225 81.5549 68.1225C80.5705 68.1225 80.5829 68.5166 81.5989 69.5117C82.7166 70.6066 82.4592 71.0189 80.3854 71.4605C78.8262 71.7912 78.1083 72.4858 78.624 73.1643C79.1028 73.7934 80.2758 74.0656 81.2307 73.7672C82.1856 73.4697 84.9469 74.6392 87.3663 76.3652C91.0867 79.0197 91.6462 79.9532 90.9837 82.4041C90.3498 84.7501 90.8795 85.8268 93.7638 88.0538C97.5648 90.9896 103.424 97.3592 102.322 97.3592C101.959 97.3592 102.791 99.5015 104.172 102.12C106.06 105.7 106.378 107.425 105.452 109.076C103.796 112.028 104.96 112.706 108.473 110.836C112.596 108.641 118.469 110.926 117.999 114.544C117.472 118.606 115.099 122.458 112.749 123.064C110.262 123.707 110.071 126.682 112.438 127.911C113.296 128.356 114.625 128.407 115.39 128.022C118.235 126.594 115.592 130.057 112.325 132.04C109.79 133.577 106.894 134.108 100.526 134.2C95.8839 134.268 91.5209 134.607 90.8299 134.954C88.9716 135.887 81.425 136.041 78.9604 135.198C77.4663 134.685 75.7293 135.346 73.2297 137.377C70.1625 139.869 69.3052 140.113 67.3103 139.058C65.4091 138.052 64.1382 138.16 60.4424 139.638C57.6452 140.756 55.2682 141.122 54.2397 140.592ZM49.6963 92.8224C48.1077 89.9885 46.0279 89.5469 44.9571 91.8143C43.9593 93.9274 42.3596 93.6985 40.7193 91.2074C39.5412 89.4189 39.8493 88.6436 42.6977 86.227C44.7276 84.5051 45.7756 82.7388 45.3287 81.7931C44.5151 80.0692 46.3779 79.6085 47.6098 81.2286C48.0315 81.7831 49.5997 82.2398 51.0945 82.2448C52.9801 82.2498 54.719 83.5413 56.7726 86.463L59.7325 90.6741L56.3932 93.0089C52.1845 95.9508 51.4385 95.9296 49.6963 92.8224ZM64.3571 94.8983C64.3571 94.6543 64.9154 94.1734 65.5977 93.8306C66.28 93.4878 66.8382 93.6884 66.8382 94.2752C66.8382 94.862 66.28 95.3429 65.5977 95.3429C64.9154 95.3429 64.3571 95.1432 64.3571 94.8983ZM53.9453 57.4541C52.937 55.3188 52.9399 55.3107 54.9252 54.6917C56.045 54.3429 56.862 55.0173 57.2343 56.6002C57.8839 59.3615 55.1779 60.0652 53.9453 57.4541ZM51.4559 50.1388C50.3495 48.6841 51.363 47.2777 54.5018 45.9126C57.5564 44.5839 57.616 46.0235 54.6304 49.0198C53.0669 50.5885 52.0661 50.9413 51.4559 50.1388ZM79.2436 40.2316C79.2436 38.2425 82.293 35.8612 84.8408 35.8612C87.1132 35.8612 86.7175 38.307 84.4126 38.5077C81.375 38.7718 81.1529 38.9412 82.7599 39.7699C84.0186 40.4181 83.7957 40.7539 81.8295 41.1722C80.0702 41.5463 79.2436 41.2448 79.2436 40.2316ZM94.1843 27.6276C94.1546 26.7041 93.5392 25.7877 92.8185 25.5921C90.882 25.0678 92.5394 22.5222 96.2622 20.3063C99.4889 18.3847 99.5162 18.3847 98.5225 20.3063C97.9692 21.3759 96.7795 23.8389 95.8777 25.7796C94.977 27.7203 94.2141 28.552 94.1843 27.6276Z" fill="#D3D3D3"/>
<path id="Vector_6" d="M179.923 86.2039C178.325 85.6827 176.51 85.5123 175.891 85.8228C175.272 86.1343 174.765 85.0274 174.765 83.3649C174.765 81.7014 173.369 77.196 171.664 73.3538C168.062 65.2381 167.771 61.6602 170.562 59.8445C171.662 59.1297 174.8 56.8069 177.533 54.6827C183.456 50.0804 185.122 50.7901 183.631 57.2807C182.471 62.3256 183.475 64.0898 187.502 64.0898C189.553 64.0898 189.313 64.8631 185.393 70.8617C180.697 78.0479 179.77 82.6562 182.828 83.6099C183.852 83.9285 184.689 84.8842 184.689 85.7341C184.689 87.4792 184.038 87.5438 179.923 86.2039ZM195.7 84.0011C195.616 83.8629 195.41 82.0321 195.242 79.9331C194.946 76.21 196.894 74.1715 200.749 74.1715C202.47 74.1715 200.984 82.4455 199.078 83.4819C197.724 84.2178 195.996 84.483 195.7 84.0011ZM186.347 80.4402C185.272 79.8928 185.349 79.2052 186.643 77.7676C188.784 75.3883 190.463 76.4287 188.916 79.177C188.255 80.3535 187.195 80.8737 186.347 80.4402ZM55.6978 2.60396C54.1578 1.8307 54.2146 1.58874 56.0718 1.00904C58.6602 0.202511 60.3503 1.21067 58.6817 2.56665C57.977 3.13929 56.7929 3.15441 55.6978 2.60396Z" fill="#D3D3D3"/>
<path id="Vector_7" d="M268.53 280.67C267.222 280.053 264.431 279.184 262.327 278.739C248.709 275.856 240.858 272.164 243.605 269.931C244.45 269.244 248.983 268.71 253.539 268.76C261.858 268.853 263.39 268.657 265.285 267.264C266.437 266.416 268.202 265.722 269.206 265.722C270.21 265.722 271.701 265.178 272.519 264.513C274.529 262.879 274.555 266.669 272.558 270.23C271.306 272.463 271.476 273.095 273.798 274.853C277.003 277.28 277.124 278.168 274.54 280.269C272.255 282.126 271.695 282.164 268.53 280.67ZM278.566 262.005C278.954 259.891 280.181 257.566 281.293 256.838C283.121 255.642 283.129 255.403 281.369 254.318C280.3 253.66 277.83 250.802 275.88 247.968C273.253 244.149 271.762 242.937 270.12 243.286C268.718 243.584 266.566 242.564 264.253 240.506C262.244 238.719 260.084 237.515 259.453 237.832C258.823 238.148 256.33 237.084 253.915 235.466C251.5 233.848 249.185 232.8 248.771 233.137C248.356 233.473 247.153 233.166 246.096 232.453C245.04 231.74 243.87 231.406 243.496 231.71C243.122 232.013 239.368 230.643 235.152 228.664C230.937 226.686 225.534 224.227 223.146 223.2C217.802 220.9 210.949 214.958 208.782 210.743C207.294 207.848 203.297 204.125 203.297 205.634C203.297 205.99 201.004 205.33 198.2 204.168L193.103 202.055L187.815 206.668C182.049 211.701 180.324 212.387 181.335 209.242C181.848 207.647 181.069 206.889 177.758 205.765C174.692 204.723 173.519 203.687 173.506 202.007C173.496 200.731 172.988 199.048 172.379 198.265C171.701 197.394 171.801 196.154 172.639 195.064C173.646 193.754 173.615 192.586 172.523 190.638C171.114 188.125 171.273 187.914 175.694 186.434C178.253 185.577 181.577 183.954 183.078 182.827L185.808 180.779L190.211 182.89L194.614 185.002V182.633C194.614 180.652 195.209 180.289 198.25 180.413C200.249 180.495 202.296 180.896 202.799 181.303C204.558 182.733 206.062 182.026 205.431 180.066C205.081 178.977 205.613 177.534 206.613 176.86C207.614 176.184 208.16 174.788 207.829 173.757C207.358 172.291 207.736 172.012 209.556 172.481C210.839 172.812 213.153 172.533 214.699 171.86C219.062 169.963 225.323 169.863 226.18 171.679C226.724 172.831 228.108 173.101 231.542 172.727C236.163 172.224 236.172 172.23 236.074 175.874C236.02 177.882 235.88 180.08 235.763 180.758C235.554 181.981 228.638 185.449 226.247 185.531C224.07 185.606 224.026 191.069 226.196 191.745C227.67 192.205 227.829 192.698 226.822 193.684C223.977 196.47 231.253 203.571 239.593 206.148C241.311 206.678 244.035 209.05 245.647 211.419C248.758 215.99 257.364 221.974 262.263 222.973C263.893 223.306 266.896 222.891 268.988 222.042C272.929 220.445 273.66 221.15 271.484 224.454C270.416 226.076 270.612 226.404 272.65 226.404C273.998 226.404 278.97 227.538 283.699 228.924C288.427 230.311 293.177 231.445 294.254 231.445C297.19 231.445 302.541 235.913 302.541 238.366C302.541 240.979 300.969 241.115 298.076 238.754C296.886 237.783 293.802 236.477 291.222 235.849C287.216 234.877 286.25 234.962 284.611 236.433C283.555 237.381 282.692 239.834 282.692 241.882C282.692 244.905 283.264 245.786 285.718 246.544C287.382 247.058 289.407 248.486 290.217 249.716C291.45 251.588 291.322 252.171 289.435 253.293C288.195 254.03 286.668 254.633 286.043 254.633C285.416 254.633 285.276 255.837 285.731 257.309C286.185 258.781 286.107 260.256 285.555 260.586C285.004 260.915 283.935 262.093 283.179 263.202C282.424 264.311 280.918 265.36 279.834 265.534C278.214 265.793 277.987 265.163 278.566 262.005ZM197.828 262.95C197.456 261.979 196.829 258.959 196.433 256.238C196.039 253.517 194.91 250.023 193.924 248.475C191.696 244.972 191.693 244.551 193.904 244.551C194.878 244.551 196.772 243.417 198.114 242.031C203.803 236.152 208.259 241.182 208.259 253.48C208.259 260.885 208.077 261.462 205.885 260.996C204.322 260.664 203.034 261.213 202.12 262.603C200.425 265.176 198.732 265.313 197.828 262.95Z" fill="#D3D3D3"/>
<path id="Vector_8" d="M149.911 144.668C148.375 144.05 147.119 143.198 147.119 142.776C147.119 142.352 146.02 142.007 144.677 142.007C141.66 142.007 127.735 134.364 126.68 132.129C125.853 130.377 131.061 126.357 132.212 127.858C133.446 129.465 137.845 129.316 141.099 127.556C145.822 125.001 151.048 125.833 153.198 129.48C154.155 131.101 155.689 132.792 156.61 133.235C158.761 134.271 158.713 135.768 156.415 139.349C155.396 140.937 154.563 143.092 154.563 144.138C154.563 146.244 153.988 146.31 149.911 144.668Z" fill="#D3D3D3"/>
<path id="Vector_9" d="M155.022 129.992C154.663 125.463 146.313 123.621 141.105 126.924C139.079 128.209 137.365 128.549 135.666 128.003C134.301 127.565 133.903 127.174 134.78 127.135C135.656 127.096 137.725 126.345 139.376 125.466C141.744 124.205 142.106 123.513 141.09 122.189C138.225 118.454 147.833 105.415 154.135 104.487C155.895 104.228 157.851 103.756 158.484 103.438C160.447 102.453 163.578 103.999 163.578 105.953C163.578 106.976 162.887 109.047 162.042 110.554C160.821 112.732 160.821 113.379 162.042 113.71C164.664 114.42 163.744 116.504 159.743 118.908C157.175 120.45 156.105 121.821 156.503 123.058C156.83 124.074 156.659 126.412 156.123 128.253C155.587 130.094 155.091 130.877 155.022 129.992Z" fill="#D3D3D3"/>
<path id="Vector_10" d="M194.208 167.536C191.682 165.874 190.786 165.818 185.316 166.971C181.969 167.676 178.416 167.998 177.42 167.688C174.924 166.909 175.151 163.295 178.087 157.015C179.452 154.099 180.568 151.626 180.568 151.521C180.569 151.416 176.72 151.022 172.016 150.645C164.845 150.071 163.218 149.587 161.945 147.656C161.11 146.388 160.809 144.851 161.273 144.24C161.738 143.628 161.187 142.837 160.05 142.483C158.419 141.974 158.14 141.026 158.733 138.014C159.164 135.827 158.947 133.92 158.226 133.558C157.534 133.211 157.06 130.347 157.171 127.197C157.351 122.148 157.833 121.144 161.219 118.748C164.538 116.401 164.859 115.761 163.575 114.055C162.429 112.534 162.421 111.361 163.547 108.939C164.679 106.502 164.664 105.353 163.483 103.817C161.058 100.659 161.666 99.7909 166.303 99.7909C169.464 99.7909 170.645 100.233 170.645 101.411C170.645 102.405 171.334 102.816 172.425 102.477C173.405 102.171 174.488 102.463 174.832 103.125C175.177 103.786 175.352 102.741 175.223 100.8C175.024 97.8331 175.434 97.2201 177.797 96.9479C179.591 96.7402 180.275 96.1938 179.692 95.4347C179.19 94.7814 178.602 93.5655 178.387 92.7338C177.616 89.7436 177.382 89.1861 176.347 87.8371C175.523 86.7634 175.93 86.6364 178.243 87.2443C179.863 87.6708 182.585 88.1668 184.291 88.3473C191.449 89.1024 192.965 89.3655 193.73 89.9876C194.174 90.3485 196.837 90.4059 199.649 90.1166C202.46 89.8273 207.551 90.1045 210.963 90.7336C214.374 91.3627 218.486 91.9938 220.1 92.136C224.177 92.4949 225.884 95.3006 224.034 98.6003C222.842 100.727 222.902 101.422 224.349 102.283C225.332 102.866 227.839 106.088 229.923 109.441C232.006 112.794 234.592 116.134 235.672 116.862C238.35 118.669 238.318 122.4 235.631 121.562C234.355 121.164 231.956 122.164 229.027 124.315C226.498 126.173 221.561 128.787 218.056 130.125C211.064 132.793 210.331 133.61 214.064 134.573C215.429 134.925 216.545 135.846 216.545 136.62C216.545 138.921 226.384 145.901 230.592 146.585L234.492 147.219L228.962 151.089C223.073 155.212 223.105 155 227.375 161.326C227.576 161.624 225.956 161.977 223.775 162.113C221.595 162.248 219.211 162.763 218.478 163.257C217.743 163.752 213.279 164.885 208.556 165.775C203.833 166.665 199.305 167.842 198.494 168.389C197.483 169.071 196.131 168.802 194.208 167.536Z" fill="#D3D3D3"/>
<path id="Vector_11" d="M155.752 143.555C155.752 141.323 156.028 141.166 158.109 142.222C160.676 143.525 160.259 146.084 157.48 146.084C156.462 146.084 155.752 145.044 155.752 143.555Z" fill="#D3D3D3"/>
<path id="Vector_12" d="M173.189 184.754C173.189 182.06 168.598 180.97 165.1 182.833C160.964 185.035 160.124 184.184 163.248 180.957C164.621 179.538 165.746 177.668 165.746 176.804C165.746 174.188 174.379 167.862 177.147 168.451C178.478 168.733 182.244 168.401 185.515 167.712C190.758 166.606 191.775 166.664 194.111 168.201C195.567 169.16 196.76 170.38 196.76 170.914C196.76 171.447 198.993 172.173 201.722 172.528C206.896 173.2 208.112 174.964 204.896 177.132C203.9 177.804 203.454 179.086 203.888 180.028C204.544 181.451 204.36 181.517 202.732 180.441C201.666 179.738 199.887 179.446 198.777 179.793C197.588 180.164 196.76 179.913 196.76 179.183C196.76 178.209 196.36 178.212 194.899 179.198C193.875 179.888 193.038 181.068 193.038 181.82C193.038 182.913 192.414 182.956 189.937 182.039C188.231 181.408 186.835 180.425 186.835 179.855C186.835 179.287 185.3 180.01 183.424 181.465C178.938 184.943 173.189 186.79 173.189 184.754Z" fill="#D3D3D3"/>
<path id="Vector_13" d="M201.248 170.154C199.289 168.562 199.54 168.376 205.26 167.18C208.615 166.478 214.152 165.196 217.564 164.332C220.975 163.467 224.883 162.633 226.247 162.477C229.151 162.145 229.242 161.392 226.853 157.468C225.133 154.647 225.221 154.474 230.001 151.212C233.126 149.08 235.35 148.209 236.103 148.821C236.755 149.35 238.841 149.784 240.738 149.784C243.384 149.784 244.37 149.196 244.967 147.263C245.773 144.652 246.095 144.576 257.261 144.343C261.655 144.251 262.273 144.528 262.652 146.759C262.888 148.145 263.596 149.789 264.224 150.412C265.634 151.809 264.317 154.91 262.393 154.723C258.15 154.309 257.509 154.836 259.777 156.871C263.16 159.91 261.001 163.867 254.534 166.483C251.703 167.628 248.645 169.043 247.741 169.626C246.837 170.21 241.836 170.989 236.629 171.357C228.953 171.899 227.033 171.749 226.472 170.561C225.729 168.988 218.702 168.945 215.617 170.494C212.317 172.152 203.449 171.942 201.248 170.154Z" fill="#D3D3D3"/>
<path id="Vector_14" d="M265.579 26.3361C265.993 25.459 266.332 24.5516 266.332 24.3197C266.332 24.0878 267.747 23.8983 269.476 23.8983C272.237 23.8983 272.459 24.1443 271.294 25.9146C269.674 28.3736 264.434 28.7607 265.579 26.3361ZM284.53 27.2625C284.073 26.8905 283.699 25.5285 283.699 24.234C283.699 21.6783 282.503 21.2408 280.334 23.0041C278.299 24.6575 276.508 23.3035 274.875 18.8746C273.509 15.1696 273.632 14.7623 277.011 11.7913C281.73 7.64167 289.159 4.55366 292.691 5.27249C294.228 5.58502 296.57 5.19486 297.898 4.40547C299.685 3.34287 301.203 3.22188 303.74 3.9407C307.838 5.1011 309.03 7.53481 307.304 11.2207C306.246 13.483 306.549 14.5456 309.134 17.6376C310.837 19.6751 312.232 21.6219 312.232 21.9626C312.232 22.3044 310.035 23.3892 307.349 24.3732C303.748 25.6928 300.994 25.9832 296.863 25.4801C292.751 24.9791 290.475 25.215 288.312 26.3673C286.689 27.2313 284.988 27.6336 284.53 27.2625ZM265.678 19.91C266.081 19.3797 267.231 19.2013 268.232 19.5138C270.796 20.3133 270.494 20.8738 267.499 20.8738C266.093 20.8738 265.275 20.4403 265.678 19.91Z" fill="#D3D3D3"/>
<path id="Vector_15" d="M265.701 50.9192C265.257 50.3354 265.273 47.2021 265.737 43.9558C266.337 39.7558 267.379 37.443 269.35 35.9378L272.12 33.8237L277.614 36.7434C281.773 38.9522 284.091 39.539 287.142 39.1549C291.35 38.6246 292.26 37.5237 289.623 36.1526C288.771 35.71 287.433 33.8933 286.65 32.1169C285.358 29.1771 285.498 28.7446 288.22 27.2959C290.428 26.1193 292.774 25.8723 297.198 26.3492C301.616 26.8261 304.245 26.5488 307.23 25.2946C311.154 23.6463 311.366 23.6634 314.281 25.8895C315.935 27.1517 318.673 30.1984 320.366 32.6603L323.444 37.1365L318.55 40.6843C312.949 44.7451 308.472 45.4741 298.971 43.8711C293.006 42.8649 292.091 42.9768 287.186 45.3127C284.262 46.705 279.507 48.1517 276.621 48.5268C273.734 48.9018 270.734 49.8324 269.955 50.5955C268.263 52.253 266.801 52.3649 265.701 50.9192Z" fill="#D3D3D3"/>
<path id="Vector_16" d="M293.435 69.3393C291.62 68.5671 290.135 67.5055 290.135 66.9823C290.135 66.458 288.807 65.3218 287.183 64.4568C284.58 63.0706 283.626 63.0545 279.119 64.3157C274.421 65.6313 274.008 65.6061 274.008 64.0001C274.008 63.0393 272.385 60.2891 270.402 57.8886L266.794 53.5243L269.471 51.8346C270.943 50.9051 274.38 49.8183 277.109 49.419C279.839 49.0198 284.465 47.565 287.389 46.1849C292.366 43.8358 293.147 43.7501 299.586 44.8359C303.369 45.4741 307.731 45.7382 309.277 45.4237C313.555 44.5506 315.487 48.6286 312.362 51.9334C311.084 53.2843 310.015 55.9772 309.984 57.9179C309.921 61.9898 307.475 64.8782 301.188 68.312C297.139 70.5229 296.433 70.6167 293.435 69.3393Z" fill="#D3D3D3"/>
<path id="Vector_17" d="M265.324 75.3812C265.324 75.0798 266.302 73.9275 267.495 72.8195C269.563 70.901 269.563 70.8354 267.495 71.4484C266.302 71.8022 265.343 71.766 265.364 71.3677C265.45 69.801 268.553 67.6103 270.907 67.4561C272.271 67.3673 275.74 66.581 278.615 65.7099C281.49 64.8379 284.715 64.3973 285.783 64.73C288.142 65.4659 290.512 68.8282 289.558 70.0823C288.202 71.8658 265.324 76.8673 265.324 75.3812Z" fill="#D3D3D3"/>
<path id="Vector_18" d="M276.56 131.282C275.654 129.348 274.36 128.571 271.868 128.463C269.975 128.381 267.309 128.268 265.945 128.211C264.58 128.155 263.595 127.561 263.756 126.891C264.156 125.228 255.412 123.94 254.235 125.489C253.145 126.923 249.197 125.857 249.197 124.129C249.197 123.445 246.964 122.287 244.235 121.555C241.506 120.823 239.273 119.672 239.273 118.996C239.273 118.322 238.388 117.173 237.308 116.444C236.227 115.715 233.455 112.073 231.149 108.351C228.843 104.629 226.333 101.415 225.571 101.208C224.565 100.936 224.586 100.124 225.648 98.2283C226.828 96.1242 226.736 95.0364 225.174 92.5805C223.395 89.7859 223.411 89.4139 225.363 88.0045C226.531 87.1606 229.527 85.7855 232.021 84.9497C234.513 84.113 236.882 82.5937 237.284 81.5724C238.044 79.6458 248.818 73.1633 251.262 73.1633C252.027 73.1633 252.964 73.8196 253.343 74.6231C254.501 77.074 261.492 79.5339 263.483 78.191C264.42 77.5589 268.921 76.4076 273.486 75.6313C278.051 74.855 284.145 73.2913 287.029 72.1572C289.912 71.023 293.135 70.3636 294.19 70.6933C295.246 71.022 297.349 73.6331 298.864 76.4953C300.38 79.3575 302.515 82.2328 303.611 82.883C305.37 83.9295 305.404 84.5142 303.901 87.8926C302.306 91.4776 302.366 91.8083 304.85 93.1492C306.512 94.0454 307.503 95.6383 307.503 97.4086C307.503 99.1961 308.602 100.94 310.489 102.146C314.488 104.703 314.63 106.658 311.428 115.154C309.303 120.795 308.99 122.961 309.994 125.104L311.275 127.843L303.497 127.171C297.484 126.65 295.154 126.845 293.237 128.027C291.872 128.868 289.839 129.571 288.717 129.588C287.597 129.606 286.334 130.352 285.911 131.247C285.266 132.615 284.831 132.661 283.163 131.536C281.49 130.407 280.923 130.491 279.496 132.076C277.894 133.856 277.745 133.815 276.56 131.282Z" fill="#D3D3D3"/>
<path id="Vector_19" d="M234.485 146.752C232.873 145.647 230.624 144.743 229.485 144.743C226.995 144.743 218.184 138.011 218.184 136.109C218.184 135.368 217.291 134.355 216.199 133.859C214.594 133.128 215.365 132.417 220.231 130.146C223.54 128.601 227.802 126.163 229.7 124.73C235.234 120.55 243.483 120.944 249.292 125.664C251.832 127.729 255.4 128.272 255.4 126.596C255.4 124.911 260.159 125.471 261.422 127.304C262.07 128.247 264.192 129.096 266.134 129.19C268.077 129.284 270.923 129.419 272.457 129.49C276.03 129.657 276.24 133.151 272.768 134.661C271.403 135.255 270.287 136.389 270.287 137.182C270.287 137.974 269.031 139.161 267.495 139.818C265.961 140.474 264.401 141.386 264.03 141.843C263.661 142.3 259.195 142.799 254.106 142.952C245.352 143.215 244.822 143.366 244.23 145.751C243.42 149.008 238.508 149.512 234.485 146.752Z" fill="#D3D3D3"/>
<path id="Vector_20" d="M305.744 92.765C303.713 91.5522 303.576 90.9654 304.813 88.7596C306.766 85.2764 306.639 82.5705 304.492 81.9C303.519 81.5966 301.531 79.1669 300.074 76.4993L297.427 71.651L300.181 70.1388C307.225 66.2705 311.224 61.9646 311.253 58.2213C311.268 56.1576 312.323 53.4093 313.632 52.0241C315.402 50.153 315.678 49.0702 314.746 47.6557C313.361 45.5517 315.989 42.4173 320.009 41.3799C321.248 41.0603 322.601 39.9302 323.016 38.8696C324.063 36.1899 331.036 35.2523 335.567 37.1819C338.778 38.549 339.52 38.5107 343.735 36.7625L348.374 34.84L350.179 37.1154C351.171 38.3665 352.677 40.649 353.527 42.1875C355.291 45.3843 366.404 50.9837 370.984 50.9837C374.22 50.9837 376.973 52.6522 376.973 54.6141C376.973 55.2805 374.984 56.7786 372.554 57.9441L368.135 60.0632L370.852 63.991L373.569 67.9198L370.254 71.4504C367.87 73.991 367.154 75.6736 367.704 77.452C368.421 79.7738 368.097 79.9583 362.343 80.5118C358.976 80.8364 352.656 82.2922 348.299 83.749C341.474 86.0295 339.292 86.3047 332.536 85.7401C326.053 85.1987 323.519 85.473 317.913 87.3219C314.008 88.6104 310.495 90.539 309.629 91.8718C308.281 93.9436 307.874 94.0373 305.744 92.765Z" fill="#D3D3D3"/>
<path id="Vector_21" d="M376.035 151.131C375.178 150.849 374.819 150.17 375.237 149.619C375.656 149.07 376.774 145.911 377.726 142.601L379.454 136.581L373.251 131.54C369.84 128.769 367.049 126.075 367.049 125.554C367.049 125.034 364.853 123.427 362.17 121.985C356.84 119.118 352.807 119.323 351.557 122.525C351.155 123.555 349.452 125.131 347.772 126.025C346.093 126.919 344.719 128.29 344.719 129.072C344.719 129.853 343.475 130.814 341.953 131.206C340.432 131.598 337.598 133.302 335.657 134.991C333.152 137.17 331.853 137.703 331.187 136.827C330.537 135.972 329.324 135.87 327.248 136.495C321.284 138.294 311.952 138.697 309.618 137.257C307.091 135.7 307.757 130.963 310.78 128.989C312.119 128.115 312.224 127.22 311.237 125.109C310.231 122.958 310.541 120.8 312.668 115.154C315.896 106.587 315.752 104.518 311.754 102.064C305.523 98.2373 308.69 91.3727 318.123 88.2605C323.511 86.4842 326.106 86.212 332.536 86.7483C339.262 87.3108 341.481 87.0356 348.132 84.8116C352.397 83.3861 358.816 81.8658 362.398 81.4333C368.599 80.6832 368.897 80.5088 368.65 77.7585C368.372 74.6655 372.42 69.1306 374.96 69.1306C375.807 69.1306 379.762 67.5337 383.749 65.5829C391.857 61.6148 394.642 61.7065 397.392 66.0275C399.826 69.8525 404.31 72.0614 408.36 71.4323C410.969 71.027 412.497 71.6198 415.442 74.1815C418.852 77.1486 419.66 77.3875 424.266 76.7886C427.055 76.4267 430.995 75.4327 433.022 74.5808C436.345 73.1845 437 73.1875 439.667 74.608C442.126 75.9166 443.691 75.9972 448.927 75.0849C458.758 73.372 458.849 73.4748 458.849 86.3027V97.4893L455.082 100.065C453.012 101.482 450.556 103.834 449.625 105.292C447.225 109.057 441.919 113.49 439.814 113.49C438.833 113.49 437.658 114.694 437.202 116.163C436.389 118.799 429.865 124.58 427.705 124.58C427.095 124.58 426.595 125.033 426.595 125.588C426.595 126.142 425.478 126.596 424.114 126.596C422.688 126.596 421.632 127.268 421.632 128.176C421.632 129.298 420.913 129.57 419.151 129.116C417.764 128.758 416.67 128.935 416.67 129.517C416.67 131.268 412.079 132.691 409.211 131.829C406.803 131.105 406.73 130.887 408.498 129.694C411.28 127.818 410.953 126.314 408.039 127.582C406.077 128.435 405.353 128.247 404.274 126.609C403.539 125.493 402.379 124.58 401.697 124.58C400.899 124.58 400.93 125.299 401.784 126.596C402.514 127.705 402.813 128.669 402.449 128.738C402.083 128.808 401.276 128.921 400.656 128.99C398.264 129.257 394.341 134.622 394.341 137.624C394.341 139.545 393.588 141.009 392.409 141.376C391.346 141.707 390.755 142.568 391.095 143.288C391.788 144.754 381.823 151.844 379.246 151.72C378.338 151.677 376.892 151.411 376.035 151.131Z" fill="#D3D3D3"/>
<path id="Vector_22" d="M372.568 145.088C371.636 139.855 370.186 137.686 367.623 137.686C365.849 137.686 361.691 135.049 354.656 129.466L350.016 125.783L352.851 122.913L355.684 120.043L360.073 121.942C362.487 122.988 365.986 125.63 367.849 127.815C369.712 129.998 372.825 132.797 374.767 134.033L378.299 136.279L376.477 142.63C375.474 146.123 374.38 149.203 374.045 149.474C373.712 149.746 373.047 147.772 372.568 145.088Z" fill="#D3D3D3"/>
<path id="Vector_23" d="M267.805 150.898C265.166 150.301 264.704 149.603 264.704 146.21C264.704 143.037 265.277 142.019 267.506 141.223C269.048 140.674 270.665 139.315 271.099 138.203C272.046 135.777 275.398 133.609 276.974 134.4C277.597 134.714 278.923 134.106 279.922 133.051C281.192 131.708 281.91 131.511 282.317 132.393C282.98 133.828 286.414 134.125 286.414 132.747C286.414 132.249 288.74 130.855 291.583 129.651C295.701 127.906 297.938 127.594 302.591 128.114L308.432 128.767L307.216 132.657C306.093 136.251 305.771 136.476 302.967 135.61C299.401 134.508 291.441 137.342 288.491 140.765C287.496 141.919 284.808 143.672 282.517 144.661C280.226 145.65 277.622 147.66 276.732 149.129C275.094 151.833 273.414 152.166 267.805 150.898Z" fill="#D3D3D3"/>
<path id="Vector_24" d="M274.628 172.763C270.887 171.7 262.926 167.36 261.409 165.556C260.961 165.024 261.208 163.492 261.96 162.152C262.975 160.343 262.945 159.22 261.845 157.788C259.914 155.276 259.975 154.767 262.129 155.439C263.145 155.755 264.489 155.085 265.297 153.859C266.421 152.151 267.484 151.84 270.664 152.29C275.211 152.933 277.25 152.113 277.897 149.377C278.147 148.322 280.458 146.571 283.032 145.485C285.607 144.4 288.277 142.656 288.967 141.611C291.059 138.432 299.39 135.512 303.099 136.658C304.839 137.196 306.262 137.394 306.262 137.1C306.262 136.805 308.077 137.383 310.294 138.384C312.512 139.387 314.535 140.3 314.79 140.415C315.045 140.53 313.985 142.344 312.434 144.448C310.883 146.551 309.45 149.406 309.251 150.792C307.964 159.718 307.131 161.696 304.198 162.782C302.541 163.396 300.126 163.898 298.834 163.898C297.542 163.898 296.105 164.397 295.642 165.007C294.693 166.255 280.233 174.023 279.088 173.9C278.682 173.857 276.675 173.344 274.628 172.763Z" fill="#D3D3D3"/>
<path id="Vector_25" d="M333.244 183.377C332.051 183.118 331.073 182.058 331.073 181.023C331.073 179.986 330.487 178.845 329.773 178.486C328.869 178.032 328.877 177.436 329.8 176.532C330.819 175.535 330.326 175.105 327.689 174.688C325.798 174.39 324.064 174.562 323.837 175.07C323.073 176.779 316.823 176.046 315.304 174.07C314.489 173.011 311.984 171.816 309.733 171.415C307.483 171.013 304.885 169.805 303.958 168.731C303.033 167.656 301.079 166.385 299.617 165.906C297.405 165.18 297.333 165.023 299.191 164.97C300.419 164.935 302.993 164.247 304.912 163.44C308.366 161.988 309.02 160.513 310.516 150.792C310.729 149.406 312.419 146.116 314.271 143.483C316.787 139.906 318.377 138.694 320.554 138.694C322.157 138.694 324.88 138.257 326.607 137.724C328.615 137.103 330.01 137.103 330.482 137.724C331.753 139.395 334.592 138.784 335.422 136.66C335.859 135.542 338.408 133.719 341.088 132.608C343.767 131.497 345.959 129.943 345.959 129.156C345.959 125.622 352.521 126.78 354.003 130.576C354.425 131.657 355.802 132.808 357.062 133.133C358.324 133.458 360.667 134.788 362.271 136.09C363.875 137.39 366.261 138.621 367.572 138.826C369.375 139.107 370.301 140.606 371.374 144.977C373.024 151.694 372.945 151.6 377.684 152.363C380.339 152.79 382.052 152.386 384.055 150.861C387.763 148.038 390.185 148.239 391.177 151.453C391.737 153.263 391.378 154.64 390.072 155.702C388.691 156.824 388.138 156.905 388.138 155.989C388.138 155.283 387.669 154.941 387.095 155.23C385.959 155.799 386.095 158.96 387.54 165.687L388.465 169.998L385.2 168.989C383.277 168.395 380.789 168.335 379.144 168.843C377.609 169.317 375.978 169.646 375.519 169.574C373.805 169.305 364.591 174.548 363.916 176.177C362.56 179.453 339.785 184.798 333.244 183.377Z" fill="#D3D3D3"/>
<path id="Vector_26" d="M316.187 208.82C316.187 207.982 314.824 206.57 313.161 205.684C311.496 204.797 310.419 203.467 310.769 202.727C311.147 201.926 310.238 201.114 308.524 200.719C301.73 199.156 299.016 197.924 299.608 196.671C299.949 195.947 299.624 195.051 298.883 194.679C298.144 194.307 297.887 193.545 298.313 192.984C298.74 192.424 297.391 190.617 295.317 188.969C293.241 187.321 291.162 184.522 290.696 182.749C290.228 180.975 288.795 178.713 287.51 177.721C283.852 174.898 284.716 172.613 290.75 169.157C295.324 166.536 296.875 166.13 299.36 166.897C301.026 167.412 302.967 168.71 303.672 169.782C304.383 170.86 306.9 172.025 309.315 172.394C311.757 172.766 314.248 173.926 314.974 175.031C315.881 176.407 317.575 177.004 320.572 177.004C322.936 177.004 324.87 176.565 324.87 176.027C324.87 175.491 325.732 175.319 326.784 175.648C327.838 175.977 328.401 176.488 328.036 176.784C327.671 177.08 327.993 177.929 328.749 178.671C329.506 179.412 330.094 181.838 330.057 184.062C329.997 187.544 330.495 188.321 333.632 189.638C337.766 191.376 337.862 191.673 335.415 195.151C334.44 196.537 333.622 199.038 333.599 200.71C333.56 203.382 332.769 204.042 327.041 206.183C323.46 207.523 319.552 209.007 318.357 209.482C316.779 210.109 316.187 209.929 316.187 208.82Z" fill="#D3D3D3"/>
<path id="Vector_27" d="M236.645 183.714C236.565 183.073 236.673 182.095 236.886 181.541C237.1 180.986 237.305 178.718 237.344 176.5C237.41 172.639 237.597 172.453 241.754 172.137C244.142 171.954 246.933 171.236 247.957 170.541C251.356 168.232 259.357 165.702 260.45 166.591C262.124 167.951 260.35 171.83 257.747 172.502C256.457 172.835 255.4 173.916 255.4 174.905C255.4 175.894 254.801 178.1 254.069 179.806C253.057 182.167 252.126 182.813 250.18 182.509C248.773 182.288 247.324 181.866 246.959 181.57C246.596 181.275 245.415 181.65 244.336 182.405C241.588 184.327 236.825 185.139 236.645 183.714Z" fill="#D3D3D3"/>
<path id="Vector_28" d="M285.793 207.654L282.072 206.23L285.791 206.822C289.675 207.44 290.904 207.975 290.032 208.669C289.748 208.894 287.84 208.438 285.793 207.654ZM265.18 201.561C264.533 200.927 262.276 199.828 260.167 199.118C256.825 197.993 256.588 197.676 258.326 196.643C260.093 195.594 259.975 195.332 257.291 194.337C255.625 193.72 253.093 191.354 251.663 189.079C249.883 186.241 248.406 185.06 246.962 185.317C244.765 185.71 244.671 186.263 246.236 189.606C247.057 191.358 246.921 191.451 245.199 190.313C243.692 189.319 242.998 189.291 242.309 190.198C241.693 191.007 240.872 190.615 239.761 188.986C237.535 185.724 237.635 185.069 240.362 185.069C241.642 185.069 243.38 184.394 244.224 183.568C245.068 182.743 246.261 182.32 246.877 182.63C247.494 182.939 249.313 183.387 250.919 183.623C253.49 184.002 254.034 183.48 255.457 179.268C256.347 176.637 258.372 173.485 259.959 172.264C261.546 171.043 262.843 169.545 262.843 168.936C262.843 168.327 264.658 168.923 266.875 170.261C272.553 173.685 278.638 175.204 281.574 173.926C283.416 173.126 283.932 173.24 283.932 174.448C283.932 175.299 285.049 176.903 286.413 178.012C288.89 180.024 289.784 183.053 287.902 183.053C287.356 183.053 286.353 182.6 285.672 182.047C284.848 181.378 282.079 181.54 277.396 182.531C273.526 183.351 269.577 183.777 268.622 183.479C267.666 183.181 265.988 183.666 264.893 184.556C263.796 185.447 262.189 186.101 261.321 186.008C255.706 185.407 255.61 188.64 261.116 192.923C262.749 194.193 264.084 195.637 264.084 196.132C264.084 196.627 265.34 197.35 266.875 197.739C268.411 198.129 270.057 198.944 270.535 199.55C271.012 200.156 273.245 201.173 275.497 201.81C279.495 202.94 279.435 202.964 272.975 202.84C269.336 202.77 265.829 202.194 265.18 201.561Z" fill="#D3D3D3"/>
<path id="Vector_29" d="M283.749 205.529C281.888 205.296 280.206 204.315 279.868 203.267C279.529 202.21 277.652 201.124 275.503 200.741C273.43 200.371 271.427 199.416 271.049 198.618C270.674 197.821 269.706 197.167 268.901 197.167C266.799 197.167 259.376 190.71 258.902 188.471C258.613 187.107 259.139 186.67 260.794 186.9C262.055 187.076 264.114 186.465 265.368 185.541C266.623 184.619 268.197 184.139 268.867 184.476C269.536 184.811 273.291 184.408 277.21 183.578C282.337 182.493 284.786 182.374 285.941 183.152C286.824 183.748 288.128 183.942 288.84 183.584C289.553 183.226 290.135 183.607 290.135 184.428C290.135 185.25 291.847 187.314 293.939 189.013C296.03 190.713 297.417 192.532 297.02 193.054C296.623 193.576 296.829 194.27 297.478 194.597C298.127 194.922 297.36 196.327 295.773 197.718C294.188 199.109 292.202 201.595 291.362 203.244C290.522 204.892 289.205 206.173 288.434 206.09C287.664 206.007 285.556 205.754 283.749 205.529Z" fill="#D3D3D3"/>
<path id="Vector_30" d="M300.239 211.769C298.633 210.391 296.028 209.265 294.451 209.265C290.27 209.265 290.043 207.354 293.583 201.963C296.051 198.204 297.078 197.419 298.38 198.298C299.292 198.913 302.135 200.001 304.7 200.718C307.266 201.434 309.084 202.22 308.743 202.463C308.402 202.707 308.89 203.657 309.826 204.573C311.75 206.458 310.02 206.875 307.792 205.064C305.992 203.6 304.967 205.413 304.633 210.658C304.506 212.66 304.122 214.291 303.781 214.284C303.44 214.277 301.847 213.145 300.239 211.769Z" fill="#D3D3D3"/>
<path id="Vector_31" d="M318.668 236.615C318.668 236.05 317.133 234.99 315.256 234.259C313.38 233.528 311.845 232.352 311.845 231.647C311.845 230.941 311.214 230.04 310.444 229.644C309.672 229.248 308.632 225.976 308.13 222.371C307.629 218.767 306.725 215.055 306.122 214.123C305.486 213.139 305.493 210.815 306.139 208.578C306.752 206.461 307.31 205.313 307.379 206.027C307.454 206.812 308.79 207.211 310.762 207.035C313.7 206.773 314.238 207.281 316.236 212.205C317.51 215.343 320.084 218.904 322.289 220.579C325.6 223.093 325.931 223.786 324.71 225.64C323.932 226.821 323.188 229.858 323.057 232.389C322.88 235.789 322.278 237.074 320.743 237.315C319.602 237.495 318.668 237.179 318.668 236.615Z" fill="#D3D3D3"/>
<path id="Vector_32" d="M322.591 219.5C319.294 216.997 316.258 211.769 317.588 210.881C317.841 210.713 321.908 209.112 326.627 207.323C335.187 204.076 335.218 204.073 339.963 205.812C342.579 206.771 344.719 207.903 344.719 208.328C344.719 208.753 345.013 209.722 345.371 210.481C345.793 211.373 344.073 212.633 340.515 214.038C337.484 215.235 334.668 217.077 334.256 218.131C333.658 219.661 328.896 222.371 326.804 222.371C326.567 222.371 324.672 221.08 322.591 219.5Z" fill="#D3D3D3"/>
<path id="Vector_33" d="M345.959 208.723C345.959 207.898 343.447 206.231 340.377 205.019C334.138 202.555 333.339 200.363 336.734 195.029C338.864 191.682 337.857 189.708 333.442 188.569C332.14 188.233 331.073 187.192 331.073 186.256C331.073 184.861 332.472 184.518 338.826 184.357C348.907 184.101 360.304 180.425 366.73 175.357C372.568 170.752 380.414 168.613 385.833 170.148C389.175 171.094 391.064 174.988 388.183 174.988C385.866 174.988 384.24 178.885 385.657 181.037C386.601 182.469 386.601 183.637 385.657 185.069C384.888 186.238 384.821 187.086 385.498 187.086C388.014 187.086 385.115 191.268 379.88 195.189C375.888 198.181 374.579 199.832 375.113 201.203C376.237 204.079 371.659 205.589 364.233 204.787C359.056 204.23 357.611 204.448 355.412 206.122C353.966 207.222 351.248 208.596 349.371 209.174C346.598 210.026 345.959 209.943 345.959 208.723Z" fill="#D3D3D3"/>
<path id="Vector_34" d="M429.729 144.491C429.45 143.797 429.04 142.323 428.818 141.214C428.476 139.512 427.498 139.212 422.532 139.287C417.117 139.369 416.798 139.242 418.521 137.696C419.55 136.771 420.392 135.593 420.392 135.077C420.392 134.56 421.531 133.56 422.921 132.855C424.312 132.149 425.132 131.151 424.741 130.639C424.352 130.125 425.698 129.006 427.733 128.151C432.032 126.345 433.249 126.195 432.177 127.604C431.755 128.159 432.053 128.612 432.838 128.612C433.625 128.612 435.686 129.52 437.422 130.629L440.577 132.645L443.451 130.124C446.655 127.315 449.553 126.87 450.574 129.033C451.192 130.341 448.844 131.84 445.84 132.054C445.167 132.101 443.863 133.417 442.942 134.978C442.023 136.538 440.48 138.062 439.515 138.362C438.55 138.664 437.742 139.655 437.72 140.566C437.628 144.43 431.016 147.678 429.729 144.491Z" fill="#D3D3D3"/>
<path id="Vector_35" d="M451.477 255.751C450.788 254.701 447.418 253.025 443.991 252.023C440.564 251.021 437.759 249.838 437.759 249.392C437.759 248.948 436.922 248.584 435.899 248.584C434.875 248.584 434.038 249.216 434.038 249.988C434.038 250.76 433.2 251.654 432.177 251.973C431.154 252.292 430.316 253.199 430.316 253.989C430.316 254.779 429.582 255.654 428.684 255.934C426.263 256.689 415.43 255.519 415.43 254.502C415.43 254.02 414.733 253.621 413.879 253.618C413.027 253.614 410.788 252.959 408.905 252.161C406.103 250.973 405.205 250.947 403.977 252.015C402.758 253.076 402.177 253.079 400.889 252.033C400.017 251.324 399.303 250.039 399.303 249.178C399.303 248.319 397.941 247.336 396.275 246.996C394.193 246.571 392.991 245.43 392.426 243.346C391.976 241.678 390.59 239.486 389.346 238.476C384.783 234.768 384.138 232.679 386.869 230.46C388.249 229.338 388.886 228.42 388.283 228.42C387.68 228.42 386.897 227.518 386.543 226.416C386.188 225.314 384.524 223.987 382.844 223.469C381.166 222.95 379.427 221.751 378.98 220.805C377.979 218.685 383.667 212.29 386.552 212.29C387.659 212.29 389.645 211.496 390.966 210.525C392.72 209.238 395.261 208.8 400.368 208.904C404.218 208.983 407.645 208.743 407.986 208.372C408.328 208.001 409.99 207.215 411.681 206.625C413.72 205.913 414.764 204.736 414.782 203.125C414.807 200.928 415.283 200.718 419.772 200.928C426.948 201.265 435.005 200.267 436.814 198.819C438.882 197.163 448.325 194.143 451.431 194.143C452.781 194.143 453.887 193.689 453.887 193.135C453.887 192.58 455.003 192.127 456.368 192.127C458.798 192.127 458.849 192.799 458.849 224.892V257.657H455.792C454.061 257.657 452.188 256.828 451.477 255.751ZM379.935 210.456C380.424 209.814 379.664 207.156 378.245 204.55L375.665 199.813L381.281 195.178C384.37 192.631 386.897 190.007 386.897 189.351C386.897 187.302 390.62 189.204 392.553 192.24C393.957 194.447 395.566 195.286 399.33 195.775C405.936 196.634 405.684 198.786 398.682 201.304C395.612 202.408 393.1 203.9 393.1 204.62C393.1 206.316 389.132 209.22 386.137 209.714C384.849 209.927 382.728 210.443 381.422 210.862C379.768 211.394 379.316 211.271 379.935 210.456Z" fill="#D3D3D3"/>
<path id="Vector_36" d="M373.873 277.822C372.751 276.347 373.326 275.935 378.029 274.839C380.451 274.275 382.182 274.304 382.65 274.919C383.125 275.543 383.922 275.552 384.837 274.942C385.629 274.414 389.626 273.655 393.72 273.254C397.814 272.854 402.141 272.114 403.334 271.609C404.721 271.023 405.505 271.064 405.505 271.721C405.505 272.288 402.111 274.144 397.962 275.845C392.036 278.276 390.043 278.687 388.671 277.762C387.063 276.677 380.986 277.019 376.39 278.453C375.484 278.735 374.352 278.452 373.873 277.822ZM354.589 264.467C352.745 262.504 352.588 262.496 350.444 264.238C348.576 265.757 348.036 265.819 347.107 264.626C346.497 263.842 345.989 262.493 345.979 261.627C345.968 260.761 344.303 259.057 342.28 257.842C340.183 256.581 338.882 255.033 339.256 254.241C340.031 252.6 352.741 249.14 354.589 250.069C355.291 250.421 356.741 250.311 357.814 249.823C359.402 249.101 359.461 248.735 358.134 247.85C355.471 246.073 350.561 246.067 346.454 247.834C344.338 248.744 341.268 249.425 339.631 249.349C336.087 249.181 329.526 245.559 332.766 245.559C333.883 245.559 334.795 245.106 334.795 244.551C334.795 243.491 334.599 243.428 330.165 243.049C324.812 242.59 323.611 240.78 324.138 233.966C324.718 226.483 326.175 223.926 331.022 221.889C333.001 221.058 334.941 219.555 335.333 218.548C335.726 217.542 338.557 215.729 341.624 214.518C344.69 213.307 347.2 211.856 347.2 211.295C347.2 210.733 347.995 210.273 348.967 210.273C349.937 210.273 352.418 209.12 354.479 207.711C357.802 205.438 358.934 205.225 364.477 205.822C369.186 206.33 371.471 206.1 373.744 204.89C376.676 203.328 376.797 203.371 378.107 206.425C378.849 208.152 379.454 209.725 379.454 209.92C379.454 210.114 376.384 210.273 372.631 210.273C368.878 210.273 365.808 210.727 365.808 211.282C365.808 211.836 364.966 212.29 363.936 212.29C362.905 212.29 361.106 213.197 359.938 214.306C358.769 215.415 357.081 216.322 356.185 216.322C354.941 216.322 354.87 216.798 355.884 218.339C356.614 219.448 358.448 220.367 359.96 220.381C362.019 220.401 361.466 220.87 357.745 222.254C353.471 223.845 352.331 223.918 349.528 222.773C345.58 221.16 344.719 221.729 344.719 225.959C344.719 232.249 353.395 238.376 364.894 240.206C370.451 241.09 370.597 242.89 365.048 242.11C362.395 241.738 357.714 241.234 354.643 240.992C348.651 240.518 349.888 241.037 360.846 243.591C366.442 244.897 369.53 246.889 369.53 249.193C369.53 250.133 368.68 250.164 365.942 249.324C363.031 248.431 361.977 248.529 360.36 249.843C358.53 251.331 358.623 251.626 361.508 253.471C364.979 255.689 363.607 257.381 359.713 255.687C354.809 253.555 354.502 255.159 358.985 259.49C362.434 262.82 363.065 265.234 360.259 264.36C359.253 264.047 357.998 264.401 357.468 265.148C356.71 266.215 356.095 266.07 354.589 264.467ZM403.611 261.645C402.638 260.367 405.203 257.657 407.386 257.657C409.584 257.657 410.559 260.204 408.882 261.567C407.135 262.986 404.659 263.024 403.611 261.645Z" fill="#D3D3D3"/>
<path id="Vector_37" d="M22.5952 122.637C20.8424 122.36 20.1164 121.69 20.557 120.758C20.9334 119.96 20.5905 119.308 19.7949 119.308C18.9994 119.308 18.7304 118.806 19.1972 118.192C19.7685 117.441 19.1838 117.298 17.4096 117.755C15.9597 118.129 14.7732 118 14.7732 117.469C14.7732 116.937 16.3084 116.161 18.1847 115.744L21.5962 114.986L18.4948 114.223C16.6998 113.781 16.2588 113.417 17.4478 113.36C18.738 113.296 20.2377 111.505 21.4796 108.543C23.818 102.966 23.9805 100.462 22.0386 99.9371C20.995 99.6538 21.0289 98.9319 22.1666 97.2039C23.1408 95.7249 23.2644 94.623 22.5007 94.2278C21.7769 93.8528 21.7092 92.6853 22.3326 91.3314C23.4353 88.937 25.2775 88.3875 26.5584 90.0712C27.7977 91.7004 32.045 91.2306 34.7786 89.1608C37.029 87.457 37.0912 87.1414 35.3346 86.343C32.4831 85.0455 35.3359 82.388 40.5144 81.5159C45.5757 80.664 45.8402 82.3103 41.2658 86.1907C38.1044 88.8725 38.0605 89.066 40.054 91.538C42.393 94.4395 44.2873 94.8176 45.3382 92.5916C46.4472 90.2426 47.6291 90.7739 49.8988 94.6422C52.5383 99.1406 52.643 109.315 50.0946 113.679C48.3303 116.701 47.8156 116.905 42.6184 116.656C39.4625 116.505 37.343 116.792 37.741 117.315C38.1281 117.824 36.9457 118.547 35.1132 118.921C33.2808 119.294 30.7461 120.441 29.4802 121.47C28.2144 122.499 26.7599 123.279 26.2482 123.203C25.7365 123.128 24.0927 122.873 22.5952 122.637Z" fill="#D3D3D3"/>
<path id="Vector_38" d="M33.587 296.675C31.4063 294.847 29.622 292.377 29.622 291.188C29.622 288.809 25.3652 285.886 21.9027 285.886C17.558 285.886 19.947 278.929 24.7372 277.632C25.7119 277.368 25.6838 276.521 24.6386 274.657C23.4623 272.559 23.5482 271.469 25.0786 269.063C26.8305 266.31 26.7937 265.845 24.6096 263.14C22.2666 260.237 22.2678 260.196 24.7178 259.459C27.5063 258.62 27.5518 258.534 29.7676 249.844C30.6513 246.379 31.6778 243.527 32.0489 243.507C32.4198 243.486 34.261 242.447 36.1404 241.197C39.2657 239.117 39.4246 238.69 38.0012 236.19C36.126 232.899 34.7583 232.485 25.0128 232.267C18.954 232.131 17.5997 231.807 18.1575 230.625C18.7019 229.472 18.0019 229.254 14.9334 229.62C10.5843 230.138 10.5022 230.073 12.2271 227.454C13.1334 226.077 12.8195 224.97 10.9866 223.076C9.63702 221.682 8.53281 219.982 8.53281 219.3C8.53281 217.504 12.4073 215.384 15.7545 215.347C17.3384 215.328 19.5199 214.594 20.6023 213.715C21.9346 212.633 23.6091 212.334 25.786 212.791C27.5546 213.163 33.1886 213.82 38.3058 214.252C43.423 214.684 49.2846 215.608 51.3315 216.304C53.3784 217.001 58.4025 217.708 62.4963 217.874C76.8081 218.457 84.7324 219.422 86.6319 220.814C90.5036 223.651 102.838 226.659 107.902 226.001C111.985 225.469 113.126 225.744 115.298 227.773C117.642 229.964 118.664 230.144 127.05 229.848C132.1 229.668 136.562 229.955 136.964 230.483C137.366 231.012 137.085 231.445 136.338 231.445C135.373 231.445 135.358 232.018 136.286 233.427C137.377 235.085 137.03 235.691 134.158 237.141C132.27 238.095 129.609 239.618 128.245 240.528C126.88 241.438 123.328 242.804 120.352 243.565C116.584 244.529 114.043 246.035 111.98 248.53C110.351 250.5 107.065 254.317 104.676 257.011C99.1998 263.187 98.7359 268.199 103.477 269.955L106.622 271.119L102.802 273.085C98.6131 275.241 93.5368 282.273 94.8877 284.05C95.4596 284.802 94.6818 285.006 92.5183 284.67C90.057 284.287 88.4456 284.907 85.6903 287.296C83.7067 289.015 81.7448 291.209 81.3308 292.17C80.8696 293.24 79.833 293.685 78.6545 293.317C77.5966 292.987 76.0212 293.196 75.1537 293.781C74.1058 294.487 71.9248 294.534 68.6566 293.918C65.9507 293.408 61.6897 292.98 59.1877 292.967C54.0115 292.94 44.6789 295.892 42.1681 298.35C39.7274 300.74 38.0422 300.411 33.587 296.675ZM117.7 268.806C117.7 268.22 118.258 267.739 118.941 267.739C120.531 267.739 120.531 268.453 118.941 269.251C118.258 269.594 117.7 269.393 117.7 268.806ZM134.575 263.157C133.28 262.385 131.745 261.993 131.164 262.286C130.582 262.578 130.105 262.446 130.105 261.992C130.105 260.402 134.968 258.701 137.401 259.439C139.476 260.069 139.622 260.501 138.382 262.368C137.093 264.312 136.663 264.401 134.575 263.157ZM145.612 256.649C146.605 255.344 148.714 255.344 148.714 256.649C148.714 257.203 147.844 257.657 146.78 257.657C145.716 257.657 145.19 257.203 145.612 256.649Z" fill="#C5C5C5"/>
</g>
</svg>
