<svg  viewBox="0 0 401 420" fill="none" xmlns="http://www.w3.org/2000/svg">
<g id="EU" clip-path="url(#clip0)">
<g id="group">
<path id="path7029" d="M155.418 169.065C155.045 168.461 154.245 168.274 153.639 168.648C152.905 169.101 152.779 168.701 153.261 167.445C153.659 166.409 153.676 165.869 153.3 166.245C152.119 167.426 148.878 165.022 148.878 162.965C148.878 161.884 149.355 161 149.937 161C150.52 161 150.718 160.55 150.378 160C150.038 159.45 150.103 158.445 150.522 157.768C152.172 155.097 151.585 153.333 149.198 153.79C147.922 154.034 146.871 154.743 146.863 155.367C146.855 155.993 146.439 155.854 145.934 155.057C145.28 154.023 145.607 153.314 147.088 152.557C149.184 151.485 150.569 145.131 148.762 144.875C148.276 144.806 147.353 144.694 146.712 144.625C146.07 144.556 145.368 143.969 145.152 143.32C144.708 141.99 153.061 140.377 154.807 141.456C155.462 141.861 155.878 141.124 155.878 139.559C155.878 136.677 154.728 136.271 152.878 138.5C151.302 140.399 147.174 140.438 145.307 138.571C144.485 137.75 143.878 135.2 143.878 132.571C143.878 128.502 144.125 127.998 146.128 127.985C147.366 127.976 149.053 127.533 149.878 127C150.991 126.281 150.345 126.009 147.378 125.948C143.764 125.873 143.595 125.76 145.628 124.78C146.866 124.183 147.878 123.281 147.878 122.776C147.878 122.27 148.891 121.99 150.128 122.152C151.366 122.314 152.603 122.009 152.878 121.473C153.153 120.938 152.293 120.347 150.966 120.159C149.194 119.909 148.915 119.596 149.912 118.979C150.67 118.511 152.069 118.567 153.074 119.105C155.443 120.373 155.615 117.512 153.25 116.188C152.137 115.565 151.978 115.056 152.75 114.579C153.371 114.196 153.878 114.189 153.878 114.563C153.878 114.938 154.534 114.701 155.334 114.036C156.135 113.372 157.337 113.165 158.004 113.578C158.826 114.085 159.024 113.821 158.617 112.761C158.286 111.899 158.651 110.363 159.428 109.347C160.656 107.741 160.971 107.696 161.844 109C162.629 110.174 162.851 110.203 162.863 109.133C162.873 108.245 163.604 107.957 164.953 108.309C167.606 109.003 171.088 105.709 170.186 103.359C169.83 102.431 169.952 101.924 170.458 102.233C170.964 102.541 172.257 101.603 173.332 100.147C175.27 97.5211 175.27 97.5114 173.332 98.9342C172.257 99.723 170.213 101.699 168.789 103.325C166.873 105.513 166.059 105.915 165.659 104.87C164.881 102.843 167.833 96 169.485 96C170.251 96 170.946 95.325 171.028 94.5C171.111 93.675 171.223 92.4431 171.278 91.7625C171.333 91.0819 172.728 89.2952 174.378 87.7919C176.028 86.2886 176.835 85.0454 176.171 85.0293C175.4 85.0106 175.101 83.8238 175.345 81.75C175.933 76.7433 176.356 75.3337 177.795 73.6009C178.921 72.2437 178.873 72 177.482 72C176.213 72 175.976 71.3756 176.437 69.25C177.508 64.3151 179.182 61.9805 182.307 61.0615C185.107 60.2382 185.19 60.0996 183.248 59.4937C181.215 58.8596 181.188 58.6866 182.667 55.7212C183.789 53.4725 183.894 52.5054 183.048 52.2233C181.057 51.5596 181.762 49.7364 183.803 50.2702C185.15 50.6225 185.57 50.3591 185.199 49.3933C184.884 48.5718 185.586 47.6736 186.934 47.175C188.546 46.5789 188.792 46.1842 187.789 45.807C187.013 45.5154 185.478 45.6329 184.378 46.0681C183.278 46.5034 182.967 46.8911 183.687 46.9297C184.407 46.9684 184.738 47.4186 184.422 47.9301C183.708 49.084 178.384 48.6081 178.363 47.3886C178.355 46.8999 178.047 46.0286 177.679 45.4523C176.556 43.6921 178.517 41.6723 180.776 42.263C181.969 42.5751 182.878 42.3383 182.878 41.7153C182.878 41.1117 183.471 41.4287 184.196 42.4198C185.431 44.1084 185.62 44.1159 187.196 42.5395C188.121 41.6142 188.871 40.5518 188.863 40.1786C188.836 38.9693 187.405 37.1936 186.378 37.0955C185.828 37.043 185.378 36.2125 185.378 35.25C185.378 33.8656 186.08 33.5686 188.736 33.8284C190.582 34.009 191.843 33.7522 191.538 33.2577C191.232 32.7633 191.93 30.8155 193.088 28.9294L195.195 25.5L196.447 28.5L197.7 31.5L198.039 28C198.319 25.108 198.769 24.5138 200.628 24.5794C203.485 24.6803 203.573 22.3553 200.746 21.4581C199.198 20.9666 198.964 20.5652 199.892 19.9916C200.595 19.5572 200.899 18.4958 200.568 17.633C200.237 16.7701 200.396 15.7981 200.922 15.473C201.728 14.9749 202.309 16.8585 202.043 19.1107C202.004 19.4465 203.009 20.1941 204.277 20.7718C206.364 21.7227 206.589 21.57 206.655 19.1612C206.789 14.2846 208.124 9.75386 209.973 7.90518C211.745 6.13342 211.822 6.18411 212.45 9.53158C212.807 11.432 212.815 14.1148 212.469 15.4934C212.106 16.9406 212.271 18 212.859 18C213.42 18 213.885 15.8625 213.894 13.25C213.902 10.6375 214.345 7.82502 214.878 7.00002C215.714 5.70733 215.85 5.73373 215.863 7.191C215.871 8.12104 216.364 9.18193 216.957 9.54849C217.667 9.98731 217.923 9.07827 217.707 6.88717C217.457 4.35602 217.797 3.4749 219.128 3.20638C220.5 2.92969 220.878 3.53587 220.878 6.01003C220.878 8.09357 221.303 9.02332 222.128 8.74502C222.816 8.51311 223.378 7.23814 223.378 5.91171C223.378 4.0424 223.941 3.46928 225.878 3.36324C227.946 3.2501 231.226 4.30012 232.709 5.54983C233.515 6.22851 230.662 10 229.343 10C228.537 10 227.878 10.4019 227.878 10.893C227.878 12.2815 230.785 13.0616 233.458 12.3907C234.928 12.0217 235.878 12.2184 235.878 12.8916C235.878 13.5013 235.486 14 235.006 14C234.526 14 233.802 15.9125 233.396 18.25L232.658 22.5L231.328 19.4044C229.977 16.2577 226.046 13 223.602 13C222.861 13 221.227 14.3904 219.97 16.0896C217.947 18.8263 217.803 19.6544 218.712 23.3396C219.277 25.6279 219.493 28.7331 219.194 30.2403C218.742 32.5126 218.256 32.8818 216.346 32.4025C214.663 31.9801 213.742 32.3867 212.925 33.9123C211.442 36.6836 210.582 36.5572 206.493 32.9667C203.206 30.0804 202.974 30.023 201.708 31.7826C200.977 32.7996 199.54 33.9449 198.516 34.3277C196.912 34.927 196.842 35.2517 198.016 36.6651C199.849 38.8739 199.921 43.2303 198.112 42.5362C195.808 41.652 190.702 44.8707 191.32 46.8179C191.681 47.9551 191.111 48.8629 189.626 49.5159C186.512 50.8849 184.268 55.7933 185.705 58.0937C187.183 60.4604 186.056 70.1666 184.124 71.7082C182.931 72.6608 182.751 74.1623 183.277 78.8073C183.671 82.2914 183.506 85.8497 182.872 87.5163C182.247 89.1601 182.177 90.577 182.705 90.9171C183.202 91.2377 183.92 92.4975 184.3 93.7167C184.868 95.5358 184.526 96.0503 182.395 96.5852C178.63 97.5301 175.569 103.91 176.542 108.786C176.95 110.829 177.188 112.851 177.071 113.28C176.954 113.709 177.538 115.374 178.368 116.981C179.199 118.587 179.878 121.165 179.878 122.71C179.878 124.436 180.649 126 181.878 126.768C183.89 128.024 184.729 133 182.929 133C182.407 133 182.645 134.591 183.458 136.535C184.745 139.616 184.752 140.686 183.515 144.853C182.571 148.031 182.412 150.202 183.041 151.325C184.356 153.676 183.368 154.816 180.492 154.267C178.511 153.888 177.885 152.936 177.128 149.151L176.198 144.5L175.038 147.316C174.246 149.237 174.194 150.721 174.873 151.99C175.684 153.505 175.1 154.647 171.708 158.174C169.421 160.553 166.745 163.82 165.763 165.434C164.78 167.048 163.392 168.464 162.677 168.58C161.963 168.697 160.19 169.1 158.737 169.477C157.17 169.884 155.821 169.716 155.418 169.065ZM211.568 10.25C211.316 9.28752 211.11 10.075 211.11 12C211.11 13.925 211.316 14.7125 211.568 13.75C211.819 12.7875 211.819 11.2125 211.568 10.25Z" fill="#C5C5C5"/>
<path id="path7027" d="M365.576 194.832C363.366 192.418 362.2 191.886 360.057 192.314C357.029 192.92 354.256 191.122 351.591 186.826C348.993 182.639 346.831 182.573 340.34 186.481C337.126 188.416 334.215 190 333.871 190C333.528 190 332.238 188.205 331.005 186.011L328.763 182.023L332.321 180.326C334.287 179.388 335.878 177.887 335.878 176.97C335.878 174.676 332.685 172 329.947 172C326.282 172 318.05 166.83 316.762 163.718C316.124 162.178 314.736 159.817 313.677 158.471L311.752 156.024L308.05 157.913C304.686 159.628 304.086 159.665 301.501 158.31C299.681 157.357 297.448 157.046 295.306 157.448C292.198 158.031 291.818 157.804 290.015 154.288C288.947 152.205 286.918 149.422 285.506 148.105C284.095 146.787 283.194 145.299 283.504 144.797C283.814 144.295 282.905 142.127 281.484 139.98C279.33 136.725 279.068 135.63 279.914 133.405C281.362 129.597 280.199 127.032 276.282 125.395C274.41 124.613 272.878 123.722 272.878 123.415C272.878 122.321 275.651 120.106 276.259 120.714C276.831 121.286 277.274 119.505 276.997 117.75C276.879 117.003 277.654 116.796 281.29 116.602C282.341 116.546 283.373 115.993 283.582 115.373C284.11 113.812 281.091 112.82 279.056 113.885C276.947 114.99 273.357 113.69 272.524 111.52C272.177 110.614 271.439 110.153 270.885 110.496C269.318 111.464 269.65 109.718 272.878 100C276.171 90.0885 276.421 87.855 274.767 83.1095C273.962 80.8027 272.327 79.2473 268.853 77.4872C265.057 75.5638 264.159 74.6432 264.564 73.0931C264.915 71.75 263.953 70.0085 261.511 67.566C259.55 65.6047 257.469 64 256.887 64C256.305 64 255.558 62.65 255.228 61C254.898 59.35 254.179 58 253.631 58C253.016 58 253.053 57.4951 253.726 56.6832C254.565 55.6725 253.683 54.2478 249.932 50.5526C245.494 46.1814 244.981 45.1965 244.36 39.8427C243.763 34.6953 243.314 33.7595 240.827 32.4733C239.26 31.663 237.269 31 236.403 31C235.453 31 234.59 29.8092 234.228 28C233.898 26.35 233.29 25 232.877 25C231.969 25 235.064 15.6399 236.128 15.1667C236.541 14.9833 236.878 14.3887 236.878 13.8452C236.878 13.3018 237.594 12.1413 238.469 11.2664C239.737 9.99831 240.222 9.93878 240.862 10.9731C241.377 11.8062 242.597 12.0364 244.271 11.6163C246.303 11.1063 246.878 11.3312 246.878 12.6359C246.878 14.1313 247.065 14.151 248.628 12.8197C252.425 9.58674 256.689 8.70453 264.661 9.50293C273.053 10.3433 281.443 11.0386 283.985 11.1043C284.869 11.1271 287.007 12.4377 288.735 14.0165C293.623 18.4808 292.978 25.3083 287.153 30.7703C284.981 32.8068 278.96 34.2625 267.861 35.4344C267.026 35.5226 265.816 35.9205 265.171 36.3188C264.527 36.7171 262.06 36.7795 259.689 36.4574L255.378 35.8718L259.378 38.4315C261.578 39.8393 265.741 41.6808 268.628 42.5236C272.798 43.7407 273.878 44.4859 273.878 46.1459C273.878 49.4331 281.904 57.8207 285.187 57.9645C285.632 57.984 285.671 57.4735 285.273 56.8301C284.759 55.9983 285.104 55.9006 286.464 56.4919C287.517 56.9494 289.953 57.5058 291.878 57.7285C294.61 58.0444 295.655 57.6797 296.637 56.0667C298.475 53.0488 296.29 49.7127 292.878 50.3278C289.254 50.9814 286.557 49.6751 286.373 47.1764C286.253 45.5492 286.77 45 288.423 45C289.639 45 291.183 45.6624 291.855 46.4721C292.931 47.7683 293.253 47.7683 294.549 46.4721C295.359 45.6624 297.077 45 298.366 45C299.656 45 300.88 44.4957 301.085 43.8794C301.291 43.2631 303.241 42.6562 305.419 42.5309C307.596 42.4056 310.475 41.9529 311.815 41.5248C314.117 40.7897 314.151 40.6726 312.427 39.412C311.129 38.463 310.063 38.3661 308.735 39.0767C307.413 39.7844 305.547 39.6272 302.338 38.5379C299.847 37.692 297.099 37 296.232 37C294.955 37 294.786 36.2872 295.341 33.25C295.718 31.1875 296.677 28.4895 297.472 27.2544C298.33 25.9229 298.664 23.9956 298.294 22.5195C297.774 20.4489 298.136 19.8525 300.446 18.9742C301.974 18.3935 303.783 18.1333 304.468 18.3961C306.375 19.1278 307.059 16.0765 305.825 12.3397C304.673 8.84733 301.609 6.43019 299.774 7.56476C299.109 7.97577 298.835 7.33746 299.044 5.86096C299.326 3.86796 299.924 3.51646 302.878 3.60553C304.803 3.66356 307.149 4.04264 308.09 4.44794C309.276 4.95812 310.542 4.38723 312.205 2.59247L314.608 0H357.743H400.878V97.9686C400.878 183.438 400.692 195.866 399.419 195.377C398.616 195.069 395.673 195.307 392.88 195.906C388.659 196.811 387.398 196.731 385.416 195.433C383.251 194.014 382.748 194.016 379.972 195.452C378.289 196.322 374.993 197.227 372.646 197.464C368.89 197.842 368.042 197.527 365.576 194.832Z" fill="#C5C5C5"/>
<path id="path7025" d="M240.878 127.933C240.878 126.46 240.178 126 237.935 126C234.217 126 231.878 122.848 231.878 117.837C231.878 115.791 231.457 113.858 230.942 113.54C230.428 113.221 228.842 110.581 227.418 107.672L224.831 102.382L227.983 95.4411C231.56 87.5652 234.817 78.2891 234.854 75.8725C234.867 74.9773 235.557 73.682 236.386 72.9939C237.703 71.9006 237.577 71.4501 235.386 69.4193C234.007 68.1412 232.878 66.624 232.878 66.0477C232.878 65.4715 232.541 65.0533 232.128 65.1184C227.854 65.7934 226.843 64.7443 222.375 55C217.302 43.9342 215.404 41.5692 209.023 38.3675C201.563 34.6246 201.46 34.5336 202.261 32.445C202.796 31.0503 203.421 31.2691 206.419 33.9019C210.58 37.5553 211.298 37.6664 213.2 34.9506C214.263 33.4342 215.285 33.064 217.132 33.5276C219.357 34.086 219.687 33.7924 220.16 30.8271C220.452 28.9972 220.238 25.6197 219.684 23.3216C218.835 19.7972 218.967 18.7456 220.528 16.603C222.688 13.6374 224.069 13.4237 227.318 15.5526C229.367 16.8948 230.96 20.001 231.396 23.5C231.757 26.3994 234.975 32 236.28 32C237.107 32 238.893 32.505 240.247 33.1223C242.307 34.0606 242.82 35.1865 243.377 39.9917C243.979 45.1758 244.525 46.2119 248.948 50.5686C251.664 53.2435 253.398 55.6789 252.835 56.0269C252.179 56.432 252.359 57.6934 253.342 59.5777C254.18 61.185 254.869 63.0625 254.872 63.75C254.876 64.4375 255.778 65 256.878 65C257.978 65 258.878 65.5989 258.878 66.331C258.878 67.0631 260.04 68.284 261.461 69.0441C263.518 70.1453 263.936 70.963 263.515 73.0675C263.041 75.4345 263.502 75.9501 267.945 78.0314C272.119 79.9863 273.091 80.979 274.087 84.3024C275.344 88.4973 275.351 88.4585 269.742 107.157C267.476 114.711 267.395 114.822 263.662 115.419C261.581 115.751 259.878 116.405 259.878 116.872C259.878 117.339 258.303 119.39 256.378 121.431C254.453 123.472 252.878 125.452 252.878 125.831C252.878 127.206 248.567 129.162 244.769 129.51C241.467 129.812 240.878 129.574 240.878 127.933Z" fill="#C5C5C5"/>
<path id="path7033" d="M198.731 194.275C199.607 192.638 199.338 191.891 197.204 190.035C195.67 188.702 195.036 187.521 195.65 187.141C196.22 186.789 196.822 186.275 196.987 186C197.406 185.301 193.6 179 192.758 179C191.423 179 186.803 169.985 186.995 167.756C187.424 162.771 187.017 161.855 184.878 163C183.778 163.589 182.848 163.717 182.811 163.285C182.774 162.853 182.552 161.038 182.319 159.25C182.086 157.463 182.293 156 182.78 156C184.196 156 184.963 152.973 183.988 151.232C183.426 150.228 183.616 147.88 184.497 144.911C185.477 141.613 185.611 139.426 184.941 137.664C184.413 136.276 184.235 133.574 184.546 131.66C184.992 128.912 184.665 127.798 182.995 126.368C181.831 125.371 180.878 123.508 180.878 122.228C180.878 120.948 180.17 118.531 179.305 116.857C178.439 115.184 177.944 113.601 178.205 113.34C178.466 113.079 178.235 111.256 177.692 109.288C176.913 106.465 177.071 104.899 178.443 101.856C179.4 99.7351 180.703 98 181.339 98C181.975 98 183.324 97.3942 184.337 96.6538C186.025 95.4199 186.054 95.0589 184.692 92.3279C183.668 90.2757 183.48 88.6061 184.087 86.9637C184.573 85.6521 184.67 82.1813 184.304 79.2509C183.801 75.2292 184.003 73.5032 185.124 72.2114C187.07 69.9705 188.142 60.3954 186.705 58.0937C185.142 55.5922 187.674 50.6028 190.726 50.1689C192.62 49.8996 192.944 49.3995 192.464 47.487C191.849 45.0346 193.987 43.5808 198.291 43.5249C200.735 43.4931 201.249 39.1994 199.102 36.75C196.635 33.9355 199.419 34.5348 207.609 38.5813C213.691 41.5867 215.182 42.833 216.881 46.3313C217.994 48.6241 219.547 51.625 220.331 53C221.115 54.375 222.713 57.483 223.883 59.9066C225.989 64.2708 225.991 64.332 224.066 66.257C222.444 67.8786 221.758 68.0059 219.924 67.0247C217.884 65.9327 217.807 65.9984 218.849 67.945C219.466 69.098 219.664 70.5383 219.288 71.1455C217.871 73.4396 217.976 81.4507 219.446 83.0744C221.871 85.7542 219.253 91.7782 211.713 100.869C211.088 101.622 210.466 103.254 210.329 104.495C210.193 105.736 209.644 107.595 209.11 108.626C207.71 111.325 208.369 121.858 210.214 126.266C211.08 128.337 212.597 130.373 213.584 130.79C217.142 132.294 222.878 136.218 222.878 137.148C222.878 137.671 222.227 139.358 221.432 140.896C220.636 142.435 220.234 144.644 220.538 145.806C220.936 147.327 220.208 148.725 217.943 150.794C214.873 153.598 214.822 153.787 215.866 158.446C216.522 161.373 216.581 163.665 216.017 164.362C215.457 165.056 215.48 167.646 216.078 171C217.348 178.127 215.361 183.515 211.121 184.447C207.815 185.173 205.281 188.575 206.738 190.331C208.293 192.205 205.724 194.751 201.473 195.548C197.897 196.219 197.732 196.143 198.731 194.275ZM226.101 167.591C225.384 166.015 225.314 164.849 225.916 164.477C226.445 164.15 226.931 162.896 226.994 161.691C227.102 159.661 227.146 159.647 227.602 161.5C227.872 162.6 228.458 163.951 228.903 164.503C229.349 165.055 229.159 166.542 228.481 167.808L227.249 170.11L226.101 167.591Z" fill="#C5C5C5"/>
<path id="path7039" d="M176.036 207.935C174.748 207.418 173.285 207.249 172.786 207.557C172.287 207.866 171.878 206.768 171.878 205.119C171.878 203.469 170.753 199 169.378 195.189C166.475 187.139 166.24 183.59 168.49 181.789C169.377 181.08 171.906 178.776 174.109 176.669C178.884 172.104 180.227 172.808 179.025 179.246C178.09 184.25 178.899 186 182.145 186C183.799 186 183.605 186.767 180.445 192.717C176.66 199.845 175.913 204.416 178.378 205.362C179.203 205.678 179.878 206.626 179.878 207.469C179.878 209.2 179.353 209.264 176.036 207.935Z" fill="#C5C5C5"/>
<path id="portugal" d="M38.1283 406.659C33.431 405.506 33.2406 405.134 35.3053 401.141C36.1752 399.459 36.3977 397.84 35.8751 396.995C35.3844 396.201 35.4353 394.828 35.9943 393.783C37.1423 391.638 36.2223 389.654 34.4034 390.352C32.4998 391.082 30.4592 386.667 31.6411 384.375C32.1729 383.344 32.4064 381.938 32.1598 381.25C31.9133 380.563 32.1564 380 32.6999 380C34.0889 380 38.4761 372.193 39.4432 368C39.8872 366.075 40.2792 361.575 40.3144 358C40.3729 352.048 40.5674 351.473 42.6233 351.181C44.224 350.954 44.7123 351.269 44.3245 352.28C43.8885 353.416 45.2252 353.723 51.0622 353.831C57.362 353.948 58.5791 354.271 60.0889 356.233C62.374 359.202 62.3902 359.142 58.581 361.735C55.8236 363.612 55.0893 364.975 53.999 370.235C52.187 378.978 52.1765 379 49.9097 379C47.411 379 47.384 379.678 49.7304 383.5C51.4009 386.221 51.4355 386.79 50.1023 389.619C49.0335 391.888 48.9147 393.243 49.6669 394.587C50.4897 396.057 50.208 396.892 48.2897 398.67C46.9634 399.899 45.8783 401.961 45.8783 403.252C45.8783 405.465 44.137 408.179 42.9283 407.851C42.6258 407.769 40.4658 407.232 38.1283 406.659Z" fill="#C5C5C5"/>
<path id="spain" d="M58.0745 416.702C56.3166 414.889 54.8783 412.439 54.8783 411.259C54.8783 408.9 51.4469 406 48.6558 406C45.1535 406 47.0793 399.1 50.9407 397.813C51.7264 397.551 51.7037 396.711 50.8612 394.862C49.913 392.781 49.9822 391.7 51.2159 389.314C52.6281 386.583 52.5984 386.122 50.8378 383.438C48.9491 380.559 48.9501 380.518 50.925 379.787C53.1728 378.955 53.2095 378.87 54.9957 370.25C55.708 366.813 56.5355 363.984 56.8346 363.964C57.1336 363.944 58.6178 362.913 60.1328 361.673C62.6521 359.61 62.7802 359.186 61.6328 356.707C60.1212 353.442 59.0187 353.032 51.1628 352.815C46.2788 352.681 45.1871 352.359 45.6368 351.187C46.0756 350.043 45.5113 349.827 43.0378 350.19C39.532 350.704 39.4658 350.639 40.8563 348.041C41.5868 346.676 41.3338 345.578 39.8563 343.699C38.7684 342.316 37.8783 340.63 37.8783 339.953C37.8783 338.172 41.0015 336.069 43.6997 336.032C44.9765 336.014 46.735 335.286 47.6075 334.414C48.6815 333.34 50.0313 333.044 51.7861 333.497C53.2118 333.866 57.7533 334.518 61.8783 334.946C66.0033 335.375 70.7283 336.291 72.3783 336.982C74.0283 337.673 78.0783 338.374 81.3783 338.539C92.915 339.117 99.3028 340.074 100.834 341.455C103.955 344.269 113.898 347.253 117.98 346.6C121.271 346.073 122.191 346.345 123.942 348.358C125.831 350.531 126.655 350.71 133.415 350.416C137.486 350.238 141.083 350.522 141.407 351.046C141.731 351.571 141.504 352 140.902 352C140.124 352 140.112 352.568 140.86 353.966C141.74 355.611 141.46 356.212 139.145 357.65C137.623 358.596 135.478 360.107 134.378 361.01C133.278 361.912 130.415 363.267 128.016 364.022C124.978 364.978 122.93 366.472 121.267 368.947C119.954 370.901 117.305 374.687 115.379 377.359C110.965 383.485 110.591 388.457 114.413 390.198L116.948 391.353L113.869 393.303C110.492 395.441 106.4 402.417 107.489 404.179C107.95 404.925 107.323 405.127 105.579 404.794C103.595 404.414 102.296 405.029 100.075 407.399C98.476 409.104 96.8945 411.28 96.5608 412.233C96.189 413.295 95.3534 413.736 94.4034 413.371C93.5506 413.044 92.2807 413.251 91.5814 413.831C90.7367 414.532 88.9786 414.578 86.3441 413.967C84.1629 413.461 80.7281 413.037 78.7112 413.024C74.5387 412.997 67.0157 415.925 64.9917 418.363C63.0243 420.734 61.6658 420.408 58.0745 416.702ZM125.878 389.059C125.878 388.477 126.328 388 126.878 388C128.16 388 128.16 388.708 126.878 389.5C126.328 389.84 125.878 389.641 125.878 389.059ZM139.481 383.455C138.437 382.69 137.2 382.301 136.731 382.591C136.262 382.881 135.878 382.75 135.878 382.3C135.878 380.723 139.798 379.035 141.759 379.767C143.432 380.392 143.549 380.821 142.55 382.673C141.511 384.601 141.164 384.689 139.481 383.455ZM148.378 377C149.178 375.706 150.878 375.706 150.878 377C150.878 377.55 150.177 378 149.319 378C148.462 378 148.038 377.55 148.378 377Z" fill="#C5C5C5"/>
<path id="france" d="M190.073 354.144C186.176 350.05 186.056 347.731 189.563 344.224L192.248 341.54L193.58 344.805C194.516 347.099 194.668 349.474 194.09 352.785L193.267 357.5L190.073 354.144ZM127.998 347.675C126.395 346.072 124.748 345.696 119.689 345.773C113.393 345.87 104.242 343.353 101.466 340.76C100.373 339.738 100.385 339.35 101.538 338.507C103.415 337.134 105.852 327.633 105.866 321.628C105.877 317.411 106.08 316.923 107.378 318C108.598 319.012 108.878 318.965 108.878 317.745C108.878 316.92 108.203 315.685 107.378 315C106.553 314.315 105.878 312.247 105.878 310.403C105.878 307.708 105.304 306.754 102.949 305.537C100.017 304.02 98.2381 300.845 99.3305 299.077C99.6502 298.56 98.9554 297.467 97.7866 296.648C96.6178 295.83 95.9109 294.756 96.2157 294.263C96.9539 293.069 85.1306 287.689 83.3059 288.389C82.5207 288.691 81.8783 288.763 81.8783 288.55C81.8783 288.338 81.5768 287.378 81.2084 286.418C80.7516 285.227 80.9107 284.902 81.7084 285.395C83.4285 286.458 83.1369 283.943 81.3053 281.919C79.8629 280.325 79.9036 280.127 81.7963 279.526C82.9316 279.166 84.2767 279.128 84.7855 279.443C85.2942 279.757 86.9411 279.546 88.4452 278.975C90.7069 278.115 91.5459 278.279 93.2946 279.921C94.6879 281.23 95.8834 281.615 96.7995 281.049C97.5642 280.576 99.6847 280.375 101.512 280.602C104.748 281.003 104.807 280.944 103.815 278.334C103.255 276.861 103.026 275.058 103.306 274.328C103.586 273.597 103.38 273 102.847 273C101.349 273 101.703 270.281 103.28 269.676C104.114 269.356 104.886 269.922 105.187 271.073C105.492 272.238 106.258 272.791 107.113 272.463C107.894 272.164 109.791 272.396 111.328 272.981C114.268 274.099 117.446 272.727 116.281 270.843C115.418 269.446 117.612 267.284 120.669 266.517C124.612 265.528 126.878 262.61 126.878 258.52C126.878 255.767 127.404 254.718 129.192 253.903C131.169 253.002 131.994 253.306 134.867 255.989C136.716 257.717 139.5 259.787 141.054 260.591C142.607 261.394 143.878 262.49 143.878 263.026C143.878 263.562 144.765 264 145.848 264C146.931 264 149.42 264.9 151.378 266C153.337 267.1 156.26 268 157.874 268C159.784 268 161.181 268.698 161.878 270C162.542 271.24 163.98 272.004 165.663 272.011C167.157 272.017 170.004 272.291 171.991 272.62L175.604 273.217L173.741 278.119C172.716 280.815 171.878 284.376 171.878 286.032C171.878 288.188 171.237 289.335 169.617 290.073C167.506 291.035 163.878 296.069 163.878 298.037C163.878 298.518 162.748 300.576 161.367 302.611C159.986 304.646 159.067 306.522 159.325 306.78C159.582 307.037 161.388 306.307 163.338 305.156C165.288 304.006 167.557 303.323 168.381 303.639C170.021 304.269 170.421 307.547 168.967 308.445C168.434 308.774 168.532 310.273 169.203 312.049C170.115 314.465 170.075 315.26 169.011 315.918C167.985 316.552 167.93 317.227 168.775 318.807C169.382 319.941 169.878 321.994 169.878 323.37C169.878 325.307 170.646 326.148 173.284 327.102C177.205 328.52 177.086 329.59 172.372 335.253C167.938 340.58 165.331 341.243 157.905 338.931C154.492 337.869 150.593 337 149.24 337C143.474 337 138.345 342.246 139.562 346.899C139.917 348.255 139.627 349.037 138.745 349.104C130.941 349.7 129.882 349.559 127.998 347.675Z" fill="#C5C5C5"/>
<path id="path7037" d="M74.7226 261.883C73.6764 261.22 73.7553 261.027 75.0786 261.015C76.0138 261.007 77.1388 260.391 77.5786 259.646C78.0184 258.901 79.3908 257.76 80.6283 257.111C81.8658 256.461 82.8783 255.286 82.8783 254.5C82.8783 252.53 86.0737 251 90.1901 251C93.508 251 96.5411 248.996 95.2212 247.676C94.8693 247.324 93.542 247.297 92.2717 247.616C90.7665 247.994 88.8902 247.433 86.8846 246.005C85.1921 244.799 83.2031 244.045 82.4646 244.329C81.1086 244.849 78.8783 243.276 78.8783 241.8C78.8783 241.36 79.5879 241 80.4552 241C81.3225 241 83.3172 239.715 84.8879 238.144C88.238 234.794 88.2715 231.371 84.9504 231.749C83.4155 231.923 82.9959 231.624 83.5452 230.749C83.9759 230.062 84.1881 228.649 84.0167 227.61C83.771 226.119 84.0935 225.884 85.5417 226.495C88.1899 227.613 92.1065 227.2 93.6689 225.638C94.4101 224.897 95.2254 222.472 95.4807 220.251C95.8734 216.832 95.6706 216.233 94.1615 216.356C92.7333 216.471 92.3653 215.704 92.3133 212.5L92.2483 208.5L86.5633 208.622C80.4412 208.753 79.7738 208.105 82.8575 205.021C84.3239 203.554 84.6801 202.259 84.2325 200.021C83.8549 198.133 84.0384 197 84.7219 197C85.3234 197 85.5935 196.421 85.3221 195.714C84.7944 194.339 80.8783 193.899 80.8783 195.214C80.8783 195.646 80.4545 196 79.9366 196C79.4186 196 78.9746 194.538 78.95 192.75C78.9254 190.963 78.8832 188.6 78.8561 187.5C78.7022 181.244 79.8787 174.473 81.3004 173.433C82.1683 172.799 82.8926 171.654 82.9101 170.89C82.9777 167.934 85.4642 166.294 90.6283 165.798C95.1758 165.361 95.8783 165.531 95.8783 167.065C95.8783 168.04 94.2635 169.835 92.2898 171.055C89.5452 172.751 89.016 173.494 90.0398 174.212C91.0853 174.947 91.1046 175.263 90.1283 175.659C89.4408 175.938 88.8783 176.836 88.8783 177.655C88.8783 178.92 89.1205 178.901 90.4937 177.527C91.7279 176.293 93.2027 176.058 96.7437 176.531C104.334 177.544 104.231 177.359 100.889 183.978C99.2173 187.29 97.3509 190 96.7414 190C95.9479 190 95.9579 190.391 96.7769 191.378C97.6779 192.464 97.4704 192.873 95.7987 193.311C94.5418 193.639 93.9631 194.328 94.3788 195.001C94.7648 195.625 95.7103 195.895 96.4801 195.599C97.2498 195.304 99.4757 196.464 101.426 198.176C104.425 200.809 104.876 201.735 104.342 204.166C103.831 206.493 104.258 207.561 106.583 209.77C109.647 212.682 114.37 219 113.482 219C113.189 219 113.86 221.125 114.973 223.722C116.495 227.273 116.751 228.984 116.005 230.622C114.67 233.55 115.608 234.223 118.44 232.368C121.764 230.19 126.498 232.457 126.119 236.046C125.694 240.075 123.781 243.896 121.887 244.497C119.882 245.134 119.728 248.085 121.636 249.304C122.328 249.746 123.399 249.796 124.016 249.415C126.309 247.998 124.179 251.433 121.545 253.4C119.502 254.925 117.167 255.451 112.034 255.543C108.292 255.61 104.775 255.946 104.218 256.29C102.72 257.216 96.6367 257.369 94.65 256.532C93.4456 256.024 92.0454 256.679 90.0305 258.694C87.558 261.166 86.8669 261.408 85.2588 260.361C83.7263 259.363 82.7018 259.47 79.7226 260.936C77.4678 262.045 75.5517 262.408 74.7226 261.883ZM71.0602 214.5C69.7796 211.689 68.1031 211.251 67.2399 213.5C66.4356 215.596 65.1461 215.369 63.8238 212.898C62.8742 211.124 63.1225 210.355 65.4186 207.958C67.0549 206.25 67.8997 204.498 67.5395 203.56C66.8836 201.85 68.3852 201.393 69.3783 203C69.7182 203.55 70.9823 204.003 72.1873 204.008C73.7073 204.013 75.109 205.294 76.7644 208.192L79.1504 212.369L76.4586 214.685C73.0659 217.603 72.4646 217.582 71.0602 214.5ZM82.8783 216.559C82.8783 216.317 83.3283 215.84 83.8783 215.5C84.4283 215.16 84.8783 215.359 84.8783 215.941C84.8783 216.523 84.4283 217 83.8783 217C83.3283 217 82.8783 216.802 82.8783 216.559ZM74.4853 179.418C73.6725 177.3 73.6749 177.292 75.2752 176.678C76.1779 176.332 76.8365 177.001 77.1366 178.571C77.6602 181.31 75.4789 182.008 74.4853 179.418ZM72.4786 172.162C71.5867 170.719 72.4037 169.324 74.9339 167.97C77.3962 166.652 77.4443 168.08 75.0376 171.052C73.7772 172.608 72.9705 172.958 72.4786 172.162ZM94.8783 162.335C94.8783 160.362 97.3364 158 99.3902 158C101.222 158 100.903 160.426 99.045 160.625C96.5964 160.887 96.4174 161.055 97.7128 161.877C98.7274 162.52 98.5477 162.853 96.9628 163.268C95.5446 163.639 94.8783 163.34 94.8783 162.335ZM106.922 149.833C106.898 148.917 106.402 148.008 105.821 147.814C104.26 147.294 105.596 144.769 108.597 142.571C111.198 140.665 111.22 140.665 110.419 142.571C109.973 143.632 109.014 146.075 108.287 148C107.561 149.925 106.946 150.75 106.922 149.833Z" fill="#C5C5C5"/>
<path id="path7023" d="M74.7226 261.883C73.6764 261.22 73.7553 261.027 75.0786 261.015C76.0138 261.007 77.1388 260.391 77.5786 259.646C78.0184 258.901 79.3908 257.76 80.6283 257.111C81.8658 256.461 82.8783 255.286 82.8783 254.5C82.8783 252.53 86.0737 251 90.1901 251C93.508 251 96.5411 248.996 95.2212 247.676C94.8693 247.324 93.542 247.297 92.2717 247.616C90.7665 247.994 88.8902 247.433 86.8846 246.005C85.1921 244.799 83.2031 244.045 82.4646 244.329C81.1086 244.849 78.8783 243.276 78.8783 241.8C78.8783 241.36 79.5879 241 80.4552 241C81.3225 241 83.3172 239.715 84.8879 238.144C88.238 234.794 88.2715 231.371 84.9504 231.749C83.4155 231.923 82.9959 231.624 83.5452 230.749C83.9759 230.062 84.1881 228.649 84.0167 227.61C83.771 226.119 84.0935 225.884 85.5417 226.495C88.1899 227.613 92.1065 227.2 93.6689 225.638C94.4101 224.897 95.2254 222.472 95.4807 220.251C95.8734 216.832 95.6706 216.233 94.1615 216.356C92.7333 216.471 92.3653 215.704 92.3133 212.5L92.2483 208.5L86.5633 208.622C80.4412 208.753 79.7738 208.105 82.8575 205.021C84.3239 203.554 84.6801 202.259 84.2325 200.021C83.8549 198.133 84.0384 197 84.7219 197C85.3234 197 85.5935 196.421 85.3221 195.714C84.7944 194.339 80.8783 193.899 80.8783 195.214C80.8783 195.646 80.4545 196 79.9366 196C79.4186 196 78.9746 194.538 78.95 192.75C78.9254 190.963 78.8832 188.6 78.8561 187.5C78.7022 181.244 79.8787 174.473 81.3004 173.433C82.1683 172.799 82.8926 171.654 82.9101 170.89C82.9777 167.934 85.4642 166.294 90.6283 165.798C95.1758 165.361 95.8783 165.531 95.8783 167.065C95.8783 168.04 94.2635 169.835 92.2898 171.055C89.5452 172.751 89.016 173.494 90.0398 174.212C91.0853 174.947 91.1046 175.263 90.1283 175.659C89.4408 175.938 88.8783 176.836 88.8783 177.655C88.8783 178.92 89.1205 178.901 90.4937 177.527C91.7279 176.293 93.2027 176.058 96.7437 176.531C104.334 177.544 104.231 177.359 100.889 183.978C99.2173 187.29 97.3509 190 96.7414 190C95.9479 190 95.9579 190.391 96.7769 191.378C97.6779 192.464 97.4704 192.873 95.7987 193.311C94.5418 193.639 93.9631 194.328 94.3788 195.001C94.7648 195.625 95.7103 195.895 96.4801 195.599C97.2498 195.304 99.4757 196.464 101.426 198.176C104.425 200.809 104.876 201.735 104.342 204.166C103.831 206.493 104.258 207.561 106.583 209.77C109.647 212.682 114.37 219 113.482 219C113.189 219 113.86 221.125 114.973 223.722C116.495 227.273 116.751 228.984 116.005 230.622C114.67 233.55 115.608 234.223 118.44 232.368C121.764 230.19 126.498 232.457 126.119 236.046C125.694 240.075 123.781 243.896 121.887 244.497C119.882 245.134 119.728 248.085 121.636 249.304C122.328 249.746 123.399 249.796 124.016 249.415C126.309 247.998 124.179 251.433 121.545 253.4C119.502 254.925 117.167 255.451 112.034 255.543C108.292 255.61 104.775 255.946 104.218 256.29C102.72 257.216 96.6367 257.369 94.65 256.532C93.4456 256.024 92.0454 256.679 90.0305 258.694C87.558 261.166 86.8669 261.408 85.2588 260.361C83.7263 259.363 82.7018 259.47 79.7226 260.936C77.4678 262.045 75.5517 262.408 74.7226 261.883ZM71.0602 214.5C69.7796 211.689 68.1031 211.251 67.2399 213.5C66.4356 215.596 65.1461 215.369 63.8238 212.898C62.8742 211.124 63.1225 210.355 65.4186 207.958C67.0549 206.25 67.8997 204.498 67.5395 203.56C66.8836 201.85 68.3852 201.393 69.3783 203C69.7182 203.55 70.9823 204.003 72.1873 204.008C73.7073 204.013 75.109 205.294 76.7644 208.192L79.1504 212.369L76.4586 214.685C73.0659 217.603 72.4646 217.582 71.0602 214.5ZM82.8783 216.559C82.8783 216.317 83.3283 215.84 83.8783 215.5C84.4283 215.16 84.8783 215.359 84.8783 215.941C84.8783 216.523 84.4283 217 83.8783 217C83.3283 217 82.8783 216.802 82.8783 216.559ZM74.4853 179.418C73.6725 177.3 73.6749 177.292 75.2752 176.678C76.1779 176.332 76.8365 177.001 77.1366 178.571C77.6602 181.31 75.4789 182.008 74.4853 179.418ZM72.4786 172.162C71.5867 170.719 72.4037 169.324 74.9339 167.97C77.3962 166.652 77.4443 168.08 75.0376 171.052C73.7772 172.608 72.9705 172.958 72.4786 172.162ZM94.8783 162.335C94.8783 160.362 97.3364 158 99.3902 158C101.222 158 100.903 160.426 99.045 160.625C96.5964 160.887 96.4174 161.055 97.7128 161.877C98.7274 162.52 98.5477 162.853 96.9628 163.268C95.5446 163.639 94.8783 163.34 94.8783 162.335ZM106.922 149.833C106.898 148.917 106.402 148.008 105.821 147.814C104.26 147.294 105.596 144.769 108.597 142.571C111.198 140.665 111.22 140.665 110.419 142.571C109.973 143.632 109.014 146.075 108.287 148C107.561 149.925 106.946 150.75 106.922 149.833Z" fill="#C5C5C5"/>
<path id="path7021" d="M176.036 207.935C174.748 207.418 173.285 207.249 172.786 207.557C172.287 207.866 171.878 206.768 171.878 205.119C171.878 203.469 170.753 199 169.378 195.189C166.475 187.139 166.24 183.59 168.49 181.789C169.377 181.08 171.906 178.776 174.109 176.669C178.884 172.104 180.227 172.808 179.025 179.246C178.09 184.25 178.899 186 182.145 186C183.799 186 183.605 186.767 180.445 192.717C176.66 199.845 175.913 204.416 178.378 205.362C179.203 205.678 179.878 206.626 179.878 207.469C179.878 209.2 179.353 209.264 176.036 207.935ZM188.754 205.75C188.686 205.613 188.52 203.797 188.385 201.715C188.146 198.022 189.716 196 192.824 196C194.211 196 193.013 204.207 191.477 205.235C190.385 205.965 188.992 206.228 188.754 205.75ZM181.214 202.218C180.348 201.675 180.41 200.993 181.453 199.567C183.179 197.207 184.532 198.239 183.285 200.965C182.752 202.132 181.898 202.648 181.214 202.218ZM75.898 125.012C74.6566 124.245 74.7024 124.005 76.1995 123.43C78.286 122.63 79.6484 123.63 78.3033 124.975C77.7353 125.543 76.7808 125.558 75.898 125.012Z" fill="#C5C5C5"/>
<path id="italy" d="M247.462 400.827C246.408 400.215 244.158 399.353 242.462 398.911C231.484 396.052 225.156 392.389 227.37 390.175C228.051 389.493 231.705 388.963 235.378 389.013C242.084 389.105 243.319 388.911 244.846 387.529C245.775 386.688 247.198 386 248.007 386C248.816 386 250.018 385.46 250.678 384.8C252.298 383.18 252.319 386.939 250.709 390.471C249.7 392.686 249.837 393.313 251.709 395.057C254.292 397.464 254.39 398.345 252.307 400.429C250.465 402.271 250.013 402.308 247.462 400.827ZM255.552 382.313C255.865 380.216 256.854 377.91 257.75 377.188C259.224 376.001 259.23 375.764 257.812 374.688C256.95 374.035 254.959 371.2 253.387 368.389C251.269 364.601 250.067 363.399 248.744 363.745C247.614 364.041 245.879 363.029 244.014 360.988C242.395 359.215 240.654 358.021 240.145 358.335C239.637 358.649 237.628 357.593 235.681 355.989C233.734 354.384 231.868 353.344 231.534 353.678C231.2 354.012 230.23 353.707 229.378 353C228.527 352.293 227.584 351.961 227.282 352.263C226.981 352.564 223.955 351.205 220.556 349.242C217.158 347.28 212.803 344.841 210.878 343.822C206.57 341.541 201.046 335.647 199.299 331.466C198.1 328.594 194.878 324.901 194.878 326.398C194.878 326.751 193.029 326.097 190.769 324.944L186.66 322.848L182.398 327.424C177.75 332.416 176.359 333.096 177.174 329.977C177.588 328.395 176.96 327.643 174.291 326.528C171.819 325.495 170.874 324.467 170.863 322.801C170.855 321.535 170.446 319.865 169.955 319.089C169.408 318.225 169.489 316.995 170.164 315.914C170.976 314.614 170.951 313.456 170.071 311.524C168.935 309.031 169.063 308.822 172.627 307.354C174.69 306.504 177.369 304.894 178.579 303.776L180.78 301.744L184.329 303.838L187.878 305.933V303.583C187.878 301.618 188.358 301.258 190.809 301.381C192.421 301.463 194.071 301.86 194.476 302.264C195.894 303.683 197.107 302.981 196.598 301.037C196.316 299.957 196.745 298.526 197.551 297.857C198.358 297.187 198.798 295.802 198.531 294.779C198.151 293.325 198.456 293.048 199.923 293.514C200.957 293.842 202.823 293.565 204.069 292.898C207.586 291.016 212.633 290.917 213.324 292.718C213.762 293.861 214.878 294.129 217.646 293.758C221.371 293.259 221.378 293.265 221.299 296.879C221.256 298.871 221.143 301.051 221.049 301.724C220.88 302.937 215.305 306.377 213.378 306.458C211.623 306.532 211.587 311.951 213.337 312.622C214.525 313.078 214.653 313.567 213.841 314.545C211.548 317.308 217.413 324.352 224.136 326.908C225.521 327.434 227.717 329.787 229.016 332.136C231.524 336.67 238.461 342.606 242.41 343.597C243.724 343.927 246.145 343.515 247.831 342.673C251.008 341.089 251.597 341.789 249.843 345.066C248.982 346.675 249.14 347 250.783 347C251.87 347 255.878 348.125 259.69 349.5C263.501 350.875 267.33 352 268.198 352C270.565 352 274.878 356.432 274.878 358.865C274.878 361.457 273.611 361.592 271.279 359.25C270.32 358.287 267.834 356.991 265.754 356.369C262.525 355.404 261.746 355.489 260.425 356.948C259.574 357.888 258.878 360.321 258.878 362.353C258.878 365.351 259.339 366.225 261.317 366.977C262.659 367.487 264.291 368.903 264.944 370.123C265.938 371.98 265.835 372.558 264.314 373.671C263.314 374.402 262.083 375 261.579 375C261.074 375 260.961 376.195 261.328 377.655C261.694 379.115 261.631 380.578 261.186 380.905C260.742 381.232 259.88 382.4 259.271 383.5C258.662 384.6 257.448 385.641 256.574 385.813C255.268 386.07 255.085 385.445 255.552 382.313ZM190.469 383.25C190.169 382.287 189.664 379.291 189.345 376.592C189.027 373.893 188.117 370.428 187.322 368.892C185.526 365.418 185.524 365 187.306 365C188.091 365 189.618 363.875 190.7 362.5C195.286 356.669 198.878 361.658 198.878 373.857C198.878 381.202 198.731 381.774 196.964 381.312C195.704 380.983 194.666 381.527 193.929 382.906C192.563 385.458 191.198 385.594 190.469 383.25Z" fill="#C5C5C5"/>
<path id="path7019" d="M151.843 265.926C150.605 265.313 149.593 264.468 149.593 264.049C149.593 263.629 148.707 263.286 147.624 263.286C145.192 263.286 133.967 255.705 133.117 253.488C132.45 251.75 136.648 247.763 137.576 249.252C138.571 250.846 142.117 250.698 144.74 248.952C148.547 246.418 152.76 247.243 154.493 250.861C155.264 252.469 156.501 254.146 157.243 254.585C158.977 255.613 158.939 257.098 157.086 260.65C156.265 262.225 155.593 264.363 155.593 265.4C155.593 267.489 155.13 267.554 151.843 265.926Z" fill="#C5C5C5"/>
<path id="path7017" d="M155.963 251.369C155.674 246.876 148.943 245.049 144.745 248.325C143.112 249.6 141.73 249.937 140.36 249.396C139.26 248.961 138.939 248.573 139.646 248.535C140.352 248.496 142.02 247.751 143.351 246.879C145.26 245.628 145.552 244.942 144.733 243.629C142.423 239.924 150.168 226.991 155.248 226.07C156.667 225.813 158.244 225.345 158.754 225.03C160.336 224.053 162.86 225.586 162.86 227.524C162.86 228.539 162.303 230.593 161.622 232.088C160.638 234.248 160.638 234.89 161.622 235.218C163.736 235.923 162.994 237.99 159.769 240.374C157.699 241.904 156.836 243.264 157.157 244.491C157.421 245.499 157.283 247.818 156.851 249.644C156.419 251.47 156.019 252.246 155.963 251.369Z" fill="#C5C5C5"/>
<path id="path7015" d="M187.551 288.609C185.515 286.96 184.793 286.904 180.383 288.048C177.685 288.747 174.821 289.067 174.018 288.759C172.006 287.987 172.189 284.402 174.556 278.173C175.656 275.28 176.556 272.827 176.556 272.723C176.557 272.619 173.454 272.228 169.662 271.854C163.882 271.285 162.57 270.805 161.544 268.889C160.871 267.632 160.628 266.107 161.002 265.501C161.377 264.894 160.933 264.11 160.016 263.758C158.702 263.254 158.477 262.313 158.955 259.326C159.302 257.156 159.127 255.265 158.546 254.906C157.988 254.561 157.606 251.721 157.696 248.596C157.841 243.588 158.229 242.592 160.959 240.216C163.634 237.888 163.893 237.253 162.858 235.561C161.934 234.052 161.928 232.888 162.835 230.486C163.748 228.069 163.736 226.929 162.784 225.405C160.829 222.273 161.319 221.412 165.057 221.412C167.605 221.412 168.557 221.85 168.557 223.019C168.557 224.005 169.112 224.413 169.992 224.076C170.782 223.773 171.655 224.062 171.932 224.719C172.21 225.375 172.351 224.338 172.247 222.413C172.087 219.47 172.417 218.862 174.322 218.592C175.768 218.386 176.32 217.844 175.85 217.091C175.445 216.443 174.971 215.237 174.798 214.412C174.176 211.446 173.988 210.893 173.153 209.555C172.489 208.49 172.817 208.364 174.682 208.967C175.988 209.39 178.182 209.882 179.557 210.061C185.327 210.81 186.549 211.071 187.166 211.688C187.524 212.046 189.67 212.103 191.937 211.816C194.203 211.529 198.307 211.804 201.057 212.428C203.807 213.052 207.122 213.678 208.423 213.819C211.709 214.175 213.085 216.958 211.594 220.231C210.633 222.34 210.681 223.03 211.848 223.884C212.64 224.462 214.661 227.658 216.341 230.984C218.02 234.31 220.105 237.623 220.975 238.345C223.134 240.137 223.108 243.838 220.942 243.007C219.914 242.612 217.98 243.604 215.619 245.737C213.58 247.58 209.6 250.173 206.775 251.5C201.139 254.147 200.548 254.957 203.557 255.912C204.657 256.262 205.557 257.175 205.557 257.943C205.557 260.225 213.488 267.149 216.88 267.827L220.024 268.456L215.566 272.295C210.819 276.384 210.845 276.174 214.287 282.449C214.449 282.744 213.143 283.095 211.385 283.229C209.628 283.363 207.706 283.874 207.115 284.364C206.523 284.855 202.924 285.979 199.117 286.862C195.31 287.745 191.66 288.912 191.006 289.455C190.191 290.131 189.101 289.864 187.551 288.609Z" fill="#C5C5C5"/>
<path id="path7013" d="M156.552 264.822C156.552 262.608 156.774 262.452 158.452 263.5C160.521 264.792 160.185 267.33 157.945 267.33C157.124 267.33 156.552 266.299 156.552 264.822Z" fill="#C5C5C5"/>
<path id="path7011" d="M170.608 305.687C170.608 303.015 166.907 301.934 164.087 303.782C160.753 305.966 160.076 305.122 162.594 301.921C163.701 300.513 164.608 298.659 164.608 297.802C164.608 295.207 171.567 288.932 173.798 289.516C174.871 289.796 177.907 289.467 180.544 288.783C184.77 287.686 185.59 287.744 187.473 289.268C188.647 290.219 189.608 291.43 189.608 291.959C189.608 292.488 191.408 293.208 193.608 293.56C197.779 294.227 198.759 295.976 196.167 298.127C195.364 298.793 195.004 300.065 195.354 300.999C195.883 302.411 195.735 302.476 194.422 301.409C193.563 300.712 192.129 300.422 191.234 300.766C190.276 301.134 189.608 300.885 189.608 300.161C189.608 299.195 189.286 299.198 188.108 300.176C187.283 300.861 186.608 302.031 186.608 302.777C186.608 303.861 186.105 303.904 184.108 302.994C182.733 302.368 181.608 301.393 181.608 300.828C181.608 300.264 180.37 300.982 178.858 302.425C175.242 305.875 170.608 307.707 170.608 305.687Z" fill="#C5C5C5"/>
<path id="path7009" d="M193.226 291.205C191.647 289.626 191.849 289.442 196.46 288.255C199.165 287.559 203.628 286.288 206.378 285.431C209.128 284.573 212.278 283.745 213.378 283.591C215.719 283.261 215.792 282.514 213.866 278.622C212.48 275.824 212.551 275.652 216.404 272.417C218.923 270.302 220.716 269.438 221.323 270.045C221.848 270.57 223.53 271 225.059 271C227.192 271 227.987 270.417 228.468 268.5C229.118 265.91 229.377 265.834 238.378 265.603C241.92 265.512 242.418 265.787 242.724 268C242.914 269.375 243.485 271.005 243.991 271.623C245.128 273.009 244.066 276.085 242.515 275.899C239.095 275.489 238.578 276.011 240.406 278.03C243.133 281.044 241.393 284.969 236.18 287.564C233.898 288.7 231.433 290.103 230.704 290.682C229.975 291.261 225.944 292.034 221.747 292.399C215.559 292.936 214.011 292.787 213.559 291.609C212.96 290.049 207.296 290.006 204.809 291.543C202.149 293.187 195 292.979 193.226 291.205Z" fill="#C5C5C5"/>
<path id="path7007" d="M245.083 148.552C245.417 147.682 245.69 146.782 245.69 146.552C245.69 146.322 246.831 146.134 248.225 146.134C250.45 146.134 250.629 146.378 249.69 148.134C248.384 150.573 244.16 150.957 245.083 148.552ZM260.36 149.471C259.991 149.102 259.69 147.751 259.69 146.467C259.69 143.932 258.726 143.498 256.977 145.247C255.337 146.887 253.893 145.544 252.577 141.151C251.476 137.476 251.575 137.072 254.299 134.125C258.103 130.009 264.091 126.946 266.938 127.659C268.177 127.969 270.065 127.582 271.136 126.799C272.576 125.745 273.8 125.625 275.845 126.338C279.148 127.489 280.109 129.903 278.718 133.559C277.865 135.803 278.109 136.857 280.193 139.924C281.566 141.945 282.69 143.876 282.69 144.214C282.69 144.553 280.919 145.629 278.754 146.605C275.851 147.914 273.631 148.202 270.301 147.703C266.987 147.206 265.152 147.44 263.408 148.583C262.1 149.44 260.729 149.839 260.36 149.471ZM245.163 142.178C245.488 141.652 246.415 141.475 247.222 141.785C249.289 142.578 249.045 143.134 246.631 143.134C245.498 143.134 244.838 142.704 245.163 142.178Z" fill="#C5C5C5"/>
<path id="path7005" d="M245.182 172.936C244.824 172.357 244.837 169.249 245.211 166.029C245.694 161.863 246.534 159.569 248.123 158.076L250.356 155.979L254.785 158.875C258.137 161.066 260.006 161.648 262.465 161.267C265.857 160.741 266.591 159.649 264.465 158.289C263.778 157.85 262.7 156.048 262.069 154.286C261.027 151.37 261.14 150.941 263.334 149.504C265.114 148.337 267.005 148.092 270.571 148.565C274.133 149.038 276.252 148.763 278.658 147.519C281.821 145.884 281.992 145.901 284.342 148.109C285.675 149.361 287.882 152.383 289.247 154.825L291.728 159.265L287.783 162.784C283.268 166.812 279.659 167.535 272.001 165.945C267.192 164.947 266.455 165.058 262.501 167.375C260.144 168.756 256.311 170.191 253.984 170.563C251.657 170.935 249.239 171.858 248.611 172.615C247.247 174.259 246.068 174.37 245.182 172.936Z" fill="#C5C5C5"/>
<path id="path7003" d="M267.538 191.207C266.075 190.441 264.878 189.388 264.878 188.869C264.878 188.349 263.807 187.222 262.498 186.364C260.4 184.989 259.631 184.973 255.998 186.224C252.211 187.529 251.878 187.504 251.878 185.911C251.878 184.958 250.57 182.23 248.971 179.849L246.063 175.52L248.221 173.844C249.407 172.922 252.178 171.844 254.378 171.448C256.578 171.052 260.307 169.609 262.664 168.24C266.676 165.91 267.306 165.825 272.496 166.902C275.546 167.535 279.062 167.797 280.308 167.485C283.757 166.619 285.314 170.664 282.795 173.942C281.765 175.282 280.903 177.953 280.878 179.878C280.827 183.917 278.856 186.782 273.788 190.188C270.524 192.381 269.955 192.474 267.538 191.207Z" fill="#C5C5C5"/>
<path id="path7001" d="M244.878 197.2C244.878 196.901 245.666 195.758 246.628 194.659C248.295 192.756 248.295 192.691 246.628 193.299C245.666 193.65 244.893 193.614 244.91 193.219C244.979 191.665 247.481 189.492 249.378 189.339C250.478 189.251 253.274 188.471 255.592 187.607C257.909 186.742 260.509 186.305 261.37 186.635C263.271 187.365 265.182 190.7 264.413 191.944C263.32 193.713 244.878 198.674 244.878 197.2Z" fill="#C5C5C5"/>
<path id="path6999" d="M253.935 252.648C253.205 250.73 252.162 249.959 250.153 249.852C248.627 249.771 246.478 249.658 245.378 249.602C244.278 249.546 243.484 248.957 243.614 248.293C243.936 246.643 236.888 245.366 235.939 246.902C235.06 248.324 231.878 247.267 231.878 245.553C231.878 244.875 230.078 243.726 227.878 243C225.678 242.274 223.878 241.132 223.878 240.462C223.878 239.793 223.165 238.653 222.294 237.93C221.423 237.207 219.188 233.595 217.329 229.903C215.47 226.211 213.447 223.023 212.833 222.818C212.022 222.548 212.039 221.742 212.895 219.862C213.846 217.775 213.772 216.696 212.513 214.26C211.079 211.488 211.092 211.119 212.665 209.721C213.607 208.884 216.022 207.52 218.032 206.691C220.041 205.861 221.951 204.354 222.275 203.341C222.887 201.43 231.572 195 233.542 195C234.159 195 234.914 195.651 235.22 196.448C236.153 198.879 241.789 201.319 243.394 199.987C244.149 199.36 247.777 198.218 251.457 197.448C255.137 196.678 260.049 195.127 262.374 194.002C264.698 192.877 267.296 192.223 268.147 192.55C268.998 192.876 270.693 195.466 271.914 198.305C273.136 201.144 274.857 203.996 275.741 204.641C277.159 205.679 277.186 206.259 275.975 209.61C274.689 213.166 274.737 213.494 276.74 214.824C278.079 215.713 278.878 217.293 278.878 219.049C278.878 220.822 279.764 222.552 281.285 223.748C284.509 226.284 284.623 228.223 282.042 236.651C280.329 242.246 280.077 244.394 280.886 246.52L281.919 249.237L275.649 248.57C270.802 248.054 268.924 248.247 267.378 249.419C266.278 250.254 264.639 250.951 263.735 250.968C262.832 250.986 261.814 251.726 261.473 252.613C260.953 253.97 260.602 254.016 259.258 252.9C257.909 251.78 257.452 251.863 256.302 253.436C255.01 255.201 254.89 255.161 253.935 252.648Z" fill="#C5C5C5"/>
<path id="path8303" d="M220.018 267.993C218.719 266.897 216.906 266 215.988 266C213.981 266 206.878 259.323 206.878 257.436C206.878 256.701 206.158 255.696 205.278 255.204C203.984 254.479 204.606 253.774 208.528 251.521C211.196 249.989 214.631 247.571 216.161 246.149C220.622 242.003 227.272 242.394 231.954 247.076C234.002 249.124 236.878 249.663 236.878 248C236.878 246.329 240.714 246.884 241.732 248.702C242.255 249.638 243.965 250.48 245.531 250.573C247.097 250.666 249.391 250.8 250.628 250.871C253.508 251.036 253.677 254.502 250.878 256C249.778 256.589 248.878 257.714 248.878 258.5C248.878 259.286 247.866 260.463 246.628 261.115C245.391 261.766 244.134 262.67 243.835 263.124C243.537 263.577 239.937 264.072 235.835 264.224C228.778 264.485 228.351 264.634 227.874 267C227.221 270.231 223.261 270.731 220.018 267.993Z" fill="#C5C5C5"/>
<path id="path8301" d="M277.46 214.443C275.823 213.24 275.713 212.658 276.71 210.47C278.284 207.015 278.182 204.331 276.451 203.666C275.667 203.365 274.064 200.955 272.89 198.309L270.756 193.5L272.976 192C278.654 188.163 281.878 183.892 281.901 180.179C281.913 178.132 282.764 175.406 283.819 174.032C285.246 172.176 285.468 171.102 284.717 169.699C283.6 167.612 285.719 164.503 288.959 163.474C289.958 163.157 291.049 162.036 291.383 160.984C292.227 158.326 297.848 157.396 301.501 159.31C304.089 160.666 304.687 160.628 308.085 158.894L311.824 156.987L313.279 159.244C314.079 160.485 315.293 162.749 315.978 164.275C317.4 167.446 326.358 173 330.05 173C332.659 173 334.878 174.655 334.878 176.601C334.878 177.262 333.275 178.748 331.316 179.904L327.754 182.006L329.944 185.902L332.134 189.799L329.462 193.301C327.54 195.821 326.963 197.49 327.406 199.254C327.984 201.557 327.723 201.74 323.085 202.289C320.371 202.611 315.276 204.055 311.764 205.5C306.262 207.762 304.503 208.035 299.057 207.475C293.831 206.938 291.789 207.21 287.27 209.044C284.122 210.322 281.29 212.235 280.592 213.557C279.505 215.612 279.177 215.705 277.46 214.443Z" fill="#C5C5C5"/>
<path id="path8305" d="M334.122 272.336C333.431 272.057 333.142 271.383 333.479 270.837C333.816 270.292 334.718 267.159 335.485 263.875L336.878 257.904L331.878 252.904C329.128 250.155 326.878 247.483 326.878 246.967C326.878 246.451 325.108 244.857 322.945 243.426C318.649 240.583 315.398 240.786 314.39 243.962C314.066 244.984 312.693 246.547 311.339 247.434C309.986 248.32 308.878 249.68 308.878 250.456C308.878 251.231 307.875 252.184 306.648 252.573C305.422 252.962 303.138 254.652 301.573 256.327C299.554 258.488 298.507 259.017 297.97 258.148C297.446 257.3 296.468 257.199 294.795 257.819C289.987 259.603 282.465 260.003 280.583 258.575C278.546 257.03 279.083 252.332 281.52 250.374C282.599 249.507 282.684 248.619 281.888 246.525C281.077 244.392 281.327 242.251 283.042 236.651C285.644 228.153 285.528 226.101 282.305 223.667C277.282 219.871 279.835 213.062 287.439 209.975C291.782 208.213 293.874 207.943 299.057 208.475C304.479 209.033 306.268 208.76 311.629 206.554C315.067 205.14 320.242 203.632 323.129 203.203C328.128 202.459 328.368 202.286 328.169 199.558C327.945 196.49 331.208 191 333.255 191C333.938 191 337.126 189.416 340.34 187.481C346.876 183.545 349.121 183.636 351.338 187.922C353.3 191.716 356.914 193.907 360.179 193.283C362.282 192.881 363.514 193.469 365.888 196.01C368.637 198.953 369.288 199.19 373.001 198.596C375.249 198.237 378.425 197.251 380.059 196.406C382.738 195.021 383.266 195.024 385.416 196.433C387.398 197.731 388.659 197.811 392.88 196.906C400.805 195.207 400.878 195.309 400.878 208.033V219.129L397.842 221.684C396.173 223.089 394.193 225.422 393.443 226.869C391.508 230.603 387.231 235 385.534 235C384.743 235 383.796 236.194 383.429 237.652C382.773 240.266 377.514 246 375.773 246C375.281 246 374.878 246.45 374.878 247C374.878 247.55 373.978 248 372.878 248C371.729 248 370.878 248.667 370.878 249.567C370.878 250.68 370.298 250.95 368.878 250.5C367.76 250.145 366.878 250.32 366.878 250.897C366.878 252.634 363.177 254.046 360.865 253.191C358.924 252.473 358.865 252.256 360.29 251.073C362.533 249.212 362.269 247.72 359.92 248.978C358.339 249.824 357.755 249.638 356.885 248.013C356.293 246.906 355.358 246 354.808 246C354.165 246 354.19 246.714 354.878 248C355.467 249.1 355.708 250.056 355.414 250.125C355.119 250.194 354.469 250.306 353.969 250.375C352.041 250.64 348.878 255.961 348.878 258.939C348.878 260.844 348.271 262.296 347.321 262.66C346.464 262.989 345.988 263.843 346.262 264.557C346.82 266.011 338.788 273.044 336.71 272.921C335.978 272.878 334.813 272.614 334.122 272.336Z" fill="#C5C5C5"/>
<path id="path8299" d="M331.327 266.342C330.576 261.152 329.407 259 327.341 259C325.911 259 322.559 256.385 316.888 250.847L313.148 247.194L315.433 244.347L317.717 241.5L321.255 243.384C323.201 244.421 326.021 247.042 327.523 249.209C329.025 251.375 331.534 254.151 333.1 255.377L335.947 257.605L334.478 263.904C333.67 267.369 332.788 270.424 332.518 270.693C332.249 270.963 331.713 269.005 331.327 266.342Z" fill="#C5C5C5"/>
<path id="path8164" d="M246.878 272.105C244.75 271.513 244.378 270.821 244.378 267.455C244.378 264.308 244.84 263.298 246.637 262.509C247.88 261.964 249.183 260.616 249.533 259.513C250.296 257.107 252.998 254.956 254.269 255.741C254.771 256.052 255.84 255.449 256.645 254.403C257.669 253.071 258.248 252.875 258.576 253.75C259.11 255.174 261.878 255.468 261.878 254.101C261.878 253.607 263.753 252.225 266.045 251.03C269.365 249.299 271.168 248.99 274.919 249.506L279.627 250.153L278.647 254.012C277.742 257.577 277.482 257.8 275.222 256.941C272.347 255.848 265.931 258.659 263.553 262.054C262.751 263.199 260.584 264.938 258.737 265.919C256.89 266.9 254.791 268.894 254.074 270.351C252.753 273.033 251.399 273.363 246.878 272.105Z" fill="#C5C5C5"/>
<path id="path8148" d="M252.378 293.793C249.362 292.739 242.945 288.434 241.722 286.645C241.361 286.117 241.56 284.597 242.166 283.268C242.984 281.474 242.96 280.36 242.073 278.939C240.517 276.448 240.566 275.943 242.302 276.609C243.121 276.923 244.205 276.258 244.856 275.042C245.762 273.348 246.619 273.04 249.182 273.486C252.848 274.124 254.491 273.31 255.013 270.597C255.214 269.55 257.077 267.813 259.152 266.736C261.228 265.66 263.38 263.93 263.936 262.893C265.623 259.74 272.338 256.844 275.328 257.981C276.731 258.514 277.878 258.711 277.878 258.419C277.878 258.126 279.341 258.7 281.128 259.693C282.916 260.687 284.547 261.593 284.752 261.707C284.958 261.821 284.103 263.621 282.853 265.707C281.603 267.793 280.448 270.625 280.287 272C279.25 280.854 278.578 282.816 276.214 283.893C274.878 284.502 272.932 285 271.89 285C270.849 285 269.69 285.495 269.317 286.1C268.552 287.338 256.896 295.043 255.973 294.921C255.646 294.878 254.028 294.37 252.378 293.793Z" fill="#C5C5C5"/>
<path id="path8142" d="M299.628 304.321C298.666 304.064 297.878 303.013 297.878 301.986C297.878 300.958 297.406 299.826 296.83 299.47C296.101 299.02 296.108 298.428 296.852 297.532C297.673 296.543 297.276 296.116 295.15 295.703C293.626 295.407 292.228 295.578 292.045 296.082C291.429 297.777 286.391 297.05 285.167 295.09C284.51 294.039 282.49 292.854 280.676 292.456C278.862 292.057 276.768 290.859 276.021 289.794C275.275 288.728 273.7 287.467 272.521 286.992C270.738 286.272 270.68 286.116 272.178 286.063C273.168 286.029 275.243 285.346 276.79 284.546C279.574 283.106 280.101 281.642 281.307 272C281.479 270.625 282.841 267.362 284.334 264.75C286.362 261.202 287.644 260 289.399 260C290.691 260 292.886 259.567 294.278 259.038C295.897 258.422 297.021 258.422 297.402 259.038C298.426 260.695 300.715 260.089 301.384 257.983C301.736 256.874 303.791 255.065 305.951 253.963C308.111 252.861 309.878 251.32 309.878 250.539C309.878 247.034 315.167 248.183 316.362 251.948C316.702 253.02 317.812 254.162 318.828 254.484C319.845 254.807 321.734 256.126 323.027 257.417C324.32 258.707 326.243 259.928 327.3 260.131C328.753 260.41 329.5 261.897 330.365 266.232C331.695 272.895 331.631 272.802 335.451 273.558C337.591 273.982 338.972 273.581 340.587 272.069C343.576 269.268 345.528 269.468 346.328 272.656C346.779 274.451 346.49 275.817 345.437 276.87C344.324 277.983 343.878 278.064 343.878 277.155C343.878 276.455 343.5 276.116 343.037 276.402C342.122 276.967 342.231 280.102 343.396 286.775L344.142 291.051L341.51 290.05C339.96 289.461 337.954 289.401 336.628 289.905C335.391 290.375 334.076 290.702 333.706 290.63C332.324 290.363 324.897 295.564 324.353 297.18C323.26 300.429 304.901 305.731 299.628 304.321Z" fill="#C5C5C5"/>
<path id="path8160" d="M285.878 329.558C285.878 328.727 284.78 327.327 283.439 326.448C282.097 325.568 281.229 324.249 281.511 323.515C281.816 322.72 281.083 321.915 279.701 321.523C274.225 319.973 272.037 318.751 272.514 317.508C272.789 316.79 272.527 315.901 271.93 315.532C271.334 315.163 271.127 314.407 271.47 313.851C271.814 313.295 270.727 311.503 269.055 309.868C267.382 308.233 265.706 305.457 265.33 303.698C264.953 301.939 263.798 299.695 262.762 298.711C259.813 295.911 260.51 293.644 265.374 290.216C269.061 287.617 270.311 287.214 272.314 287.975C273.657 288.486 275.222 289.773 275.79 290.836C276.363 291.906 278.392 293.061 280.339 293.427C282.307 293.796 284.315 294.947 284.901 296.043C285.632 297.408 286.997 298 289.413 298C291.319 298 292.878 297.564 292.878 297.031C292.878 296.499 293.573 296.329 294.421 296.655C295.27 296.981 295.724 297.488 295.43 297.782C295.136 298.075 295.395 298.917 296.005 299.653C296.615 300.388 297.089 302.795 297.059 305.001C297.011 308.455 297.412 309.225 299.941 310.532C303.273 312.256 303.351 312.55 301.378 316C300.592 317.375 299.933 319.856 299.914 321.514C299.883 324.164 299.245 324.819 294.628 326.943C291.741 328.272 288.591 329.744 287.628 330.215C286.356 330.837 285.878 330.658 285.878 329.558Z" fill="#C5C5C5"/>
<path id="path8140" d="M221.76 304.656C221.695 304.02 221.782 303.05 221.954 302.5C222.126 301.95 222.292 299.7 222.323 297.5C222.376 293.67 222.527 293.486 225.878 293.172C227.803 292.991 230.053 292.279 230.878 291.589C233.618 289.299 240.068 286.789 240.949 287.671C242.298 289.02 240.868 292.868 238.77 293.534C237.73 293.865 236.878 294.937 236.878 295.918C236.878 296.899 236.395 299.087 235.805 300.779C234.989 303.121 234.239 303.762 232.67 303.46C231.536 303.241 230.368 302.823 230.074 302.529C229.781 302.236 228.829 302.608 227.959 303.357C225.744 305.264 221.905 306.069 221.76 304.656Z" fill="#C5C5C5"/>
<path id="path8156" d="M261.378 328.402L258.378 326.989L261.376 327.576C264.507 328.189 265.498 328.72 264.795 329.408C264.566 329.632 263.028 329.179 261.378 328.402ZM244.762 322.358C244.24 321.729 242.421 320.639 240.721 319.935C238.027 318.819 237.836 318.504 239.237 317.48C240.661 316.439 240.566 316.179 238.402 315.193C237.059 314.581 235.018 312.234 233.866 309.977C232.431 307.162 231.24 305.991 230.076 306.246C228.305 306.635 228.229 307.184 229.491 310.5C230.153 312.238 230.043 312.33 228.655 311.201C227.44 310.215 226.881 310.187 226.325 311.087C225.829 311.889 225.167 311.501 224.271 309.885C222.477 306.649 222.558 306 224.756 306C225.788 306 227.189 305.33 227.869 304.511C228.549 303.692 229.511 303.273 230.008 303.58C230.505 303.887 231.971 304.331 233.266 304.565C235.338 304.941 235.777 304.423 236.924 300.246C237.641 297.636 239.274 294.509 240.553 293.298C241.832 292.087 242.878 290.601 242.878 289.997C242.878 289.393 244.341 289.984 246.128 291.311C250.705 294.708 255.61 296.214 257.977 294.947C259.462 294.153 259.878 294.266 259.878 295.465C259.878 296.309 260.778 297.9 261.878 299C263.874 300.995 264.595 304 263.078 304C262.638 304 261.829 303.551 261.28 303.002C260.616 302.338 258.384 302.499 254.609 303.482C251.489 304.295 248.306 304.718 247.536 304.422C246.766 304.127 245.413 304.608 244.53 305.491C243.646 306.375 242.351 307.023 241.651 306.931C237.125 306.335 237.047 309.542 241.486 313.79C242.802 315.05 243.878 316.482 243.878 316.973C243.878 317.464 244.891 318.181 246.128 318.567C247.366 318.954 248.693 319.762 249.078 320.363C249.463 320.964 251.263 321.973 253.078 322.605C256.301 323.726 256.253 323.75 251.045 323.627C248.112 323.557 245.285 322.986 244.762 322.358Z" fill="#C5C5C5"/>
<path id="path8158" d="M259.73 326.294C258.23 326.063 256.874 325.09 256.602 324.05C256.328 323.002 254.815 321.925 253.083 321.545C251.412 321.178 249.797 320.23 249.493 319.439C249.19 318.648 248.41 318 247.761 318C246.067 318 240.083 311.595 239.701 309.374C239.468 308.021 239.892 307.588 241.226 307.816C242.243 307.99 243.902 307.384 244.913 306.468C245.925 305.553 247.194 305.077 247.734 305.411C248.273 305.744 251.3 305.344 254.459 304.521C258.592 303.444 260.566 303.326 261.497 304.098C262.209 304.689 263.26 304.882 263.834 304.527C264.409 304.172 264.878 304.549 264.878 305.364C264.878 306.179 266.258 308.226 267.944 309.912C269.63 311.598 270.748 313.402 270.428 313.92C270.108 314.438 270.274 315.126 270.797 315.45C271.32 315.773 270.702 317.166 269.423 318.546C268.145 319.926 266.544 322.392 265.867 324.027C265.19 325.662 264.128 326.933 263.507 326.85C262.886 326.768 261.187 326.517 259.73 326.294Z" fill="#C5C5C5"/>
<path id="path8138" d="M273.023 332.483C271.728 331.117 269.628 330 268.357 330C264.987 330 264.804 328.104 267.657 322.757C269.647 319.028 270.475 318.25 271.524 319.121C272.259 319.731 274.551 320.811 276.619 321.522C278.687 322.232 280.153 323.012 279.878 323.253C279.603 323.495 279.996 324.437 280.751 325.346C282.302 327.215 280.907 327.629 279.111 325.833C277.66 324.381 276.834 326.179 276.565 331.381C276.462 333.367 276.153 334.985 275.878 334.978C275.603 334.971 274.319 333.848 273.023 332.483Z" fill="#C5C5C5"/>
<path id="path8154" d="M287.878 357.128C287.878 356.568 286.641 355.516 285.128 354.791C283.616 354.066 282.378 352.9 282.378 352.2C282.378 351.5 281.87 350.606 281.249 350.214C280.627 349.821 279.788 346.575 279.384 343C278.98 339.425 278.251 335.743 277.765 334.818C277.252 333.842 277.258 331.537 277.779 329.318C278.273 327.218 278.723 326.08 278.778 326.788C278.839 327.567 279.916 327.962 281.505 327.788C283.874 327.528 284.307 328.032 285.918 332.916C286.945 336.028 289.02 339.561 290.797 341.222C293.466 343.716 293.733 344.403 292.749 346.242C292.122 347.414 291.522 350.426 291.416 352.936C291.274 356.309 290.788 357.584 289.551 357.823C288.631 358.001 287.878 357.688 287.878 357.128Z" fill="#C5C5C5"/>
<path id="path8152" d="M291.041 340.152C288.383 337.669 285.936 332.483 287.008 331.603C287.212 331.436 290.49 329.848 294.294 328.073C301.194 324.853 301.219 324.85 305.044 326.575C307.153 327.526 308.878 328.649 308.878 329.07C308.878 329.492 309.115 330.453 309.404 331.206C309.744 332.091 308.357 333.34 305.489 334.734C303.046 335.921 300.776 337.748 300.444 338.794C299.962 340.312 296.123 343 294.437 343C294.246 343 292.718 341.719 291.041 340.152Z" fill="#C5C5C5"/>
<path id="path8150" d="M309.878 329.462C309.878 328.644 307.853 326.99 305.378 325.788C300.349 323.344 299.705 321.17 302.441 315.879C304.158 312.559 303.347 310.601 299.788 309.471C298.738 309.138 297.878 308.105 297.878 307.177C297.878 305.793 299.006 305.453 304.128 305.293C312.254 305.039 321.441 301.393 326.621 296.366C331.327 291.799 337.652 289.677 342.02 291.199C344.714 292.138 346.237 296 343.914 296C342.047 296 340.736 299.866 341.878 302C342.639 303.421 342.639 304.579 341.878 306C341.258 307.159 341.204 308 341.75 308C343.778 308 341.441 312.148 337.221 316.038C334.003 319.005 332.948 320.643 333.379 322.003C334.285 324.856 330.594 326.353 324.608 325.558C320.435 325.005 319.27 325.222 317.498 326.882C316.332 327.973 314.141 329.336 312.628 329.909C310.393 330.755 309.878 330.672 309.878 329.462Z" fill="#C5C5C5"/>
<path id="path8144" d="M377.405 265.75C377.18 265.062 376.849 263.6 376.67 262.5C376.395 260.812 375.606 260.514 371.603 260.588C367.238 260.67 366.981 260.544 368.37 259.01C369.199 258.093 369.878 256.924 369.878 256.412C369.878 255.9 370.796 254.908 371.917 254.208C373.038 253.508 373.699 252.518 373.384 252.01C373.07 251.501 374.155 250.391 375.796 249.543C379.261 247.751 380.242 247.602 379.378 249C379.038 249.55 379.278 250 379.911 250C380.545 250 382.207 250.9 383.606 252L386.149 254L388.466 251.5C391.049 248.713 393.385 248.272 394.208 250.417C394.706 251.715 392.813 253.202 390.392 253.414C389.849 253.461 388.798 254.766 388.056 256.314C387.315 257.862 386.071 259.373 385.293 259.671C384.515 259.97 383.864 260.953 383.846 261.857C383.772 265.69 378.442 268.911 377.405 265.75Z" fill="#C5C5C5"/>
<path id="path8146" d="M394.936 376.109C394.38 375.068 391.664 373.405 388.901 372.411C386.139 371.418 383.878 370.244 383.878 369.802C383.878 369.361 383.203 369 382.378 369C381.553 369 380.878 369.627 380.878 370.393C380.878 371.159 380.203 372.045 379.378 372.362C378.553 372.678 377.878 373.578 377.878 374.362C377.878 375.145 377.286 376.013 376.562 376.291C374.611 377.04 365.878 375.879 365.878 374.87C365.878 374.392 365.316 373.997 364.628 373.994C363.941 373.99 362.136 373.34 360.618 372.548C358.36 371.37 357.636 371.344 356.646 372.404C355.663 373.456 355.195 373.459 354.157 372.421C353.454 371.718 352.878 370.444 352.878 369.59C352.878 368.737 351.78 367.762 350.437 367.425C348.759 367.004 347.79 365.872 347.335 363.805C346.972 362.15 345.855 359.976 344.852 358.974C341.174 355.296 340.654 353.224 342.855 351.023C343.968 349.91 344.481 349 343.995 349C343.509 349 342.878 348.105 342.592 347.012C342.306 345.919 340.965 344.603 339.611 344.089C338.258 343.574 336.856 342.385 336.496 341.446C335.689 339.343 340.274 333 342.6 333C343.492 333 345.093 332.213 346.158 331.25C347.572 329.973 349.62 329.538 353.737 329.642C356.84 329.72 359.603 329.482 359.878 329.114C360.153 328.746 361.493 327.966 362.856 327.381C364.5 326.675 365.341 325.507 365.356 323.909C365.376 321.73 365.76 321.522 369.378 321.73C375.163 322.064 381.658 321.075 383.116 319.638C384.783 317.996 392.395 315 394.899 315C395.987 315 396.878 314.55 396.878 314C396.878 313.45 397.778 313 398.878 313C400.837 313 400.878 313.667 400.878 345.5V378H398.414C397.019 378 395.509 377.178 394.936 376.109ZM337.266 331.181C337.66 330.544 337.047 327.908 335.903 325.323L333.824 320.624L338.351 316.027C340.841 313.5 342.878 310.898 342.878 310.247C342.878 308.215 345.879 310.101 347.437 313.113C348.569 315.302 349.866 316.134 352.9 316.619C358.225 317.471 358.022 319.606 352.378 322.103C349.903 323.198 347.878 324.678 347.878 325.392C347.878 327.075 344.679 329.955 342.265 330.445C341.227 330.656 339.517 331.168 338.464 331.584C337.131 332.111 336.767 331.989 337.266 331.181Z" fill="#C5C5C5"/>
<path id="path8136" d="M332.379 398.002C331.475 396.539 331.938 396.13 335.729 395.043C337.682 394.483 339.077 394.512 339.454 395.122C339.837 395.741 340.48 395.75 341.217 395.145C341.856 394.621 345.078 393.868 348.378 393.471C351.678 393.074 355.166 392.34 356.128 391.839C357.246 391.258 357.878 391.298 357.878 391.95C357.878 392.512 355.142 394.353 351.797 396.041C347.02 398.452 345.414 398.86 344.308 397.942C343.012 396.866 338.113 397.205 334.408 398.627C333.678 398.907 332.765 398.626 332.379 398.002ZM316.834 384.755C315.348 382.808 315.221 382.8 313.493 384.528C311.987 386.034 311.552 386.096 310.803 384.912C310.311 384.135 309.902 382.797 309.894 381.938C309.885 381.079 308.543 379.389 306.912 378.183C305.222 376.933 304.173 375.397 304.474 374.612C305.099 372.984 315.345 369.552 316.834 370.473C317.4 370.822 318.569 370.713 319.434 370.229C320.714 369.513 320.762 369.15 319.692 368.272C317.545 366.51 313.587 366.504 310.277 368.256C308.571 369.159 306.096 369.835 304.777 369.759C301.92 369.592 296.631 366 299.243 366C300.143 366 300.878 365.55 300.878 365C300.878 363.949 300.72 363.886 297.146 363.51C292.831 363.055 291.863 361.26 292.288 354.501C292.755 347.078 293.93 344.542 297.837 342.521C299.432 341.697 300.996 340.206 301.312 339.208C301.629 338.21 303.911 336.411 306.383 335.21C308.855 334.009 310.878 332.57 310.878 332.013C310.878 331.456 311.519 331 312.302 331C313.084 331 315.084 329.856 316.746 328.458C319.424 326.204 320.337 325.992 324.805 326.585C328.601 327.088 330.443 326.86 332.275 325.66C334.639 324.111 334.736 324.153 335.792 327.183C336.39 328.896 336.878 330.456 336.878 330.649C336.878 330.842 334.403 331 331.378 331C328.353 331 325.878 331.45 325.878 332C325.878 332.55 325.199 333 324.369 333C323.538 333 322.088 333.9 321.146 335C320.204 336.1 318.843 337 318.121 337C317.118 337 317.061 337.472 317.878 339C318.467 340.1 319.945 341.012 321.164 341.026C322.824 341.046 322.378 341.511 319.378 342.884C315.933 344.462 315.014 344.534 312.755 343.398C309.572 341.798 308.878 342.363 308.878 346.559C308.878 352.798 315.872 358.875 325.141 360.69C329.621 361.567 329.738 363.352 325.265 362.579C323.127 362.21 319.353 361.71 316.878 361.47C312.048 361 313.045 361.514 321.878 364.048C326.389 365.343 328.878 367.319 328.878 369.604C328.878 370.537 328.193 370.568 325.986 369.734C323.639 368.849 322.79 368.946 321.486 370.249C320.011 371.725 320.086 372.018 322.412 373.848C325.21 376.048 324.104 377.726 320.965 376.046C317.012 373.931 316.764 375.522 320.378 379.818C323.158 383.121 323.667 385.516 321.405 384.649C320.594 384.338 319.582 384.689 319.155 385.43C318.544 386.489 318.048 386.345 316.834 384.755ZM356.351 381.956C355.567 380.688 357.634 378 359.394 378C361.166 378 361.952 380.526 360.6 381.878C359.192 383.286 357.196 383.323 356.351 381.956Z" fill="#C5C5C5"/>
<path id="path2122" d="M49.214 244.073C47.8011 243.798 47.2158 243.134 47.571 242.209C47.8744 241.418 47.598 240.771 46.9567 240.771C46.3154 240.771 46.0986 240.273 46.4749 239.664C46.9354 238.919 46.4641 238.777 45.0339 239.231C43.8651 239.602 42.9087 239.474 42.9087 238.947C42.9087 238.419 44.1462 237.65 45.6587 237.236L48.4087 236.484L45.9087 235.727C44.4617 235.289 44.1062 234.928 45.0647 234.871C46.1047 234.808 47.3136 233.031 48.3147 230.093C50.1997 224.561 50.3307 222.078 48.7653 221.557C47.9241 221.276 47.9514 220.56 48.8685 218.846C49.6538 217.379 49.7534 216.286 49.1378 215.894C48.5544 215.522 48.4998 214.364 49.0023 213.021C49.8912 210.646 51.3762 210.101 52.4087 211.771C53.4077 213.387 56.8315 212.921 59.035 210.868C60.8491 209.178 60.8992 208.865 59.4832 208.073C57.1846 206.786 59.4843 204.15 63.6587 203.285C67.7386 202.44 67.9518 204.073 64.2644 207.922C61.716 210.582 61.6806 210.774 63.2875 213.226C65.173 216.104 66.7 216.479 67.5471 214.271C68.4411 211.941 69.3938 212.468 71.2234 216.305C73.3511 220.767 73.4355 230.859 71.3813 235.188C69.9591 238.185 69.5442 238.388 65.3547 238.141C62.8107 237.991 61.1022 238.275 61.423 238.794C61.7351 239.299 60.7819 240.016 59.3048 240.387C57.8277 240.757 55.7844 241.895 54.764 242.916C53.7436 243.936 52.5712 244.71 52.1587 244.635C51.7462 244.56 50.4211 244.307 49.214 244.073Z" fill="#C5C5C5"/>
</g>
</g>
<defs>
<clipPath id="clip0">
<rect width="400.878" height="419.873" fill="white"/>
</clipPath>
</defs>
</svg>
