<svg width="300" height="150" viewBox="0 0 300 150" fill="none" xmlns="http://www.w3.org/2000/svg">
<g id="cartoon-eyes-1">
<g id="Document">
<g id="Spread">
<g id="Layer 1">
<g id="eye-balls">
<g id="left-eye">
<path id="Vector" d="M77.91 12.0915C110.655 12.0915 137.23 38.6665 137.23 71.4115C137.23 104.154 110.655 130.731 77.91 130.731C45.167 130.729 18.59 104.154 18.59 71.4115C18.5915 38.6665 45.167 12.0915 77.91 12.0915Z" fill="white"/>
<path id="Vector 2" d="M77.91 134.82C42.907 134.82 14.5 106.414 14.5 71.41C14.5015 36.405 42.907 8 77.91 8C112.91 8 141.32 36.405 141.32 71.41C141.32 106.413 112.91 134.82 77.91 134.82ZM77.91 126.64C108.395 126.64 133.14 101.896 133.14 71.4095C133.14 40.9245 108.395 16.1795 77.91 16.1795C47.4255 16.1795 22.68 40.9245 22.68 71.4095C22.6815 101.893 47.4255 126.64 77.91 126.64Z" fill="black"/>
<g id="left-pupil">
<path id="Vector 3" d="M99.315 45.8365C112.72 45.8365 123.6 56.7165 123.6 70.1165C123.6 83.5215 112.72 94.399 99.315 94.399C85.915 94.399 75.035 83.5215 75.035 70.1165C75.035 56.7165 85.915 45.8365 99.315 45.8365Z" fill="black"/>
<g id="left-pupil-hole">
<path id="Vector 4" d="M109.93 56.2365C106.52 56.2365 103.75 59.0065 103.75 62.4215C103.75 65.8315 106.52 68.6015 109.93 68.6015C113.34 68.6015 116.11 65.8315 116.11 62.4215C116.11 59.0065 113.34 56.2365 109.93 56.2365Z" fill="white"/>
</g>
</g>
</g>
<g id="right-eye">
<path id="Vector 5" d="M215.855 12.6115C248.6 12.6115 275.175 39.1865 275.175 71.9265C275.175 104.673 248.6 131.247 215.855 131.247C183.115 131.248 156.54 104.673 156.54 71.9265C156.54 39.1865 183.115 12.6115 215.855 12.6115Z" fill="white"/>
<path id="Vector 6" d="M215.855 135.339C180.855 135.339 152.45 106.932 152.45 71.9285C152.45 36.9285 180.855 8.5235 215.855 8.5235C250.86 8.5235 279.265 36.9285 279.265 71.9285C279.265 106.934 250.86 135.339 215.855 135.339ZM215.855 127.158C246.34 127.158 271.085 102.414 271.085 71.928C271.085 41.448 246.34 16.703 215.855 16.703C185.37 16.703 160.63 41.448 160.63 71.928C160.63 102.416 185.37 127.158 215.855 127.158Z" fill="black"/>
<g id="right-pupil">
<path id="Vector 7" d="M237.26 46.3515C250.665 46.3515 261.545 57.2315 261.545 70.6365C261.545 84.0365 250.665 94.9175 237.26 94.9175C223.86 94.9175 212.98 84.0365 212.98 70.6365C212.98 57.2315 223.86 46.3515 237.26 46.3515Z" fill="black"/>
<g id="right-pupil-hole">
<path id="Vector 8" d="M247.875 56.7565C244.465 56.7565 241.695 59.5265 241.695 62.9365C241.695 66.3515 244.465 69.1215 247.875 69.1215C251.29 69.1215 254.06 66.3515 254.06 62.9365C254.06 59.5265 251.29 56.7565 247.875 56.7565Z" fill="white"/>
</g>
</g>
</g>
</g>
</g>
</g>
</g>
</g>
</svg>
