<svg width="600" height="300" viewBox="0 0 600 300" xmlns="http://www.w3.org/2000/svg">
<g id="cartoon-eyes 1">
<g id="Document">
<g id="Spread">
<g id="Layer 1">
<g id="eye-balls">
<g id="left-eye">
<path id="Vector" d="M155.82 24.183C221.31 24.183 274.46 77.333 274.46 142.823C274.46 208.308 221.31 261.463 155.82 261.463C90.334 261.459 37.18 208.308 37.18 142.823C37.183 77.333 90.334 24.183 155.82 24.183Z" fill="white"/>
<path id="Vector_2" d="M155.82 269.64C85.814 269.64 29 212.828 29 142.82C29.003 72.81 85.814 16 155.82 16C225.82 16 282.64 72.81 282.64 142.82C282.64 212.825 225.82 269.64 155.82 269.64ZM155.82 253.279C216.79 253.279 266.28 203.791 266.28 142.819C266.28 81.849 216.79 32.359 155.82 32.359C94.851 32.359 45.36 81.849 45.36 142.819C45.363 203.787 94.851 253.279 155.82 253.279Z" fill="black"/>
<g id="left-pupil">
<path id="Vector_3" d="M198.63 91.673C225.44 91.673 247.2 113.433 247.2 140.233C247.2 167.043 225.44 188.798 198.63 188.798C171.83 188.798 150.07 167.043 150.07 140.233C150.07 113.433 171.83 91.673 198.63 91.673Z" fill="black"/>
<g id="left-pupil-hole">
<path id="Vector_4" d="M219.86 112.473C213.04 112.473 207.5 118.013 207.5 124.843C207.5 131.663 213.04 137.203 219.86 137.203C226.68 137.203 232.22 131.663 232.22 124.843C232.22 118.013 226.68 112.473 219.86 112.473Z" fill="white"/>
</g>
</g>
</g>
<g id="right-eye">
<path id="Vector_5" d="M431.71 25.223C497.2 25.223 550.35 78.373 550.35 143.853C550.35 209.345 497.2 262.493 431.71 262.493C366.23 262.496 313.08 209.345 313.08 143.853C313.08 78.373 366.23 25.223 431.71 25.223Z" fill="white"/>
<path id="Vector_6" d="M431.71 270.677C361.71 270.677 304.9 213.865 304.9 143.857C304.9 73.857 361.71 17.047 431.71 17.047C501.72 17.047 558.53 73.857 558.53 143.857C558.53 213.869 501.72 270.677 431.71 270.677ZM431.71 254.316C492.68 254.316 542.17 204.828 542.17 143.856C542.17 82.896 492.68 33.406 431.71 33.406C370.74 33.406 321.26 82.896 321.26 143.856C321.26 204.831 370.74 254.316 431.71 254.316Z" fill="black"/>
<g id="right-pupil">
<path id="Vector_7" d="M474.52 92.703C501.33 92.703 523.09 114.463 523.09 141.273C523.09 168.073 501.33 189.835 474.52 189.835C447.72 189.835 425.96 168.073 425.96 141.273C425.96 114.463 447.72 92.703 474.52 92.703Z" fill="black"/>
<g id="right-pupil-hole">
<path id="Vector_8" d="M495.75 113.513C488.93 113.513 483.39 119.053 483.39 125.873C483.39 132.703 488.93 138.243 495.75 138.243C502.58 138.243 508.12 132.703 508.12 125.873C508.12 119.053 502.58 113.513 495.75 113.513Z" fill="white"/>
</g>
</g>
</g>
</g>
</g>
</g>
</g>
</g>
</svg>
