<svg width="77" height="77" viewBox="0 0 77 77" fill="none" xmlns="http://www.w3.org/2000/svg">
<g id="rocket-ship" clip-path="url(#clip0)">
<path id="Vector" d="M9.67104 54.7051C10.4579 54.0827 11.6053 54.2272 12.2173 55.0275C12.8293 55.8277 12.6872 56.9947 11.9004 57.6171L3.69332 64.0967L3.62776 72.6325L13.5178 72.0657L18.9819 63.2298C19.5173 62.374 20.632 62.1073 21.4735 62.6519C22.315 63.1965 22.5772 64.3301 22.0417 65.1859L16.1077 74.7775C15.8127 75.2888 15.2772 75.6556 14.6434 75.6889L1.9011 76.4113H1.79182C0.797356 76.4113 -0.0113297 75.5778 -0.0113297 74.5664L0.0760958 63.3187C0.0323831 62.7297 0.272803 62.1184 0.7755 61.7294L9.67104 54.7051ZM25.2328 34.2993C29.3636 21.7513 34.9261 12.8598 42.7507 7.25824C50.8812 1.44547 61.3176 -0.766275 74.9997 0.245125C75.9396 0.311811 76.6717 1.10093 76.6827 2.04564C78.005 17.1055 75.1309 27.7974 69.0002 35.8887C63.1099 43.6687 54.258 48.9368 43.2752 53.3492V68.0534C43.2752 68.7758 42.8709 69.3982 42.2698 69.6983L31.0903 76.7225C30.2379 77.256 29.1232 76.9893 28.5987 76.1224C28.4566 75.889 28.3801 75.6445 28.3473 75.3999C25.8775 56.1611 23.2438 55.2386 7.76954 49.7926C5.92267 49.1369 3.92282 48.4367 2.57865 47.9477C1.63883 47.6142 1.13613 46.5584 1.4749 45.6025C1.5514 45.3914 1.64975 45.2135 1.78089 45.0468L9.14649 34.366C9.51805 33.8325 10.1191 33.5546 10.7092 33.588L25.2218 34.3104L25.2328 34.2993ZM53.0559 16.3942C55.1651 16.3942 57.0666 17.2611 58.4435 18.6615C59.8205 20.0619 60.6729 21.9958 60.6729 24.1408C60.6729 26.2748 59.8205 28.2198 58.4435 29.6202C57.0666 31.0206 55.1651 31.8875 53.0559 31.8875C50.9468 31.8875 49.0453 31.0206 47.6683 29.6202C46.2914 28.2198 45.439 26.2859 45.439 24.1408C45.439 21.9958 46.2914 20.0619 47.6683 18.6615C49.0453 17.2611 50.9468 16.3942 53.0559 16.3942ZM56.6841 20.4509C55.7552 19.5062 54.4657 18.9171 53.0559 18.9171C51.6353 18.9171 50.3567 19.5062 49.4278 20.4509C48.4989 21.3956 47.9197 22.7071 47.9197 24.1408C47.9197 25.5857 48.4989 26.8861 49.4278 27.8308C50.3567 28.7755 51.6462 29.3646 53.0559 29.3646C54.4766 29.3646 55.7552 28.7755 56.6841 27.8308C57.613 26.8861 58.1922 25.5746 58.1922 24.1408C58.1922 22.696 57.613 21.3956 56.6841 20.4509ZM44.827 10.2702C37.4286 15.5717 32.1831 24.252 28.2599 36.6778C28.0522 37.5002 27.2982 38.0893 26.4239 38.0448L11.5288 37.3113L6.02103 45.2913C7.17942 45.7026 8.08646 46.0249 8.93885 46.325C25.4295 52.1266 28.8609 53.327 31.5383 72.1212L39.6252 67.042V52.1044H39.6361C39.6361 51.3709 40.0733 50.6707 40.7945 50.3928C51.7336 46.1138 60.4762 41.0901 66.1151 33.6436C71.4918 26.5415 74.1036 17.1055 73.1747 3.82393C61.1209 3.14595 51.9194 5.19098 44.8161 10.2813L44.827 10.2702Z" fill="black"/>
</g>
<defs>
<clipPath id="clip0">
<rect width="77" height="77" fill="white"/>
</clipPath>
</defs>
</svg>
