<?xml version="1.0" encoding="UTF-8" standalone="no"?>
<!-- Created with Inkscape (http://www.inkscape.org/) -->
<svg
   xmlns:dc="http://purl.org/dc/elements/1.1/"
   xmlns:cc="http://web.resource.org/cc/"
   xmlns:rdf="http://www.w3.org/1999/02/22-rdf-syntax-ns#"
   xmlns:svg="http://www.w3.org/2000/svg"
   xmlns="http://www.w3.org/2000/svg"
   xmlns:sodipodi="http://sodipodi.sourceforge.net/DTD/sodipodi-0.dtd"
   xmlns:inkscape="http://www.inkscape.org/namespaces/inkscape"
   width="396.38986"
   height="396.38986"
   id="svg3678"
   sodipodi:version="0.32"
   inkscape:version="0.45"
   sodipodi:modified="true"
   version="1.0">
  <defs
     id="defs3680" />
  <sodipodi:namedview
     id="base"
     pagecolor="#ffffff"
     bordercolor="#666666"
     borderopacity="1.0"
     inkscape:pageopacity="0.0"
     inkscape:pageshadow="2"
     inkscape:zoom="1.3774318"
     inkscape:cx="198.19493"
     inkscape:cy="198.19493"
     inkscape:document-units="px"
     inkscape:current-layer="layer1"
     inkscape:window-width="1024"
     inkscape:window-height="742"
     inkscape:window-x="-4"
     inkscape:window-y="-4" />
  <metadata
     id="metadata3683">
    <rdf:RDF>
      <cc:Work
         rdf:about="">
        <dc:format>image/svg+xml</dc:format>
        <dc:type
           rdf:resource="http://purl.org/dc/dcmitype/StillImage" />
      </cc:Work>
    </rdf:RDF>
  </metadata>
  <g
     inkscape:label="Calque 1"
     inkscape:groupmode="layer"
     id="layer1"
     transform="translate(-204.31808,-68.590798)"
     sodipodi:insensitive="true">
    <g
       style="display:inline"
       id="g3672"
       transform="matrix(0.7915125,0,0,0.7915125,165.05926,-26.073906)">
      <path
         id="path2990"
         d="M 300.78345,121.8803 L 288.16985,341.59982 L 125.13318,193.99719 L 271.63898,358.44407 L 51.880288,369.68663 L 271.87401,381.75181 L 124.34973,545.21937 L 288.0915,398.51771 L 299.88247,618.11971 L 311.63428,398.51771 L 475.33687,545.53275 L 328.28266,381.83015 L 548.1197,370.70512 L 328.16514,358.52242 L 475.92446,195.05486 L 311.71262,342.03072 L 300.78345,121.8803 z "
         style="fill:#fcef3c;fill-opacity:1;fill-rule:evenodd;stroke:#000000;stroke-width:4.56108189;stroke-linecap:butt;stroke-linejoin:round;stroke-miterlimit:4;stroke-dasharray:none;stroke-opacity:1;display:inline" />
      <path
         id="path3656"
         d="M 227.93387,197.05394 C 281.5212,258.4599 214.56954,280.68253 278.24253,348.31576 L 278.16087,348.28194 C 186.14373,343.94125 217.21305,281.03567 126.6062,298.4215 C 207.92728,303.95068 176.29488,367.0065 269.17835,369.79444 L 269.06286,369.84228 C 200.92759,431.83889 178.42277,365.39127 126.64769,441.75363 C 188.05365,388.1663 210.27628,455.11796 277.90951,391.44497 L 277.87569,391.52663 C 273.535,483.54377 210.62943,452.47446 228.01525,543.0813 C 233.54443,461.76022 296.60025,493.39262 299.38819,400.50915 L 299.44799,400.65351 C 361.44461,468.7888 294.98501,491.26474 371.34738,543.03981 C 317.76005,481.63386 384.71171,459.41122 321.03872,391.77799 L 321.16121,391.82872 C 413.17837,396.16942 382.06821,459.05809 472.67505,441.67225 C 391.35397,436.14307 422.98637,373.08725 330.1029,370.29931 L 330.24726,370.23951 C 398.38255,308.24289 420.85848,374.70248 472.63356,298.34012 C 411.2276,351.92745 389.00497,284.97579 321.37174,348.64878 L 321.42247,348.52629 C 325.76317,256.50913 388.65185,287.61929 371.266,197.01245 C 365.73682,278.33353 302.681,246.70113 299.89306,339.5846 L 299.84522,339.46911 C 237.84861,271.33384 304.29624,248.82901 227.93387,197.05394 z "
         style="fill:#fcef3c;fill-opacity:1;fill-rule:evenodd;stroke:#000000;stroke-width:4.56108189;stroke-linecap:butt;stroke-linejoin:round;stroke-miterlimit:4;stroke-dasharray:none;stroke-opacity:1;display:inline" />
      <path
         transform="matrix(0.483338,0,0,0.4965349,159.50157,169.97986)"
         d="M 484.6875 402.83203 A 194.00391 188.84766 0 1 1  96.679688,402.83203 A 194.00391 188.84766 0 1 1  484.6875 402.83203 z"
         sodipodi:ry="188.84766"
         sodipodi:rx="194.00391"
         sodipodi:cy="402.83203"
         sodipodi:cx="290.68359"
         id="path2640"
         style="fill:#fcef3c;fill-opacity:1;fill-rule:evenodd;stroke:#000000;stroke-width:9.31038189;stroke-linecap:butt;stroke-linejoin:miter;stroke-miterlimit:4;stroke-dasharray:none;stroke-opacity:1;display:inline"
         sodipodi:type="arc" />
    </g>
  </g>
</svg>
