<svg width="342" height="159" viewBox="0 0 342 159" fill="none" xmlns="http://www.w3.org/2000/svg">
<g id="SpaceTrevLogo">
<g id="rocket-ship" clip-path="url(#clip0)">
<path id="Vector" d="M226.671 84.7051C227.458 84.0827 228.605 84.2272 229.217 85.0275C229.829 85.8277 229.687 86.9947 228.9 87.6171L220.693 94.0967L220.628 102.632L230.518 102.066L235.982 93.2298C236.517 92.374 237.632 92.1073 238.473 92.6519C239.315 93.1965 239.577 94.3301 239.042 95.1859L233.108 104.778C232.813 105.289 232.277 105.656 231.643 105.689L218.901 106.411H218.792C217.797 106.411 216.989 105.578 216.989 104.566L217.076 93.3187C217.032 92.7297 217.273 92.1184 217.775 91.7294L226.671 84.7051ZM242.233 64.2993C246.364 51.7513 251.926 42.8598 259.751 37.2582C267.881 31.4455 278.318 29.2337 292 30.2451C292.94 30.3118 293.672 31.1009 293.683 32.0456C295.005 47.1055 292.131 57.7974 286 65.8887C280.11 73.6687 271.258 78.9368 260.275 83.3492V98.0534C260.275 98.7758 259.871 99.3982 259.27 99.6983L248.09 106.723C247.238 107.256 246.123 106.989 245.599 106.122C245.457 105.889 245.38 105.644 245.347 105.4C242.878 86.1611 240.244 85.2386 224.77 79.7926C222.923 79.1369 220.923 78.4367 219.579 77.9477C218.639 77.6142 218.136 76.5584 218.475 75.6025C218.551 75.3914 218.65 75.2135 218.781 75.0468L226.146 64.366C226.518 63.8325 227.119 63.5546 227.709 63.588L242.222 64.3104L242.233 64.2993ZM270.056 46.3942C272.165 46.3942 274.067 47.2611 275.444 48.6615C276.82 50.0619 277.673 51.9958 277.673 54.1408C277.673 56.2748 276.82 58.2198 275.444 59.6202C274.067 61.0206 272.165 61.8875 270.056 61.8875C267.947 61.8875 266.045 61.0206 264.668 59.6202C263.291 58.2198 262.439 56.2859 262.439 54.1408C262.439 51.9958 263.291 50.0619 264.668 48.6615C266.045 47.2611 267.947 46.3942 270.056 46.3942ZM273.684 50.4509C272.755 49.5062 271.466 48.9171 270.056 48.9171C268.635 48.9171 267.357 49.5062 266.428 50.4509C265.499 51.3956 264.92 52.7071 264.92 54.1408C264.92 55.5857 265.499 56.8861 266.428 57.8308C267.357 58.7755 268.646 59.3646 270.056 59.3646C271.477 59.3646 272.755 58.7755 273.684 57.8308C274.613 56.8861 275.192 55.5746 275.192 54.1408C275.192 52.696 274.613 51.3956 273.684 50.4509ZM261.827 40.2702C254.429 45.5717 249.183 54.252 245.26 66.6778C245.052 67.5002 244.298 68.0893 243.424 68.0448L228.529 67.3113L223.021 75.2913C224.179 75.7026 225.086 76.0249 225.939 76.325C242.429 82.1266 245.861 83.327 248.538 102.121L256.625 97.042V82.1044H256.636C256.636 81.3709 257.073 80.6707 257.795 80.3928C268.734 76.1138 277.476 71.0901 283.115 63.6436C288.492 56.5415 291.104 47.1055 290.175 33.8239C278.121 33.146 268.919 35.191 261.816 40.2813L261.827 40.2702Z" fill="#361D7C"/>
</g>
<g id="TBDev">
<text fill="#361D7C" xml:space="preserve" style="white-space: pre" font-family="Share Tech Mono" font-size="36" letter-spacing="0em"><tspan x="161.648" y="106.648">ev</tspan></text>
<text fill="#361D7C" xml:space="preserve" style="white-space: pre" font-family="Share Tech Mono" font-size="72" letter-spacing="0em"><tspan x="45" y="106.648">TBD</tspan></text>
</g>
</g>
<defs>
<clipPath id="clip0">
<rect width="77" height="77" fill="white" transform="translate(217 30)"/>
</clipPath>
</defs>
</svg>
