<svg width="342" height="159" viewBox="0 0 342 159" fill="none" xmlns="http://www.w3.org/2000/svg">
<g id="SpaceTrevLogo">
<g id="rocket-ship" clip-path="url(#clip0)">
<path id="Vector" d="M226.671 84.7051C227.458 84.0827 228.605 84.2272 229.217 85.0275C229.829 85.8277 229.687 86.9947 228.9 87.6171L220.693 94.0967L220.628 102.632L230.518 102.066L235.982 93.2298C236.517 92.374 237.632 92.1073 238.473 92.6519C239.315 93.1965 239.577 94.3301 239.042 95.1859L233.108 104.778C232.813 105.289 232.277 105.656 231.643 105.689L218.901 106.411H218.792C217.797 106.411 216.989 105.578 216.989 104.566L217.076 93.3187C217.032 92.7297 217.273 92.1184 217.775 91.7294L226.671 84.7051ZM242.233 64.2993C246.364 51.7513 251.926 42.8598 259.751 37.2582C267.881 31.4455 278.318 29.2337 292 30.2451C292.94 30.3118 293.672 31.1009 293.683 32.0456C295.005 47.1055 292.131 57.7974 286 65.8886C280.11 73.6687 271.258 78.9368 260.275 83.3492V98.0534C260.275 98.7758 259.871 99.3982 259.27 99.6983L248.09 106.723C247.238 107.256 246.123 106.989 245.599 106.122C245.457 105.889 245.38 105.644 245.347 105.4C242.878 86.1611 240.244 85.2386 224.77 79.7926C222.923 79.1369 220.923 78.4367 219.579 77.9477C218.639 77.6142 218.136 76.5584 218.475 75.6025C218.551 75.3914 218.65 75.2135 218.781 75.0468L226.146 64.366C226.518 63.8325 227.119 63.5546 227.709 63.588L242.222 64.3104L242.233 64.2993ZM270.056 46.3942C272.165 46.3942 274.067 47.2611 275.444 48.6615C276.82 50.0619 277.673 51.9958 277.673 54.1408C277.673 56.2748 276.82 58.2198 275.444 59.6202C274.067 61.0206 272.165 61.8875 270.056 61.8875C267.947 61.8875 266.045 61.0206 264.668 59.6202C263.291 58.2198 262.439 56.2859 262.439 54.1408C262.439 51.9958 263.291 50.0619 264.668 48.6615C266.045 47.2611 267.947 46.3942 270.056 46.3942ZM273.684 50.4509C272.755 49.5062 271.466 48.9171 270.056 48.9171C268.635 48.9171 267.357 49.5062 266.428 50.4509C265.499 51.3956 264.92 52.7071 264.92 54.1408C264.92 55.5857 265.499 56.8861 266.428 57.8308C267.357 58.7755 268.646 59.3646 270.056 59.3646C271.477 59.3646 272.755 58.7755 273.684 57.8308C274.613 56.8861 275.192 55.5746 275.192 54.1408C275.192 52.696 274.613 51.3956 273.684 50.4509ZM261.827 40.2702C254.429 45.5717 249.183 54.252 245.26 66.6778C245.052 67.5002 244.298 68.0893 243.424 68.0448L228.529 67.3113L223.021 75.2913C224.179 75.7026 225.086 76.0249 225.939 76.325C242.429 82.1266 245.861 83.327 248.538 102.121L256.625 97.042V82.1044H256.636C256.636 81.3709 257.073 80.6707 257.795 80.3928C268.734 76.1138 277.476 71.0901 283.115 63.6436C288.492 56.5415 291.104 47.1055 290.175 33.8239C278.121 33.146 268.919 35.191 261.816 40.2813L261.827 40.2702Z" fill="white"/>
</g>
<path id="TBDev" d="M61.272 107V62.072H49.824V56.6H78.984V62.072H67.536V107H61.272ZM116.643 95.624C116.643 99.752 115.683 102.68 113.763 104.408C111.891 106.136 108.771 107 104.403 107H90.0028V56.6H103.539C107.811 56.6 110.931 57.464 112.899 59.192C114.915 60.92 115.923 63.8 115.923 67.832V71.936C115.923 75.632 114.603 78.416 111.963 80.288C115.083 82.016 116.643 84.968 116.643 89.144V95.624ZM109.659 67.184C109.659 65.36 109.227 64.04 108.363 63.224C107.547 62.408 106.227 62 104.403 62H96.2668V77.912H104.403C105.891 77.912 107.139 77.432 108.147 76.472C109.155 75.512 109.659 74.24 109.659 72.656V67.184ZM110.379 88.496C110.379 86.912 109.899 85.664 108.939 84.752C107.979 83.792 106.707 83.312 105.123 83.312H96.2668V101.6H105.051C106.875 101.6 108.219 101.192 109.083 100.376C109.947 99.512 110.379 98.168 110.379 96.344V88.496ZM155.742 95.624C155.742 99.752 154.782 102.68 152.862 104.408C150.99 106.136 147.87 107 143.502 107H128.67V56.6H142.638C146.958 56.6 150.222 57.488 152.43 59.264C154.638 60.992 155.742 63.848 155.742 67.832V95.624ZM149.478 67.184C149.478 65.6 148.998 64.352 148.038 63.44C147.078 62.48 145.806 62 144.222 62H134.934V101.6H144.15C145.974 101.6 147.318 101.192 148.182 100.376C149.046 99.512 149.478 98.168 149.478 96.344V67.184ZM171.152 107C169.04 107 167.492 106.556 166.508 105.668C165.524 104.756 165.032 103.28 165.032 101.24V94.76C165.032 92.696 165.476 91.22 166.364 90.332C167.252 89.444 168.728 89 170.792 89H172.484C174.188 89 175.472 89.48 176.336 90.44C177.224 91.376 177.668 92.756 177.668 94.58V99.26H168.092V101.96C168.092 102.704 168.32 103.28 168.776 103.688C169.232 104.096 169.904 104.3 170.792 104.3H176.516V107H171.152ZM174.68 93.86C174.68 93.236 174.476 92.72 174.068 92.312C173.66 91.904 173.144 91.7 172.52 91.7H170.432C169.568 91.7 168.956 91.904 168.596 92.312C168.26 92.696 168.092 93.272 168.092 94.04V96.56H174.68V93.86ZM183.394 89H186.706L190.918 104.516L195.022 89H198.226L193.042 107H188.614L183.394 89Z" fill="white"/>
</g>
<defs>
<clipPath id="clip0">
<rect width="77" height="77" fill="white" transform="translate(217 30)"/>
</clipPath>
</defs>
</svg>
