<svg width="22" height="10" viewBox="0 0 22 10" xmlns="http://www.w3.org/2000/svg">
<g id="TBDLogoMini">
<rect id="Rectangle 1" width="22" height="10" fill="black"/>
<path id="TBDev" d="M3.034 8V2.384H1.603V1.7H5.248V2.384H3.817V8H3.034ZM9.95535 6.578C9.95535 7.094 9.83535 7.46 9.59535 7.676C9.36135 7.892 8.97135 8 8.42535 8H6.62535V1.7H8.31735C8.85135 1.7 9.24135 1.808 9.48735 2.024C9.73935 2.24 9.86535 2.6 9.86535 3.104V3.617C9.86535 4.079 9.70035 4.427 9.37035 4.661C9.76035 4.877 9.95535 5.246 9.95535 5.768V6.578ZM9.08235 3.023C9.08235 2.795 9.02835 2.63 8.92035 2.528C8.81835 2.426 8.65335 2.375 8.42535 2.375H7.40835V4.364H8.42535C8.61135 4.364 8.76735 4.304 8.89335 4.184C9.01935 4.064 9.08235 3.905 9.08235 3.707V3.023ZM9.17235 5.687C9.17235 5.489 9.11235 5.333 8.99235 5.219C8.87235 5.099 8.71335 5.039 8.51535 5.039H7.40835V7.325H8.50635C8.73435 7.325 8.90235 7.274 9.01035 7.172C9.11835 7.064 9.17235 6.896 9.17235 6.668V5.687ZM14.8427 6.578C14.8427 7.094 14.7227 7.46 14.4827 7.676C14.2487 7.892 13.8587 8 13.3127 8H11.4587V1.7H13.2047C13.7447 1.7 14.1527 1.811 14.4287 2.033C14.7047 2.249 14.8427 2.606 14.8427 3.104V6.578ZM14.0597 3.023C14.0597 2.825 13.9997 2.669 13.8797 2.555C13.7597 2.435 13.6007 2.375 13.4027 2.375H12.2417V7.325H13.3937C13.6217 7.325 13.7897 7.274 13.8977 7.172C14.0057 7.064 14.0597 6.896 14.0597 6.668V3.023ZM16.6371 8C16.4024 8 16.2304 7.95067 16.1211 7.852C16.0117 7.75067 15.9571 7.58667 15.9571 7.36V6.64C15.9571 6.41067 16.0064 6.24667 16.1051 6.148C16.2037 6.04933 16.3677 6 16.5971 6H16.7851C16.9744 6 17.1171 6.05333 17.2131 6.16C17.3117 6.264 17.3611 6.41733 17.3611 6.62V7.14H16.2971V7.44C16.2971 7.52267 16.3224 7.58667 16.3731 7.632C16.4237 7.67733 16.4984 7.7 16.5971 7.7H17.2331V8H16.6371ZM17.0291 6.54C17.0291 6.47067 17.0064 6.41333 16.9611 6.368C16.9157 6.32267 16.8584 6.3 16.7891 6.3H16.5571C16.4611 6.3 16.3931 6.32267 16.3531 6.368C16.3157 6.41067 16.2971 6.47467 16.2971 6.56V6.84H17.0291V6.54ZM17.9972 6H18.3652L18.8332 7.724L19.2892 6H19.6452L19.0692 8H18.5772L17.9972 6Z" fill="#3EFFB9"/>
</g>
</svg>
