<svg viewBox="0 0 959 593" fill="none" xmlns="http://www.w3.org/2000/svg">
<g id="USA">
<g id="Group">
<path id="HI" d="M67 480.2L68.9 476.6L71.2 476.3L71.5 477.1L69.4 480.2H67ZM77.2 476.5L83.3 479.1L85.4 478.8L87 474.9L86.4 471.5L82.2 471L78.2 472.8L77.2 476.5ZM107.9 486.5L111.6 492L114 491.7L115.1 491.2L116.6 492.5L120.3 492.3L121.3 490.8L118.4 489L116.5 485.3L114.4 481.7L108.6 484.6L107.9 486.5ZM128.1 495.4L129.4 493.5L134.1 494.5L134.7 494L140.8 494.6L140.5 495.9L137.9 497.4L133.5 497.1L128.1 495.4ZM133.4 500.6L135.3 504.5L138.4 503.4L138.7 501.8L137.1 499.7L133.4 499.4V500.6ZM140.4 499.4L142.7 496.5L147.4 498.9L151.8 500L156.2 502.7V504.6L152.6 506.4L147.8 507.4L145.4 505.9L140.4 499.4ZM157 515L158.6 513.7L162 515.3L169.6 518.9L173 521L174.6 523.4L176.5 527.8L180.5 530.4L180.2 531.7L176.3 534.9L172.1 536.4L170.6 535.8L167.5 537.6L165.1 540.8L162.8 543.7L161 543.5L157.4 540.9L157.1 536.4L157.7 534L156.1 528.3L154 526.5L153.8 523.9L156.1 522.9L158.2 519.8L158.7 518.8L157.1 517L157 515Z" fill="#D3D3D3"/>
<path id="AL" d="M628.5 466.4L629.1 466.6L630.4 463.9L631.9 459.5L634.2 460.1L637.3 466.1V467.1L634.6 469L637.3 469.3L642.5 466.8L642.2 459.2L639.7 457.4L637.7 455.4L638.1 451.4L648.6 449.9L674.3 447L681 446.4L686.6 446.5L686.1 444.3L684.6 443.5L683.7 442.4L684.7 439.8L684.3 434.6L682.7 430.1L683.5 425L685.2 420.2L685 418.5L683.2 417.8L682.7 414.2L680 410.8L678 404.3L676.6 397.6L674.8 392.6L671 376.6L667.5 368.7L666.7 363.1L666.8 360.9L657.8 361.7L634.4 363.9L622.2 364.7L622 371.1L622.2 387.8L621.5 418.8L621.2 432.9L624 451.7L625.6 466.4H628.5Z" fill="#D3D3D3"/>
<path id="AR" d="M587.3 346.1L580.9 345.4L581.8 342.3L584.9 339.7L585.5 337.4L583.7 334.5L551.8 335.7L528.5 336.4L504.9 336.7L506.4 343.6L506.5 352.1L507.9 363L508.2 401.2L510.3 402.8L513.3 401.6L516.2 402.8L516.6 412.9L541.8 412.7L568.6 411.9L569.5 410L569.2 406.2L567.5 403.1L569 401.7L567.6 399.5L568.3 397.1L569.4 391.2L572.1 388.9L571.3 386.7L575.3 381.1L577.8 380L577.7 378.3L577.2 376.6L580.1 370.8L582.6 369.7L582.8 366.4L584.9 365L585.8 360.9L584.4 356.9L588.6 354.5L588.9 352.4L590.1 348.2L591 345.1L587.3 346.1Z" fill="#D3D3D3"/>
<path id="AZ" d="M135.1 389.7L134.8 391.2L135.3 392.2L154.2 402.9L166.3 410.5L181 419.1L197.8 429.1L210.1 431.5L235.5 434.2L241.5 394.6L248.5 341.5L252.9 310.5L228.3 306.9L167.6 295.9L167.4 297L164.8 313.5L162.7 317.3L159.9 317.1L158.7 314.5L156.1 314.1L154.9 313L153.8 313.1L151.7 314.8L151.4 321.6L151.1 323.1L150.6 335.6L149.1 338L148.7 341.3L151.5 346.3L152.6 351.8L153.3 352.9L154.4 353.8L154 356.2L152.3 357.4L148.9 359L147.3 360.8L145.7 364.4L145.2 369.3L142.2 372.2L140.3 373.1L140.2 378.9L139.6 380.5L140.1 381.3L144 381.7L143.1 384.7L141.4 387.1L137.7 387.5L135.1 389.7Z" fill="#D3D3D3"/>
<path id="CA" d="M122.7 385.9L103 383.2L93 381.7L92.5 379.9V370.5L92.2 367.3L89.6 363.1L88.8 360.8L84.9 356.6L82 351.9L79.3 351.7L76.1 350.9L75.8 349.9L77.3 349.3L76.7 346.1L75.2 344L70.4 343.2L66.5 341.1L65.4 338.8L62.8 334L59.9 330.9H57L53.1 328.8L48.6 327L44.4 326.5L42 323.8L42.5 321.9L44.3 314.8L45.1 312.9V310.5L43.5 309.5L43 306.6L41.5 304L38.1 298.2L36.8 295.1L35.3 290.4L33.7 285.1L30.5 280.7L30 277.8L30.8 273.9H31.9L34 272.3L35.1 268.7L34.1 266L31.4 265.5L29.5 262.9L27.4 259.2L27.2 251L27.8 249.1L28.4 246.8L28.9 244.4L23.2 238.1V236L23.5 235.5L23.8 232.3L22.5 228.3L20.2 223.5L17.5 219L15.7 215.1L16.7 211.4L17.3 205.6L19.1 202.5L19.4 196L18.3 192.4L16.7 188.2L14 184L14.8 180.8L16.3 176.6L18.1 175.8L18.4 174.7L21.5 172.1L26.7 160.3L26.9 152.9L28.59 148L67.28 159.8L92.88 166.4L84.88 197.7L76.21 230.8L88.84 250L131 312.3L148.1 338.4L147.7 341.5L150.5 346.7L151.6 352.1L152.6 353.6L153.3 354.2L153.1 355.6L151.7 356.6L148.3 358.2L146.4 360.3L144.7 364.2L144.2 368.9L141.6 371.4L139.3 372.5L139.2 378.7L138.6 380.6L139.6 382.3L142.6 382.6L142.2 384.2L140.8 386.2L136.9 386.8L122.7 385.9ZM48.8 337L50.1 338.5L49.9 339.8L46.7 339.7L46.1 338.5L45.5 337H48.8ZM50.7 337L51.9 336.4L55.5 338.5L58.6 339.7L57.7 340.3L53.2 340.1L51.6 338.5L50.7 337ZM71.4 356.8L73.2 359.1L74 360.1L75.5 360.7L76.1 359.2L75.1 357.4L72.4 355.4L71.3 355.6V356.8H71.4ZM70 365.5L71.8 368.7L73 370.6L71.5 370.8L70.2 369.6C70.2 369.6 69.5 368.1 69.5 367.7V365.5H70Z" fill="#D3D3D3"/>
<path id="CO" d="M380.2 235.5L344.2 232L265.1 223.4L262.9 245.5L255.9 295.9L254 309.6L288 313.5L325.5 317.9L360.2 320.9L374.5 321.5L380.2 235.5Z" fill="#D3D3D3"/>
<path id="CT" d="M852 190.9L855.6 187.7L857.5 185.6L858.3 186.2L861 184.7L866.2 183.6L873.2 180.1L872.6 175.9L871.8 171.5L870.2 165.5L865.9 166.6L844.1 171.3L844.7 174.4L846.2 181.7V190L845.3 192.1L847 194.3L852 190.9Z" fill="#D3D3D3"/>
<path id="DE" d="M834.4 247.2L833.4 247.7L829.8 245.3L828 240.6L826.1 237L823.8 236L821.7 232.4L822.2 230.4L822.7 228.1L822.8 227L822.2 227.1L820.5 228.1L818.5 229.8L818.3 230.1L819.7 234.2L822 239.8L825.7 255.9L830.7 255.6L836.7 254.5L834.4 247.2Z" fill="#D3D3D3"/>
<path id="FL" d="M750.2 445.2L745 444.5L744.3 445.3L745.8 449.7L745.4 454.9L741.3 453.9L741.1 451.1H737L731.7 451.8L699.3 453.7L691.1 453.4L689.4 451.7L686.9 447.5H681L674.4 448L639 452.2L638.7 455L640.3 456.6L643.2 458.6L643.5 467L646.8 466.4L652.8 464.3L658.8 463.8L663.2 463.2L670.8 465L678.9 468.9L680.5 470.4L683.4 471.5L685 473.4L685.3 476.1L688.5 474.8H692.4L696 472.9L699.7 469.3L702.8 469.5L703.3 468.4L702.5 467.4L702.7 465.5L706.7 464.7H709.3L712.2 466.2L716.4 467.7L718.8 471.4L721.5 472.4L722.6 475.8L726 477.4L727.6 480L729.5 480.6L734.7 481.9L736 485L739 488.7V498.2L737.5 502.9L737.8 505.6L739.1 510.4L740.9 514.4L741.7 513.9L743.2 509.4L740.6 508.4L740.3 507.8L741.9 507.2L746.4 508.2L746.6 509.8L743.4 515.3L741.3 517.7L744.9 521.4L747.5 524.5L750.4 529.8L753.3 533.7L755.4 538.7L757.2 539L758.8 536.9L760.6 538L763.2 542L763.8 545.6L766.9 550L767.7 548.7L771.6 549L775.2 551.3L778.6 556.5L779.4 559.9L779.7 562.8L780.8 563.8L782.1 564.3L784.5 563.3L786 561.7L789.9 561.5L793 560L795.7 556.8L795.2 554.9L794.9 552.5L795.5 550.6L795.2 548.7L797.6 547.4L797.9 544L797.3 542.2L796.8 530.2L795.5 522.6L791 514.4L787.4 508.6L784.8 503.3L781.9 500.4L779 493L779.7 491.6L780.8 490.3L779.2 487.4L775.2 483.7L770.4 478.2L766.7 471.9L761.4 462.5L757.7 452.8L755.4 445.5L750.2 445.2ZM767.9 577.9L770.3 577.3L771.6 577.1L773.1 574.8L775.4 573.2L776.7 573.7L778.4 574L778.8 575.1L775.3 576.3L771.1 577.8L768.8 579L767.9 577.9ZM781.4 572.9L782.6 574L785.3 571.9L790.6 567.7L794.3 563.8L796.8 557.2L797.8 555.5L798 552.1L797.3 552.6L796.3 555.4L794.8 560L791.6 565.3L787.2 569.5L783.8 571.4L781.4 572.9Z" fill="#D3D3D3"/>
<path id="GA" d="M750.2 444.2L744.6 443.5L743.2 445.1L744.8 449.8L744.5 453.7L742.3 453.1L742.1 450.1H736.9L731.6 450.8L699.3 452.7L691.6 452.4L690.2 451.2L687.7 446.9L686.9 443.6L685.3 442.7L684.8 442.2L685.7 440L685.3 434.5L683.7 430L684.5 425.1L686.2 420.3L686 417.8L684.1 417.1L683.7 413.9L680.9 410.4L679 404.2L677.5 397.2L675.8 392.4L672 376.4L668.5 368.4L667.7 363.1L667.8 360.8L671.1 360.5L684.7 358.9L703.3 356.9L709.6 355.8L710.1 357.2L707.9 358.1L707 360.3L707.4 362.3L708.8 363.9L713.1 366.6L716.3 366.5L719.5 371.2L720.1 372.8L722.4 375.6L722.9 377.3L727.6 379.1L730.6 381.3L732.9 384.3L735.2 385.6L737.2 387.4L738.6 390.1L740.7 392L744.8 393.8L747.5 399.8L749.2 404.9L752 405.6L754.1 407.5L756.1 413.2L759 414.8L760.7 414L761.1 415.2L757.8 421.4L758.3 424L756.8 428.2L754.5 438.2L755.3 444.5L750.2 444.2Z" fill="#D3D3D3"/>
<path id="IA" d="M556.8 183.6L558.9 185.7L559.2 186.4L557.2 189.4L557.5 193.4L560.1 197.5L563.2 199.1L565.6 199.4L566.5 201.2L566.7 203.6L569.2 204.6L570.1 205.7L570.6 207.3L574.4 210.6L575 212.5L574.3 215.5L572.6 219.2L572 221.6L569.9 223.2L568.3 223.7L562.6 225.2L561 230L561.8 231.8L563.5 233.3L563.3 236.8L561.4 238.2L560.7 240V242.4L559.3 242.8L557.6 244.2L557.1 245.9L557.5 247.6L556.2 248.6L553.9 245.9L552.5 243.1L544.2 243.9L534.2 244.5L485 245.7L483.4 241.4L483 234.7L481.6 230.5L480.9 225.3L478.7 221.6L477.7 217L475 209.2L473.9 203.6L472.5 201.7L471.2 198.8L472.9 195L474.1 188.9L471.4 186.7L471.1 184.3L471.8 181.9L473.6 181.6L534.7 181L555.9 180.3L556.8 183.6Z" fill="#D3D3D3"/>
<path id="ID" d="M175.3 27.63L170.5 45.04L166 65.9L162.6 82.12L162.2 91.79L163.4 96.23L166.9 98.89L166.7 102.8L162.8 107.2L158.3 113.8L157.4 116.7L156.2 117.8L154.4 118.6L150.1 123.9L149.7 127L149.3 128.1L149.9 129.1L152.5 129L153.6 131.3L151.2 137.1L150 141.3L141.2 176.6L161.9 181.1L201.4 189L236.2 195.1L241.1 165.9L244.9 141.8L242.2 139.4L241.8 136.8L241 135.7L238.9 136.7L238.2 139.3L235 139.8L231.1 138.2L227.3 138.3L224.8 139L221.4 137.5L219 137.7L216.6 139.7L214.6 138.6L213.9 134.6L214.6 131.7L212.1 128.8L208.8 126.2L206.1 113.1L206 108.4L205.7 108.3L205.5 108.7L200.4 112.2L198.7 112L195.8 108.6L195.6 105.5L202.6 88.37L202.2 86.43L198.8 85.28L198.2 84.1L195.6 80.64L191 70.41L187.8 68.88L185.8 63.93L187.1 59.3L183.9 51.72L188.3 30.2L175.3 27.63Z" fill="#D3D3D3"/>
<path id="IL" d="M618.7 214.3L617.9 211.7L616.6 208L615 206.2L613.5 203.6L613.1 198.1L597.2 199.9L579.8 200.9H567.5L567.7 203L569.9 203.9L571 205.3L571.4 206.7L575.3 210.1L576 212.5L575.3 215.8L573.6 219.5L572.8 222.2L570.4 224.1L568.5 224.7L563.3 226L562 230.1L562.6 231.2L564.5 233L564.3 237.3L562.2 238.9L561.7 240.2V243L559.9 243.6L558.5 244.8L558.1 246L558.5 248L556.9 249.3L556 252.1L556.3 256L558.6 263L565.6 270.6L571.3 274.3V278.7L572 279.9L578.6 280.5L581.3 281.9L580.6 285.4L578.4 291.6L577.6 294.6L579.6 298.3L586 303.6L590.8 304.4L593 309.5L595 312.9L594.1 315.7L595.6 319.5L597.3 321.6L598.9 321.3L599.9 319.1L602.3 317.4L605.1 316.4L611.2 318.9L611.7 318.7V317.6L610.5 314.9L610.9 312.1L613.3 310.5L616.7 309.3L616.2 308L615.4 306L616.6 304.7L617.6 302V298L618 293.1L620.5 290.1L622.3 286.3L624.8 282.3L624.3 277L622.5 273.8L622.2 270.5L623 265.2L622.3 258L621.2 242.2L619.8 226.9L618.9 215.2L618.7 214.3Z" fill="#D3D3D3"/>
<path id="IN" d="M622.9 216.1L624.4 217.1L625.5 216.8L627.6 214.9L630.1 213.1L644.4 212L662.8 210.2L664.4 225.7L669.3 268.3L668.7 271.2L670 272.8L670.2 274.1L667.9 275.7L664.3 277.4L661.1 277.8L660.6 282.6L655.9 286.2L653 290.2L653.2 292.6L652.7 294H649.2L647.8 292.3L642.6 295.3L642.8 298.4L641.9 298.6L641.4 297.7L639 296L635.4 297.5L634 300.4L632.8 299.8L631.2 298L626.8 298.5L621.1 299.5L618.6 300.8V298.2L619 293.5L621.3 290.6L623.1 286.7L625.8 282.5L625.3 276.7L623.5 273.6L623.2 270.4L624 265.1L623.3 258L622.4 245.4L619.9 215.3L622.9 216.1Z" fill="#D3D3D3"/>
<path id="KS" d="M485.9 259.5L442.1 258.9L401.5 257.7L379.8 256.8L375.5 321.6L399.8 322.6L444.5 324.7L490.8 325.3L503.4 325L504.1 290L502.9 278.9L500.4 276.9L498 273.9L495.7 270.3L496.3 267.3L498 265.9V263.8L497.2 263.1L494.6 262.9L491.1 259.5H485.9Z" fill="#D3D3D3"/>
<path id="KY" d="M607.2 331.8L619.8 331.1L619.9 327H624.2L654.6 323.8L699.7 319.5L705.3 315.9L709.2 313.8L709.3 311.9L715.3 304.1L719.4 300.5L721.5 298.1L718.2 296.1L715.7 293.4L712.7 289.6L712.2 287.4L709.6 286L708.7 284.1L708.5 278L705.9 276L704 274.9L703.5 272.6L702.2 272.8L700.2 274L697.7 276.7L695.8 275L693.3 274.5L690.9 275.9H688.6L686.8 273.9L681.2 273.8L679.4 269.3L676.5 267.8L674.4 268.6L670.2 268.8L669.7 270.9L670.9 272.4L671.2 274.5L668.4 276.5L664.6 278.3L662 278.7L661.5 283.2L656.6 286.8L654 290.5L654.2 292.7L653.3 295L648.8 294.9L647.5 293.6L643.6 295.8L643.8 299.1L641.4 299.7L640.6 298.3L638.9 297.1L636.2 298.2L634.4 301.7L632.2 300.7L630.8 299.1L627.1 299.5L621.5 300.5L618.7 301.8L617.5 305.2L616.5 306.2L618 309.9L613.8 311.3L611.9 312.7L611.5 314.9L612.7 317.3V319.5L611.1 319.9L605 317.4L602.7 318.3L600.7 319.7L599.9 321.5L601.6 323.9L600.7 325.7L600.6 329L598.2 330.3L596.1 332L607.2 331.8Z" fill="#D3D3D3"/>
<path id="LA" d="M526.9 485.9L535 485.6L545.3 489.2L551.8 490.3L555.5 488.8L558.7 489.9L561.9 490.9L562.7 488.8L559.5 487.7L556.9 488.2L554.2 486.6L555 485.1L558.1 484.1L559.9 485.6L561.7 484.6L564.9 485.2L566.4 487.6L566.7 489.9L571.2 490.2L573 492L572.2 493.6L570.9 494.4L572.5 496L580.9 499.6L584.5 498.3L585.5 495.9L588.1 495.3L589.9 493.8L591.2 494.8L592 497.7L589.7 498.5L590.3 499.1L593.7 497.8L596 494.4L596.8 493.9L594.7 493.6L595.5 492L595.3 490.5L597.4 490L598.5 488.7L599.1 489.5L599.7 492.6L603.9 493.2L607.9 495.1L608.9 496.6H611.8L612.9 497.6L615.2 494.5V493H613.9L610.5 490.3L604.7 489.5L601.5 487.2L602.6 484.5L604.9 484.8L605.1 484.2L603.3 483.2V482.7H606.5L608.3 479.6L607 477.7L606.7 475L605.2 475.2L603.3 477.3L602.7 479.9L599.6 479.3L598.6 477.5L600.4 475.6L602.3 473.9L600.1 467.4L596.7 464L597.7 456.7L597.5 456.2L596.2 456.4L563.1 457.8L562.3 455.4L563.1 446.9L571.7 432.1L570.8 429.5L572.2 429.1L572.6 427.1L570.4 425.1L570.5 423.2L568.5 418.7L568.1 413.6L568.2 412.9L541.8 413.7L516.6 413.8L517 423.5L517.7 433L518.2 436.7L520.8 441.2L521.7 445.6L526 451.6L526.3 454.7L526.9 455.5L526.2 463.8L523.4 468.4L524.6 470.8L524.1 473.4L523.3 480.7L522 483.7L522.2 487.4L526.9 485.9Z" fill="#D3D3D3"/>
<path id="MA" d="M887.5 172.5L887 170.2L887.8 168.7L890.7 167.2L891.5 170.3L891 172.1L888.6 173.6V174.6L890.5 173.1L894.4 168.6L898.3 166.7L902.5 165.2L902.2 162.8L901.2 159.9L899.3 157.5L897.5 156.7L895.4 156.9L894.9 157.4L895.9 158.7L897.4 157.9L899.5 159.5L900.3 162.2L898.5 164L896.2 165L892.6 164.5L888.7 158.5L886.4 155.9H884.6L883.5 156.7L881.6 154.1L881.9 152.6L884.3 147.4L881.4 143L877.7 144.8L875.9 147.7L857.6 152.4L843.8 154.9L843.2 165.5L843.9 170.4L865.9 165.6L877.1 162.8L879.1 164.4L882.5 168.7L885.4 173.4L887.5 172.5ZM900 173.9L902.2 173.2L902.7 171.5L903.7 171.6L904.7 173.9L903.4 174.4L899.5 174.5L900 173.9ZM890.6 174.7L892.9 172.1H894.5L896.3 173.6L893.9 174.6L891.7 175.6L890.6 174.7Z" fill="#D3D3D3"/>
<path id="MD" d="M834.8 264.1L836.5 260.3L837 255.5L830.7 256.6L824.9 256.9L821.1 240.1L818.8 234.6L817.3 230L795.1 234.3L757.5 241.9L759.5 252.3L764.3 247.4L766.8 246.7L768.2 245.2L770 242.5L771.6 243.2L774.2 243L776.8 240.9L778.8 239.4L780.9 238.8L782.4 239.9L785.1 241.3L787 243.1L788.3 244.5L793.1 246.1L792.5 249L798.3 251.1L800.4 248.5L804.1 251L802 254.3L801.3 257.6L799.5 260.2V262.3L799.8 263.1L801.8 264.4L805.2 265.5L809.5 265.4L812.6 266.4L814.7 266.7L815.7 264.6L814.2 262.5V260.7L811.8 258.6L809.7 253.1L811 247.8L810.8 245.7L809.5 244.4C809.5 244.4 811 242.8 811 242.1C811 241.5 811.5 240 811.5 240L813.4 238.7L815.3 237.1L815.8 238.1L814.3 239.7L813 243.4L813.3 244.5L815.1 244.8L815.6 250.3L813.5 251.3L813.8 254.9L814.3 254.7L815.4 252.8L817 254.6L815.4 255.9L815.1 259.3L817.7 262.7L821.6 263.2L823.2 262.4L826.4 266.6L827.4 267L834.8 264.1ZM820.3 264.3L821.4 266.8L821.6 268.6L822.7 270.5C822.7 270.5 823.6 269.6 823.6 269.3C823.6 269 822.9 266.2 822.9 266.2L822.2 263.9L820.3 264.3Z" fill="#D3D3D3"/>
<path id="ME" d="M865.8 91.9L867.3 92.3V89.7L868.1 84.2L870.7 79.5L872.2 75.5L870.3 73.1V67.1L871.1 66.1L871.9 63.4L871.7 61.9L871.5 57.1L873.3 52.3L876.2 43.4L878.3 39.2H879.6L880.9 39.4V40.5L882.2 42.8L884.9 43.4L885.7 42.6V41.6L889.7 38.7L891.5 36.9L893 37.1L899 39.5L900.9 40.5L910 70.4H916L916.8 72.3L917 77.1L919.9 79.4H920.7L920.9 78.9L920.4 77.8L923.2 77.3L925.1 79.4L927.4 83.1V85L925.3 89.7L923.4 90.3L920 93.4L915.2 98.9H913.9C913.3 98.9 912.9 96.8 912.9 96.8L911.1 97L910.1 98.5L907.7 100L906.7 101.5L908.3 103L907.8 103.6L907.3 106.3L905.4 106.1V104.5L905.1 103.2L903.6 103.5L901.8 100.3L899.7 101.6L901 103.1L901.3 104.2L900.5 105.5L900.8 108.6L901 110.2L899.4 112.8L896.5 113.3L896.2 116.2L890.9 119.3L889.6 119.8L888 118.3L884.9 121.9L885.9 125.1L884.4 126.4L884.2 130.8L883.1 137.1L880.9 136.2L880.4 133.1L876.4 132L876.2 129.5L864.5 92.07L865.8 91.9ZM902.3 107.5L903.8 106L905.2 107.1L905.8 109.5L904.1 110.4L902.3 107.5ZM909 101.6L910.8 103.5C910.8 103.5 912.1 103.6 912.1 103.3C912.1 103 912.3 101.3 912.3 101.3L913.2 100.5L912.4 98.7L910.4 99.4L909 101.6Z" fill="#D3D3D3"/>
<path id="MI" d="M644.5 211L663.6 209.1L663.8 210.2L673.7 208.7L685.7 207L685.8 206.4L686 204.9L688.1 201.2L690.1 199.5L689.9 194.4L691.5 192.8L692.6 192.5L692.8 188.9L694.3 185.9L695.4 186.5L695.6 187.1L696.4 187.3L698.3 186.3L697.9 177.2L694.7 169L692.4 159.9L690 156.7L687.4 154.9L685.8 156L681.9 157.8L680 162.8L677.3 166.5L676.2 167.1L674.7 166.5C674.7 166.5 672.1 165 672.3 164.4C672.5 163.8 672.8 159.4 672.8 159.4L676.2 158.1L677 154.7L677.6 152.1L680 150.5L679.7 140.5L678.1 138.2L676.8 137.4L676 135.3L676.8 134.5L678.4 134.8L678.6 133.2L676 131L674.7 128.4H672.1L667.6 126.9L662.1 123.5H659.4L658.8 124.1L657.8 123.6L654.7 121.3L651.8 123.1L648.9 125.4L649.2 129L650.2 129.3L652.3 129.8L652.8 130.6L650.2 131.4L647.6 131.7L646.1 133.5L645.8 135.6L646.1 137.2L646.4 142.7L642.8 144.8L642.2 144.6V140.4L643.5 138L644.1 135.6L643.3 134.8L641.4 135.6L640.4 139.8L637.7 140.9L635.9 142.8L635.7 143.8L636.3 144.6L635.7 147.2L633.4 147.7V148.8L634.2 151.2L633.1 157.3L631.5 161.3L632.1 166L632.6 167.1L631.8 169.5L631.5 170.3L631.2 173L634.8 179L637.7 185.5L639.2 190.3L638.4 195L637.4 201L635 206.2L634.7 208.9L631.5 212L644.5 211ZM611.2 138.6L609.9 137.5L608.1 127.1L604.4 125.8L602.7 123.5L590.1 120.7L587.3 119.6L579.2 117.4L571.4 116.4L567.5 111.1L568.2 110.6L570.9 109.8L574.5 107.5V106.5L575.1 105.9L581.1 104.9L583.5 103L587.9 100.9L588.1 99.6L590 96.7L591.8 95.9L593.1 94.1L595.4 91.8L599.8 89.4L604.5 88.9L605.6 90L605.3 91L601.6 92L600.1 95.1L597.8 95.9L597.3 98.3L594.9 101.5L594.6 104.1L595.4 104.6L596.4 103.5L600 100.6L601.3 101.9H603.6L606.8 102.9L608.3 104L609.8 107.1L612.5 109.8L616.4 109.6L617.9 108.6L619.5 109.9L621.1 110.4L622.4 109.6H623.5L625.1 108.6L629.1 105L632.5 103.9L639.1 103.6L643.6 101.7L646.2 100.4L647.7 100.6V106.3L648.2 106.6L651.1 107.4L653 106.9L659.1 105.3L660.2 104.2L661.7 104.7V111.7L664.9 114.8L666.2 115.4L667.5 116.4L666.2 116.7L665.4 116.4L661.7 115.9L659.6 116.5L657.3 116.3L654.1 117.8H652.3L646.5 116.5L641.3 116.7L639.4 119.3L632.4 119.9L630 120.7L628.9 123.8L627.6 124.9L627.1 124.7L625.6 123.1L621.1 125.5H620.5L619.4 123.9L618.6 124.1L616.7 128.5L615.7 132.5L612.5 139.4L611.2 138.6ZM581.6 82.1L583.4 80L585.6 79.2L591 75.3L593.3 74.7L593.8 75.2L588.7 80.3L585.4 82.2L583.3 83.1L581.6 82.1ZM667.8 114.2L668.4 116.7L671.6 116.9L672.9 115.7C672.9 115.7 672.8 114.2 672.5 114.1C672.2 113.9 670.9 112.2 670.9 112.2L668.7 112.4L667.1 112.6L666.8 113.7L667.8 114.2Z" fill="#D3D3D3"/>
<path id="MN" d="M464.6 66.79L464 70.7V80.97L465.6 86L467.5 89.32L468 99.25L469.8 112.7L471.6 120L472 126.4V131.7L470.4 133.5L468.6 134.8V136.3L469.5 138L473.6 141.5L474.3 144.7V180.6L534.6 180L555.8 179.3L555.3 173.3L553.5 171.2L546.3 166.6L542.7 161.3L539.3 160.4L537.3 157.6H534.1L530.6 153.8L530.1 146.8L530.2 142.9L531.7 139.9L531 137.2L528.2 134.1L530.4 128L535.8 124L537 122.6L536.8 114.6L537 111.6L539.6 108.6L543.4 105.7L544.7 105.5L549.2 100.5L551 99.7L553.3 95.8L555.7 92.2L558.8 89.6L563.6 87.6L572.8 83.5L576.7 81.7L577.3 79.4L572.9 79.8L572.2 80.9H571.6L569.8 77.8L560.9 78.1L559.9 78.9H558.9L558.4 77.6L557.6 75.8L555 76.3L551.8 79.5L550.2 80.3H547.1L544.5 79.3V77.2L543.2 77L542.7 77.5L540.1 76.2L539.6 73.3L538.1 73.8L537.6 74.8L535.2 74.3L529.9 71.9L526 69.3H523.1L521.8 68.3L519.5 68.9L518.4 70L518.1 71.3H513.3V69.2L507 68.9L506.7 67.4H501.9L500.3 65.8L498.8 59.7L498 54.2L496.1 53.4L493.8 52.9L493.2 53.1L492.9 61.3L462.8 61.27L464.6 66.79Z" fill="#D3D3D3"/>
<path id="MO" d="M593.1 338.7L593.6 332.8L597.8 329.4L599.7 328.4V325.5L600.4 323.9L599.3 322.3L596.9 322.6L594.8 320.1L593.1 315.6L594 313L592 309.8L590.2 305.2L585.6 304.5L578.8 298.9L576.6 294.7L577.4 291.4L579.6 285.4L580.2 282.4L578.3 281.4L571.4 280.8L570.3 278.9V274.8L565 271.3L557.8 263.5L555.5 256.2L555 252L555.7 249.6L553.1 246.5L551.9 244.1L544.2 244.9L534.2 245.5L485.4 246.7L486.7 249.3L486.6 251.5L488.9 255.1L491.9 259L495 262L497.6 262.2L499 263.3V266.2L497.2 267.8L496.7 270.1L498.8 273.3L501.2 276.3L503.8 278.4L505.1 290L504.3 330L504.8 335.7L528.5 335.5L551.8 334.8L584.3 333.5L586.5 337.2L585.7 340.3L582.6 342.8L582.1 344.6L587.3 345.1L591.4 344L593.1 338.7Z" fill="#D3D3D3"/>
<path id="MS" d="M604.3 472.5L606.9 468.3L608.7 469.1L615.5 467.2L617.6 467.5L619.1 468.3H624.3L624.7 466.7L623 451.9L620.2 432.9L621.2 387.8L621 371.1L621.2 364.8L616.4 365.1L596.8 366.7L583.8 367.1L583.6 370.3L580.8 371.6L578.2 376.7L578.7 378.3L578.8 380.7L575.9 381.8L572.4 386.9L573.2 389.2L570.2 391.7L569.2 397.4L568.6 399.3L570.2 401.8L568.7 403.2L570.2 406L570.5 410.2L569.3 412.7L569.1 413.6L569.5 418.6L571.5 423.1L571.4 424.8L573.7 426.8L573 429.9L572.1 430.2L572.7 432.1L564.1 447.1L563.3 455.3L563.8 456.8L588 456.1L596.2 455.4L598.1 455.1L598.7 456.5L597.7 463.6L601 466.9L603.2 473.3L604.3 472.5Z" fill="#D3D3D3"/>
<path id="MT" d="M361.1 70.77L355.8 127.9L354.5 143.1L295.4 136.5L246.4 129.4L245 140.6L243.1 138.9L242.7 136.4L241.4 134.5L238.1 136L237.4 138.5L235.1 138.8L231.3 137.2L227.2 137.3L224.8 138L221.6 136.5L218.6 136.7L216.5 138.6L215.6 138L214.9 134.6L215.6 131.4L212.9 128.2L209.6 125.7L207.1 113.1L207 107.8L205.4 107L204.8 108L200.3 111.2L199.1 111.1L196.8 108.3L196.6 105.5L203.6 88.35L203 85.68L199.5 84.56L199.1 83.65L196.4 80.15L191.8 69.74L188.6 68.16L186.8 63.9L188.1 59.27L184.9 51.7L189.3 30.41L222 37.3L240.4 40.7L272.7 46L302 50L331.2 53.5L362 56.57L361.1 70.77Z" fill="#D3D3D3"/>
<path id="NC" d="M786.7 357.7L774 350L770.9 349.2L754.3 351.3L752.7 348.3L749.9 346.1L733.2 346.6L725.8 347.5L716.6 352L709.8 354.7L703.3 355.9L689.9 357.3L690 353.2L691.7 351.9L694.4 351.2L695.1 347.4L699 344.9L702.9 343.4L707.4 339.7L711.8 337.4L712.5 334.2L716.6 330.4L717.3 331.4L719.8 331.6L722.2 328L723.9 327.6L726.5 327.9L728.3 323.9L730.8 321.5L731.3 319.7L731.4 316.2L735.8 316.3L774.3 310.7L831.8 298.4L833.8 303.2L837.4 309.7L839.8 312.1L840.4 314.4L838 314.6L838.8 315.2L838.5 319.4L835.9 320.7L835.3 322.8L834 325.7L830.3 327.3L827.9 327L826.4 326.8L824.8 325.5L825.1 326.8V327.8H827L827.8 329.1L825.9 335.4H830.1L830.7 337L833 334.7L834.3 334.2L832.4 337.8L829.3 342.6H828L826.9 342.1L824.2 342.7L819 345.1L812.5 350.4L809.1 355.1L807.2 361.6L806.7 364L802 364.5L796.9 366L786.7 357.7ZM836 331.5L838.6 329L841.8 326.4L843.3 325.8L843.5 323.8L842.9 317.7L841.4 315.4L840.8 313.5L841.5 313.3L844.2 318.8L844.6 323.2L844.4 326.6L841 328.1L838.2 330.5L837.1 331.7L836 331.5Z" fill="#D3D3D3"/>
<path id="ND" d="M471 126.4L470.6 120.2L468.8 112.9L467 99.29L466.5 89.59L464.6 86.41L463 81.09V70.68L463.6 66.83L461.8 61.29L433.2 60.7L414.6 60.1L388.1 58.8L362.9 56.64L362 71.06L357.3 122L414.1 125.9L471 127.6V126.4Z" fill="#D3D3D3"/>
<path id="NE" d="M470.3 204.3L469.3 202L468.8 200.4L465.9 198.8L461.1 197.3L458.9 196.1L456.3 196.2L452.6 196.6L448.4 197.8L442.4 193.7L440.2 191.7L429.5 192.3L388 189.9L352.4 187.7L348.1 231.4L381.2 234.7L379.8 255.8L401.5 256.8L442.1 258L485.9 258.6H490.4L488.2 255.6L485.6 251.7L485.7 249.4L484.3 246.7L482.4 241.5L482 234.8L480.6 230.7L480.1 225.7L477.8 222L476.8 217.3L474 209.4L473 204.1L470.3 204.3Z" fill="#D3D3D3"/>
<path id="NH" d="M881.7 141.3L882.8 138.1L880.1 136.9L879.6 133.8L875.5 132.7L875.2 129.7L863.5 92.22L862.8 92.3L862.2 93.9L861.6 93.4L860.6 92.4L859.1 94.3L858.9 96.59L859.4 105L861.3 107.8V112.1L857.4 116.9L855 117.8V118.5L856.1 120.4V129L855.3 138.2L855.1 142.9L856.1 144.3L855.9 149L855.4 150.5L856.4 151.6L861.5 150.4L875.3 146.9L877 144L881 142.1L881.7 141.3Z" fill="#D3D3D3"/>
<path id="NJ" d="M823.7 228.3L823.8 226.8L826.5 225.5L828.2 222.7L829.9 220.3L833.2 217.1V215.9L827.1 211.8L826.1 209.1L823.4 208.8L823.3 207.9L822.6 205.7L824.8 204.6L825 201.7L823.7 200.4L823.9 199.2L825.8 196.1V193L828.3 189.9L833.9 192.4L840.3 194.3L842.8 195.5L842.9 197.3L842.4 200L842.8 204.5L840.7 206.4L839.6 207.4L840.1 207.9L842.8 207.6L843.9 206.8L845.5 210.2L845.7 219.6L846.3 220.7L845.2 226.2L842.1 232.7L839.4 236.7L838.6 241.5L836.5 243.9H835.7L835.4 241.2L836.2 240.2L836 238.7L832 238.1L827.2 235.8L824 232.9L823 230.9L823.7 228.3Z" fill="#D3D3D3"/>
<path id="NM" d="M270.2 429.4L253.5 426.8L252.3 436.4L236.5 434.4L242.5 394.7L249.5 341.5L253.9 310.6L287.9 314.5L325.3 318.9L357.3 321.7L357 332.5L355.6 332.4L348.2 430.1L319.8 428.3L281.7 424.6L282.4 430.9L270.2 429.4Z" fill="#D3D3D3"/>
<path id="NV" d="M123.1 173.6L161.8 182.1L187.8 187.3L177.2 240.4L171.8 270.2L168.5 285.7L166.4 296.8L163.8 313.2L162.1 316.3L160.5 316.2L159.3 313.6L156.5 313.1L155.2 312L153.4 312.1L152.5 312.9L150.7 314.2L150.4 321.5L150.1 323L149.6 335.4L148.5 337.2L131.8 311.7L89.7 249.6L77.27 230.6L85.82 198L93.83 166.7L123.1 173.6Z" fill="#D3D3D3"/>
<path id="NY" d="M843.4 200L843.9 197.3L843.7 194.9L840.7 193.4L834.2 191.4L828.2 188.8L827.6 188.4L824.9 188.1L822.9 186.6L820.8 180.7L817.5 180.2L815.1 177.8L776.7 185.9L745.1 191.9L744.6 185.4L746.2 184.2L747.5 183.1L748.5 181.5L750.3 180.4L752.2 178.6L752.7 177L754.8 174.3L755.9 173.3L755.7 172.3L754.4 169.2L752.6 169L750.7 162.9L753.6 161.1L758 159.6L762 158.3L765.2 157.8L771.5 157.6L773.4 158.9L775 159.1L777.1 157.8L779.7 156.7L784.9 156.2L787 154.4L788.8 151.2L790.4 149.3H792.5L794.4 148.2L794.6 145.9L793.1 143.8L792.8 142.3L793.9 140.2V138.7H792.1L790.3 137.9L789.5 136.8L789.3 134.2L795.1 128.7L795.7 127.9L797.2 125L800.1 120.5L802.8 116.8L804.9 114.4L807.3 112.6L810.4 111.4L815.9 110.1L819.1 110.3L823.6 108.8L831 106.6L831.7 111.5L834.1 118L834.9 123L833.9 127.2L836.5 131.7L837.3 133.7L836.4 136.9L840.1 138.6L842.8 148.8V154.6L842.2 165.5L843 170.9L843.7 174.5L845.2 181.8V189.9L844.1 192.2L846.2 194.9L846.7 195.8L844.8 197.6L845.1 198.9L846.4 198.6L847.9 197.3L850.2 194.7L851.3 194.1L852.9 194.7L855.2 194.9L863.1 191L866 188.3L867.3 186.8L871.5 188.4L868.1 192L864.2 194.9L857.1 200.2L854.5 201.2L848.7 203.1L844.7 204.2L843.7 203.8L843.4 200Z" fill="#D3D3D3"/>
<path id="OH" d="M663.8 211.2L665.5 226.7L670.3 267.8L674.2 267.6L676.5 266.8L680.1 268.6L681.8 272.8L687.2 272.9L689 274.9H690.7L693.1 273.5L696.2 274L697.7 275.3L699.5 273.3L701.8 271.9L704.2 271.5L704.8 274.2L706.4 275.2L709 277.2L709.8 277.4L711.8 277.3L713 276.7V274.6L714.7 273.1L714.8 268.3L715.9 264.1L717.8 262.8L718.8 263.5L719.8 264.6L720.5 264.8L720.9 264.4L720 261.7V259.5L721.1 258.1L723.6 254.5L724.9 253L727.1 253.5L729.2 252L732.2 248.7L734.4 245L734.6 239.6L735.1 234.6V230L733.9 226.8L735.1 225L736.4 223.8L735.8 221L731.5 195.4L725.3 199.1L721.4 201.4L718 205.1L714 209L710.8 209.8L707.9 210.3L702.4 212.9L700.3 213.1L696.9 210L691.7 210.6L689.1 209.1L686.9 207.8L663.8 211.2Z" fill="#D3D3D3"/>
<path id="OK" d="M411.9 334.9L410.1 359.2L409.2 377.2L409.4 378.8L413.4 382.4L415.1 383.3H416L416.9 381.2L418.4 383.1L420 383.2L420.3 383L420.5 381.9L423.3 383.3L422.9 386.8L426.7 387.3L429.2 388.3L433.4 388.9L435.7 390.5L438.2 388.8L441.7 389.5L443.9 392.6L445.1 392.7V395L447.2 395.7L449.7 393.6L451.5 394.2L454.2 394.3L454.9 396.6L459.3 398.4L461 398.1L462.9 393.9H464.2L465.3 396L469.5 396.8L472.9 398.1L475.9 398.9L477.5 398.2L478.2 395.5H482.7L484.6 396.4L487.3 394.5H488.7L489.3 395.9H492.9L494.9 394.1L497.2 394.7L498.9 396.9L501.9 398.6L505.3 399.5L507.2 400.7L506.9 363.1L505.5 352.2L505.4 343.6L503.9 337L503.3 330.2L503.4 325.9L490.8 326.2L444.5 325.7L399.8 323.6L358.3 321.8L357.9 332.5L411.9 334.9Z" fill="#D3D3D3"/>
<path id="OR" d="M67.44 158.9L95.68 166.1L123.2 172.6L140.2 176.3L149 141.2L150.2 136.8L152.6 131.3L151.9 130L149.4 130.1L148.1 128.3L148.7 126.8L149.1 123.5L153.8 117.8L155.7 116.9L156.6 116.1L157.3 113.4L158.1 112.3L162 106.6L165.7 102.6L165.9 99.34L162.5 96.85L161.3 92.3L148.2 88.47L132.9 85L118.1 85.37L117 84.06L111.9 85.9L107.4 85.42L105 83.84L103.7 84.38L99.02 84.09L97.06 82.66L92.22 80.89L91.12 80.82L86.67 79.55L84.91 81.07L78.65 80.83L73.34 76.98L73.55 67.7L71.5 64.2L67.4 63.6L66.7 61.1L64.3 60.6L58.5 62.7L56.2 69.2L53 79.2L49.8 85.7L44.8 99.8L38.3 113.4L30.2 126L28.3 128.9L27.5 137.5L26.2 143.5L28.91 147L67.44 158.9Z" fill="#D3D3D3"/>
<path id="PA" d="M736.6 192.2L737.9 191.7L743.6 186.2L744.3 193.1L777.8 186.6L814.7 178.8L817 181.1L820.1 181.5L822.1 187.1L824.5 189L827.3 189.4L827.4 189.5L824.8 192.7V195.8L822.9 198.9L822.7 200.8L824 202.1L823.8 204L821.4 205.1L822.4 208.5L822.6 209.6L825.4 209.9L826.3 212.4L832.2 216.3V216.7L829.1 219.7L827.6 221.9L825.9 224.7L823.2 225.9L821.8 226.2L819.7 227.5L818.1 228.9L795.7 233.2L757 241L745.7 242.4L741.8 243.1L736.7 220.7L732.4 194.8L736.6 192.2Z" fill="#D3D3D3"/>
<path id="RI" d="M873.6 175.7L872.8 171.3L871.2 165.3L876.9 163.8L878.4 165.1L881.8 169.4L884.6 173.8L881.8 175.2L880.5 175L879.4 176.8L877 178.7L874.2 179.8L873.6 175.7Z" fill="#D3D3D3"/>
<path id="SC" d="M759 413.6L756.9 412.6L755 407L752.5 404.7L750 404.2L748.5 399.6L745.5 393.1L741.3 391.3L739.4 389.5L738.2 386.9L735.8 384.9L733.5 383.6L731.3 380.7L728.1 378.3L723.7 376.6L723.3 375.2L721 372.4L720.5 370.9L716.7 365.5L713.3 365.6L709.4 363.1L708.2 361.9L708 360.5L708.6 358.9L711.3 357.6L710.5 355.6L716.9 352.9L726.1 348.4L733.2 347.5L749.6 347L751.9 348.9L753.7 352.4L758.3 351.6L770.9 350.1L773.6 350.9L786.1 358.3L796.2 366.6L790.9 372L788.3 378.1L787.8 384.4L786.2 385.2L785.1 387.9L782.7 388.5L780.6 392.1L777.9 394.8L775.6 398.2L774 399L770.4 402.4L767.5 402.6L768.5 405.8L763.5 411.1L761.2 412.7L759 413.6Z" fill="#D3D3D3"/>
<path id="SD" d="M471 181.1L470.1 184.3L470.5 187.3L473.1 189.3L471.9 194.7L470.1 198.8L471.6 202.1L472.3 203.2L471 203.3L470.3 201.7L469.7 199.7L466.4 197.9L461.6 196.4L459.1 195.1L456.2 195.2L452.3 195.6L448.5 196.8L443.2 193L440.5 190.6L429.6 191.4L388.1 189L352.5 186.8L354 162L356.8 128L357.2 123L414.1 126.9L471 128.6V131.3L469.7 132.8L467.7 134.3L467.6 136.5L468.7 138.7L472.8 142.1L473.3 144.8V180.7L471 181.1Z" fill="#D3D3D3"/>
<path id="TN" d="M670.8 359.6L657.7 360.8L634.4 363L596.8 365.7L585 366.1L585.9 365.5L586.8 361L585.6 357.4L589.5 355.1L589.9 352.6L591.1 348.3L594.1 338.8L594.6 333.2L594.9 333L607.2 332.8L620.8 332L620.9 328.1L624.4 328L654.8 324.7L708.8 319.5L719.1 318L726.7 317.8L729.1 315.9L730.4 316.2L730.3 319.5L729.9 321.1L727.5 323.3L725.9 326.9L723.9 326.5L721.5 327.4L719.3 330.7L717.9 330.5L717.1 329.3L716 329.7L711.7 333.7L710.9 336.8L706.7 339L702.4 342.6L698.6 344.1L694.2 346.9L693.6 350.5L691.1 351L689.1 352.7L688.9 357.5L670.8 359.6Z" fill="#D3D3D3"/>
<path id="TX" d="M282.8 425.6L319.8 429.2L349.1 431.1L356.5 333.4L410.9 335.8L409.2 359.1L408.2 377.1L408.4 379.1L412.8 383.2L414.8 384.3H416.6L417.1 383.1L417.8 384L420.2 384.2L421.3 383.6V383.4L422.3 383.9L421.9 387.6L426.4 388.3L428.8 389.2L433 389.9L435.6 391.7L438.4 389.8L441.1 390.4L443.3 393.5L444.1 393.6V395.7L447.4 396.8L449.9 394.7L451.4 395.2L453.5 395.3L454.1 397.4L459.3 399.4L461.6 398.9L463.5 394.9H463.6L464.7 396.8L469.3 397.7L472.7 399L475.9 400L478.3 398.8L479 396.5H482.6L484.7 397.5L487.7 395.5H488.1L488.6 396.9H493.3L495.2 395.1L496.5 395.5L498.2 397.6L501.5 399.5L504.9 400.5L507.4 401.9L510.1 403.9L513.2 402.7L515.3 403.5L516 423.5L516.7 433L517.3 437.1L519.9 441.5L520.8 446L525 451.9L525.3 455L525.9 455.8L525.2 463.5L522.3 468.3L523.6 470.9L523.1 473.3L522.3 480.5L521 483.5L521.3 487.7L515.7 489.3L505.8 493.8L504.8 495.7L502.2 497.6L500.1 499.1L498.8 499.9L493.1 505.2L490.4 507.3L485.1 510.5L479.4 512.9L473.1 516.3L471.3 517.8L465.5 521.4L462.1 522L458.2 527.5L454.2 527.8L453.2 529.7L455.5 531.6L454 537.1L452.7 541.6L451.6 545.5L450.8 550L451.6 552.4L453.4 559.4L454.4 565.5L456.2 568.2L455.2 569.7L452.1 571.6L446.4 567.7L440.9 566.6L439.6 567.1L436.4 566.5L432.2 563.4L427 562.3L419.4 558.9L417.3 555L416 548.5L412.8 546.6L412.2 544.3L412.8 543.7L413.1 540.3L411.8 539.7L411.2 538.7L412.5 534.3L410.9 532L407.7 530.7L404.3 526.3L400.7 519.7L396.5 517.1L396.7 515.2L391.4 502.9L390.6 498.7L388.8 496.8L388.6 495.3L382.6 490L380 486.9V485.8L377.4 483.7L370.6 482.6L363.2 482L360.1 479.7L355.6 481.5L352 483L349.7 486.2L348.7 489.9L344.3 496L341.9 498.4L339.3 497.4L337.5 496.3L335.6 495.7L331.7 493.4V492.8L329.9 490.9L324.7 488.8L317.3 481L315 476.3V468.2L311.8 461.7L311.3 459L309.7 458L308.6 455.9L303.6 453.8L302.3 452.2L295.2 444.3L293.9 441.1L289.2 438.8L287.7 434.4L285.1 431.5L283.4 431L282.8 425.6ZM457.2 567.3L456.6 560.2L453.9 553L453.3 546L454.8 537.8L458.1 530.9L461.6 525.5L464.8 521.9L465.4 522.1L460.6 528.7L456.2 535.2L454.2 541.8L453.9 547L454.8 553.1L457.4 560.3L457.9 565.5L458.1 567L457.2 567.3Z" fill="#D3D3D3"/>
<path id="UT" d="M228.4 305.9L253 309.5L254.9 295.8L261.9 245.3L264.2 223.3L232 219.8L234.2 206.7L236 196.1L201.3 190L188.8 187.5L178.2 240.4L172.8 270.4L169.5 285.8L167.8 295L228.4 305.9Z" fill="#D3D3D3"/>
<path id="VA" d="M834.7 265.2L834.5 268L831.6 271.8L831.2 276.4L831.7 279.8L829.9 284.8L827.7 286.7L826.2 282.1L826.6 276.7L828.2 272.5L828.9 269.2L828.8 267.5L834.7 265.2ZM774.4 309.8L735.8 315.4L731 315.3L728.8 315L726.3 316.9L719 317L708.7 318.6L702 319.2L706.1 316.6L710.2 314.3V312.2L715.9 304.9L720 301.2L722.2 298.7L725.8 303L729.6 303.9L732.3 302.9L734.3 301.4L736.7 302.6L741.3 301.3L743 296.9L745.4 297.6L748.6 295.3L750.2 295.7L753 292.5L753.2 289.8L752.4 288.6L757.2 278.1L759 272.9L759.5 268.2L760.2 268L761.3 269.7L762.8 270.9L766.7 270.7L768.4 262.6L771.4 262L772.2 259.4L775 257.2L776.1 255.1L777.9 250.8L778 246.2L781.6 247.6L788.2 250.7L788.5 245.5L791.9 246.7L791.3 249.6L799.9 252.7L801.3 254.5L800.5 257.8L799.2 259.1L798.7 260.8L799.2 263.2L801.2 264.5L805.1 265.9L808 266.9L812.9 267.8L815.1 269.9L818.3 270.3L819.2 271.5L818.8 276.2L820.2 277.3L819.7 279.2L820.9 280L820.7 281.4L818 281.3L818.1 282.9L820.4 284.4L820.5 285.8L822.3 287.6L822.8 290.1L820.2 291.5L821.8 293L827.6 291.3L831.3 297.5L774.4 309.8Z" fill="#D3D3D3"/>
<path id="VT" d="M832.7 111.3L835.1 117.8L835.9 123.1L834.9 127L837.4 131.4L838.3 133.7L837.6 136.3L840.9 137.8L843.8 148.6V153.9L855.3 151.8L854.3 150.7L854.9 148.8L855.1 144.5L854.1 143.1L854.3 138.4L855.1 129.1V120.6L854 118.8V117.2L856.8 116.1L860.3 111.7V108.1L858.4 105.4L858.1 99.61L832 106.4L832.7 111.3Z" fill="#D3D3D3"/>
<path id="WA" d="M74.5 67.7L72.2 63.4L68.1 62.7L67.7 60.3L65.2 59.7L62.3 59.2L60.5 60.2L58.2 57.3L58.5 54.4L61.2 54.1L62.8 50.1L60.2 49L60.4 45.3L64.8 44.7L62.1 42L60.6 34.9L61.2 32V24.1L59.4 20.9L61.7 11.5L63.8 12L66.2 14.9L68.9 17.5L72.1 19.4L76.6 21.5L79.7 22.1L82.6 23.6L86 24.6L88.3 24.4V22L89.6 20.9L91.7 19.6L92 20.7L92.3 22.5L90 23L89.7 25.1L91.5 26.6L92.6 29L93.2 30.9L94.7 30.7L94.9 29.4L93.9 28.1L93.4 24.9L94.2 23.1L93.6 21.6V19L95.4 15.4L94.3 12.8L91.9 7.99999L92.2 7.19999L93.6 6.39999L98 7.89999L107.7 10.6L116.3 12.5L136.3 18.2L159.3 23.9L174.3 27.39L169.5 44.95L165 65.78L161.6 82.03L161.2 91.21L148.3 87.49L133 84.02L118.5 84.34L117.4 82.81L111.7 84.9L107.8 84.48L105.2 82.69L103.5 83.34L99.35 83.09L97.63 81.77L92.47 79.95L91.29 79.79L86.49 78.4L84.57 80.05L78.92 79.8L74.31 76.45L74.5 67.7ZM84.1 12.3L86.1 12.1L86.6 13.5L88.1 11.9H90.4L91.2 13.4L89.7 15.1L90.3 15.9L89.6 17.9L88.2 18.3C88.2 18.3 87.3 18.4 87.3 18.1C87.3 17.8 88.8 15.5 88.8 15.5L87.1 14.9L86.8 16.4L86.1 17L84.6 14.7L84.1 12.3Z" fill="#D3D3D3"/>
<path id="WI" d="M541.4 109.9L544.3 110.4L547.2 109.8L554.6 106.6L557.5 104.7L559.6 103.9L561.5 105.4L560.4 106.5L558.5 109.6L557.9 111.5L558.9 112.1L560.7 111.1L561.8 110.9L564.5 111.7L565.1 112.8L566.2 113L566.8 111.9L570.8 117.2L579 118.4L587.2 120.6L589.8 121.7L602.1 124.3L603.7 126.6L607.3 127.8L609 138L610.6 139.4L612.1 140.3L611 142.6L609.2 144.2L607.1 148.9L605.8 151.3L606 153.1L607.5 153.4L608.6 151.5L610.1 150.7L610.9 148.4L612.8 146.6L615.5 142.6L619.7 136.3L620.5 135.8L620.8 136.8L620.6 139.1L617.7 145.9L615 151.6L614.5 154.8L613.9 157.4L614.7 158.7L614.5 161.4L612.6 163.8L612.1 165.6L612.7 169.2L613.3 172.6L611.8 175.2L611 178.1L610 181.2L611.1 183.6L611.7 189.7L613.3 194.2L613.1 197.2L597.2 199L579.7 200H567L566.3 198.5L563.4 198.1L560.8 196.8L558.5 193.1L558.2 189.5L560.2 186.6L559.7 185.2L557.6 183L556.8 179.7L556.2 172.9L554.1 170.4L547.1 165.9L543.3 160.5L539.9 159.5L537.7 156.7H534.5L531.6 153.4L531.1 146.9L531.2 143.1L532.7 140L531.9 136.8L529.4 134L531.2 128.6L536.4 124.8L538 122.9L537.8 114.8L538 112L540.4 109.2L541.4 109.9Z" fill="#D3D3D3"/>
<path id="WV" d="M758.9 254.3L764.7 248.3L767.3 247.5L768.9 246L770.4 243.8L771.5 244.1L774.6 243.9L779.2 240.3L780.7 239.8L782 240.8L784.6 242L787.6 245L787.2 249.3L781.8 246.7L777 244.9L776.9 250.8L774.3 256.5L771.4 258.9L770.6 261.2L767.6 261.7L765.9 269.8L763.1 270L762 269L760.8 267L758.6 267.5L758.1 272.6L756.3 277.7L751.3 288.7L752.2 290.1L752.1 292.1L749.9 294.6L748.3 294.2L745.2 296.5L742.4 295.7L740.6 300.6L736.8 301.6L734.3 300.3L731.8 302.2L729.5 302.9L726.3 302.1L722.5 297.6L719 295.4L716.5 292.9L713.6 289.2L713.1 286.9L710.3 285.2L709.7 283.9L709.5 278.3L709.8 278.4L712.2 278.2L714 277.2V275L715.7 273.5L715.8 268.3L716.7 264.7L717.8 264L718.2 264.3L719.2 265.4L720.9 265.9L722 264.6L721 261.5V259.9L724.1 255.3L725.3 254L727.3 254.5L729.9 252.7L733 249.3L735.4 245.2L735.6 239.6L736.1 234.8V229.9L735 226.9L735.9 225.6L736.7 224.9L741 244.2L745.3 243.4L756.5 242.1L758.9 254.3Z" fill="#D3D3D3"/>
<path id="WY" d="M353 161.9L351.5 187.3L347.1 231.3L344.4 231L261.1 221.9L233.2 218.9L235.2 206.9L242.1 165.9L245.9 141.7L247.2 130.5L295.4 137.5L354.5 144L353 161.9Z" fill="#D3D3D3"/>
<path id="AS" d="M609.5 582.5C609.7 582.4 610 581.9 610.2 581.6C610.5 581.1 609.9 581 610.6 580.9C610.9 580.8 611.3 581.3 611.4 581.4C611.6 581.6 611.8 581.8 611.9 581.3C612 581.1 612.6 580.4 612.8 580.2C613.1 580 613.4 580 613.7 579.7C613.9 579.5 614.2 579.3 614.4 579.1C614.7 578.8 614.8 578.7 615 578.4C615.2 578.1 615.4 577.9 615.6 577.7C616 577.3 614.6 577.5 614 577.5C613.8 577.5 614.3 576.9 614.3 576.7C614.4 576.3 614.5 576.3 614.9 576.2C615.5 576.1 615.5 576.3 615.5 576.8C615.5 577.1 616 576.4 616 576.1C616.1 575.7 616.4 575.5 616.7 575.4C617 575.2 617.4 575.2 617.6 575C618 574.8 618 574.8 617.9 574.5C617.8 574.3 618 573.9 617.9 573.6C617.8 573.1 618.4 573.5 618.1 573C618 572.8 617.3 572.6 617.2 572.6C616.8 572.4 616.5 572.5 616.1 572.3C615.7 572.1 615.8 572 616 571.7C616.1 571.6 617 571.7 617.1 571.8C617.5 571.9 617.9 571.9 618.3 571.9C618.8 571.9 619.1 571.9 619.5 572.1C619.8 572.2 619.7 572.5 619.7 573C619.7 573.5 619.6 573.7 620 573.8C620.5 573.9 620.7 573.8 621 573.6C621.1 573.5 622.1 573.4 622.2 573.4C622.6 573.3 622.9 573.2 623.1 573C623.4 572.7 623.8 572.5 624 572.4C624.3 572.1 624.6 572.1 624.9 572C625.4 571.9 625.6 572.2 625.8 572.4C626 572.6 625.9 573.1 625.9 573.4C625.9 573.6 627.3 573.1 627.4 573C627.8 572.8 628.1 572.9 628.3 572.6C628.7 572.3 628.4 572 629 572.2C629.4 572.3 629.7 572.1 630.1 572C630.5 571.9 630.4 571.7 630.4 571.2C630.4 570.8 630.4 570.5 630.4 570.1C630.4 569.6 630.1 569.7 629.7 569.6C629.4 569.5 628.9 569.7 628.8 569.9C628.5 570.2 628.4 570.1 628.3 570.5C628.2 570.9 628.1 571 627.8 571.1C627.6 571.2 627.3 570.7 626.9 570.7C626.5 570.7 626.3 570.5 626 570.3C625.7 570.1 625.4 570.1 624.9 570.1C624.7 570.1 624.5 570.5 624.1 570.6C623.8 570.7 623.2 570.6 623.1 570.6C622.8 570.6 623.5 569.8 623.5 569.8C623.9 569.6 624.5 569.8 623.6 569.5C623.3 569.4 622.8 569.6 622.4 569.6C621.8 569.6 621.8 569.7 621.8 570.2C621.8 570.7 621.5 570.6 621 570.6C620.7 570.6 620.8 570 620.5 569.9C620 569.8 620.1 570.2 619.9 569.5C619.8 569.2 619.3 569.5 619 569.7C618.8 569.9 618.3 569.6 618.8 569.5C619.3 569.4 618.6 568.9 618.3 568.9C617.8 568.9 617.9 569.2 617.6 569.5C617.3 569.8 617 569.6 616.8 570.1C616.7 570.3 616.2 570.4 615.9 570.5C615.5 570.7 615.2 570.8 614.9 571C614.4 571.2 613.8 571.1 613.3 571.1C613 571.1 613.5 571.6 613.5 571.9C613.5 572.3 613.5 572.6 613.5 573C613.5 573.6 613.4 573.4 612.9 573.6C612.6 573.7 612.4 573.3 612 573.3C611.5 573.3 611.4 573.5 611.4 573.9C611.4 574.4 611 574.1 610.6 574.3C610.2 574.5 609.8 574.6 609.8 574.1C609.8 573.7 609.4 573.7 609 573.6C608.5 573.5 608.5 573.9 608.1 574.1C607.7 574.3 607.3 574.2 606.9 574.4C606.8 574.4 606.6 573.9 606.4 573.8C606 573.7 605.4 573.9 605.1 573.9C604.6 574 604.9 574.3 604.3 574.3C603.9 574.3 603.5 574.4 603.3 574.5C603.1 574.6 603.7 574.9 602.8 574.9C602.2 574.9 602.1 575 601.9 575.3C601.7 575.7 601.9 575.9 601.2 576C601 576 600.6 576.5 600.6 576.6C600.5 576.9 599.6 576.9 600.3 577C600.7 577.1 601 577.1 601.5 577.2C601.9 577.3 602.3 577.4 602.6 577.6C602.9 577.7 603.5 577.6 603.7 577.5C604.1 577.4 604.1 577.3 604.6 577.5C604.9 577.6 604.9 578 605.1 578.1C605.4 578.2 606.2 578.2 606.5 578.2C606.6 578.2 606.6 579.1 606.7 579.2C606.8 579.4 606.9 579.8 606.9 580.1C606.9 580.2 607.6 580.5 607.8 580.6C608 580.8 608.3 580.9 608.6 581C609 581.1 609.2 581.1 609.5 581.3C609.7 581.8 609.4 582.2 609.5 582.5Z" fill="#D3D3D3"/>
<path id="GU" d="M584.9 560.6H585C585.4 560.6 585.8 560.7 586.3 560.8C586.9 560.9 587.1 561.6 587.6 561.7C588.1 561.9 588.2 562.3 588.6 562.6C588.7 562.7 588.8 562.9 588.9 562.9C589.6 563.5 588.1 564.1 589.8 563.7C589.8 563.7 591.1 564.2 591.3 564.2C591.9 564.3 592.6 564.3 593.1 564.4C593.7 564.5 592.5 565.3 592.2 565.8C591.9 566.2 592.1 566.9 592.1 567.4C592.1 568 592 568.4 591.8 568.8C591.7 569.3 591.3 569.6 591 569.8C590.7 570.1 590.1 570.3 589.6 570.4C589 570.5 589 570.9 588.1 570.9C587.7 570.9 587.6 571.9 587.5 572.2C587.1 572.8 586.4 572.2 586.1 573C585.9 573.5 585.6 573.5 585.2 573.8C584.8 574.1 584.3 574.3 583.9 574.4C583.3 574.7 582.9 574.9 582.1 574.9C581.8 574.9 581.2 575.8 581.1 575.9C580.7 576.3 580.6 576.6 580.2 576.8C580 576.9 579 576.7 578.6 576.8C578.5 576.8 578.6 578.2 578.6 578.4C578.6 578.6 577.8 579 577.7 579.1C577.6 579.3 578 580.3 578 580.7C578 581.2 578 581.8 577.9 582.2C577.8 582.7 577.8 583.2 577.1 583.2C576.4 583.2 577.5 584 577.6 584.1C577.8 584.3 577.8 585.2 577.9 585.5C578.1 586.2 577.5 586.4 577.5 587C577.5 587 576.5 587.6 576.4 587.6C576 587.8 575.7 588.2 575.4 588.4C574.9 588.8 574.8 589 574.4 589.3C574 589.6 573.4 589.6 572.8 589.7C572.2 589.8 571.7 589.9 571 589.9C570.6 589.9 570.1 589.3 569.9 589.1C569.4 588.6 569.2 589.3 568.9 588.4C568.9 588.3 568.5 587.6 568.4 587.2C568.2 586.6 568.3 586.3 568.1 585.8C568 585.4 567.6 585.2 567.5 584.8C567.3 584.3 567.4 583.7 567.1 583.2C566.8 582.7 566.2 582.9 566.2 582C566.2 581.3 566.5 581.2 566.8 580.7C567 580.4 567.2 579.8 567.3 579.4C567.4 579 567.9 578.5 568.1 578.1C568.1 578 568 577.7 568 577.5L564.9 575.1C565.5 574.2 565.6 574.5 566.5 575.1C567 575.4 567.4 575.4 568 575.3C568.5 575.2 568.4 574 568.4 575C568.4 575.7 568.2 574.9 568.9 574.7C570.1 574.3 570 574.4 569 575C568.8 575.1 570.1 575.5 569.8 574.5C569.6 574 568.8 574.5 569 573.7C569.1 573.4 570.9 573.8 571 573.8C571.5 573.9 571.9 573.2 572.5 573.2C573 573.2 573.7 573 574.4 573C574.9 573 575.8 572.8 576.2 572.7C577 572.5 577.3 572.5 577.8 572.2C578.2 572 577.6 570.8 577.5 570.7C577.3 570.2 579.2 570.7 579.3 570.7C580.1 570.8 580.2 570 580.3 569.7C580.5 569 580.6 568.8 581.3 568.5C582.1 568.2 582.3 567.7 582.3 567C582.3 566 582.7 565.7 582.9 564.9C583 564.3 582.8 564.1 583.3 563.5C583.9 562.9 584.2 562.7 584.6 562.1C584.9 561.6 584.9 561.2 584.9 560.6C584.9 560 585.1 560 584.5 559.6Z" fill="#D3D3D3"/>
<path id="MP" d="M645.5 558.7L646.6 558L647.5 557.4L645.5 558.7ZM645.6 564.3L647.6 566.3L647.4 564.4L645.6 564.3ZM650.2 570.2L651.5 573.5L652.8 570.2H650.2ZM655.4 576.8V580.1L657.4 580.8L658.1 577.5L655.4 576.8ZM664.1 585.2L662.4 588.3L663 590.2L665.9 591.4L667.1 589.5V586.4L664.1 585.2Z" fill="#D3D3D3"/>
<path id="PR" d="M569.2 530.2L570.1 528.1L571.8 528.5L573.5 529.8L580.8 530.7L588.1 530.3H591.1L593.7 531.2L595.4 529.9H597.5L602.6 530.3L607.7 531.6L609.4 533.3H612.4L612.8 535.9L612.4 537.6L609 538L606.9 538.9L606 541L604.7 543.1L602.1 544.4H597H592.7L590.6 543.5H586.3L584.2 542.6L580.8 543.5H576.5L574.4 541.8L571.8 542.7L568.4 543.1L568 541L568.9 539.7L569.8 537.6L568.9 535L565.5 532.4L566.8 531.5L569.2 530.2ZM615.9 541.8L614 542.4L617.7 543.6L622.7 542.4L623.9 540.5L620.8 541.1L615.9 541.8ZM624.6 537.5L623.1 536.6L625.3 535.1L625.9 536.6L624.6 537.5Z" fill="#D3D3D3"/>
<path id="VI" d="M646.4 524.1L644.9 525.2L643.1 526.3L643.5 527.8L645.3 528.5L647.9 528.1L649 529.9H650.8L651.9 528.8L655.9 528.1L657.7 527.7L659.2 526.6L658.5 525.1H656.3L651.2 524H646.4V524.1ZM660.8 525.5L660.5 526.5L661.4 527L663.4 526.8L664.8 527.5L665.9 527.3L666.2 526.1L667.6 525.1L667.9 524.1L666.8 523.6L665.1 524.1L663.1 523.4L662.2 524.1L661.9 525.1L660.8 525.5ZM655.5 545.9L658.1 545.2L659.7 545.5L662 544.2L663 544.5L663.6 545.5L664.6 547.1L666.6 546.1L667.6 546.8L671.9 546.2L672.4 548.6L670.6 549.4H667.3L661.8 551L659.5 550.7L655.6 551.3L654.3 550.7L653.3 551.3L650.7 551.6C650.7 551.6 649.2 551.1 650.4 550.3C652.4 549 651.4 546.7 651.4 546.7L655.5 545.9Z" fill="#D3D3D3"/>
</g>
</g>
</svg>
