<svg viewBox="0 0 459 300" fill="none" xmlns="http://www.w3.org/2000/svg">
<g id="USA 1">
<g id="Group">
<path id="HI" d="M26.616 242.765L27.5701 240.922L28.7252 240.768L28.8758 241.178L27.8212 242.765H26.616ZM31.7383 240.87L34.8016 242.201L35.8562 242.048L36.6597 240.051L36.3584 238.311L34.2492 238.055L32.2405 238.976L31.7383 240.87ZM47.1555 245.99L49.0136 248.805L50.2188 248.652L50.7712 248.396L51.5245 249.061L53.3826 248.959L53.8848 248.191L52.4284 247.27L51.4743 245.375L50.4197 243.532L47.507 245.017L47.1555 245.99ZM57.2997 250.546L57.9525 249.573L60.3128 250.085L60.6141 249.829L63.6775 250.137L63.5268 250.802L62.2211 251.57L60.0115 251.416L57.2997 250.546ZM59.9613 253.208L60.9154 255.205L62.4722 254.642L62.6229 253.823L61.8194 252.747L59.9613 252.594V253.208ZM63.4766 252.594L64.6316 251.109L66.9919 252.338L69.2015 252.901L71.4112 254.283V255.256L69.6033 256.177L67.1928 256.689L65.9875 255.922L63.4766 252.594ZM71.8129 260.58L72.6164 259.915L74.3239 260.734L78.1405 262.577L79.8479 263.652L80.6514 264.881L81.6056 267.133L83.6143 268.464L83.4637 269.13L81.5051 270.768L79.396 271.536L78.6427 271.229L77.0859 272.15L75.8806 273.788L74.7256 275.273L73.8217 275.171L72.0138 273.84L71.8631 271.536L72.1644 270.307L71.3609 267.389L70.3063 266.468L70.2059 265.137L71.3609 264.625L72.4155 263.038L72.6666 262.526L71.8631 261.604L71.8129 260.58Z" fill="#D3D3D3"/>
<path id="AL" d="M308.595 235.7L308.896 235.802L309.549 234.42L310.302 232.167L311.457 232.474L313.014 235.546V236.058L311.658 237.031L313.014 237.184L315.625 235.904L315.475 232.014L314.219 231.092L313.215 230.068L313.416 228.02L318.689 227.253L331.595 225.768L334.959 225.461L337.772 225.512L337.521 224.386L336.767 223.976L336.315 223.413L336.818 222.082L336.617 219.42L335.813 217.116L336.215 214.505L337.069 212.048L336.968 211.177L336.064 210.819L335.813 208.976L334.457 207.236L333.453 203.908L332.75 200.478L331.846 197.918L329.938 189.727L328.18 185.683L327.778 182.816L327.828 181.689L323.309 182.099L311.558 183.225L305.431 183.635L305.33 186.911L305.431 195.461L305.079 211.331L304.929 218.55L306.335 228.174L307.138 235.7H308.595Z" fill="#D3D3D3"/>
<path id="AR" d="M287.904 174.113L284.69 173.754L285.142 172.167L286.699 170.836L287.001 169.659L286.097 168.174L270.077 168.788L258.376 169.147L246.524 169.3L247.277 172.833L247.328 177.184L248.031 182.765L248.181 202.321L249.236 203.14L250.743 202.526L252.199 203.14L252.4 208.311L265.055 208.208L278.514 207.799L278.966 206.826L278.815 204.881L277.961 203.294L278.714 202.577L278.011 201.451L278.363 200.222L278.915 197.201L280.271 196.024L279.869 194.898L281.878 192.031L283.134 191.468L283.083 190.597L282.832 189.727L284.289 186.758L285.544 186.195L285.645 184.505L286.699 183.788L287.151 181.689L286.448 179.642L288.557 178.413L288.708 177.338L289.311 175.188L289.763 173.601L287.904 174.113Z" fill="#D3D3D3"/>
<path id="AZ" d="M60.815 196.433L60.6643 197.201L60.9154 197.713L70.4068 203.191L76.4833 207.082L83.8654 211.485L92.3022 216.604L98.4791 217.833L111.235 219.215L114.248 198.942L117.763 171.758L119.973 155.887L107.619 154.044L77.1361 148.413L77.0357 148.976L75.73 157.423L74.6754 159.369L73.2693 159.266L72.6666 157.935L71.3609 157.73L70.7583 157.167L70.2059 157.218L69.1513 158.089L69.0007 161.57L68.85 162.338L68.5989 168.737L67.8456 169.966L67.6447 171.655L69.0509 174.215L69.6033 177.031L69.9548 177.594L70.5072 178.055L70.3063 179.283L69.4526 179.898L67.7452 180.717L66.9417 181.638L66.1382 183.481L65.8871 185.99L64.3805 187.474L63.4264 187.935L63.3762 190.904L63.0748 191.724L63.3259 192.133L65.2845 192.338L64.8325 193.874L63.9788 195.102L62.1207 195.307L60.815 196.433Z" fill="#D3D3D3"/>
<path id="CA" d="M54.5879 194.488L44.6948 193.106L39.6729 192.338L39.4218 191.416V186.604L39.2711 184.966L37.9654 182.816L37.5637 181.638L35.6051 179.488L34.1488 177.082L32.7929 176.98L31.1859 176.57L31.0352 176.058L31.7885 175.751L31.4872 174.113L30.7339 173.038L28.3234 172.628L26.3649 171.553L25.8125 170.375L24.5068 167.918L23.0504 166.331H21.5941L19.6356 165.256L17.3757 164.334L15.2665 164.078L14.0613 162.696L14.3124 161.724L15.2163 158.089L15.6181 157.116V155.887L14.8146 155.375L14.5635 153.891L13.8102 152.56L12.1027 149.59L11.4499 148.003L10.6966 145.597L9.89311 142.884L8.28611 140.631L8.03501 139.147L8.43676 137.15H8.98917L10.0438 136.331L10.5962 134.488L10.094 133.106L8.73807 132.85L7.78392 131.519L6.72932 129.625L6.62888 125.427L6.9302 124.454L7.23151 123.276L7.4826 122.048L4.62013 118.823V117.747L4.77079 117.491L4.92144 115.853L4.2686 113.805L3.11357 111.348L1.75766 109.044L0.85372 107.048L1.35591 105.154L1.65722 102.184L2.56116 100.597L2.71182 97.2696L2.15941 95.4266L1.35591 93.2765L0 91.1263L0.401751 89.4881L1.15503 87.3379L2.05897 86.9283L2.20963 86.3652L3.76641 85.0341L6.37779 78.9932L6.47823 75.2048L7.32693 72.6963L26.7566 78.7372L39.6126 82.116L35.5951 98.1399L31.2411 115.085L37.5838 124.915L58.756 156.809L67.3434 170.171L67.1426 171.758L68.5487 174.42L69.1011 177.184L69.6033 177.952L69.9548 178.259L69.8544 178.976L69.1513 179.488L67.4439 180.307L66.4897 181.382L65.636 183.379L65.3849 185.785L64.0792 187.065L62.9242 187.628L62.874 190.802L62.5726 191.775L63.0748 192.645L64.5814 192.799L64.3805 193.618L63.6775 194.642L61.7189 194.949L54.5879 194.488ZM17.4761 169.454L18.129 170.222L18.0286 170.887L16.4216 170.836L16.1202 170.222L15.8189 169.454H17.4761ZM18.4303 169.454L19.0329 169.147L20.8408 170.222L22.3976 170.836L21.9456 171.143L19.6858 171.041L18.8823 170.222L18.4303 169.454ZM28.8256 179.59L29.7295 180.768L30.1313 181.28L30.8846 181.587L31.1859 180.819L30.6837 179.898L29.3278 178.874L28.7754 178.976V179.59H28.8256ZM28.1225 184.044L29.0265 185.683L29.6291 186.655L28.8758 186.758L28.223 186.143C28.223 186.143 27.8714 185.375 27.8714 185.171V184.044H28.1225Z" fill="#D3D3D3"/>
<path id="CT" d="M420.834 94.6587L422.642 93.0205L423.596 91.9454L423.997 92.2525L425.353 91.4846L427.965 90.9215L431.48 89.1297L431.179 86.9795L430.777 84.7269L429.974 81.6553L427.814 82.2184L416.866 84.6246L417.168 86.2116L417.921 89.9488V94.1979L417.469 95.273L418.323 96.3993L420.834 94.6587Z" fill="#D3D3D3"/>
<path id="DE" d="M411.995 123.481L411.493 123.737L409.685 122.509L408.781 120.102L407.827 118.259L406.672 117.747L405.617 115.904L405.868 114.881L406.12 113.703L406.17 113.14L405.868 113.191L405.015 113.703L404.01 114.573L403.91 114.727L404.613 116.826L405.768 119.693L407.626 127.935L410.137 127.782L413.15 127.218L411.995 123.481Z" fill="#D3D3D3"/>
<path id="FL" d="M369.711 224.846L367.1 224.488L366.748 224.898L367.501 227.15L367.3 229.812L365.241 229.3L365.141 227.867H363.082L360.42 228.225L344.15 229.198L340.032 229.044L339.178 228.174L337.922 226.024H334.96L331.645 226.28L313.868 228.43L313.717 229.863L314.52 230.683L315.977 231.706L316.127 236.007L317.785 235.7L320.798 234.625L323.811 234.369L326.021 234.061L329.837 234.983L333.905 236.98L334.708 237.747L336.165 238.311L336.968 239.283L337.119 240.666L338.726 240H340.684L342.492 239.027L344.35 237.184L345.907 237.287L346.158 236.724L345.757 236.212L345.857 235.239L347.866 234.829H349.171L350.628 235.597L352.737 236.365L353.942 238.259L355.298 238.771L355.851 240.512L357.558 241.331L358.361 242.662L359.316 242.969L361.927 243.635L362.58 245.222L364.086 247.116V251.98L363.333 254.386L363.484 255.768L364.137 258.225L365.041 260.273L365.442 260.017L366.196 257.713L364.89 257.201L364.739 256.894L365.543 256.587L367.803 257.099L367.903 257.918L366.296 260.734L365.241 261.962L367.049 263.857L368.355 265.444L369.811 268.157L371.268 270.154L372.322 272.713L373.226 272.867L374.03 271.792L374.934 272.355L376.239 274.403L376.541 276.246L378.097 278.498L378.499 277.833L380.458 277.986L382.266 279.164L383.973 281.826L384.375 283.567L384.526 285.051L385.078 285.563L385.731 285.819L386.936 285.307L387.689 284.488L389.648 284.386L391.205 283.618L392.561 281.98L392.309 281.007L392.159 279.778L392.46 278.805L392.309 277.833L393.515 277.167L393.665 275.427L393.364 274.505L393.113 268.362L392.46 264.471L390.2 260.273L388.392 257.304L387.087 254.59L385.63 253.106L384.174 249.317L384.526 248.601L385.078 247.935L384.274 246.451L382.266 244.556L379.855 241.741L377.997 238.515L375.335 233.703L373.477 228.737L372.322 225L369.711 224.846ZM378.6 292.782L379.805 292.474L380.458 292.372L381.211 291.195L382.366 290.375L383.019 290.631L383.873 290.785L384.074 291.348L382.316 291.962L380.207 292.73L379.052 293.345L378.6 292.782ZM385.379 290.222L385.982 290.785L387.338 289.71L389.999 287.56L391.857 285.563L393.113 282.184L393.615 281.314L393.716 279.573L393.364 279.829L392.862 281.263L392.109 283.618L390.502 286.331L388.292 288.481L386.584 289.454L385.379 290.222Z" fill="#D3D3D3"/>
<path id="GA" d="M369.711 224.334L366.899 223.976L366.196 224.795L366.999 227.201L366.848 229.198L365.744 228.891L365.643 227.355H363.032L360.37 227.713L344.15 228.686L340.283 228.532L339.58 227.918L338.324 225.717L337.922 224.027L337.119 223.567L336.868 223.311L337.32 222.184L337.119 219.369L336.315 217.065L336.717 214.556L337.571 212.099L337.47 210.819L336.516 210.461L336.315 208.823L334.909 207.031L333.955 203.857L333.202 200.273L332.348 197.816L330.44 189.625L328.682 185.529L328.28 182.816L328.331 181.638L329.988 181.485L336.818 180.666L346.158 179.642L349.322 179.078L349.573 179.795L348.468 180.256L348.016 181.382L348.217 182.406L348.92 183.225L351.08 184.608L352.687 184.556L354.294 186.962L354.595 187.782L355.75 189.215L356.001 190.085L358.361 191.007L359.868 192.133L361.023 193.669L362.178 194.334L363.182 195.256L363.886 196.638L364.94 197.611L366.999 198.532L368.355 201.604L369.209 204.215L370.615 204.573L371.669 205.546L372.674 208.464L374.13 209.283L374.984 208.874L375.185 209.488L373.528 212.662L373.779 213.993L373.025 216.143L371.87 221.263L372.272 224.488L369.711 224.334Z" fill="#D3D3D3"/>
<path id="IA" d="M272.588 90.9215L273.642 91.9966L273.793 92.3549L272.789 93.8908L272.939 95.9385L274.245 98.0375L275.802 98.8566L277.007 99.0102L277.459 99.9317L277.559 101.16L278.815 101.672L279.267 102.235L279.518 103.055L281.426 104.744L281.728 105.717L281.376 107.253L280.522 109.147L280.221 110.375L279.166 111.195L278.363 111.45L275.5 112.218L274.697 114.676L275.099 115.597L275.952 116.365L275.852 118.157L274.898 118.874L274.546 119.795V121.024L273.843 121.229L272.989 121.945L272.738 122.816L272.939 123.686L272.286 124.198L271.131 122.816L270.428 121.382L266.26 121.792L261.238 122.099L236.531 122.713L235.727 120.512L235.526 117.082L234.823 114.932L234.472 112.27L233.367 110.375L232.865 108.02L231.509 104.027L230.956 101.16L230.253 100.188L229.6 98.7031L230.454 96.7577L231.057 93.6348L229.701 92.5085L229.55 91.2798L229.902 90.0512L230.806 89.8976L261.489 89.5904L272.136 89.2321L272.588 90.9215Z" fill="#D3D3D3"/>
<path id="ID" d="M81.0029 11.0734L78.5924 19.9863L76.3326 30.6655L74.6252 38.9693L74.4243 43.9198L75.0269 46.1928L76.7846 47.5546L76.6841 49.5563L74.7256 51.8089L72.4657 55.1877L72.0138 56.6723L71.4111 57.2355L70.5072 57.645L68.3478 60.3584L68.1469 61.9454L67.9461 62.5085L68.2474 63.0205L69.5531 62.9693L70.1055 64.1467L68.9002 67.116L68.2976 69.2662L63.8783 87.3379L74.2736 89.6416L94.1101 93.686L111.586 96.8089L114.047 81.8601L115.955 69.5222L114.599 68.2935L114.398 66.9624L113.997 66.3993L112.942 66.9113L112.591 68.2423L110.984 68.4983L109.025 67.6792L107.117 67.7304L105.861 68.0887L104.154 67.3208L102.949 67.4232L101.743 68.4471L100.739 67.884L100.387 65.8362L100.739 64.3515L99.4835 62.8669L97.8263 61.5358L96.4703 54.8293L96.4201 52.4232L96.2695 52.372L96.169 52.5768L93.6079 54.3686L92.7541 54.2662L91.2978 52.5256L91.1974 50.9386L94.7127 42.1689L94.5118 41.1758L92.8044 40.587L92.5031 39.9829L91.1974 38.2116L88.8873 32.9744L87.2803 32.1911L86.2759 29.657L86.9288 27.2867L85.3218 23.4061L87.5314 12.3891L81.0029 11.0734Z" fill="#D3D3D3"/>
<path id="IL" d="M303.673 106.638L303.271 105.307L302.619 103.413L301.815 102.491L301.062 101.16L300.861 98.3447L292.876 99.2662L284.138 99.7782H277.961L278.062 100.853L279.166 101.314L279.719 102.031L279.92 102.747L281.878 104.488L282.23 105.717L281.878 107.406L281.024 109.3L280.623 110.683L279.418 111.655L278.463 111.962L275.852 112.628L275.199 114.727L275.5 115.29L276.455 116.212L276.354 118.413L275.3 119.232L275.048 119.898V121.331L274.145 121.638L273.441 122.253L273.241 122.867L273.441 123.891L272.638 124.556L272.186 125.99L272.337 127.986L273.492 131.57L277.007 135.461L279.869 137.355V139.608L280.221 140.222L283.535 140.529L284.891 141.246L284.54 143.038L283.435 146.212L283.033 147.747L284.038 149.642L287.252 152.355L289.662 152.765L290.767 155.375L291.771 157.116L291.319 158.549L292.073 160.495L292.926 161.57L293.73 161.416L294.232 160.29L295.437 159.42L296.843 158.908L299.907 160.188L300.158 160.085V159.522L299.555 158.14L299.756 156.706L300.961 155.887L302.669 155.273L302.418 154.608L302.016 153.584L302.619 152.918L303.121 151.536V149.488L303.322 146.98L304.577 145.444L305.481 143.498L306.737 141.451L306.485 138.737L305.582 137.099L305.431 135.41L305.833 132.696L305.481 129.01L304.929 120.922L304.226 113.089L303.774 107.099L303.673 106.638Z" fill="#D3D3D3"/>
<path id="IN" d="M305.782 107.56L306.536 108.072L307.088 107.918L308.143 106.945L309.398 106.024L316.579 105.461L325.82 104.539L326.623 112.474L329.084 134.283L328.783 135.768L329.435 136.587L329.536 137.253L328.381 138.072L326.573 138.942L324.966 139.147L324.715 141.604L322.355 143.447L320.898 145.495L320.999 146.724L320.748 147.44H318.99L318.287 146.57L315.675 148.106L315.776 149.693L315.324 149.795L315.073 149.334L313.868 148.464L312.06 149.232L311.357 150.717L310.754 150.41L309.951 149.488L307.741 149.744L304.878 150.256L303.623 150.921V149.59L303.824 147.184L304.979 145.7L305.883 143.703L307.239 141.553L306.988 138.584L306.084 136.997L305.933 135.358L306.335 132.645L305.983 129.01L305.531 122.56L304.276 107.15L305.782 107.56Z" fill="#D3D3D3"/>
<path id="KS" d="M236.983 129.778L214.987 129.471L194.598 128.857L183.7 128.396L181.541 161.57L193.744 162.082L216.192 163.157L239.443 163.464L245.771 163.311L246.122 145.393L245.52 139.71L244.264 138.686L243.059 137.15L241.904 135.307L242.205 133.771L243.059 133.055V131.98L242.657 131.621L241.352 131.519L239.594 129.778H236.983Z" fill="#D3D3D3"/>
<path id="KY" d="M297.898 166.792L304.226 166.433L304.276 164.334H306.435L321.702 162.696L344.35 160.495L347.163 158.652L349.121 157.577L349.171 156.604L352.185 152.611L354.244 150.768L355.298 149.539L353.641 148.515L352.385 147.133L350.879 145.188L350.628 144.061L349.322 143.345L348.87 142.372L348.77 139.249L347.464 138.225L346.51 137.662L346.259 136.485L345.606 136.587L344.602 137.201L343.346 138.584L342.392 137.713L341.136 137.457L339.931 138.174H338.776L337.872 137.15L335.06 137.099L334.156 134.795L332.7 134.027L331.645 134.437L329.536 134.539L329.285 135.614L329.887 136.382L330.038 137.457L328.632 138.481L326.724 139.403L325.418 139.608L325.167 141.911L322.706 143.754L321.4 145.648L321.501 146.775L321.049 147.952L318.789 147.901L318.136 147.235L316.178 148.362L316.278 150.051L315.073 150.358L314.671 149.642L313.817 149.027L312.461 149.59L311.558 151.382L310.453 150.87L309.75 150.051L307.892 150.256L305.079 150.768L303.673 151.433L303.071 153.174L302.568 153.686L303.322 155.58L301.212 156.297L300.258 157.014L300.057 158.14L300.66 159.369V160.495L299.857 160.7L296.793 159.42L295.638 159.881L294.634 160.597L294.232 161.519L295.086 162.747L294.634 163.669L294.584 165.358L293.378 166.024L292.324 166.894L297.898 166.792Z" fill="#D3D3D3"/>
<path id="LA" d="M257.572 245.683L261.64 245.529L266.813 247.372L270.077 247.935L271.935 247.167L273.542 247.73L275.149 248.242L275.551 247.167L273.944 246.604L272.638 246.86L271.282 246.041L271.684 245.273L273.241 244.761L274.145 245.529L275.048 245.017L276.655 245.324L277.409 246.553L277.559 247.73L279.819 247.884L280.723 248.805L280.321 249.625L279.669 250.034L280.472 250.853L284.69 252.696L286.498 252.031L287.001 250.802L288.306 250.495L289.21 249.727L289.863 250.239L290.265 251.724L289.11 252.133L289.411 252.44L291.118 251.775L292.274 250.034L292.675 249.778L291.621 249.625L292.022 248.805L291.922 248.038L292.977 247.782L293.529 247.116L293.83 247.526L294.132 249.113L296.241 249.42L298.25 250.393L298.752 251.16H300.208L300.761 251.672L301.916 250.085V249.317H301.263L299.555 247.935L296.643 247.526L295.036 246.348L295.588 244.966L296.743 245.119L296.843 244.812L295.939 244.3V244.044H297.546L298.45 242.457L297.798 241.485L297.647 240.102L296.894 240.205L295.939 241.28L295.638 242.611L294.081 242.304L293.579 241.382L294.483 240.41L295.437 239.539L294.332 236.212L292.625 234.471L293.127 230.734L293.027 230.478L292.374 230.58L275.752 231.297L275.35 230.068L275.752 225.717L280.07 218.14L279.618 216.809L280.321 216.604L280.522 215.58L279.418 214.556L279.468 213.584L278.463 211.28L278.262 208.669L278.313 208.311L265.055 208.72L252.4 208.771L252.601 213.737L252.952 218.601L253.203 220.495L254.509 222.799L254.961 225.051L257.12 228.123L257.271 229.71L257.572 230.119L257.221 234.369L255.815 236.724L256.417 237.952L256.166 239.283L255.764 243.02L255.112 244.556L255.212 246.451L257.572 245.683Z" fill="#D3D3D3"/>
<path id="MA" d="M438.661 85.2389L438.41 84.0614L438.812 83.2935L440.268 82.5256L440.67 84.1126L440.419 85.0341L439.214 85.8021V86.314L440.168 85.5461L442.127 83.2423L444.085 82.2696L446.194 81.5017L446.044 80.2731L445.541 78.7884L444.587 77.5597L443.683 77.1502L442.629 77.2526L442.378 77.5085L442.88 78.1741L443.633 77.7645L444.688 78.5836L445.089 79.9659L444.185 80.8874L443.03 81.3993L441.223 81.1434L439.264 78.0717L438.109 76.7406H437.205L436.653 77.1502L435.698 75.8191L435.849 75.0512L437.054 72.3891L435.598 70.1365L433.74 71.058L432.836 72.5427L423.646 74.9488L416.716 76.2287L416.414 81.6553L416.766 84.1638L427.814 81.7065L433.439 80.2731L434.443 81.0922L436.15 83.2935L437.607 85.6997L438.661 85.2389ZM444.939 85.9556L446.044 85.5973L446.295 84.727L446.797 84.7782L447.299 85.9556L446.646 86.2116L444.688 86.2628L444.939 85.9556ZM440.218 86.3652L441.373 85.0341H442.177L443.081 85.8021L441.875 86.314L440.771 86.8259L440.218 86.3652Z" fill="#D3D3D3"/>
<path id="MD" d="M412.196 132.133L413.05 130.188L413.301 127.73L410.137 128.293L407.224 128.447L405.316 119.846L404.161 117.031L403.408 114.676L392.259 116.877L373.377 120.768L374.381 126.092L376.792 123.584L378.047 123.225L378.75 122.457L379.654 121.075L380.458 121.433L381.763 121.331L383.069 120.256L384.073 119.488L385.128 119.181L385.881 119.744L387.237 120.461L388.191 121.382L388.844 122.099L391.255 122.918L390.953 124.403L393.866 125.478L394.921 124.147L396.779 125.427L395.724 127.116L395.373 128.805L394.469 130.136V131.212L394.619 131.621L395.624 132.287L397.331 132.85L399.491 132.799L401.047 133.311L402.102 133.464L402.604 132.389L401.851 131.314V130.392L400.646 129.317L399.591 126.502L400.244 123.788L400.144 122.713L399.491 122.048C399.491 122.048 400.244 121.229 400.244 120.87C400.244 120.563 400.495 119.795 400.495 119.795L401.449 119.13L402.403 118.311L402.654 118.823L401.901 119.642L401.248 121.536L401.399 122.099L402.303 122.253L402.554 125.068L401.499 125.58L401.65 127.423L401.901 127.321L402.454 126.348L403.257 127.27L402.454 127.935L402.303 129.676L403.609 131.416L405.567 131.672L406.371 131.263L407.978 133.413L408.48 133.618L412.196 132.133ZM404.914 132.235L405.467 133.515L405.567 134.437L406.12 135.41C406.12 135.41 406.572 134.949 406.572 134.795C406.572 134.642 406.22 133.208 406.22 133.208L405.868 132.031L404.914 132.235Z" fill="#D3D3D3"/>
<path id="ME" d="M427.764 43.9761L428.517 44.1809V42.8498L428.919 40.0341L430.225 37.628L430.978 35.5802L430.024 34.3515V31.2799L430.426 30.7679L430.827 29.3857L430.727 28.6178L430.626 26.1604L431.53 23.7031L432.987 19.1468L434.041 16.9966H434.694L435.347 17.099V17.6621L436 18.8396L437.356 19.1468L437.757 18.7372V18.2253L439.766 16.7406L440.67 15.8191L441.423 15.9215L444.437 17.1502L445.391 17.6621L449.961 32.9693H452.974L453.375 33.942L453.476 36.3993L454.932 37.5768H455.334L455.434 37.3208L455.183 36.7577L456.59 36.5017L457.544 37.5768L458.699 39.471V40.4437L457.644 42.8498L456.69 43.157L454.982 44.744L452.572 47.5597H451.919C451.618 47.5597 451.417 46.4847 451.417 46.4847L450.513 46.587L450.011 47.355L448.806 48.1229L448.303 48.8908L449.107 49.6587L448.856 49.9659L448.605 51.3481L447.651 51.2457V50.4266L447.5 49.7611L446.747 49.9147L445.843 48.2765L444.788 48.942L445.441 49.7099L445.592 50.273L445.19 50.9386L445.34 52.5256L445.441 53.3447L444.637 54.6758L443.181 54.9318L443.03 56.4164L440.369 58.0034L439.716 58.2594L438.912 57.4915L437.356 59.3345L437.858 60.9727L437.105 61.6382L437.004 63.8908L436.452 67.1161L435.347 66.6553L435.096 65.0683L433.087 64.5051L432.987 63.2253L427.111 44.0632L427.764 43.9761ZM446.094 51.9625L446.847 51.1946L447.55 51.7577L447.851 52.9864L446.998 53.4471L446.094 51.9625ZM449.458 48.942L450.362 49.9147C450.362 49.9147 451.015 49.9659 451.015 49.8123C451.015 49.6587 451.116 48.7884 451.116 48.7884L451.568 48.3789L451.166 47.4573L450.162 47.8157L449.458 48.942Z" fill="#D3D3D3"/>
<path id="MI" d="M316.63 104.949L326.221 103.976L326.322 104.539L331.294 103.771L337.32 102.901L337.37 102.594L337.47 101.826L338.525 99.9317L339.529 99.0614L339.429 96.4505L340.233 95.6314L340.785 95.4778L340.885 93.6348L341.639 92.099L342.191 92.4061L342.291 92.7133L342.693 92.8157L343.647 92.3038L343.447 87.6451L341.84 83.4471L340.685 78.7884L339.479 77.1502L338.174 76.2287L337.37 76.7918L335.412 77.7133L334.457 80.273L333.101 82.1672L332.549 82.4744L331.796 82.1672C331.796 82.1672 330.49 81.3993 330.59 81.0922C330.691 80.785 330.842 78.5324 330.842 78.5324L332.549 77.8669L332.951 76.1263L333.252 74.7952L334.457 73.9761L334.307 68.8567L333.503 67.6792L332.85 67.2696L332.449 66.1945L332.85 65.785L333.654 65.9386L333.754 65.1195L332.449 63.9932L331.796 62.6621H330.49L328.23 61.8942L325.468 60.1536H324.112L323.811 60.4608L323.309 60.2048L321.752 59.0273L320.296 59.9488L318.839 61.1263L318.99 62.9693L319.492 63.1229L320.547 63.3788L320.798 63.7884L319.492 64.198L318.186 64.3515L317.433 65.273L317.282 66.3481L317.433 67.1672L317.584 69.9829L315.776 71.058L315.475 70.9556V68.8055L316.127 67.5768L316.429 66.3481L316.027 65.9386L315.073 66.3481L314.571 68.4983L313.215 69.0614L312.311 70.0341L312.21 70.5461L312.512 70.9556L312.21 72.2867L311.055 72.5427V73.1058L311.457 74.3345L310.905 77.4573L310.101 79.5051L310.403 81.9113L310.654 82.4744L310.252 83.7031L310.101 84.1126L309.951 85.4949L311.758 88.5666L313.215 91.8942L313.968 94.3515L313.566 96.7577L313.064 99.8294L311.859 102.491L311.708 103.874L310.101 105.461L316.63 104.949ZM299.907 67.884L299.254 67.3208L298.35 61.9966L296.492 61.3311L295.638 60.1536L289.311 58.7201L287.904 58.157L283.837 57.0307L279.92 56.5188L277.961 53.8055L278.313 53.5495L279.669 53.1399L281.476 51.9625V51.4505L281.778 51.1434L284.791 50.6314L285.996 49.6587L288.206 48.5836L288.306 47.9181L289.26 46.4335L290.164 46.0239L290.817 45.1024L291.972 43.9249L294.182 42.6963L296.542 42.4403L297.094 43.0034L296.944 43.5154L295.086 44.0273L294.332 45.6143L293.177 46.0239L292.926 47.2526L291.721 48.8908L291.57 50.2218L291.972 50.4778L292.474 49.9147L294.282 48.43L294.935 49.0956H296.09L297.697 49.6075L298.45 50.1707L299.204 51.7577L300.56 53.1399L302.518 53.0375L303.271 52.5256L304.075 53.1911L304.878 53.4471L305.531 53.0375H306.084L306.887 52.5256L308.896 50.6826L310.603 50.1195L313.918 49.9659L316.178 48.9932L317.483 48.3277L318.237 48.43V51.3481L318.488 51.5017L319.944 51.9113L320.898 51.6553L323.962 50.8362L324.514 50.273L325.267 50.529V54.1126L326.874 55.6997L327.527 56.0068L328.18 56.5188L327.527 56.6724L327.125 56.5188L325.267 56.2628L324.213 56.57L323.058 56.4676L321.451 57.2355H320.547L317.634 56.57L315.023 56.6724L314.069 58.0034L310.553 58.3106L309.348 58.7201L308.796 60.3072L308.143 60.8703L307.892 60.7679L307.138 59.9488L304.878 61.1775H304.577L304.025 60.3584L303.623 60.4608L302.669 62.7133L302.167 64.7611L300.56 68.2935L299.907 67.884ZM285.042 38.9591L285.946 37.884L287.051 37.4744L289.763 35.4778L290.918 35.1707L291.169 35.4266L288.608 38.0376L286.95 39.0102L285.896 39.471L285.042 38.9591ZM328.331 55.3925L328.632 56.6724L330.239 56.7748L330.892 56.1604C330.892 56.1604 330.842 55.3925 330.691 55.3413C330.54 55.2389 329.887 54.3686 329.887 54.3686L328.783 54.471L327.979 54.5734L327.828 55.1365L328.331 55.3925Z" fill="#D3D3D3"/>
<path id="MN" d="M226.286 31.1212L225.985 33.1229V38.3806L226.788 40.9556L227.742 42.6553L227.993 47.7389L228.897 54.6246L229.801 58.3618L230.002 61.6382V64.3516L229.199 65.2731L228.295 65.9386V66.7065L228.747 67.5768L230.806 69.3686L231.157 71.0068V89.3857L261.439 89.0785L272.086 88.7202L271.834 85.6485L270.931 84.5734L267.315 82.2185L265.507 79.5051L263.799 79.0444L262.795 77.6109H261.188L259.43 75.6655L259.179 72.0819L259.23 70.0853L259.983 68.5495L259.631 67.1673L258.225 65.5802L259.33 62.4574L262.042 60.4096L262.644 59.6928L262.544 55.5973L262.644 54.0614L263.95 52.5256L265.858 51.041L266.511 50.9386L268.771 48.3789L269.675 47.9693L270.83 45.9727L272.035 44.1297L273.592 42.7986L276.003 41.7748L280.623 39.6758L282.581 38.7543L282.883 37.5768L280.673 37.7816L280.321 38.3447H280.02L279.116 36.7577L274.647 36.9113L274.145 37.3208H273.642L273.391 36.6553L272.989 35.7338L271.684 35.9898L270.077 37.628L269.273 38.0376H267.717L266.411 37.5256V36.4505L265.758 36.3481L265.507 36.6041L264.201 35.9386L263.95 34.4539L263.197 34.7099L262.946 35.2219L261.74 34.9659L259.079 33.7372L257.12 32.4062H255.664L255.011 31.8942L253.856 32.2014L253.304 32.7645L253.153 33.4301H250.743V32.355L247.579 32.2014L247.428 31.4335H245.018L244.214 30.6143L243.461 27.4915L243.059 24.6758L242.105 24.2662L240.95 24.0103L240.649 24.1126L240.498 28.3106L225.382 28.2952L226.286 31.1212Z" fill="#D3D3D3"/>
<path id="MO" d="M290.817 170.324L291.068 167.304L293.177 165.563L294.132 165.051V163.567L294.483 162.747L293.931 161.928L292.725 162.082L291.671 160.802L290.817 158.498L291.269 157.167L290.265 155.529L289.361 153.174L287.051 152.816L283.636 149.949L282.531 147.799L282.933 146.109L284.038 143.038L284.339 141.502L283.385 140.99L279.92 140.683L279.367 139.71V137.611L276.706 135.819L273.09 131.826L271.935 128.089L271.684 125.939L272.035 124.71L270.73 123.123L270.127 121.894L266.26 122.304L261.238 122.611L236.731 123.225L237.384 124.556L237.334 125.683L238.489 127.526L239.996 129.522L241.553 131.058L242.858 131.16L243.561 131.724V133.208L242.657 134.027L242.406 135.205L243.461 136.843L244.666 138.379L245.972 139.454L246.625 145.392L246.223 165.87L246.474 168.788L258.376 168.686L270.077 168.328L286.398 167.662L287.503 169.556L287.101 171.143L285.544 172.423L285.293 173.345L287.904 173.601L289.963 173.038L290.817 170.324Z" fill="#D3D3D3"/>
<path id="MS" d="M296.442 238.822L297.747 236.672L298.651 237.082L302.066 236.109L303.121 236.263L303.874 236.672H306.485L306.686 235.853L305.833 228.276L304.426 218.549L304.929 195.461L304.828 186.911L304.929 183.686L302.518 183.84L292.675 184.659L286.147 184.864L286.046 186.502L284.64 187.167L283.335 189.778L283.586 190.597L283.636 191.826L282.18 192.389L280.422 195L280.824 196.177L279.317 197.457L278.815 200.375L278.514 201.348L279.317 202.628L278.564 203.345L279.317 204.778L279.468 206.928L278.865 208.208L278.765 208.669L278.966 211.229L279.97 213.532L279.92 214.403L281.075 215.427L280.723 217.014L280.271 217.167L280.573 218.14L276.254 225.819L275.852 230.017L276.103 230.785L288.256 230.427L292.374 230.068L293.328 229.915L293.629 230.631L293.127 234.266L294.784 235.956L295.889 239.232L296.442 238.822Z" fill="#D3D3D3"/>
<path id="MT" d="M174.31 33.1587L171.648 62.4061L170.995 70.1877L141.316 66.8089L116.709 63.1741L116.005 68.9078L115.051 68.0375L114.85 66.7577L114.198 65.785L112.54 66.5529L112.189 67.8328L111.034 67.9863L109.125 67.1672L107.067 67.2184L105.861 67.5768L104.254 66.8089L102.748 66.9113L101.693 67.884L101.241 67.5768L100.89 65.8362L101.241 64.1979L99.8852 62.5597L98.228 61.2799L96.9725 54.8293L96.9223 52.116L96.1188 51.7065L95.8175 52.2184L93.5576 53.8566L92.955 53.8055L91.8 52.372L91.6996 50.9386L95.2149 42.1587L94.9136 40.7918L93.1559 40.2184L92.955 39.7526L91.5991 37.9607L89.289 32.6314L87.682 31.8225L86.7781 29.6416L87.431 27.2713L85.8239 23.3959L88.0336 12.4966L104.455 16.0239L113.695 17.7645L129.916 20.4778L144.63 22.5256L159.294 24.3174L174.761 25.8891L174.31 33.1587Z" fill="#D3D3D3"/>
<path id="NC" d="M388.041 180.051L381.663 176.109L380.106 175.7L371.77 176.775L370.966 175.239L369.56 174.113L361.174 174.369L357.458 174.829L352.837 177.133L349.423 178.515L346.158 179.13L339.429 179.846L339.479 177.747L340.333 177.082L341.689 176.724L342.04 174.778L343.999 173.498L345.957 172.73L348.217 170.836L350.427 169.659L350.778 168.02L352.837 166.075L353.189 166.587L354.444 166.689L355.65 164.846L356.503 164.642L357.809 164.795L358.713 162.747L359.968 161.519L360.22 160.597L360.27 158.805L362.479 158.857L381.814 155.99L410.689 149.693L411.694 152.15L413.502 155.478L414.707 156.706L415.008 157.884L413.803 157.986L414.205 158.294L414.054 160.444L412.748 161.109L412.447 162.184L411.794 163.669L409.936 164.488L408.731 164.334L407.978 164.232L407.174 163.567L407.325 164.232V164.744H408.279L408.681 165.41L407.727 168.635H409.836L410.137 169.454L411.292 168.276L411.945 168.02L410.991 169.863L409.434 172.321H408.781L408.229 172.065L406.873 172.372L404.261 173.601L400.997 176.314L399.29 178.72L398.336 182.048L398.085 183.276L395.724 183.532L393.163 184.3L388.041 180.051ZM412.799 166.638L414.104 165.358L415.711 164.027L416.465 163.72L416.565 162.696L416.264 159.573L415.511 158.396L415.209 157.423L415.561 157.321L416.917 160.137L417.117 162.389L417.017 164.13L415.31 164.898L413.904 166.126L413.351 166.741L412.799 166.638Z" fill="#D3D3D3"/>
<path id="ND" d="M229.5 61.6382L229.299 58.4642L228.395 54.727L227.491 47.7594L227.24 42.7935L226.286 41.1655L225.482 38.442V33.1126L225.784 31.1417L224.88 28.3055L210.517 28.0034L201.177 27.6963L187.869 27.0307L175.213 25.9249L174.761 33.3072L172.401 59.3857L200.925 61.3823L229.5 62.2526V61.6382Z" fill="#D3D3D3"/>
<path id="NE" d="M229.148 101.519L228.646 100.341L228.395 99.5222L226.939 98.7031L224.528 97.9352L223.424 97.3208L222.118 97.372L220.26 97.5768L218.151 98.1911L215.137 96.0921L214.033 95.0683L208.659 95.3754L187.818 94.1468L169.94 93.0205L167.781 115.392L184.404 117.082L183.7 127.884L194.598 128.396L214.987 129.01L236.983 129.317H239.242L238.138 127.782L236.832 125.785L236.882 124.608L236.179 123.225L235.225 120.563L235.024 117.133L234.321 115.034L234.07 112.474L232.915 110.58L232.413 108.174L231.007 104.13L230.504 101.416L229.148 101.519Z" fill="#D3D3D3"/>
<path id="NH" d="M435.749 69.2662L436.301 67.628L434.945 67.0136L434.694 65.4266L432.635 64.8635L432.484 63.3276L426.609 44.1399L426.257 44.1809L425.956 45L425.655 44.744L425.153 44.2321L424.399 45.2048L424.299 46.3771L424.55 50.6826L425.504 52.116V54.3174L423.546 56.7747L422.34 57.2355V57.5938L422.893 58.5665V62.9693L422.491 67.6792L422.39 70.0853L422.893 70.802L422.792 73.2082L422.541 73.9761L423.043 74.5392L425.604 73.9249L432.535 72.1331L433.388 70.6485L435.397 69.6758L435.749 69.2662Z" fill="#D3D3D3"/>
<path id="NJ" d="M406.622 113.805L406.672 113.038L408.028 112.372L408.882 110.939L409.735 109.71L411.393 108.072V107.457L408.329 105.358L407.827 103.976L406.471 103.823L406.421 103.362L406.069 102.235L407.174 101.672L407.275 100.188L406.622 99.5222L406.722 98.9078L407.676 97.3208V95.7338L408.932 94.1467L411.744 95.4266L414.958 96.3993L416.214 97.0136L416.264 97.9351L416.013 99.3174L416.214 101.621L415.159 102.594L414.607 103.106L414.858 103.362L416.214 103.208L416.766 102.799L417.569 104.539L417.67 109.352L417.971 109.915L417.419 112.73L415.862 116.058L414.506 118.106L414.104 120.563L413.05 121.792H412.648L412.497 120.41L412.899 119.898L412.799 119.13L410.79 118.823L408.379 117.645L406.772 116.16L406.27 115.137L406.622 113.805Z" fill="#D3D3D3"/>
<path id="NM" d="M128.661 216.758L120.274 215.427L119.671 220.341L111.737 219.317L114.75 198.993L118.265 171.758L120.475 155.939L137.549 157.935L156.331 160.188L172.401 161.621L172.251 167.15L171.547 167.099L167.831 217.116L153.569 216.195L134.436 214.3L134.787 217.526L128.661 216.758Z" fill="#D3D3D3"/>
<path id="NV" d="M54.7887 85.8021L74.2234 90.1536L87.2803 92.8157L81.9571 120L79.2453 135.256L77.5881 143.191L76.5335 148.874L75.2278 157.27L74.3741 158.857L73.5705 158.805L72.9679 157.474L71.5618 157.218L70.909 156.655L70.005 156.706L69.553 157.116L68.6491 157.782L68.4984 161.519L68.3478 162.287L68.0967 168.635L67.5443 169.556L59.1578 156.502L38.0156 124.71L31.7734 114.983L36.0671 98.2935L40.0897 82.2696L54.7887 85.8021Z" fill="#D3D3D3"/>
<path id="NY" d="M416.515 99.3174L416.766 97.9352L416.666 96.7065L415.159 95.9386L411.895 94.9147L408.882 93.5836L408.58 93.3788L407.224 93.2253L406.22 92.4573L405.165 89.4369L403.508 89.1809L402.303 87.9522L383.019 92.099L367.15 95.1706L366.899 91.843L367.702 91.2287L368.355 90.6655L368.857 89.8464L369.761 89.2833L370.715 88.3618L370.966 87.5427L372.021 86.1604L372.573 85.6485L372.473 85.1365L371.82 83.5495L370.916 83.4471L369.962 80.3242L371.418 79.4027L373.628 78.6348L375.637 77.9693L377.244 77.7133L380.408 77.6109L381.362 78.2764L382.165 78.3788L383.22 77.7133L384.525 77.1502L387.137 76.8942L388.191 75.9727L389.095 74.3345L389.899 73.3618H390.953L391.908 72.7986L392.008 71.6212L391.255 70.5461L391.104 69.7782L391.657 68.7031V67.9352H390.753L389.849 67.5256L389.447 66.9625L389.346 65.6314L392.259 62.8157L392.561 62.4061L393.314 60.9215L394.77 58.6177L396.126 56.7236L397.181 55.4949L398.386 54.5734L399.943 53.959L402.705 53.2935L404.312 53.3959L406.572 52.628L410.288 51.5017L410.639 54.0102L411.844 57.3379L412.246 59.8976L411.744 62.0478L413.05 64.3515L413.452 65.3754L413 67.0136L414.858 67.884L416.214 73.1058V76.0751L415.912 81.6553L416.314 84.4198L416.666 86.2628L417.419 90V94.1468L416.866 95.3242L417.921 96.7065L418.172 97.1672L417.218 98.0887L417.369 98.7543L418.021 98.6007L418.775 97.9352L419.93 96.6041L420.482 96.2969L421.286 96.6041L422.441 96.7065L426.408 94.7099L427.864 93.3276L428.517 92.5597L430.626 93.3788L428.919 95.2218L426.96 96.7065L423.395 99.4198L422.089 99.9317L419.176 100.904L417.168 101.468L416.666 101.263L416.515 99.3174Z" fill="#D3D3D3"/>
<path id="OH" d="M326.322 105.051L327.176 112.986L329.586 134.027L331.545 133.925L332.7 133.515L334.508 134.437L335.361 136.587L338.073 136.638L338.977 137.662H339.831L341.036 136.945L342.593 137.201L343.346 137.867L344.25 136.843L345.405 136.126L346.61 135.921L346.912 137.304L347.715 137.816L349.021 138.84L349.423 138.942L350.427 138.891L351.03 138.584V137.509L351.883 136.741L351.933 134.283L352.486 132.133L353.44 131.468L353.942 131.826L354.444 132.389L354.796 132.491L354.997 132.287L354.545 130.904V129.778L355.097 129.061L356.353 127.218L357.006 126.451L358.11 126.706L359.165 125.939L360.672 124.249L361.776 122.355L361.877 119.59L362.128 117.031V114.676L361.525 113.038L362.128 112.116L362.781 111.502L362.479 110.068L360.32 96.9625L357.206 98.8567L355.248 100.034L353.54 101.928L351.532 103.925L349.925 104.334L348.468 104.59L345.706 105.922L344.652 106.024L342.944 104.437L340.333 104.744L339.027 103.976L337.922 103.311L326.322 105.051Z" fill="#D3D3D3"/>
<path id="OK" d="M199.821 168.379L198.917 180.819L198.465 190.034L198.565 190.853L200.574 192.696L201.428 193.157H201.88L202.332 192.082L203.085 193.055L203.888 193.106L204.039 193.003L204.14 192.44L205.546 193.157L205.345 194.949L207.253 195.205L208.509 195.717L210.618 196.024L211.773 196.843L213.028 195.973L214.786 196.331L215.891 197.918L216.493 197.969V199.147L217.548 199.505L218.803 198.43L219.707 198.737L221.063 198.788L221.415 199.966L223.624 200.887L224.478 200.734L225.432 198.584H226.085L226.638 199.659L228.747 200.068L230.454 200.734L231.961 201.143L232.764 200.785L233.116 199.403H235.376L236.33 199.863L237.686 198.891H238.389L238.69 199.608H240.498L241.502 198.686L242.657 198.993L243.511 200.119L245.018 200.99L246.725 201.451L247.679 202.065L247.529 182.816L246.826 177.236L246.775 172.833L246.022 169.454L245.721 165.973L245.771 163.771L239.443 163.925L216.192 163.669L193.744 162.594L172.903 161.672L172.703 167.15L199.821 168.379Z" fill="#D3D3D3"/>
<path id="OR" d="M26.8369 78.2764L41.0187 81.9624L54.8389 85.2901L63.3761 87.1843L67.7954 69.215L68.398 66.9624L69.6033 64.1467L69.2517 63.4812L67.9963 63.5324L67.3434 62.6109L67.6447 61.843L67.8456 60.1536L70.2059 57.2355L71.1601 56.7747L71.612 56.3652L71.9636 54.9829L72.3653 54.4198L74.3238 51.5017L76.1819 49.4539L76.2824 47.785L74.5749 46.5102L73.9723 44.1809L67.3936 42.2201L59.7102 40.4437L52.2778 40.6331L51.7254 39.9624L49.1642 40.9044L46.9044 40.6587L45.6991 39.8498L45.0463 40.1263L42.696 39.9778L41.7117 39.2457L39.2811 38.3396L38.7287 38.3037L36.494 37.6536L35.6101 38.4317L32.4665 38.3089L29.7998 36.3379L29.9053 31.587L28.8758 29.7952L26.8168 29.488L26.4653 28.2082L25.26 27.9522L22.3474 29.0273L21.1923 32.3549L19.5853 37.4744L17.9783 40.802L15.4674 48.0205L12.2032 54.9829L8.13543 61.4334L7.18127 62.9181L6.77952 67.3208L6.12668 70.3925L7.48761 72.1843L26.8369 78.2764Z" fill="#D3D3D3"/>
<path id="PA" d="M362.881 95.3242L363.534 95.0682L366.396 92.2525L366.748 95.785L383.571 92.4573L402.102 88.4641L403.257 89.6416L404.814 89.8464L405.818 92.7133L407.024 93.686L408.43 93.8908L408.48 93.942L407.174 95.5802V97.1672L406.22 98.7543L406.12 99.727L406.772 100.392L406.672 101.365L405.467 101.928L405.969 103.669L406.069 104.232L407.476 104.386L407.927 105.666L410.89 107.662V107.867L409.334 109.403L408.58 110.529L407.727 111.962L406.371 112.577L405.668 112.73L404.613 113.396L403.81 114.113L392.561 116.314L373.126 120.307L367.451 121.024L365.493 121.382L362.931 109.915L360.772 96.6553L362.881 95.3242Z" fill="#D3D3D3"/>
<path id="RI" d="M431.681 86.8771L431.279 84.6246L430.476 81.5529L433.338 80.785L434.091 81.4505L435.799 83.6519L437.205 85.9044L435.799 86.6212L435.146 86.5188L434.594 87.4403L433.388 88.413L431.982 88.9761L431.681 86.8771Z" fill="#D3D3D3"/>
<path id="SC" d="M374.13 208.669L373.076 208.157L372.121 205.29L370.866 204.113L369.611 203.857L368.857 201.502L367.351 198.174L365.241 197.253L364.287 196.331L363.685 195L362.479 193.976L361.324 193.311L360.22 191.826L358.613 190.597L356.403 189.727L356.202 189.01L355.047 187.577L354.796 186.809L352.888 184.044L351.18 184.096L349.222 182.816L348.619 182.201L348.519 181.485L348.82 180.666L350.176 180L349.774 178.976L352.988 177.594L357.608 175.29L361.174 174.829L369.41 174.573L370.565 175.546L371.469 177.338L373.779 176.928L380.106 176.16L381.462 176.57L387.739 180.358L392.812 184.608L390.15 187.372L388.844 190.495L388.593 193.72L387.79 194.13L387.237 195.512L386.032 195.819L384.977 197.662L383.622 199.044L382.467 200.785L381.663 201.195L379.855 202.935L378.399 203.038L378.901 204.676L376.39 207.389L375.235 208.208L374.13 208.669Z" fill="#D3D3D3"/>
<path id="SD" d="M229.5 89.6416L229.048 91.2799L229.249 92.8157L230.555 93.8396L229.952 96.6041L229.048 98.7031L229.801 100.392L230.153 100.956L229.5 101.007L229.148 100.188L228.847 99.1638L227.19 98.2423L224.779 97.4744L223.524 96.8089L222.068 96.8601L220.109 97.0648L218.201 97.6792L215.539 95.7338L214.183 94.5051L208.709 94.9147L187.869 93.686L169.991 92.5597L170.744 79.8635L172.15 62.4573L172.351 59.8976L200.925 61.8942L229.5 62.7645V64.1468L228.847 64.9147L227.843 65.6826L227.793 66.8089L228.345 67.9352L230.404 69.6758L230.655 71.058V89.4369L229.5 89.6416Z" fill="#D3D3D3"/>
<path id="TN" d="M329.837 181.024L323.259 181.638L311.558 182.764L292.675 184.147L286.749 184.352L287.201 184.044L287.653 181.741L287.051 179.898L289.009 178.72L289.21 177.44L289.813 175.239L291.319 170.375L291.57 167.509L291.721 167.406L297.898 167.304L304.728 166.894L304.778 164.898L306.536 164.846L321.802 163.157L348.92 160.495L354.093 159.727L357.91 159.625L359.115 158.652L359.768 158.805L359.717 160.495L359.517 161.314L358.311 162.44L357.508 164.283L356.503 164.079L355.298 164.539L354.193 166.229L353.49 166.126L353.088 165.512L352.536 165.717L350.377 167.765L349.975 169.352L347.866 170.478L345.706 172.321L343.798 173.089L341.588 174.522L341.287 176.365L340.032 176.621L339.027 177.491L338.927 179.949L329.837 181.024Z" fill="#D3D3D3"/>
<path id="TX" d="M134.988 214.812L153.569 216.655L168.283 217.628L171.999 167.611L199.318 168.84L198.465 180.768L197.963 189.983L198.063 191.007L200.273 193.106L201.277 193.669H202.181L202.432 193.055L202.784 193.515L203.989 193.618L204.541 193.311V193.208L205.043 193.464L204.843 195.358L207.102 195.717L208.308 196.177L210.417 196.536L211.723 197.457L213.129 196.485L214.485 196.792L215.589 198.379L215.991 198.43V199.505L217.648 200.068L218.904 198.993L219.657 199.249L220.712 199.3L221.013 200.375L223.624 201.399L224.779 201.143L225.734 199.096H225.784L226.336 200.068L228.646 200.529L230.354 201.195L231.961 201.706L233.166 201.092L233.518 199.915H235.325L236.38 200.427L237.887 199.403H238.087L238.339 200.119H240.699L241.653 199.198L242.306 199.403L243.16 200.478L244.817 201.451L246.524 201.962L247.78 202.679L249.136 203.703L250.692 203.089L251.747 203.498L252.098 213.737L252.45 218.601L252.751 220.7L254.057 222.952L254.509 225.256L256.618 228.276L256.769 229.863L257.07 230.273L256.719 234.215L255.262 236.672L255.915 238.003L255.664 239.232L255.262 242.918L254.609 244.454L254.76 246.604L251.948 247.423L246.976 249.727L246.474 250.7L245.168 251.672L244.114 252.44L243.461 252.85L240.598 255.563L239.242 256.638L236.581 258.276L233.718 259.505L230.555 261.246L229.651 262.014L226.738 263.857L225.031 264.164L223.072 266.98L221.063 267.133L220.561 268.106L221.716 269.078L220.963 271.894L220.31 274.198L219.758 276.195L219.356 278.498L219.758 279.727L220.661 283.311L221.164 286.433L222.068 287.816L221.565 288.584L220.009 289.556L217.146 287.56L214.384 286.997L213.731 287.253L212.124 286.945L210.015 285.358L207.404 284.795L203.587 283.055L202.532 281.058L201.88 277.73L200.273 276.758L199.971 275.58L200.273 275.273L200.423 273.532L199.77 273.225L199.469 272.713L200.122 270.461L199.318 269.283L197.711 268.618L196.004 266.365L194.196 262.986L192.087 261.655L192.187 260.683L189.526 254.386L189.124 252.235L188.22 251.263L188.12 250.495L185.107 247.782L183.801 246.195V245.631L182.495 244.556L179.08 243.993L175.364 243.686L173.807 242.509L171.547 243.43L169.74 244.198L168.585 245.836L168.082 247.73L165.873 250.853L164.667 252.082L163.362 251.57L162.458 251.007L161.504 250.7L159.545 249.522V249.215L158.641 248.242L156.03 247.167L152.314 243.174L151.159 240.768V236.621L149.552 233.294L149.301 231.911L148.497 231.399L147.945 230.324L145.434 229.249L144.781 228.43L141.215 224.386L140.562 222.747L138.202 221.57L137.449 219.317L136.143 217.833L135.289 217.577L134.988 214.812ZM222.57 287.355L222.268 283.72L220.913 280.034L220.611 276.45L221.365 272.253L223.022 268.72L224.779 265.956L226.386 264.113L226.688 264.215L224.277 267.594L222.068 270.921L221.063 274.3L220.913 276.962L221.365 280.085L222.67 283.771L222.921 286.433L223.022 287.201L222.57 287.355Z" fill="#D3D3D3"/>
<path id="UT" d="M107.669 153.532L120.023 155.375L120.977 148.362L124.492 122.509L125.647 111.246L109.477 109.454L110.582 102.747L111.486 97.3208L94.0599 94.198L87.7825 92.9181L82.4593 120L79.7475 135.358L78.0903 143.242L77.2365 147.952L107.669 153.532Z" fill="#D3D3D3"/>
<path id="VA" d="M412.146 132.696L412.045 134.13L410.589 136.075L410.388 138.43L410.639 140.171L409.735 142.73L408.631 143.703L407.877 141.348L408.078 138.584L408.882 136.433L409.233 134.744L409.183 133.874L412.146 132.696ZM381.864 155.529L362.479 158.396L360.069 158.345L358.964 158.191L357.709 159.164L354.043 159.215L348.87 160.034L345.505 160.341L347.564 159.01L349.623 157.833V156.758L352.486 153.02L354.545 151.126L355.65 149.846L357.458 152.048L359.366 152.509L360.722 151.997L361.726 151.229L362.931 151.843L365.241 151.177L366.095 148.925L367.3 149.283L368.907 148.106L369.711 148.311L371.117 146.672L371.218 145.29L370.816 144.676L373.226 139.3L374.13 136.638L374.381 134.232L374.733 134.13L375.285 135L376.039 135.614L377.997 135.512L378.851 131.365L380.357 131.058L380.759 129.727L382.165 128.601L382.718 127.526L383.622 125.324L383.672 122.969L385.48 123.686L388.794 125.273L388.945 122.611L390.652 123.225L390.351 124.71L394.67 126.297L395.373 127.218L394.971 128.908L394.318 129.573L394.067 130.444L394.318 131.672L395.323 132.338L397.281 133.055L398.737 133.567L401.198 134.027L402.303 135.102L403.91 135.307L404.362 135.922L404.161 138.328L404.864 138.891L404.613 139.863L405.216 140.273L405.115 140.99L403.759 140.939L403.81 141.758L404.965 142.526L405.015 143.242L405.919 144.164L406.17 145.444L404.864 146.16L405.668 146.928L408.58 146.058L410.438 149.232L381.864 155.529Z" fill="#D3D3D3"/>
<path id="VT" d="M411.141 53.9078L412.347 57.2355L412.748 59.9488L412.246 61.9454L413.502 64.1979L413.954 65.3754L413.602 66.7065L415.259 67.4744L416.716 73.0034V75.7167L422.491 74.6416L421.989 74.0785L422.29 73.1058L422.39 70.9044L421.888 70.1877L421.989 67.7815L422.39 63.0205V58.6689L421.838 57.7474V56.9283L423.244 56.3652L425.002 54.1126V52.2696L424.048 50.8874L423.897 47.9232L410.79 51.3993L411.141 53.9078Z" fill="#D3D3D3"/>
<path id="WA" d="M30.3824 31.587L29.2274 29.3857L27.1684 29.0273L26.9675 27.7986L25.712 27.4915L24.2557 27.2355L23.3517 27.7474L22.1967 26.2628L22.3474 24.7782L23.7033 24.6246L24.5068 22.5768L23.2011 22.0136L23.3015 20.1195L25.5112 19.8123L24.1552 18.43L23.402 14.7952L23.7033 13.3106V9.26621L22.7993 7.62798L23.9544 2.81569L25.009 3.07167L26.2142 4.55631L27.5701 5.88737L29.1771 6.86007L31.437 7.93515L32.9938 8.24232L34.4501 9.01024L36.1575 9.52218L37.3126 9.41979V8.19112L37.9654 7.62798L39.02 6.96246L39.1707 7.52559L39.3213 8.4471L38.1663 8.70307L38.0156 9.77815L38.9196 10.5461L39.472 11.7747L39.7733 12.7474L40.5266 12.645L40.627 11.9795L40.1248 11.314L39.8737 9.67577L40.2755 8.75426L39.9742 7.98635V6.65529L40.8781 4.81228L40.3257 3.48122L39.1205 1.02388L39.2711 0.614327L39.9742 0.204773L42.1838 0.972689L47.055 2.35494L51.3739 3.32764L61.4176 6.24573L72.9679 9.16382L80.5008 10.9505L78.0903 19.9403L75.8304 30.6041L74.123 38.9232L73.9221 43.6229L67.4439 41.7184L59.7604 39.942L52.4787 40.1058L51.9263 39.3225L49.0638 40.3925L47.1053 40.1775L45.7996 39.2611L44.9458 39.5939L42.8618 39.4659L41.998 38.7901L39.4067 37.8584L38.8141 37.7764L36.4036 37.0648L35.4394 37.9096L32.6021 37.7816L30.287 36.0665L30.3824 31.587ZM35.2034 3.22525L36.2078 3.12286L36.4589 3.83958L37.2121 3.02047H38.3672L38.7689 3.78839L38.0156 4.6587L38.317 5.06825L37.9654 6.09215L37.2624 6.29693C37.2624 6.29693 36.8104 6.34812 36.8104 6.19454C36.8104 6.04095 37.5637 4.86347 37.5637 4.86347L36.71 4.55631L36.5593 5.32423L36.2078 5.6314L35.4545 4.45392L35.2034 3.22525Z" fill="#D3D3D3"/>
<path id="WI" d="M264.854 53.1911L266.31 53.4471L267.767 53.1399L271.483 51.5017L272.939 50.529L273.994 50.1194L274.948 50.8874L274.396 51.4505L273.441 53.0375L273.14 54.0102L273.642 54.3174L274.546 53.8055L275.099 53.7031L276.455 54.1126L276.756 54.6758L277.308 54.7781L277.61 54.215L279.618 56.9283L283.736 57.5427L287.854 58.6689L289.16 59.2321L295.337 60.5631L296.14 61.7406L297.948 62.3549L298.802 67.5768L299.605 68.2935L300.359 68.7543L299.806 69.9317L298.902 70.7508L297.848 73.157L297.195 74.3857L297.295 75.3072L298.049 75.4607L298.601 74.488L299.354 74.0785L299.756 72.901L300.71 71.9795L302.066 69.9317L304.175 66.7065L304.577 66.4505L304.728 66.9624L304.627 68.1399L303.171 71.6211L301.815 74.5392L301.564 76.1775L301.263 77.5085L301.664 78.174L301.564 79.5563L300.61 80.785L300.359 81.7065L300.66 83.5495L300.961 85.2901L300.208 86.6211L299.806 88.1058L299.304 89.6928L299.857 90.9215L300.158 94.0444L300.961 96.3481L300.861 97.8839L292.876 98.8054L284.088 99.3174H277.71L277.359 98.5495L275.902 98.3447L274.596 97.6792L273.441 95.785L273.291 93.942L274.295 92.4573L274.044 91.7406L272.989 90.6143L272.588 88.9249L272.286 85.4437L271.232 84.1638L267.716 81.8601L265.808 79.0955L264.101 78.5836L262.996 77.1502H261.389L259.933 75.4607L259.681 72.1331L259.732 70.1877L260.485 68.6007L260.083 66.9624L258.828 65.529L259.732 62.7645L262.343 60.8191L263.147 59.8464L263.046 55.6997L263.147 54.2662L264.352 52.8328L264.854 53.1911Z" fill="#D3D3D3"/>
<path id="WV" d="M374.08 127.116L376.993 124.044L378.298 123.635L379.102 122.867L379.855 121.741L380.408 121.894L381.964 121.792L384.274 119.949L385.028 119.693L385.681 120.205L386.986 120.819L388.493 122.355L388.292 124.556L385.58 123.225L383.17 122.304L383.119 125.324L381.814 128.242L380.357 129.471L379.956 130.648L378.449 130.904L377.595 135.051L376.189 135.154L375.637 134.642L375.034 133.618L373.929 133.874L373.678 136.485L372.774 139.096L370.263 144.727L370.715 145.444L370.665 146.468L369.56 147.747L368.757 147.543L367.2 148.72L365.794 148.311L364.89 150.819L362.982 151.331L361.726 150.666L360.471 151.638L359.316 151.997L357.709 151.587L355.8 149.283L354.043 148.157L352.787 146.877L351.331 144.983L351.08 143.805L349.674 142.935L349.372 142.27L349.272 139.403L349.423 139.454L350.628 139.352L351.532 138.84V137.713L352.385 136.945L352.436 134.283L352.888 132.44L353.44 132.082L353.641 132.235L354.143 132.799L354.997 133.055L355.549 132.389L355.047 130.802V129.983L356.604 127.628L357.206 126.962L358.211 127.218L359.517 126.297L361.073 124.556L362.279 122.457L362.379 119.59L362.63 117.133V114.625L362.078 113.089L362.53 112.423L362.931 112.065L365.091 121.945L367.25 121.536L372.875 120.87L374.08 127.116Z" fill="#D3D3D3"/>
<path id="WY" d="M170.242 79.8123L169.489 92.8157L167.279 115.341L165.923 115.188L124.091 110.529L110.08 108.993L111.084 102.85L114.549 81.8601L116.457 69.471L117.11 63.7372L141.316 67.3208L170.995 70.6485L170.242 79.8123Z" fill="#D3D3D3"/>
<path id="AS" d="M299.053 295.137C299.153 295.085 299.304 294.829 299.405 294.676C299.555 294.42 299.254 294.369 299.605 294.317C299.756 294.266 299.957 294.522 300.007 294.573C300.108 294.676 300.208 294.778 300.258 294.522C300.309 294.42 300.61 294.061 300.71 293.959C300.861 293.857 301.012 293.857 301.162 293.703C301.263 293.601 301.413 293.498 301.514 293.396C301.664 293.242 301.715 293.191 301.815 293.038C301.916 292.884 302.016 292.782 302.116 292.679C302.317 292.474 301.614 292.577 301.313 292.577C301.212 292.577 301.464 292.27 301.464 292.167C301.514 291.962 301.564 291.962 301.765 291.911C302.066 291.86 302.066 291.962 302.066 292.218C302.066 292.372 302.317 292.014 302.317 291.86C302.367 291.655 302.518 291.553 302.669 291.502C302.819 291.399 303.02 291.399 303.121 291.297C303.322 291.195 303.322 291.195 303.271 291.041C303.221 290.939 303.322 290.734 303.271 290.58C303.221 290.324 303.523 290.529 303.372 290.273C303.322 290.171 302.97 290.068 302.92 290.068C302.719 289.966 302.568 290.017 302.367 289.915C302.167 289.812 302.217 289.761 302.317 289.607C302.367 289.556 302.819 289.607 302.87 289.659C303.071 289.71 303.271 289.71 303.472 289.71C303.723 289.71 303.874 289.71 304.075 289.812C304.226 289.863 304.175 290.017 304.175 290.273C304.175 290.529 304.125 290.631 304.326 290.683C304.577 290.734 304.678 290.683 304.828 290.58C304.878 290.529 305.381 290.478 305.431 290.478C305.632 290.427 305.782 290.375 305.883 290.273C306.033 290.119 306.234 290.017 306.335 289.966C306.485 289.812 306.636 289.812 306.787 289.761C307.038 289.71 307.138 289.863 307.239 289.966C307.339 290.068 307.289 290.324 307.289 290.478C307.289 290.58 307.992 290.324 308.042 290.273C308.243 290.171 308.394 290.222 308.494 290.068C308.695 289.915 308.544 289.761 308.846 289.863C309.047 289.915 309.197 289.812 309.398 289.761C309.599 289.71 309.549 289.607 309.549 289.352C309.549 289.147 309.549 288.993 309.549 288.788C309.549 288.532 309.398 288.584 309.197 288.532C309.047 288.481 308.795 288.584 308.745 288.686C308.595 288.84 308.544 288.788 308.494 288.993C308.444 289.198 308.394 289.249 308.243 289.3C308.143 289.351 307.992 289.096 307.791 289.096C307.59 289.096 307.49 288.993 307.339 288.891C307.188 288.788 307.038 288.788 306.787 288.788C306.686 288.788 306.586 288.993 306.385 289.044C306.234 289.096 305.933 289.044 305.883 289.044C305.732 289.044 306.084 288.635 306.084 288.635C306.285 288.532 306.586 288.635 306.134 288.481C305.983 288.43 305.732 288.532 305.531 288.532C305.23 288.532 305.23 288.584 305.23 288.84C305.23 289.096 305.079 289.044 304.828 289.044C304.678 289.044 304.728 288.737 304.577 288.686C304.326 288.635 304.376 288.84 304.276 288.481C304.226 288.328 303.974 288.481 303.824 288.584C303.723 288.686 303.472 288.532 303.723 288.481C303.974 288.43 303.623 288.174 303.472 288.174C303.221 288.174 303.271 288.328 303.121 288.481C302.97 288.635 302.819 288.532 302.719 288.788C302.669 288.891 302.418 288.942 302.267 288.993C302.066 289.096 301.916 289.147 301.765 289.249C301.514 289.352 301.212 289.3 300.961 289.3C300.811 289.3 301.062 289.556 301.062 289.71C301.062 289.915 301.062 290.068 301.062 290.273C301.062 290.58 301.012 290.478 300.761 290.58C300.61 290.631 300.509 290.427 300.309 290.427C300.057 290.427 300.007 290.529 300.007 290.734C300.007 290.99 299.806 290.836 299.605 290.939C299.405 291.041 299.204 291.092 299.204 290.836C299.204 290.631 299.003 290.631 298.802 290.58C298.551 290.529 298.551 290.734 298.35 290.836C298.149 290.939 297.948 290.887 297.747 290.99C297.697 290.99 297.597 290.734 297.496 290.683C297.295 290.631 296.994 290.734 296.843 290.734C296.592 290.785 296.743 290.939 296.442 290.939C296.241 290.939 296.04 290.99 295.939 291.041C295.839 291.092 296.14 291.246 295.688 291.246C295.387 291.246 295.337 291.297 295.236 291.45C295.136 291.655 295.236 291.758 294.885 291.809C294.784 291.809 294.584 292.065 294.584 292.116C294.533 292.27 294.081 292.27 294.433 292.321C294.634 292.372 294.784 292.372 295.036 292.423C295.236 292.474 295.437 292.526 295.588 292.628C295.739 292.679 296.04 292.628 296.14 292.577C296.341 292.526 296.341 292.474 296.592 292.577C296.743 292.628 296.743 292.833 296.843 292.884C296.994 292.935 297.396 292.935 297.546 292.935C297.597 292.935 297.597 293.396 297.647 293.447C297.697 293.549 297.747 293.754 297.747 293.908C297.747 293.959 298.099 294.113 298.199 294.164C298.3 294.266 298.45 294.317 298.601 294.369C298.802 294.42 298.902 294.42 299.053 294.522C299.153 294.778 299.003 294.983 299.053 295.137Z" fill="#D3D3D3"/>
<path id="GU" d="M286.699 283.925H286.749C286.95 283.925 287.151 283.976 287.402 284.027C287.704 284.078 287.804 284.437 288.055 284.488C288.306 284.59 288.356 284.795 288.557 284.949C288.608 285 288.658 285.102 288.708 285.102C289.059 285.41 288.306 285.717 289.16 285.512C289.16 285.512 289.813 285.768 289.913 285.768C290.215 285.819 290.566 285.819 290.817 285.87C291.118 285.922 290.516 286.331 290.365 286.587C290.215 286.792 290.315 287.15 290.315 287.406C290.315 287.713 290.265 287.918 290.164 288.123C290.114 288.379 289.913 288.532 289.763 288.635C289.612 288.788 289.311 288.891 289.059 288.942C288.758 288.993 288.758 289.198 288.306 289.198C288.105 289.198 288.055 289.71 288.005 289.863C287.804 290.171 287.452 289.863 287.302 290.273C287.201 290.529 287.051 290.529 286.85 290.683C286.649 290.836 286.398 290.939 286.197 290.99C285.896 291.143 285.695 291.246 285.293 291.246C285.142 291.246 284.841 291.706 284.791 291.758C284.59 291.962 284.54 292.116 284.339 292.218C284.239 292.27 283.736 292.167 283.535 292.218C283.485 292.218 283.535 292.935 283.535 293.038C283.535 293.14 283.134 293.345 283.083 293.396C283.033 293.498 283.234 294.01 283.234 294.215C283.234 294.471 283.234 294.778 283.184 294.983C283.134 295.239 283.134 295.495 282.782 295.495C282.431 295.495 282.983 295.904 283.033 295.956C283.134 296.058 283.134 296.519 283.184 296.672C283.284 297.031 282.983 297.133 282.983 297.44C282.983 297.44 282.481 297.747 282.431 297.747C282.23 297.85 282.079 298.055 281.928 298.157C281.677 298.362 281.627 298.464 281.426 298.618C281.225 298.771 280.924 298.771 280.623 298.823C280.321 298.874 280.07 298.925 279.719 298.925C279.518 298.925 279.267 298.618 279.166 298.515C278.915 298.259 278.815 298.618 278.664 298.157C278.664 298.106 278.463 297.747 278.413 297.543C278.313 297.235 278.363 297.082 278.262 296.826C278.212 296.621 278.011 296.519 277.961 296.314C277.861 296.058 277.911 295.751 277.76 295.495C277.61 295.239 277.308 295.341 277.308 294.881C277.308 294.522 277.459 294.471 277.61 294.215C277.71 294.061 277.811 293.754 277.861 293.549C277.911 293.345 278.162 293.089 278.262 292.884C278.262 292.833 278.212 292.679 278.212 292.577L276.656 291.348C276.957 290.887 277.007 291.041 277.459 291.348C277.71 291.502 277.911 291.502 278.212 291.45C278.463 291.399 278.413 290.785 278.413 291.297C278.413 291.655 278.313 291.246 278.664 291.143C279.267 290.939 279.217 290.99 278.714 291.297C278.614 291.348 279.267 291.553 279.116 291.041C279.016 290.785 278.614 291.041 278.714 290.631C278.765 290.478 279.669 290.683 279.719 290.683C279.97 290.734 280.171 290.375 280.472 290.375C280.723 290.375 281.075 290.273 281.426 290.273C281.677 290.273 282.129 290.171 282.33 290.119C282.732 290.017 282.883 290.017 283.134 289.863C283.335 289.761 283.033 289.147 282.983 289.096C282.883 288.84 283.837 289.096 283.887 289.096C284.289 289.147 284.339 288.737 284.389 288.584C284.49 288.225 284.54 288.123 284.891 287.969C285.293 287.816 285.394 287.56 285.394 287.201C285.394 286.689 285.594 286.536 285.695 286.126C285.745 285.819 285.645 285.717 285.896 285.41C286.197 285.102 286.348 285 286.549 284.693C286.699 284.437 286.699 284.232 286.699 283.925C286.699 283.618 286.8 283.618 286.498 283.413L286.699 283.925Z" fill="#D3D3D3"/>
<path id="MP" d="M317.132 282.952L317.684 282.594L318.136 282.287L317.132 282.952ZM317.182 285.819L318.186 286.843L318.086 285.87L317.182 285.819ZM319.492 288.84L320.145 290.529L320.798 288.84H319.492ZM322.104 292.218V293.908L323.108 294.266L323.459 292.577L322.104 292.218ZM326.473 296.519L325.619 298.106L325.92 299.078L327.376 299.693L327.979 298.72V297.133L326.473 296.519Z" fill="#D3D3D3"/>
<path id="PR" d="M278.815 268.362L279.267 267.287L280.121 267.491L280.974 268.157L284.64 268.618L288.306 268.413H289.813L291.118 268.874L291.972 268.208H293.027L295.588 268.413L298.149 269.078L299.003 269.949H300.509L300.71 271.28L300.509 272.15L298.802 272.355L297.747 272.816L297.295 273.891L296.643 274.966L295.337 275.631H292.776H290.616L289.562 275.171H287.402L286.348 274.71L284.64 275.171H282.481L281.426 274.3L280.121 274.761L278.413 274.966L278.212 273.891L278.664 273.225L279.116 272.15L278.664 270.819L276.957 269.488L277.61 269.027L278.815 268.362ZM302.267 274.3L301.313 274.607L303.171 275.222L305.682 274.607L306.285 273.635L304.728 273.942L302.267 274.3ZM306.636 272.099L305.883 271.638L306.988 270.87L307.289 271.638L306.636 272.099Z" fill="#D3D3D3"/>
<path id="VI" d="M317.584 265.239L316.831 265.802L315.927 266.365L316.127 267.133L317.031 267.491L318.337 267.287L318.889 268.208H319.793L320.346 267.645L322.355 267.287L323.259 267.082L324.012 266.519L323.66 265.751H322.555L319.994 265.188H317.584V265.239ZM324.815 265.956L324.665 266.468L325.117 266.724L326.121 266.621L326.824 266.979L327.376 266.877L327.527 266.263L328.23 265.751L328.381 265.239L327.828 264.983L326.975 265.239L325.97 264.881L325.518 265.239L325.368 265.751L324.815 265.956ZM322.154 276.399L323.459 276.041L324.263 276.194L325.418 275.529L325.92 275.683L326.221 276.194L326.724 277.014L327.728 276.502L328.23 276.86L330.39 276.553L330.641 277.781L329.737 278.191H328.08L325.317 279.01L324.162 278.857L322.204 279.164L321.551 278.857L321.049 279.164L319.743 279.317C319.743 279.317 318.99 279.061 319.593 278.652C320.597 277.986 320.095 276.809 320.095 276.809L322.154 276.399Z" fill="#D3D3D3"/>
<path id="CO" d="M183.901 117.491L165.823 115.7L126.099 111.297L124.995 122.611L121.479 148.413L120.525 155.427L137.6 157.423L156.432 159.676L173.858 161.212L181.039 161.519L183.901 117.491Z" fill="#D3D3D3"/>
</g>
</g>
</svg>
