<svg width="914" height="586" viewBox="0 0 914 586" fill="none" xmlns="http://www.w3.org/2000/svg">
<g id="Group">
<path id="HI" d="M53 474.2L54.9 470.6L57.2 470.3L57.5 471.1L55.4 474.2H53ZM63.2 470.5L69.3 473.1L71.4 472.8L73 468.9L72.4 465.5L68.2 465L64.2 466.8L63.2 470.5ZM93.9 480.5L97.6 486L100 485.7L101.1 485.2L102.6 486.5L106.3 486.3L107.3 484.8L104.4 483L102.5 479.3L100.4 475.7L94.6 478.6L93.9 480.5ZM114.1 489.4L115.4 487.5L120.1 488.5L120.7 488L126.8 488.6L126.5 489.9L123.9 491.4L119.5 491.1L114.1 489.4ZM119.4 494.6L121.3 498.5L124.4 497.4L124.7 495.8L123.1 493.7L119.4 493.4V494.6ZM126.4 493.4L128.7 490.5L133.4 492.9L137.8 494L142.2 496.7V498.6L138.6 500.4L133.8 501.4L131.4 499.9L126.4 493.4ZM143 509L144.6 507.7L148 509.3L155.6 512.9L159 515L160.6 517.4L162.5 521.8L166.5 524.4L166.2 525.7L162.3 528.9L158.1 530.4L156.6 529.8L153.5 531.6L151.1 534.8L148.8 537.7L147 537.5L143.4 534.9L143.1 530.4L143.7 528L142.1 522.3L140 520.5L139.8 517.9L142.1 516.9L144.2 513.8L144.7 512.8L143.1 511L143 509Z" fill="#D3D3D3"/>
<path id="AL" d="M614.5 460.4L615.1 460.6L616.4 457.9L617.9 453.5L620.2 454.1L623.3 460.1V461.1L620.6 463L623.3 463.3L628.5 460.8L628.2 453.2L625.7 451.4L623.7 449.4L624.1 445.4L634.6 443.9L660.3 441L667 440.4L672.6 440.5L672.1 438.3L670.6 437.5L669.7 436.4L670.7 433.8L670.3 428.6L668.7 424.1L669.5 419L671.2 414.2L671 412.5L669.2 411.8L668.7 408.2L666 404.8L664 398.3L662.6 391.6L660.8 386.6L657 370.6L653.5 362.7L652.7 357.1L652.8 354.9L643.8 355.7L620.4 357.9L608.2 358.7L608 365.1L608.2 381.8L607.5 412.8L607.2 426.9L610 445.7L611.6 460.4H614.5Z" fill="#D3D3D3"/>
<path id="AR" d="M573.3 340.1L566.9 339.4L567.8 336.3L570.9 333.7L571.5 331.4L569.7 328.5L537.8 329.7L514.5 330.4L490.9 330.7L492.4 337.6L492.5 346.1L493.9 357L494.2 395.2L496.3 396.8L499.3 395.6L502.2 396.8L502.6 406.9L527.8 406.7L554.6 405.9L555.5 404L555.2 400.2L553.5 397.1L555 395.7L553.6 393.5L554.3 391.1L555.4 385.2L558.1 382.9L557.3 380.7L561.3 375.1L563.8 374L563.7 372.3L563.2 370.6L566.1 364.8L568.6 363.7L568.8 360.4L570.9 359L571.8 354.9L570.4 350.9L574.6 348.5L574.9 346.4L576.1 342.2L577 339.1L573.3 340.1Z" fill="#D3D3D3"/>
<path id="AZ" d="M121.1 383.7L120.8 385.2L121.3 386.2L140.2 396.9L152.3 404.5L167 413.1L183.8 423.1L196.1 425.5L221.5 428.2L227.5 388.6L234.5 335.5L238.9 304.5L214.3 300.9L153.6 289.9L153.4 291L150.8 307.5L148.7 311.3L145.9 311.1L144.7 308.5L142.1 308.1L140.9 307L139.8 307.1L137.7 308.8L137.4 315.6L137.1 317.1L136.6 329.6L135.1 332L134.7 335.3L137.5 340.3L138.6 345.8L139.3 346.9L140.4 347.8L140 350.2L138.3 351.4L134.9 353L133.3 354.8L131.7 358.4L131.2 363.3L128.2 366.2L126.3 367.1L126.2 372.9L125.6 374.5L126.1 375.3L130 375.7L129.1 378.7L127.4 381.1L123.7 381.5L121.1 383.7Z" fill="#D3D3D3"/>
<path id="CA" d="M108.7 379.9L89 377.2L79 375.7L78.5 373.9V364.5L78.2 361.3L75.6 357.1L74.8 354.8L70.9 350.6L68 345.9L65.3 345.7L62.1 344.9L61.8 343.9L63.3 343.3L62.7 340.1L61.2 338L56.4 337.2L52.5 335.1L51.4 332.8L48.8 328L45.9 324.9H43L39.1 322.8L34.6 321L30.4 320.5L28 317.8L28.5 315.9L30.3 308.8L31.1 306.9V304.5L29.5 303.5L29 300.6L27.5 298L24.1 292.2L22.8 289.1L21.3 284.4L19.7 279.1L16.5 274.7L16 271.8L16.8 267.9H17.9L20 266.3L21.1 262.7L20.1 260L17.4 259.5L15.5 256.9L13.4 253.2L13.2 245L13.8 243.1L14.4 240.8L14.9 238.4L9.2 232.1V230L9.5 229.5L9.8 226.3L8.5 222.3L6.2 217.5L3.5 213L1.7 209.1L2.7 205.4L3.3 199.6L5.1 196.5L5.4 190L4.3 186.4L2.7 182.2L0 178L0.8 174.8L2.3 170.6L4.1 169.8L4.4 168.7L7.5 166.1L12.7 154.3L12.9 146.9L14.59 142L53.28 153.8L78.88 160.4L70.88 191.7L62.21 224.8L74.84 244L117 306.3L134.1 332.4L133.7 335.5L136.5 340.7L137.6 346.1L138.6 347.6L139.3 348.2L139.1 349.6L137.7 350.6L134.3 352.2L132.4 354.3L130.7 358.2L130.2 362.9L127.6 365.4L125.3 366.5L125.2 372.7L124.6 374.6L125.6 376.3L128.6 376.6L128.2 378.2L126.8 380.2L122.9 380.8L108.7 379.9ZM34.8 331L36.1 332.5L35.9 333.8L32.7 333.7L32.1 332.5L31.5 331H34.8ZM36.7 331L37.9 330.4L41.5 332.5L44.6 333.7L43.7 334.3L39.2 334.1L37.6 332.5L36.7 331ZM57.4 350.8L59.2 353.1L60 354.1L61.5 354.7L62.1 353.2L61.1 351.4L58.4 349.4L57.3 349.6V350.8H57.4ZM56 359.5L57.8 362.7L59 364.6L57.5 364.8L56.2 363.6C56.2 363.6 55.5 362.1 55.5 361.7V359.5H56Z" fill="#D3D3D3"/>
<path id="CT" d="M838 184.9L841.6 181.7L843.5 179.6L844.3 180.2L847 178.7L852.2 177.6L859.2 174.1L858.6 169.9L857.8 165.5L856.2 159.5L851.9 160.6L830.1 165.3L830.7 168.4L832.2 175.7V184L831.3 186.1L833 188.3L838 184.9Z" fill="#D3D3D3"/>
<path id="DE" d="M820.4 241.2L819.4 241.7L815.8 239.3L814 234.6L812.1 231L809.8 230L807.7 226.4L808.2 224.4L808.7 222.1L808.8 221L808.2 221.1L806.5 222.1L804.5 223.8L804.3 224.1L805.7 228.2L808 233.8L811.7 249.9L816.7 249.6L822.7 248.5L820.4 241.2Z" fill="#D3D3D3"/>
<path id="FL" d="M736.2 439.2L731 438.5L730.3 439.3L731.8 443.7L731.4 448.9L727.3 447.9L727.1 445.1H723L717.7 445.8L685.3 447.7L677.1 447.4L675.4 445.7L672.9 441.5H667L660.4 442L625 446.2L624.7 449L626.3 450.6L629.2 452.6L629.5 461L632.8 460.4L638.8 458.3L644.8 457.8L649.2 457.2L656.8 459L664.9 462.9L666.5 464.4L669.4 465.5L671 467.4L671.3 470.1L674.5 468.8H678.4L682 466.9L685.7 463.3L688.8 463.5L689.3 462.4L688.5 461.4L688.7 459.5L692.7 458.7H695.3L698.2 460.2L702.4 461.7L704.8 465.4L707.5 466.4L708.6 469.8L712 471.4L713.6 474L715.5 474.6L720.7 475.9L722 479L725 482.7V492.2L723.5 496.9L723.8 499.6L725.1 504.4L726.9 508.4L727.7 507.9L729.2 503.4L726.6 502.4L726.3 501.8L727.9 501.2L732.4 502.2L732.6 503.8L729.4 509.3L727.3 511.7L730.9 515.4L733.5 518.5L736.4 523.8L739.3 527.7L741.4 532.7L743.2 533L744.8 530.9L746.6 532L749.2 536L749.8 539.6L752.9 544L753.7 542.7L757.6 543L761.2 545.3L764.6 550.5L765.4 553.9L765.7 556.8L766.8 557.8L768.1 558.3L770.5 557.3L772 555.7L775.9 555.5L779 554L781.7 550.8L781.2 548.9L780.9 546.5L781.5 544.6L781.2 542.7L783.6 541.4L783.9 538L783.3 536.2L782.8 524.2L781.5 516.6L777 508.4L773.4 502.6L770.8 497.3L767.9 494.4L765 487L765.7 485.6L766.8 484.3L765.2 481.4L761.2 477.7L756.4 472.2L752.7 465.9L747.4 456.5L743.7 446.8L741.4 439.5L736.2 439.2ZM753.9 571.9L756.3 571.3L757.6 571.1L759.1 568.8L761.4 567.2L762.7 567.7L764.4 568L764.8 569.1L761.3 570.3L757.1 571.8L754.8 573L753.9 571.9ZM767.4 566.9L768.6 568L771.3 565.9L776.6 561.7L780.3 557.8L782.8 551.2L783.8 549.5L784 546.1L783.3 546.6L782.3 549.4L780.8 554L777.6 559.3L773.2 563.5L769.8 565.4L767.4 566.9Z" fill="#D3D3D3"/>
<path id="GA" d="M736.2 438.2L730.6 437.5L729.2 439.1L730.8 443.8L730.5 447.7L728.3 447.1L728.1 444.1H722.9L717.6 444.8L685.3 446.7L677.6 446.4L676.2 445.2L673.7 440.9L672.9 437.6L671.3 436.7L670.8 436.2L671.7 434L671.3 428.5L669.7 424L670.5 419.1L672.2 414.3L672 411.8L670.1 411.1L669.7 407.9L666.9 404.4L665 398.2L663.5 391.2L661.8 386.4L658 370.4L654.5 362.4L653.7 357.1L653.8 354.8L657.1 354.5L670.7 352.9L689.3 350.9L695.6 349.8L696.1 351.2L693.9 352.1L693 354.3L693.4 356.3L694.8 357.9L699.1 360.6L702.3 360.5L705.5 365.2L706.1 366.8L708.4 369.6L708.9 371.3L713.6 373.1L716.6 375.3L718.9 378.3L721.2 379.6L723.2 381.4L724.6 384.1L726.7 386L730.8 387.8L733.5 393.8L735.2 398.9L738 399.6L740.1 401.5L742.1 407.2L745 408.8L746.7 408L747.1 409.2L743.8 415.4L744.3 418L742.8 422.2L740.5 432.2L741.3 438.5L736.2 438.2Z" fill="#D3D3D3"/>
<path id="IA" d="M542.8 177.6L544.9 179.7L545.2 180.4L543.2 183.4L543.5 187.4L546.1 191.5L549.2 193.1L551.6 193.4L552.5 195.2L552.7 197.6L555.2 198.6L556.1 199.7L556.6 201.3L560.4 204.6L561 206.5L560.3 209.5L558.6 213.2L558 215.6L555.9 217.2L554.3 217.7L548.6 219.2L547 224L547.8 225.8L549.5 227.3L549.3 230.8L547.4 232.2L546.7 234V236.4L545.3 236.8L543.6 238.2L543.1 239.9L543.5 241.6L542.2 242.6L539.9 239.9L538.5 237.1L530.2 237.9L520.2 238.5L471 239.7L469.4 235.4L469 228.7L467.6 224.5L466.9 219.3L464.7 215.6L463.7 211L461 203.2L459.9 197.6L458.5 195.7L457.2 192.8L458.9 189L460.1 182.9L457.4 180.7L457.1 178.3L457.8 175.9L459.6 175.6L520.7 175L541.9 174.3L542.8 177.6Z" fill="#D3D3D3"/>
<path id="ID" d="M161.3 21.63L156.5 39.04L152 59.9L148.6 76.12L148.2 85.79L149.4 90.23L152.9 92.89L152.7 96.8L148.8 101.2L144.3 107.8L143.4 110.7L142.2 111.8L140.4 112.6L136.1 117.9L135.7 121L135.3 122.1L135.9 123.1L138.5 123L139.6 125.3L137.2 131.1L136 135.3L127.2 170.6L147.9 175.1L187.4 183L222.2 189.1L227.1 159.9L230.9 135.8L228.2 133.4L227.8 130.8L227 129.7L224.9 130.7L224.2 133.3L221 133.8L217.1 132.2L213.3 132.3L210.8 133L207.4 131.5L205 131.7L202.6 133.7L200.6 132.6L199.9 128.6L200.6 125.7L198.1 122.8L194.8 120.2L192.1 107.1L192 102.4L191.7 102.3L191.5 102.7L186.4 106.2L184.7 106L181.8 102.6L181.6 99.5L188.6 82.37L188.2 80.43L184.8 79.28L184.2 78.1L181.6 74.64L177 64.41L173.8 62.88L171.8 57.93L173.1 53.3L169.9 45.72L174.3 24.2L161.3 21.63Z" fill="#D3D3D3"/>
<path id="IL" d="M604.7 208.3L603.9 205.7L602.6 202L601 200.2L599.5 197.6L599.1 192.1L583.2 193.9L565.8 194.9H553.5L553.7 197L555.9 197.9L557 199.3L557.4 200.7L561.3 204.1L562 206.5L561.3 209.8L559.6 213.5L558.8 216.2L556.4 218.1L554.5 218.7L549.3 220L548 224.1L548.6 225.2L550.5 227L550.3 231.3L548.2 232.9L547.7 234.2V237L545.9 237.6L544.5 238.8L544.1 240L544.5 242L542.9 243.3L542 246.1L542.3 250L544.6 257L551.6 264.6L557.3 268.3V272.7L558 273.9L564.6 274.5L567.3 275.9L566.6 279.4L564.4 285.6L563.6 288.6L565.6 292.3L572 297.6L576.8 298.4L579 303.5L581 306.9L580.1 309.7L581.6 313.5L583.3 315.6L584.9 315.3L585.9 313.1L588.3 311.4L591.1 310.4L597.2 312.9L597.7 312.7V311.6L596.5 308.9L596.9 306.1L599.3 304.5L602.7 303.3L602.2 302L601.4 300L602.6 298.7L603.6 296V292L604 287.1L606.5 284.1L608.3 280.3L610.8 276.3L610.3 271L608.5 267.8L608.2 264.5L609 259.2L608.3 252L607.2 236.2L605.8 220.9L604.9 209.2L604.7 208.3Z" fill="#D3D3D3"/>
<path id="IN" d="M608.9 210.1L610.4 211.1L611.5 210.8L613.6 208.9L616.1 207.1L630.4 206L648.8 204.2L650.4 219.7L655.3 262.3L654.7 265.2L656 266.8L656.2 268.1L653.9 269.7L650.3 271.4L647.1 271.8L646.6 276.6L641.9 280.2L639 284.2L639.2 286.6L638.7 288H635.2L633.8 286.3L628.6 289.3L628.8 292.4L627.9 292.6L627.4 291.7L625 290L621.4 291.5L620 294.4L618.8 293.8L617.2 292L612.8 292.5L607.1 293.5L604.6 294.8V292.2L605 287.5L607.3 284.6L609.1 280.7L611.8 276.5L611.3 270.7L609.5 267.6L609.2 264.4L610 259.1L609.3 252L608.4 239.4L605.9 209.3L608.9 210.1Z" fill="#D3D3D3"/>
<path id="KS" d="M471.9 253.5L428.1 252.9L387.5 251.7L365.8 250.8L361.5 315.6L385.8 316.6L430.5 318.7L476.8 319.3L489.4 319L490.1 284L488.9 272.9L486.4 270.9L484 267.9L481.7 264.3L482.3 261.3L484 259.9V257.8L483.2 257.1L480.6 256.9L477.1 253.5H471.9Z" fill="#D3D3D3"/>
<path id="KY" d="M593.2 325.8L605.8 325.1L605.9 321H610.2L640.6 317.8L685.7 313.5L691.3 309.9L695.2 307.8L695.3 305.9L701.3 298.1L705.4 294.5L707.5 292.1L704.2 290.1L701.7 287.4L698.7 283.6L698.2 281.4L695.6 280L694.7 278.1L694.5 272L691.9 270L690 268.9L689.5 266.6L688.2 266.8L686.2 268L683.7 270.7L681.8 269L679.3 268.5L676.9 269.9H674.6L672.8 267.9L667.2 267.8L665.4 263.3L662.5 261.8L660.4 262.6L656.2 262.8L655.7 264.9L656.9 266.4L657.2 268.5L654.4 270.5L650.6 272.3L648 272.7L647.5 277.2L642.6 280.8L640 284.5L640.2 286.7L639.3 289L634.8 288.9L633.5 287.6L629.6 289.8L629.8 293.1L627.4 293.7L626.6 292.3L624.9 291.1L622.2 292.2L620.4 295.7L618.2 294.7L616.8 293.1L613.1 293.5L607.5 294.5L604.7 295.8L603.5 299.2L602.5 300.2L604 303.9L599.8 305.3L597.9 306.7L597.5 308.9L598.7 311.3V313.5L597.1 313.9L591 311.4L588.7 312.3L586.7 313.7L585.9 315.5L587.6 317.9L586.7 319.7L586.6 323L584.2 324.3L582.1 326L593.2 325.8Z" fill="#D3D3D3"/>
<path id="LA" d="M512.9 479.9L521 479.6L531.3 483.2L537.8 484.3L541.5 482.8L544.7 483.9L547.9 484.9L548.7 482.8L545.5 481.7L542.9 482.2L540.2 480.6L541 479.1L544.1 478.1L545.9 479.6L547.7 478.6L550.9 479.2L552.4 481.6L552.7 483.9L557.2 484.2L559 486L558.2 487.6L556.9 488.4L558.5 490L566.9 493.6L570.5 492.3L571.5 489.9L574.1 489.3L575.9 487.8L577.2 488.8L578 491.7L575.7 492.5L576.3 493.1L579.7 491.8L582 488.4L582.8 487.9L580.7 487.6L581.5 486L581.3 484.5L583.4 484L584.5 482.7L585.1 483.5L585.7 486.6L589.9 487.2L593.9 489.1L594.9 490.6H597.8L598.9 491.6L601.2 488.5V487H599.9L596.5 484.3L590.7 483.5L587.5 481.2L588.6 478.5L590.9 478.8L591.1 478.2L589.3 477.2V476.7H592.5L594.3 473.6L593 471.7L592.7 469L591.2 469.2L589.3 471.3L588.7 473.9L585.6 473.3L584.6 471.5L586.4 469.6L588.3 467.9L586.1 461.4L582.7 458L583.7 450.7L583.5 450.2L582.2 450.4L549.1 451.8L548.3 449.4L549.1 440.9L557.7 426.1L556.8 423.5L558.2 423.1L558.6 421.1L556.4 419.1L556.5 417.2L554.5 412.7L554.1 407.6L554.2 406.9L527.8 407.7L502.6 407.8L503 417.5L503.7 427L504.2 430.7L506.8 435.2L507.7 439.6L512 445.6L512.3 448.7L512.9 449.5L512.2 457.8L509.4 462.4L510.6 464.8L510.1 467.4L509.3 474.7L508 477.7L508.2 481.4L512.9 479.9Z" fill="#D3D3D3"/>
<path id="MA" d="M873.5 166.5L873 164.2L873.8 162.7L876.7 161.2L877.5 164.3L877 166.1L874.6 167.6V168.6L876.5 167.1L880.4 162.6L884.3 160.7L888.5 159.2L888.2 156.8L887.2 153.9L885.3 151.5L883.5 150.7L881.4 150.9L880.9 151.4L881.9 152.7L883.4 151.9L885.5 153.5L886.3 156.2L884.5 158L882.2 159L878.6 158.5L874.7 152.5L872.4 149.9H870.6L869.5 150.7L867.6 148.1L867.9 146.6L870.3 141.4L867.4 137L863.7 138.8L861.9 141.7L843.6 146.4L829.8 148.9L829.2 159.5L829.9 164.4L851.9 159.6L863.1 156.8L865.1 158.4L868.5 162.7L871.4 167.4L873.5 166.5ZM886 167.9L888.2 167.2L888.7 165.5L889.7 165.6L890.7 167.9L889.4 168.4L885.5 168.5L886 167.9ZM876.6 168.7L878.9 166.1H880.5L882.3 167.6L879.9 168.6L877.7 169.6L876.6 168.7Z" fill="#D3D3D3"/>
<path id="MD" d="M820.8 258.1L822.5 254.3L823 249.5L816.7 250.6L810.9 250.9L807.1 234.1L804.8 228.6L803.3 224L781.1 228.3L743.5 235.9L745.5 246.3L750.3 241.4L752.8 240.7L754.2 239.2L756 236.5L757.6 237.2L760.2 237L762.8 234.9L764.8 233.4L766.9 232.8L768.4 233.9L771.1 235.3L773 237.1L774.3 238.5L779.1 240.1L778.5 243L784.3 245.1L786.4 242.5L790.1 245L788 248.3L787.3 251.6L785.5 254.2V256.3L785.8 257.1L787.8 258.4L791.2 259.5L795.5 259.4L798.6 260.4L800.7 260.7L801.7 258.6L800.2 256.5V254.7L797.8 252.6L795.7 247.1L797 241.8L796.8 239.7L795.5 238.4C795.5 238.4 797 236.8 797 236.1C797 235.5 797.5 234 797.5 234L799.4 232.7L801.3 231.1L801.8 232.1L800.3 233.7L799 237.4L799.3 238.5L801.1 238.8L801.6 244.3L799.5 245.3L799.8 248.9L800.3 248.7L801.4 246.8L803 248.6L801.4 249.9L801.1 253.3L803.7 256.7L807.6 257.2L809.2 256.4L812.4 260.6L813.4 261L820.8 258.1ZM806.3 258.3L807.4 260.8L807.6 262.6L808.7 264.5C808.7 264.5 809.6 263.6 809.6 263.3C809.6 263 808.9 260.2 808.9 260.2L808.2 257.9L806.3 258.3Z" fill="#D3D3D3"/>
<path id="ME" d="M851.8 85.9L853.3 86.3V83.7L854.1 78.2L856.7 73.5L858.2 69.5L856.3 67.1V61.1L857.1 60.1L857.9 57.4L857.7 55.9L857.5 51.1L859.3 46.3L862.2 37.4L864.3 33.2H865.6L866.9 33.4V34.5L868.2 36.8L870.9 37.4L871.7 36.6V35.6L875.7 32.7L877.5 30.9L879 31.1L885 33.5L886.9 34.5L896 64.4H902L902.8 66.3L903 71.1L905.9 73.4H906.7L906.9 72.9L906.4 71.8L909.2 71.3L911.1 73.4L913.4 77.1V79L911.3 83.7L909.4 84.3L906 87.4L901.2 92.9H899.9C899.3 92.9 898.9 90.8 898.9 90.8L897.1 91L896.1 92.5L893.7 94L892.7 95.5L894.3 97L893.8 97.6L893.3 100.3L891.4 100.1V98.5L891.1 97.2L889.6 97.5L887.8 94.3L885.7 95.6L887 97.1L887.3 98.2L886.5 99.5L886.8 102.6L887 104.2L885.4 106.8L882.5 107.3L882.2 110.2L876.9 113.3L875.6 113.8L874 112.3L870.9 115.9L871.9 119.1L870.4 120.4L870.2 124.8L869.1 131.1L866.9 130.2L866.4 127.1L862.4 126L862.2 123.5L850.5 86.07L851.8 85.9ZM888.3 101.5L889.8 100L891.2 101.1L891.8 103.5L890.1 104.4L888.3 101.5ZM895 95.6L896.8 97.5C896.8 97.5 898.1 97.6 898.1 97.3C898.1 97 898.3 95.3 898.3 95.3L899.2 94.5L898.4 92.7L896.4 93.4L895 95.6Z" fill="#D3D3D3"/>
<path id="MI" d="M630.5 205L649.6 203.1L649.8 204.2L659.7 202.7L671.7 201L671.8 200.4L672 198.9L674.1 195.2L676.1 193.5L675.9 188.4L677.5 186.8L678.6 186.5L678.8 182.9L680.3 179.9L681.4 180.5L681.6 181.1L682.4 181.3L684.3 180.3L683.9 171.2L680.7 163L678.4 153.9L676 150.7L673.4 148.9L671.8 150L667.9 151.8L666 156.8L663.3 160.5L662.2 161.1L660.7 160.5C660.7 160.5 658.1 159 658.3 158.4C658.5 157.8 658.8 153.4 658.8 153.4L662.2 152.1L663 148.7L663.6 146.1L666 144.5L665.7 134.5L664.1 132.2L662.8 131.4L662 129.3L662.8 128.5L664.4 128.8L664.6 127.2L662 125L660.7 122.4H658.1L653.6 120.9L648.1 117.5H645.4L644.8 118.1L643.8 117.6L640.7 115.3L637.8 117.1L634.9 119.4L635.2 123L636.2 123.3L638.3 123.8L638.8 124.6L636.2 125.4L633.6 125.7L632.1 127.5L631.8 129.6L632.1 131.2L632.4 136.7L628.8 138.8L628.2 138.6V134.4L629.5 132L630.1 129.6L629.3 128.8L627.4 129.6L626.4 133.8L623.7 134.9L621.9 136.8L621.7 137.8L622.3 138.6L621.7 141.2L619.4 141.7V142.8L620.2 145.2L619.1 151.3L617.5 155.3L618.1 160L618.6 161.1L617.8 163.5L617.5 164.3L617.2 167L620.8 173L623.7 179.5L625.2 184.3L624.4 189L623.4 195L621 200.2L620.7 202.9L617.5 206L630.5 205ZM597.2 132.6L595.9 131.5L594.1 121.1L590.4 119.8L588.7 117.5L576.1 114.7L573.3 113.6L565.2 111.4L557.4 110.4L553.5 105.1L554.2 104.6L556.9 103.8L560.5 101.5V100.5L561.1 99.9L567.1 98.9L569.5 97L573.9 94.9L574.1 93.6L576 90.7L577.8 89.9L579.1 88.1L581.4 85.8L585.8 83.4L590.5 82.9L591.6 84L591.3 85L587.6 86L586.1 89.1L583.8 89.9L583.3 92.3L580.9 95.5L580.6 98.1L581.4 98.6L582.4 97.5L586 94.6L587.3 95.9H589.6L592.8 96.9L594.3 98L595.8 101.1L598.5 103.8L602.4 103.6L603.9 102.6L605.5 103.9L607.1 104.4L608.4 103.6H609.5L611.1 102.6L615.1 99L618.5 97.9L625.1 97.6L629.6 95.7L632.2 94.4L633.7 94.6V100.3L634.2 100.6L637.1 101.4L639 100.9L645.1 99.3L646.2 98.2L647.7 98.7V105.7L650.9 108.8L652.2 109.4L653.5 110.4L652.2 110.7L651.4 110.4L647.7 109.9L645.6 110.5L643.3 110.3L640.1 111.8H638.3L632.5 110.5L627.3 110.7L625.4 113.3L618.4 113.9L616 114.7L614.9 117.8L613.6 118.9L613.1 118.7L611.6 117.1L607.1 119.5H606.5L605.4 117.9L604.6 118.1L602.7 122.5L601.7 126.5L598.5 133.4L597.2 132.6ZM567.6 76.1L569.4 74L571.6 73.2L577 69.3L579.3 68.7L579.8 69.2L574.7 74.3L571.4 76.2L569.3 77.1L567.6 76.1ZM653.8 108.2L654.4 110.7L657.6 110.9L658.9 109.7C658.9 109.7 658.8 108.2 658.5 108.1C658.2 107.9 656.9 106.2 656.9 106.2L654.7 106.4L653.1 106.6L652.8 107.7L653.8 108.2Z" fill="#D3D3D3"/>
<path id="MN" d="M450.6 60.79L450 64.7V74.97L451.6 80L453.5 83.32L454 93.25L455.8 106.7L457.6 114L458 120.4V125.7L456.4 127.5L454.6 128.8V130.3L455.5 132L459.6 135.5L460.3 138.7V174.6L520.6 174L541.8 173.3L541.3 167.3L539.5 165.2L532.3 160.6L528.7 155.3L525.3 154.4L523.3 151.6H520.1L516.6 147.8L516.1 140.8L516.2 136.9L517.7 133.9L517 131.2L514.2 128.1L516.4 122L521.8 118L523 116.6L522.8 108.6L523 105.6L525.6 102.6L529.4 99.7L530.7 99.5L535.2 94.5L537 93.7L539.3 89.8L541.7 86.2L544.8 83.6L549.6 81.6L558.8 77.5L562.7 75.7L563.3 73.4L558.9 73.8L558.2 74.9H557.6L555.8 71.8L546.9 72.1L545.9 72.9H544.9L544.4 71.6L543.6 69.8L541 70.3L537.8 73.5L536.2 74.3H533.1L530.5 73.3V71.2L529.2 71L528.7 71.5L526.1 70.2L525.6 67.3L524.1 67.8L523.6 68.8L521.2 68.3L515.9 65.9L512 63.3H509.1L507.8 62.3L505.5 62.9L504.4 64L504.1 65.3H499.3V63.2L493 62.9L492.7 61.4H487.9L486.3 59.8L484.8 53.7L484 48.2L482.1 47.4L479.8 46.9L479.2 47.1L478.9 55.3L448.8 55.27L450.6 60.79Z" fill="#D3D3D3"/>
<path id="MO" d="M579.1 332.7L579.6 326.8L583.8 323.4L585.7 322.4V319.5L586.4 317.9L585.3 316.3L582.9 316.6L580.8 314.1L579.1 309.6L580 307L578 303.8L576.2 299.2L571.6 298.5L564.8 292.9L562.6 288.7L563.4 285.4L565.6 279.4L566.2 276.4L564.3 275.4L557.4 274.8L556.3 272.9V268.8L551 265.3L543.8 257.5L541.5 250.2L541 246L541.7 243.6L539.1 240.5L537.9 238.1L530.2 238.9L520.2 239.5L471.4 240.7L472.7 243.3L472.6 245.5L474.9 249.1L477.9 253L481 256L483.6 256.2L485 257.3V260.2L483.2 261.8L482.7 264.1L484.8 267.3L487.2 270.3L489.8 272.4L491.1 284L490.3 324L490.8 329.7L514.5 329.5L537.8 328.8L570.3 327.5L572.5 331.2L571.7 334.3L568.6 336.8L568.1 338.6L573.3 339.1L577.4 338L579.1 332.7Z" fill="#D3D3D3"/>
<path id="MS" d="M590.3 466.5L592.9 462.3L594.7 463.1L601.5 461.2L603.6 461.5L605.1 462.3H610.3L610.7 460.7L609 445.9L606.2 426.9L607.2 381.8L607 365.1L607.2 358.8L602.4 359.1L582.8 360.7L569.8 361.1L569.6 364.3L566.8 365.6L564.2 370.7L564.7 372.3L564.8 374.7L561.9 375.8L558.4 380.9L559.2 383.2L556.2 385.7L555.2 391.4L554.6 393.3L556.2 395.8L554.7 397.2L556.2 400L556.5 404.2L555.3 406.7L555.1 407.6L555.5 412.6L557.5 417.1L557.4 418.8L559.7 420.8L559 423.9L558.1 424.2L558.7 426.1L550.1 441.1L549.3 449.3L549.8 450.8L574 450.1L582.2 449.4L584.1 449.1L584.7 450.5L583.7 457.6L587 460.9L589.2 467.3L590.3 466.5Z" fill="#D3D3D3"/>
<path id="MT" d="M347.1 64.77L341.8 121.9L340.5 137.1L281.4 130.5L232.4 123.4L231 134.6L229.1 132.9L228.7 130.4L227.4 128.5L224.1 130L223.4 132.5L221.1 132.8L217.3 131.2L213.2 131.3L210.8 132L207.6 130.5L204.6 130.7L202.5 132.6L201.6 132L200.9 128.6L201.6 125.4L198.9 122.2L195.6 119.7L193.1 107.1L193 101.8L191.4 101L190.8 102L186.3 105.2L185.1 105.1L182.8 102.3L182.6 99.5L189.6 82.35L189 79.68L185.5 78.56L185.1 77.65L182.4 74.15L177.8 63.74L174.6 62.16L172.8 57.9L174.1 53.27L170.9 45.7L175.3 24.41L208 31.3L226.4 34.7L258.7 40L288 44L317.2 47.5L348 50.57L347.1 64.77Z" fill="#D3D3D3"/>
<path id="NC" d="M772.7 351.7L760 344L756.9 343.2L740.3 345.3L738.7 342.3L735.9 340.1L719.2 340.6L711.8 341.5L702.6 346L695.8 348.7L689.3 349.9L675.9 351.3L676 347.2L677.7 345.9L680.4 345.2L681.1 341.4L685 338.9L688.9 337.4L693.4 333.7L697.8 331.4L698.5 328.2L702.6 324.4L703.3 325.4L705.8 325.6L708.2 322L709.9 321.6L712.5 321.9L714.3 317.9L716.8 315.5L717.3 313.7L717.4 310.2L721.8 310.3L760.3 304.7L817.8 292.4L819.8 297.2L823.4 303.7L825.8 306.1L826.4 308.4L824 308.6L824.8 309.2L824.5 313.4L821.9 314.7L821.3 316.8L820 319.7L816.3 321.3L813.9 321L812.4 320.8L810.8 319.5L811.1 320.8V321.8H813L813.8 323.1L811.9 329.4H816.1L816.7 331L819 328.7L820.3 328.2L818.4 331.8L815.3 336.6H814L812.9 336.1L810.2 336.7L805 339.1L798.5 344.4L795.1 349.1L793.2 355.6L792.7 358L788 358.5L782.9 360L772.7 351.7ZM822 325.5L824.6 323L827.8 320.4L829.3 319.8L829.5 317.8L828.9 311.7L827.4 309.4L826.8 307.5L827.5 307.3L830.2 312.8L830.6 317.2L830.4 320.6L827 322.1L824.2 324.5L823.1 325.7L822 325.5Z" fill="#D3D3D3"/>
<path id="ND" d="M457 120.4L456.6 114.2L454.8 106.9L453 93.29L452.5 83.59L450.6 80.41L449 75.09V64.68L449.6 60.83L447.8 55.29L419.2 54.7L400.6 54.1L374.1 52.8L348.9 50.64L348 65.06L343.3 116L400.1 119.9L457 121.6V120.4Z" fill="#D3D3D3"/>
<path id="NE" d="M456.3 198.3L455.3 196L454.8 194.4L451.9 192.8L447.1 191.3L444.9 190.1L442.3 190.2L438.6 190.6L434.4 191.8L428.4 187.7L426.2 185.7L415.5 186.3L374 183.9L338.4 181.7L334.1 225.4L367.2 228.7L365.8 249.8L387.5 250.8L428.1 252L471.9 252.6H476.4L474.2 249.6L471.6 245.7L471.7 243.4L470.3 240.7L468.4 235.5L468 228.8L466.6 224.7L466.1 219.7L463.8 216L462.8 211.3L460 203.4L459 198.1L456.3 198.3Z" fill="#D3D3D3"/>
<path id="NH" d="M867.7 135.3L868.8 132.1L866.1 130.9L865.6 127.8L861.5 126.7L861.2 123.7L849.5 86.22L848.8 86.3L848.2 87.9L847.6 87.4L846.6 86.4L845.1 88.3L844.9 90.59L845.4 99L847.3 101.8V106.1L843.4 110.9L841 111.8V112.5L842.1 114.4V123L841.3 132.2L841.1 136.9L842.1 138.3L841.9 143L841.4 144.5L842.4 145.6L847.5 144.4L861.3 140.9L863 138L867 136.1L867.7 135.3Z" fill="#D3D3D3"/>
<path id="NJ" d="M809.7 222.3L809.8 220.8L812.5 219.5L814.2 216.7L815.9 214.3L819.2 211.1V209.9L813.1 205.8L812.1 203.1L809.4 202.8L809.3 201.9L808.6 199.7L810.8 198.6L811 195.7L809.7 194.4L809.9 193.2L811.8 190.1V187L814.3 183.9L819.9 186.4L826.3 188.3L828.8 189.5L828.9 191.3L828.4 194L828.8 198.5L826.7 200.4L825.6 201.4L826.1 201.9L828.8 201.6L829.9 200.8L831.5 204.2L831.7 213.6L832.3 214.7L831.2 220.2L828.1 226.7L825.4 230.7L824.6 235.5L822.5 237.9H821.7L821.4 235.2L822.2 234.2L822 232.7L818 232.1L813.2 229.8L810 226.9L809 224.9L809.7 222.3Z" fill="#D3D3D3"/>
<path id="NM" d="M256.2 423.4L239.5 420.8L238.3 430.4L222.5 428.4L228.5 388.7L235.5 335.5L239.9 304.6L273.9 308.5L311.3 312.9L343.3 315.7L343 326.5L341.6 326.4L334.2 424.1L305.8 422.3L267.7 418.6L268.4 424.9L256.2 423.4Z" fill="#D3D3D3"/>
<path id="NV" d="M109.1 167.6L147.8 176.1L173.8 181.3L163.2 234.4L157.8 264.2L154.5 279.7L152.4 290.8L149.8 307.2L148.1 310.3L146.5 310.2L145.3 307.6L142.5 307.1L141.2 306L139.4 306.1L138.5 306.9L136.7 308.2L136.4 315.5L136.1 317L135.6 329.4L134.5 331.2L117.8 305.7L75.7 243.6L63.27 224.6L71.82 192L79.83 160.7L109.1 167.6Z" fill="#D3D3D3"/>
<path id="NY" d="M829.4 194L829.9 191.3L829.7 188.9L826.7 187.4L820.2 185.4L814.2 182.8L813.6 182.4L810.9 182.1L808.9 180.6L806.8 174.7L803.5 174.2L801.1 171.8L762.7 179.9L731.1 185.9L730.6 179.4L732.2 178.2L733.5 177.1L734.5 175.5L736.3 174.4L738.2 172.6L738.7 171L740.8 168.3L741.9 167.3L741.7 166.3L740.4 163.2L738.6 163L736.7 156.9L739.6 155.1L744 153.6L748 152.3L751.2 151.8L757.5 151.6L759.4 152.9L761 153.1L763.1 151.8L765.7 150.7L770.9 150.2L773 148.4L774.8 145.2L776.4 143.3H778.5L780.4 142.2L780.6 139.9L779.1 137.8L778.8 136.3L779.9 134.2V132.7H778.1L776.3 131.9L775.5 130.8L775.3 128.2L781.1 122.7L781.7 121.9L783.2 119L786.1 114.5L788.8 110.8L790.9 108.4L793.3 106.6L796.4 105.4L801.9 104.1L805.1 104.3L809.6 102.8L817 100.6L817.7 105.5L820.1 112L820.9 117L819.9 121.2L822.5 125.7L823.3 127.7L822.4 130.9L826.1 132.6L828.8 142.8V148.6L828.2 159.5L829 164.9L829.7 168.5L831.2 175.8V183.9L830.1 186.2L832.2 188.9L832.7 189.8L830.8 191.6L831.1 192.9L832.4 192.6L833.9 191.3L836.2 188.7L837.3 188.1L838.9 188.7L841.2 188.9L849.1 185L852 182.3L853.3 180.8L857.5 182.4L854.1 186L850.2 188.9L843.1 194.2L840.5 195.2L834.7 197.1L830.7 198.2L829.7 197.8L829.4 194Z" fill="#D3D3D3"/>
<path id="OH" d="M649.8 205.2L651.5 220.7L656.3 261.8L660.2 261.6L662.5 260.8L666.1 262.6L667.8 266.8L673.2 266.9L675 268.9H676.7L679.1 267.5L682.2 268L683.7 269.3L685.5 267.3L687.8 265.9L690.2 265.5L690.8 268.2L692.4 269.2L695 271.2L695.8 271.4L697.8 271.3L699 270.7V268.6L700.7 267.1L700.8 262.3L701.9 258.1L703.8 256.8L704.8 257.5L705.8 258.6L706.5 258.8L706.9 258.4L706 255.7V253.5L707.1 252.1L709.6 248.5L710.9 247L713.1 247.5L715.2 246L718.2 242.7L720.4 239L720.6 233.6L721.1 228.6V224L719.9 220.8L721.1 219L722.4 217.8L721.8 215L717.5 189.4L711.3 193.1L707.4 195.4L704 199.1L700 203L696.8 203.8L693.9 204.3L688.4 206.9L686.3 207.1L682.9 204L677.7 204.6L675.1 203.1L672.9 201.8L649.8 205.2Z" fill="#D3D3D3"/>
<path id="OK" d="M397.9 328.9L396.1 353.2L395.2 371.2L395.4 372.8L399.4 376.4L401.1 377.3H402L402.9 375.2L404.4 377.1L406 377.2L406.3 377L406.5 375.9L409.3 377.3L408.9 380.8L412.7 381.3L415.2 382.3L419.4 382.9L421.7 384.5L424.2 382.8L427.7 383.5L429.9 386.6L431.1 386.7V389L433.2 389.7L435.7 387.6L437.5 388.2L440.2 388.3L440.9 390.6L445.3 392.4L447 392.1L448.9 387.9H450.2L451.3 390L455.5 390.8L458.9 392.1L461.9 392.9L463.5 392.2L464.2 389.5H468.7L470.6 390.4L473.3 388.5H474.7L475.3 389.9H478.9L480.9 388.1L483.2 388.7L484.9 390.9L487.9 392.6L491.3 393.5L493.2 394.7L492.9 357.1L491.5 346.2L491.4 337.6L489.9 331L489.3 324.2L489.4 319.9L476.8 320.2L430.5 319.7L385.8 317.6L344.3 315.8L343.9 326.5L397.9 328.9Z" fill="#D3D3D3"/>
<path id="OR" d="M53.44 152.9L81.68 160.1L109.2 166.6L126.2 170.3L135 135.2L136.2 130.8L138.6 125.3L137.9 124L135.4 124.1L134.1 122.3L134.7 120.8L135.1 117.5L139.8 111.8L141.7 110.9L142.6 110.1L143.3 107.4L144.1 106.3L148 100.6L151.7 96.6L151.9 93.34L148.5 90.85L147.3 86.3L134.2 82.47L118.9 79L104.1 79.37L103 78.06L97.9 79.9L93.4 79.42L91 77.84L89.7 78.38L85.02 78.09L83.06 76.66L78.22 74.89L77.12 74.82L72.67 73.55L70.91 75.07L64.65 74.83L59.34 70.98L59.55 61.7L57.5 58.2L53.4 57.6L52.7 55.1L50.3 54.6L44.5 56.7L42.2 63.2L39 73.2L35.8 79.7L30.8 93.8L24.3 107.4L16.2 120L14.3 122.9L13.5 131.5L12.2 137.5L14.91 141L53.44 152.9Z" fill="#D3D3D3"/>
<path id="PA" d="M722.6 186.2L723.9 185.7L729.6 180.2L730.3 187.1L763.8 180.6L800.7 172.8L803 175.1L806.1 175.5L808.1 181.1L810.5 183L813.3 183.4L813.4 183.5L810.8 186.7V189.8L808.9 192.9L808.7 194.8L810 196.1L809.8 198L807.4 199.1L808.4 202.5L808.6 203.6L811.4 203.9L812.3 206.4L818.2 210.3V210.7L815.1 213.7L813.6 215.9L811.9 218.7L809.2 219.9L807.8 220.2L805.7 221.5L804.1 222.9L781.7 227.2L743 235L731.7 236.4L727.8 237.1L722.7 214.7L718.4 188.8L722.6 186.2Z" fill="#D3D3D3"/>
<path id="RI" d="M859.6 169.7L858.8 165.3L857.2 159.3L862.9 157.8L864.4 159.1L867.8 163.4L870.6 167.8L867.8 169.2L866.5 169L865.4 170.8L863 172.7L860.2 173.8L859.6 169.7Z" fill="#D3D3D3"/>
<path id="SC" d="M745 407.6L742.9 406.6L741 401L738.5 398.7L736 398.2L734.5 393.6L731.5 387.1L727.3 385.3L725.4 383.5L724.2 380.9L721.8 378.9L719.5 377.6L717.3 374.7L714.1 372.3L709.7 370.6L709.3 369.2L707 366.4L706.5 364.9L702.7 359.5L699.3 359.6L695.4 357.1L694.2 355.9L694 354.5L694.6 352.9L697.3 351.6L696.5 349.6L702.9 346.9L712.1 342.4L719.2 341.5L735.6 341L737.9 342.9L739.7 346.4L744.3 345.6L756.9 344.1L759.6 344.9L772.1 352.3L782.2 360.6L776.9 366L774.3 372.1L773.8 378.4L772.2 379.2L771.1 381.9L768.7 382.5L766.6 386.1L763.9 388.8L761.6 392.2L760 393L756.4 396.4L753.5 396.6L754.5 399.8L749.5 405.1L747.2 406.7L745 407.6Z" fill="#D3D3D3"/>
<path id="SD" d="M457 175.1L456.1 178.3L456.5 181.3L459.1 183.3L457.9 188.7L456.1 192.8L457.6 196.1L458.3 197.2L457 197.3L456.3 195.7L455.7 193.7L452.4 191.9L447.6 190.4L445.1 189.1L442.2 189.2L438.3 189.6L434.5 190.8L429.2 187L426.5 184.6L415.6 185.4L374.1 183L338.5 180.8L340 156L342.8 122L343.2 117L400.1 120.9L457 122.6V125.3L455.7 126.8L453.7 128.3L453.6 130.5L454.7 132.7L458.8 136.1L459.3 138.8V174.7L457 175.1Z" fill="#D3D3D3"/>
<path id="TN" d="M656.8 353.6L643.7 354.8L620.4 357L582.8 359.7L571 360.1L571.9 359.5L572.8 355L571.6 351.4L575.5 349.1L575.9 346.6L577.1 342.3L580.1 332.8L580.6 327.2L580.9 327L593.2 326.8L606.8 326L606.9 322.1L610.4 322L640.8 318.7L694.8 313.5L705.1 312L712.7 311.8L715.1 309.9L716.4 310.2L716.3 313.5L715.9 315.1L713.5 317.3L711.9 320.9L709.9 320.5L707.5 321.4L705.3 324.7L703.9 324.5L703.1 323.3L702 323.7L697.7 327.7L696.9 330.8L692.7 333L688.4 336.6L684.6 338.1L680.2 340.9L679.6 344.5L677.1 345L675.1 346.7L674.9 351.5L656.8 353.6Z" fill="#D3D3D3"/>
<path id="TX" d="M268.8 419.6L305.8 423.2L335.1 425.1L342.5 327.4L396.9 329.8L395.2 353.1L394.2 371.1L394.4 373.1L398.8 377.2L400.8 378.3H402.6L403.1 377.1L403.8 378L406.2 378.2L407.3 377.6V377.4L408.3 377.9L407.9 381.6L412.4 382.3L414.8 383.2L419 383.9L421.6 385.7L424.4 383.8L427.1 384.4L429.3 387.5L430.1 387.6V389.7L433.4 390.8L435.9 388.7L437.4 389.2L439.5 389.3L440.1 391.4L445.3 393.4L447.6 392.9L449.5 388.9H449.6L450.7 390.8L455.3 391.7L458.7 393L461.9 394L464.3 392.8L465 390.5H468.6L470.7 391.5L473.7 389.5H474.1L474.6 390.9H479.3L481.2 389.1L482.5 389.5L484.2 391.6L487.5 393.5L490.9 394.5L493.4 395.9L496.1 397.9L499.2 396.7L501.3 397.5L502 417.5L502.7 427L503.3 431.1L505.9 435.5L506.8 440L511 445.9L511.3 449L511.9 449.8L511.2 457.5L508.3 462.3L509.6 464.9L509.1 467.3L508.3 474.5L507 477.5L507.3 481.7L501.7 483.3L491.8 487.8L490.8 489.7L488.2 491.6L486.1 493.1L484.8 493.9L479.1 499.2L476.4 501.3L471.1 504.5L465.4 506.9L459.1 510.3L457.3 511.8L451.5 515.4L448.1 516L444.2 521.5L440.2 521.8L439.2 523.7L441.5 525.6L440 531.1L438.7 535.6L437.6 539.5L436.8 544L437.6 546.4L439.4 553.4L440.4 559.5L442.2 562.2L441.2 563.7L438.1 565.6L432.4 561.7L426.9 560.6L425.6 561.1L422.4 560.5L418.2 557.4L413 556.3L405.4 552.9L403.3 549L402 542.5L398.8 540.6L398.2 538.3L398.8 537.7L399.1 534.3L397.8 533.7L397.2 532.7L398.5 528.3L396.9 526L393.7 524.7L390.3 520.3L386.7 513.7L382.5 511.1L382.7 509.2L377.4 496.9L376.6 492.7L374.8 490.8L374.6 489.3L368.6 484L366 480.9V479.8L363.4 477.7L356.6 476.6L349.2 476L346.1 473.7L341.6 475.5L338 477L335.7 480.2L334.7 483.9L330.3 490L327.9 492.4L325.3 491.4L323.5 490.3L321.6 489.7L317.7 487.4V486.8L315.9 484.9L310.7 482.8L303.3 475L301 470.3V462.2L297.8 455.7L297.3 453L295.7 452L294.6 449.9L289.6 447.8L288.3 446.2L281.2 438.3L279.9 435.1L275.2 432.8L273.7 428.4L271.1 425.5L269.4 425L268.8 419.6ZM443.2 561.3L442.6 554.2L439.9 547L439.3 540L440.8 531.8L444.1 524.9L447.6 519.5L450.8 515.9L451.4 516.1L446.6 522.7L442.2 529.2L440.2 535.8L439.9 541L440.8 547.1L443.4 554.3L443.9 559.5L444.1 561L443.2 561.3Z" fill="#D3D3D3"/>
<path id="UT" d="M214.4 299.9L239 303.5L240.9 289.8L247.9 239.3L250.2 217.3L218 213.8L220.2 200.7L222 190.1L187.3 184L174.8 181.5L164.2 234.4L158.8 264.4L155.5 279.8L153.8 289L214.4 299.9Z" fill="#D3D3D3"/>
<path id="VA" d="M820.7 259.2L820.5 262L817.6 265.8L817.2 270.4L817.7 273.8L815.9 278.8L813.7 280.7L812.2 276.1L812.6 270.7L814.2 266.5L814.9 263.2L814.8 261.5L820.7 259.2ZM760.4 303.8L721.8 309.4L717 309.3L714.8 309L712.3 310.9L705 311L694.7 312.6L688 313.2L692.1 310.6L696.2 308.3V306.2L701.9 298.9L706 295.2L708.2 292.7L711.8 297L715.6 297.9L718.3 296.9L720.3 295.4L722.7 296.6L727.3 295.3L729 290.9L731.4 291.6L734.6 289.3L736.2 289.7L739 286.5L739.2 283.8L738.4 282.6L743.2 272.1L745 266.9L745.5 262.2L746.2 262L747.3 263.7L748.8 264.9L752.7 264.7L754.4 256.6L757.4 256L758.2 253.4L761 251.2L762.1 249.1L763.9 244.8L764 240.2L767.6 241.6L774.2 244.7L774.5 239.5L777.9 240.7L777.3 243.6L785.9 246.7L787.3 248.5L786.5 251.8L785.2 253.1L784.7 254.8L785.2 257.2L787.2 258.5L791.1 259.9L794 260.9L798.9 261.8L801.1 263.9L804.3 264.3L805.2 265.5L804.8 270.2L806.2 271.3L805.7 273.2L806.9 274L806.7 275.4L804 275.3L804.1 276.9L806.4 278.4L806.5 279.8L808.3 281.6L808.8 284.1L806.2 285.5L807.8 287L813.6 285.3L817.3 291.5L760.4 303.8Z" fill="#D3D3D3"/>
<path id="VT" d="M818.7 105.3L821.1 111.8L821.9 117.1L820.9 121L823.4 125.4L824.3 127.7L823.6 130.3L826.9 131.8L829.8 142.6V147.9L841.3 145.8L840.3 144.7L840.9 142.8L841.1 138.5L840.1 137.1L840.3 132.4L841.1 123.1V114.6L840 112.8V111.2L842.8 110.1L846.3 105.7V102.1L844.4 99.4L844.1 93.61L818 100.4L818.7 105.3Z" fill="#D3D3D3"/>
<path id="WA" d="M60.5 61.7L58.2 57.4L54.1 56.7L53.7 54.3L51.2 53.7L48.3 53.2L46.5 54.2L44.2 51.3L44.5 48.4L47.2 48.1L48.8 44.1L46.2 43L46.4 39.3L50.8 38.7L48.1 36L46.6 28.9L47.2 26V18.1L45.4 14.9L47.7 5.49999L49.8 5.99999L52.2 8.89999L54.9 11.5L58.1 13.4L62.6 15.5L65.7 16.1L68.6 17.6L72 18.6L74.3 18.4V16L75.6 14.9L77.7 13.6L78 14.7L78.3 16.5L76 17L75.7 19.1L77.5 20.6L78.6 23L79.2 24.9L80.7 24.7L80.9 23.4L79.9 22.1L79.4 18.9L80.2 17.1L79.6 15.6V13L81.4 9.39999L80.3 6.79999L77.9 1.99999L78.2 1.19999L79.6 0.399994L84 1.89999L93.7 4.59999L102.3 6.49999L122.3 12.2L145.3 17.9L160.3 21.39L155.5 38.95L151 59.78L147.6 76.03L147.2 85.21L134.3 81.49L119 78.02L104.5 78.34L103.4 76.81L97.7 78.9L93.8 78.48L91.2 76.69L89.5 77.34L85.35 77.09L83.63 75.77L78.47 73.95L77.29 73.79L72.49 72.4L70.57 74.05L64.92 73.8L60.31 70.45L60.5 61.7ZM70.1 6.29999L72.1 6.09999L72.6 7.49999L74.1 5.89999H76.4L77.2 7.39999L75.7 9.09999L76.3 9.89999L75.6 11.9L74.2 12.3C74.2 12.3 73.3 12.4 73.3 12.1C73.3 11.8 74.8 9.49999 74.8 9.49999L73.1 8.89999L72.8 10.4L72.1 11L70.6 8.69999L70.1 6.29999Z" fill="#D3D3D3"/>
<path id="WI" d="M527.4 103.9L530.3 104.4L533.2 103.8L540.6 100.6L543.5 98.7L545.6 97.9L547.5 99.4L546.4 100.5L544.5 103.6L543.9 105.5L544.9 106.1L546.7 105.1L547.8 104.9L550.5 105.7L551.1 106.8L552.2 107L552.8 105.9L556.8 111.2L565 112.4L573.2 114.6L575.8 115.7L588.1 118.3L589.7 120.6L593.3 121.8L595 132L596.6 133.4L598.1 134.3L597 136.6L595.2 138.2L593.1 142.9L591.8 145.3L592 147.1L593.5 147.4L594.6 145.5L596.1 144.7L596.9 142.4L598.8 140.6L601.5 136.6L605.7 130.3L606.5 129.8L606.8 130.8L606.6 133.1L603.7 139.9L601 145.6L600.5 148.8L599.9 151.4L600.7 152.7L600.5 155.4L598.6 157.8L598.1 159.6L598.7 163.2L599.3 166.6L597.8 169.2L597 172.1L596 175.2L597.1 177.6L597.7 183.7L599.3 188.2L599.1 191.2L583.2 193L565.7 194H553L552.3 192.5L549.4 192.1L546.8 190.8L544.5 187.1L544.2 183.5L546.2 180.6L545.7 179.2L543.6 177L542.8 173.7L542.2 166.9L540.1 164.4L533.1 159.9L529.3 154.5L525.9 153.5L523.7 150.7H520.5L517.6 147.4L517.1 140.9L517.2 137.1L518.7 134L517.9 130.8L515.4 128L517.2 122.6L522.4 118.8L524 116.9L523.8 108.8L524 106L526.4 103.2L527.4 103.9Z" fill="#D3D3D3"/>
<path id="WV" d="M744.9 248.3L750.7 242.3L753.3 241.5L754.9 240L756.4 237.8L757.5 238.1L760.6 237.9L765.2 234.3L766.7 233.8L768 234.8L770.6 236L773.6 239L773.2 243.3L767.8 240.7L763 238.9L762.9 244.8L760.3 250.5L757.4 252.9L756.6 255.2L753.6 255.7L751.9 263.8L749.1 264L748 263L746.8 261L744.6 261.5L744.1 266.6L742.3 271.7L737.3 282.7L738.2 284.1L738.1 286.1L735.9 288.6L734.3 288.2L731.2 290.5L728.4 289.7L726.6 294.6L722.8 295.6L720.3 294.3L717.8 296.2L715.5 296.9L712.3 296.1L708.5 291.6L705 289.4L702.5 286.9L699.6 283.2L699.1 280.9L696.3 279.2L695.7 277.9L695.5 272.3L695.8 272.4L698.2 272.2L700 271.2V269L701.7 267.5L701.8 262.3L702.7 258.7L703.8 258L704.2 258.3L705.2 259.4L706.9 259.9L708 258.6L707 255.5V253.9L710.1 249.3L711.3 248L713.3 248.5L715.9 246.7L719 243.3L721.4 239.2L721.6 233.6L722.1 228.8V223.9L721 220.9L721.9 219.6L722.7 218.9L727 238.2L731.3 237.4L742.5 236.1L744.9 248.3Z" fill="#D3D3D3"/>
<path id="WY" d="M339 155.9L337.5 181.3L333.1 225.3L330.4 225L247.1 215.9L219.2 212.9L221.2 200.9L228.1 159.9L231.9 135.7L233.2 124.5L281.4 131.5L340.5 138L339 155.9Z" fill="#D3D3D3"/>
<path id="AS" d="M595.5 576.5C595.7 576.4 596 575.9 596.2 575.6C596.5 575.1 595.9 575 596.6 574.9C596.9 574.8 597.3 575.3 597.4 575.4C597.6 575.6 597.8 575.8 597.9 575.3C598 575.1 598.6 574.4 598.8 574.2C599.1 574 599.4 574 599.7 573.7C599.9 573.5 600.2 573.3 600.4 573.1C600.7 572.8 600.8 572.7 601 572.4C601.2 572.1 601.4 571.9 601.6 571.7C602 571.3 600.6 571.5 600 571.5C599.8 571.5 600.3 570.9 600.3 570.7C600.4 570.3 600.5 570.3 600.9 570.2C601.5 570.1 601.5 570.3 601.5 570.8C601.5 571.1 602 570.4 602 570.1C602.1 569.7 602.4 569.5 602.7 569.4C603 569.2 603.4 569.2 603.6 569C604 568.8 604 568.8 603.9 568.5C603.8 568.3 604 567.9 603.9 567.6C603.8 567.1 604.4 567.5 604.1 567C604 566.8 603.3 566.6 603.2 566.6C602.8 566.4 602.5 566.5 602.1 566.3C601.7 566.1 601.8 566 602 565.7C602.1 565.6 603 565.7 603.1 565.8C603.5 565.9 603.9 565.9 604.3 565.9C604.8 565.9 605.1 565.9 605.5 566.1C605.8 566.2 605.7 566.5 605.7 567C605.7 567.5 605.6 567.7 606 567.8C606.5 567.9 606.7 567.8 607 567.6C607.1 567.5 608.1 567.4 608.2 567.4C608.6 567.3 608.9 567.2 609.1 567C609.4 566.7 609.8 566.5 610 566.4C610.3 566.1 610.6 566.1 610.9 566C611.4 565.9 611.6 566.2 611.8 566.4C612 566.6 611.9 567.1 611.9 567.4C611.9 567.6 613.3 567.1 613.4 567C613.8 566.8 614.1 566.9 614.3 566.6C614.7 566.3 614.4 566 615 566.2C615.4 566.3 615.7 566.1 616.1 566C616.5 565.9 616.4 565.7 616.4 565.2C616.4 564.8 616.4 564.5 616.4 564.1C616.4 563.6 616.1 563.7 615.7 563.6C615.4 563.5 614.9 563.7 614.8 563.9C614.5 564.2 614.4 564.1 614.3 564.5C614.2 564.9 614.1 565 613.8 565.1C613.6 565.2 613.3 564.7 612.9 564.7C612.5 564.7 612.3 564.5 612 564.3C611.7 564.1 611.4 564.1 610.9 564.1C610.7 564.1 610.5 564.5 610.1 564.6C609.8 564.7 609.2 564.6 609.1 564.6C608.8 564.6 609.5 563.8 609.5 563.8C609.9 563.6 610.5 563.8 609.6 563.5C609.3 563.4 608.8 563.6 608.4 563.6C607.8 563.6 607.8 563.7 607.8 564.2C607.8 564.7 607.5 564.6 607 564.6C606.7 564.6 606.8 564 606.5 563.9C606 563.8 606.1 564.2 605.9 563.5C605.8 563.2 605.3 563.5 605 563.7C604.8 563.9 604.3 563.6 604.8 563.5C605.3 563.4 604.6 562.9 604.3 562.9C603.8 562.9 603.9 563.2 603.6 563.5C603.3 563.8 603 563.6 602.8 564.1C602.7 564.3 602.2 564.4 601.9 564.5C601.5 564.7 601.2 564.8 600.9 565C600.4 565.2 599.8 565.1 599.3 565.1C599 565.1 599.5 565.6 599.5 565.9C599.5 566.3 599.5 566.6 599.5 567C599.5 567.6 599.4 567.4 598.9 567.6C598.6 567.7 598.4 567.3 598 567.3C597.5 567.3 597.4 567.5 597.4 567.9C597.4 568.4 597 568.1 596.6 568.3C596.2 568.5 595.8 568.6 595.8 568.1C595.8 567.7 595.4 567.7 595 567.6C594.5 567.5 594.5 567.9 594.1 568.1C593.7 568.3 593.3 568.2 592.9 568.4C592.8 568.4 592.6 567.9 592.4 567.8C592 567.7 591.4 567.9 591.1 567.9C590.6 568 590.9 568.3 590.3 568.3C589.9 568.3 589.5 568.4 589.3 568.5C589.1 568.6 589.7 568.9 588.8 568.9C588.2 568.9 588.1 569 587.9 569.3C587.7 569.7 587.9 569.9 587.2 570C587 570 586.6 570.5 586.6 570.6C586.5 570.9 585.6 570.9 586.3 571C586.7 571.1 587 571.1 587.5 571.2C587.9 571.3 588.3 571.4 588.6 571.6C588.9 571.7 589.5 571.6 589.7 571.5C590.1 571.4 590.1 571.3 590.6 571.5C590.9 571.6 590.9 572 591.1 572.1C591.4 572.2 592.2 572.2 592.5 572.2C592.6 572.2 592.6 573.1 592.7 573.2C592.8 573.4 592.9 573.8 592.9 574.1C592.9 574.2 593.6 574.5 593.8 574.6C594 574.8 594.3 574.9 594.6 575C595 575.1 595.2 575.1 595.5 575.3C595.7 575.8 595.4 576.2 595.5 576.5Z" fill="#D3D3D3"/>
<path id="GU" d="M570.9 554.6H571C571.4 554.6 571.8 554.7 572.3 554.8C572.9 554.9 573.1 555.6 573.6 555.7C574.1 555.9 574.2 556.3 574.6 556.6C574.7 556.7 574.8 556.9 574.9 556.9C575.6 557.5 574.1 558.1 575.8 557.7C575.8 557.7 577.1 558.2 577.3 558.2C577.9 558.3 578.6 558.3 579.1 558.4C579.7 558.5 578.5 559.3 578.2 559.8C577.9 560.2 578.1 560.9 578.1 561.4C578.1 562 578 562.4 577.8 562.8C577.7 563.3 577.3 563.6 577 563.8C576.7 564.1 576.1 564.3 575.6 564.4C575 564.5 575 564.9 574.1 564.9C573.7 564.9 573.6 565.9 573.5 566.2C573.1 566.8 572.4 566.2 572.1 567C571.9 567.5 571.6 567.5 571.2 567.8C570.8 568.1 570.3 568.3 569.9 568.4C569.3 568.7 568.9 568.9 568.1 568.9C567.8 568.9 567.2 569.8 567.1 569.9C566.7 570.3 566.6 570.6 566.2 570.8C566 570.9 565 570.7 564.6 570.8C564.5 570.8 564.6 572.2 564.6 572.4C564.6 572.6 563.8 573 563.7 573.1C563.6 573.3 564 574.3 564 574.7C564 575.2 564 575.8 563.9 576.2C563.8 576.7 563.8 577.2 563.1 577.2C562.4 577.2 563.5 578 563.6 578.1C563.8 578.3 563.8 579.2 563.9 579.5C564.1 580.2 563.5 580.4 563.5 581C563.5 581 562.5 581.6 562.4 581.6C562 581.8 561.7 582.2 561.4 582.4C560.9 582.8 560.8 583 560.4 583.3C560 583.6 559.4 583.6 558.8 583.7C558.2 583.8 557.7 583.9 557 583.9C556.6 583.9 556.1 583.3 555.9 583.1C555.4 582.6 555.2 583.3 554.9 582.4C554.9 582.3 554.5 581.6 554.4 581.2C554.2 580.6 554.3 580.3 554.1 579.8C554 579.4 553.6 579.2 553.5 578.8C553.3 578.3 553.4 577.7 553.1 577.2C552.8 576.7 552.2 576.9 552.2 576C552.2 575.3 552.5 575.2 552.8 574.7C553 574.4 553.2 573.8 553.3 573.4C553.4 573 553.9 572.5 554.1 572.1C554.1 572 554 571.7 554 571.5L550.9 569.1C551.5 568.2 551.6 568.5 552.5 569.1C553 569.4 553.4 569.4 554 569.3C554.5 569.2 554.4 568 554.4 569C554.4 569.7 554.2 568.9 554.9 568.7C556.1 568.3 556 568.4 555 569C554.8 569.1 556.1 569.5 555.8 568.5C555.6 568 554.8 568.5 555 567.7C555.1 567.4 556.9 567.8 557 567.8C557.5 567.9 557.9 567.2 558.5 567.2C559 567.2 559.7 567 560.4 567C560.9 567 561.8 566.8 562.2 566.7C563 566.5 563.3 566.5 563.8 566.2C564.2 566 563.6 564.8 563.5 564.7C563.3 564.2 565.2 564.7 565.3 564.7C566.1 564.8 566.2 564 566.3 563.7C566.5 563 566.6 562.8 567.3 562.5C568.1 562.2 568.3 561.7 568.3 561C568.3 560 568.7 559.7 568.9 558.9C569 558.3 568.8 558.1 569.3 557.5C569.9 556.9 570.2 556.7 570.6 556.1C570.9 555.6 570.9 555.2 570.9 554.6C570.9 554 571.1 554 570.5 553.6Z" fill="#D3D3D3"/>
<path id="MP" d="M631.5 552.7L632.6 552L633.5 551.4L631.5 552.7ZM631.6 558.3L633.6 560.3L633.4 558.4L631.6 558.3ZM636.2 564.2L637.5 567.5L638.8 564.2H636.2ZM641.4 570.8V574.1L643.4 574.8L644.1 571.5L641.4 570.8ZM650.1 579.2L648.4 582.3L649 584.2L651.9 585.4L653.1 583.5V580.4L650.1 579.2Z" fill="#D3D3D3"/>
<path id="PR" d="M555.2 524.2L556.1 522.1L557.8 522.5L559.5 523.8L566.8 524.7L574.1 524.3H577.1L579.7 525.2L581.4 523.9H583.5L588.6 524.3L593.7 525.6L595.4 527.3H598.4L598.8 529.9L598.4 531.6L595 532L592.9 532.9L592 535L590.7 537.1L588.1 538.4H583H578.7L576.6 537.5H572.3L570.2 536.6L566.8 537.5H562.5L560.4 535.8L557.8 536.7L554.4 537.1L554 535L554.9 533.7L555.8 531.6L554.9 529L551.5 526.4L552.8 525.5L555.2 524.2ZM601.9 535.8L600 536.4L603.7 537.6L608.7 536.4L609.9 534.5L606.8 535.1L601.9 535.8ZM610.6 531.5L609.1 530.6L611.3 529.1L611.9 530.6L610.6 531.5Z" fill="#D3D3D3"/>
<path id="VI" d="M632.4 518.1L630.9 519.2L629.1 520.3L629.5 521.8L631.3 522.5L633.9 522.1L635 523.9H636.8L637.9 522.8L641.9 522.1L643.7 521.7L645.2 520.6L644.5 519.1H642.3L637.2 518H632.4V518.1ZM646.8 519.5L646.5 520.5L647.4 521L649.4 520.8L650.8 521.5L651.9 521.3L652.2 520.1L653.6 519.1L653.9 518.1L652.8 517.6L651.1 518.1L649.1 517.4L648.2 518.1L647.9 519.1L646.8 519.5ZM641.5 539.9L644.1 539.2L645.7 539.5L648 538.2L649 538.5L649.6 539.5L650.6 541.1L652.6 540.1L653.6 540.8L657.9 540.2L658.4 542.6L656.6 543.4H653.3L647.8 545L645.5 544.7L641.6 545.3L640.3 544.7L639.3 545.3L636.7 545.6C636.7 545.6 635.2 545.1 636.4 544.3C638.4 543 637.4 540.7 637.4 540.7L641.5 539.9Z" fill="#D3D3D3"/>
<path id="CO" d="M366.2 229.5L330.2 226L251.1 217.4L248.9 239.5L241.9 289.9L240 303.6L274 307.5L311.5 311.9L346.2 314.9L360.5 315.5L366.2 229.5Z" fill="#D3D3D3"/>
</g>
</svg>
